<svg xmlns="http://www.w3.org/2000/svg">
<defs>
<font id="9e0471e12289626111f5e9ff3111391d" horiz-adv-x='1024' >
  <font-face 
    font-family="BebasNeuePro-Italic"
    font-weight="400"
    font-style="italic"
    font-stretch="normal"
    units-per-em="2048"
    panose-1="2 11 5 6 2 2 2 12 2 1"
    ascent="1434"
    descent="-614"
    x-height="1030"
    cap-height="1434"
    bbox="-453 -424 1655 1864"
    underline-thickness="122"
    underline-position="-41"
    slope="-12"
    unicode-range="U+000D-FB02"
  />
<missing-glyph horiz-adv-x="1511" 
d="M1210 307h-32v33h32v-33zM1112 340v-33h-33v33h33zM981 373h66v65h-66v-65zM915 406h33v32h-33v-32zM453 471h102v-98h-102v98zM420 340h168v164h-168v-164zM981 537h33v-33h-33v33zM784 504h-32v33h32v-33zM387 537h234v-230h-234v230zM1145 471v33h33v65h32v-131h-32
v33h-33zM948 471h99v98h-99v-98zM1145 602h33v-33h-33v-32h-33v32h33v33zM752 569h-33v33h33v-33zM487 569h-34v33h34v-33zM981 635h-33v-33h33v33zM653 668v-66h33v33h33v-33h-33v-65h33v-66h-66v33h33v33h-33v32h-65v33h33v33h-66v33h98zM1210 635h-32v33h-33v32h33v33h32
v-98zM883 700h98v33h66v-65h98v-33h-98v-33h32v-65h33v-33h-33v-33h33v-33h66v-32h32v-33h-65v33h-66v-66h-65v-33h-33v33h-33v-33h-33v66h-32v-66h-66v33h-65v-33h-99v99h66v-66h33v33h32v65h-32v-32h-33v65h98v33h33v-66h-33v-32h66v98h32v33h-32v32h-33v-32h-33v65h-65
v33h-33v33h33v-33h32v65h-32v33h65v-33h33v-65h-33v-33h33v33h33v65zM387 733h33v-65h-33v65zM883 733h-33v33h33v-33zM686 668v98h33v-98h-33zM588 733h65v-33h-131v-65h33v-66h-33v33h-35v33h-34v-33h-66v33h66v33h34v32h35v33h33v33h33v-33zM784 799v-33h-32v33h32z
M817 831h33v-32h-33v32zM1210 766h-32v33h-33v65h65v-98zM915 799v-33h-32v98h32v-33h33v33h131v-33h33v-32h33v-33h-33v-33h-65v33h-66v-33h-33v66h33v32h-33v-32h-33zM453 831v-32h34v-33h35v-33h-35v33h-67v33h-33v65h100v-33h-34zM948 897h-33v33h33v-33zM1047 1061h98

<glyph glyph-name="fi" unicode="fi" horiz-adv-x="888" 
d="M682 0h-158l219 1030h158zM778 1178l45 221h156l-47 -221h-154zM555 1454q94 0 147 -33l-26 -131q-44 27 -96 27t-76 -25t-35 -80l-39 -182h186l-28 -131h-187l-190 -899h-158l193 899h-129l28 131h129l45 215q45 209 236 209z" />
    <glyph glyph-name="fl" unicode="fl" horiz-adv-x="888" 
d="M524 0l305 1434h158l-305 -1434h-158zM555 1454q94 0 147 -33l-26 -131q-44 27 -96 27t-76 -25t-35 -80l-39 -182h186l-28 -131h-187l-190 -899h-158l193 899h-129l28 131h129l45 215q45 209 236 209z" />
    <glyph glyph-name=".notdef" horiz-adv-x="1511" 
d="M1210 307h-32v33h32v-33zM1112 340v-33h-33v33h33zM981 373h66v65h-66v-65zM915 406h33v32h-33v-32zM453 471h102v-98h-102v98zM420 340h168v164h-168v-164zM981 537h33v-33h-33v33zM784 504h-32v33h32v-33zM387 537h234v-230h-234v230zM1145 471v33h33v65h32v-131h-32
v33h-33zM948 471h99v98h-99v-98zM1145 602h33v-33h-33v-32h-33v32h33v33zM752 569h-33v33h33v-33zM487 569h-34v33h34v-33zM981 635h-33v-33h33v33zM653 668v-66h33v33h33v-33h-33v-65h33v-66h-66v33h33v33h-33v32h-65v33h33v33h-66v33h98zM1210 635h-32v33h-33v32h33v33h32
v-98zM883 700h98v33h66v-65h98v-33h-98v-33h32v-65h33v-33h-33v-33h33v-33h66v-32h32v-33h-65v33h-66v-66h-65v-33h-33v33h-33v-33h-33v66h-32v-66h-66v33h-65v-33h-99v99h66v-66h33v33h32v65h-32v-32h-33v65h98v33h33v-66h-33v-32h66v98h32v33h-32v32h-33v-32h-33v65h-65
v33h-33v33h33v-33h32v65h-32v33h65v-33h33v-65h-33v-33h33v33h33v65zM387 733h33v-65h-33v65zM883 733h-33v33h33v-33zM686 668v98h33v-98h-33zM588 733h65v-33h-131v-65h33v-66h-33v33h-35v33h-34v-33h-66v33h66v33h34v32h35v33h33v33h33v-33zM784 799v-33h-32v33h32z
M817 831h33v-32h-33v32zM1210 766h-32v33h-33v65h65v-98zM915 799v-33h-32v98h32v-33h33v33h131v-33h33v-32h33v-33h-33v-33h-65v33h-66v-33h-33v66h33v32h-33v-32h-33zM453 831v-32h34v-33h35v-33h-35v33h-67v33h-33v65h100v-33h-34zM948 897h-33v33h33v-33zM1047 1061h98
v-98h-98v98zM453 1061h102v-98h-102v98zM1014 930h164v164h-164v-164zM420 930h168v164h-168v-164zM981 1126h229v-229h-229v229zM915 1126h33v-65h-33v65zM387 1126h234v-229h-234v229zM354 274h889v885h-889v-885zM154 0v1434h1290v-1434h-1290zM883 635v-33h32v33h-32z
M817 340h33v33h-33v-33zM588 766v33h33v32h32v-65h-65zM1079 831h-32v-32h32v32zM588 799h-66v32h33v33h66v-33h-33v-32zM883 864h-33v66h33v-66zM752 930v-33h32v33h33v-66h-65v-65h-66v32h-33v164h66v66h-66v65h33v-32h66v32h65v-32h33v32h33v-65h32v-33h-32v-65h-33v-33
h-33v98h-65v-33h32v-65h-32zM752 930v33h-66v-99h33v66h33zM752 1094v-33h32v33h-32z" />
    <glyph glyph-name=".null" horiz-adv-x="0" 
 />
    <glyph glyph-name="nonmarkingreturn" horiz-adv-x="681" 
 />
    <glyph glyph-name="CR" unicode="&#xd;" horiz-adv-x="333" 
 />
    <glyph glyph-name="space" unicode=" " horiz-adv-x="333" 
 />
    <glyph glyph-name="exclam" unicode="!" horiz-adv-x="405" 
d="M174 0h-162l45 207h162zM231 360h-120l65 402l141 674h164l-143 -674z" />
    <glyph glyph-name="quotedbl" unicode="&#x22;" horiz-adv-x="593" 
d="M575 1018h-88l52 416h163zM319 1018h-86l50 416h163z" />
    <glyph glyph-name="numbersign" unicode="#" 
d="M434 971l-133 -426h195l131 426h-193zM127 0h-123l139 436h-116l34 109h117l133 426h-118l32 108h121l111 357h123l-111 -357h193l112 357h121l-111 -357h115l-35 -108h-112l-134 -426h113l-35 -109h-112l-140 -436h-120l137 436h-195z" />
    <glyph glyph-name="dollar" unicode="$" 
d="M553 1266q-86 0 -134 -62t-48 -157q0 -121 151 -279q186 -194 186 -354t-90 -271q-92 -111 -245 -120l-27 -136h-133l31 146q-201 47 -201 248q0 49 10 96l21 88l149 -12l-20 -99q-4 -25 -4 -51q0 -133 155 -133q90 0 141 64q50 64 50 174t-152 266q-188 188 -188 351
t90 269t242 117l24 115h133l-26 -127q193 -43 192 -244q0 -45 -12 -98l-10 -45l-150 14l12 53q6 31 7 54q0 133 -154 133z" />
    <glyph glyph-name="percent" unicode="%" horiz-adv-x="1165" 
d="M731 164q0 -86 90 -86t115 106l76 357q4 37 4 39q0 88 -91 88t-116 -107l-74 -356q-4 -37 -4 -41zM825 -23q-98 1 -152 47t-55 132q0 39 9 69l71 340q47 203 224 203q98 0 151 -47t53 -131q0 -39 -8 -70l-71 -340q-48 -203 -222 -203zM236 850q0 -86 92 -86t112 106
l76 355q6 20 6 39q0 88 -93 88t-114 -107l-73 -354q-6 -25 -6 -41zM252 0h-113l862 1434h113zM330 664q-98 0 -152 45q-53 45 -53 131q0 41 8 71l72 338q41 203 228 203q93 0 147 -46t53 -132q0 -39 -8 -70l-74 -338q-39 -202 -221 -202z" />
    <glyph glyph-name="ampersand" unicode="&#x26;" horiz-adv-x="843" 
d="M459 664q-188 0 -238 -222l-33 -143q-8 -25 -8 -59q0 -129 142 -129q70 0 124 48t80 132l80 373h-147zM258 -20q-238 0 -240 221q0 45 13 100l32 154q49 223 238 282v4q-121 43 -121 199q0 47 10 98l23 103q70 313 342 313q145 0 227 -69t82 -197q0 -51 -16 -127h-152
q14 72 15 108q-1 143 -151 143t-191 -182l-29 -137q-8 -26 -8 -63q0 -125 147 -125h375l-31 -141h-59l-82 -390q-43 -199 -37 -274h-135q-10 37 6 127q-92 -147 -258 -147z" />
    <glyph glyph-name="quotesingle" unicode="'" horiz-adv-x="337" 
d="M319 1018h-88l52 416h163z" />
    <glyph glyph-name="parenleft" unicode="(" horiz-adv-x="540" 
d="M262 -205q-242 0 -242 195q0 49 11 104l225 1055q31 149 109 217t235 68h66l-27 -123h-45q-154 0 -193 -174l-225 -1055q-8 -47 -8 -83q0 -81 119 -81h55l-25 -123h-55z" />
    <glyph glyph-name="parenright" unicode=")" horiz-adv-x="540" 
d="M-18 -205h-64l27 123h43q158 0 194 176l226 1055q8 31 8 68q0 94 -119 94h-55l26 123h51q246 0 246 -195q0 -43 -12 -102l-225 -1055q-30 -152 -108 -220t-238 -67z" />
    <glyph glyph-name="asterisk" unicode="*" horiz-adv-x="833" 
d="M530 999l-200 -268l-99 78l236 235l-295 70l57 125l277 -121l16 316h131l-73 -316l305 119l24 -125l-315 -68l172 -235l-113 -78z" />
    <glyph glyph-name="plus" unicode="+" 
d="M494 262h-123v293h-287v123h287v289h123v-289h286v-123h-286v-293z" />
    <glyph glyph-name="comma" unicode="," horiz-adv-x="374" 
d="M14 -221h-80l119 221h-57l45 207h162l-39 -191z" />
    <glyph glyph-name="hyphen" unicode="-" horiz-adv-x="542" 
d="M489 549h-419l26 131h420z" />
    <glyph glyph-name="period" unicode="." horiz-adv-x="374" 
d="M160 0h-164l45 207h162z" />
    <glyph glyph-name="slash" unicode="/" horiz-adv-x="763" 
d="M20 -205h-147l913 1639h148z" />
    <glyph glyph-name="zero" unicode="0" 
d="M358 125q139 0 177 178l167 793q8 31 9 67q0 145 -162 146q-143 0 -180 -179l-168 -792q-8 -31 -8 -66q-1 -147 165 -147zM348 -20q-150 0 -234 72t-83 208q0 49 12 105l164 772q68 317 348 317q149 0 233 -73t84 -205q0 -51 -12 -107l-164 -774q-63 -315 -348 -315z" />
    <glyph glyph-name="one" unicode="1" horiz-adv-x="567" 
d="M346 0h-164l254 1171q-106 -43 -256 -45l15 119q121 2 199 47t141 142h120z" />
    <glyph glyph-name="two" unicode="2" horiz-adv-x="755" 
d="M678 1163q0 145 -152 145t-188 -178l-31 -147h-153l32 154q68 317 346 317q154 0 232 -72t78 -200q0 -49 -15 -113q-29 -131 -119 -247t-242 -232t-225 -201q-73 -84 -94 -190l-10 -54h475l-30 -145h-639l34 162q37 166 123 287q90 121 246 239t228 204q104 121 104 271z
" />
    <glyph glyph-name="three" unicode="3" horiz-adv-x="770" 
d="M317 -20q-159 0 -237 70t-78 202q0 49 12 110l17 76h153l-20 -100q-8 -31 -8 -68q0 -145 161 -145q143 0 187 192l33 152q8 35 8 78q0 129 -144 129h-90l31 145h84q86 0 145 51t78 150l15 72q8 27 8 65q0 150 -154 150q-137 0 -176 -174l-25 -103h-153l24 107
q68 315 338 315q146 0 228 -71t82 -199q0 -53 -13 -111l-8 -31q-53 -252 -233 -290v-2q125 -51 125 -205q0 -31 -11 -88l-34 -164q-73 -313 -345 -313z" />
    <glyph glyph-name="four" unicode="4" horiz-adv-x="815" 
d="M637 1151l-465 -717h311zM555 0h-164l62 289h-465l30 147l658 998h184l-213 -1000h115l-31 -145h-115z" />
    <glyph glyph-name="five" unicode="5" horiz-adv-x="780" 
d="M324 -20q-142 0 -224 72t-82 202q0 53 13 111l16 65h152l-19 -90q-8 -31 -8 -68q0 -147 164 -147q139 0 180 178l64 305q10 45 10 82q0 135 -137 135t-201 -172h-154l211 781h570l-31 -146h-422l-121 -430q98 113 214 113q116 1 177 -63t62 -177q0 -68 -15 -127l-65 -307
q-33 -153 -122 -235q-90 -82 -232 -82z" />
    <glyph glyph-name="six" unicode="6" horiz-adv-x="802" 
d="M342 125q152 0 190 176l54 248q8 31 8 72q0 139 -150 139q-74 0 -125 -51t-69 -138l-51 -235q-8 -31 -9 -70q0 -141 152 -141zM29 254q0 53 12 111l164 765q72 324 348 324q151 0 233 -71t82 -201q0 -47 -12 -107h-154q12 51 13 92q0 141 -164 142q-145 0 -189 -203
l-67 -320q88 119 216 119q253 0 255 -237q0 -47 -14 -119l-56 -254q-72 -315 -360 -315q-144 0 -226 72t-81 202z" />
    <glyph glyph-name="seven" unicode="7" horiz-adv-x="729" 
d="M190 0h-178l676 1288h-489l32 146h656l-31 -142z" />
    <glyph glyph-name="eight" unicode="8" horiz-adv-x="811" 
d="M350 125q152 0 197 192l31 142q6 33 6 61q0 74 -45 112t-123 38q-158 0 -199 -176l-29 -140q-8 -47 -8 -73q0 -76 46 -116t124 -40zM487 811q152 0 191 168l27 121q8 41 8 65q0 70 -44 107t-120 37q-150 0 -187 -174l-26 -121q-6 -31 -6 -60q0 -68 42 -106t115 -37z
M338 -20q-145 0 -234 72q-88 73 -88 206q0 49 13 104l26 132q49 221 224 270v4q-104 63 -105 199q0 31 10 96l19 84q68 307 358 307q143 0 227 -70t84 -198q0 -47 -12 -107l-16 -86q-45 -209 -215 -264v-2q113 -63 112 -209q0 -51 -8 -90l-31 -135q-67 -313 -364 -313z" />
    <glyph glyph-name="nine" unicode="9" horiz-adv-x="804" 
d="M444 674q74 0 125 50t72 138l51 236q8 43 8 69q0 141 -161 142q-141 0 -183 -176l-53 -248q-8 -47 -8 -72q-1 -139 149 -139zM338 -23q-152 0 -234 71t-81 204q0 51 10 106h155q-12 -51 -12 -92q0 -141 162 -141q145 0 188 203l68 319q-82 -119 -227 -119q-115 0 -179 62
t-63 176q0 63 14 119l56 254q68 315 358 315q147 0 227 -72t80 -202q0 -53 -12 -111l-164 -766q-70 -326 -346 -326z" />
    <glyph glyph-name="colon" unicode=":" horiz-adv-x="374" 
d="M160 0h-164l45 207h162zM326 780h-162l43 207h162z" />
    <glyph glyph-name="semicolon" unicode=";" horiz-adv-x="374" 
d="M14 -221h-80l119 221h-57l45 207h162l-39 -191zM328 780h-162l43 207h162z" />
    <glyph glyph-name="less" unicode="&#x3c;" 
d="M731 401v-127l-614 283v117l614 280v-127l-465 -213z" />
    <glyph glyph-name="equal" unicode="=" 
d="M760 387h-656v123h656v-123zM760 719h-656v123h656v-123z" />
    <glyph glyph-name="greater" unicode="&#x3e;" 
d="M748 557l-615 -283v127l465 213l-465 213v127l615 -280v-117z" />
    <glyph glyph-name="question" unicode="?" horiz-adv-x="741" 
d="M305 0h-162l43 207h162zM522 1454q139 0 222 -71t83 -199q0 -249 -245 -471q-96 -91 -140 -151t-55 -130l-14 -72h-140l19 89q31 158 199 325q96 96 154 188t61 205q0 141 -158 142q-139 0 -178 -181l-33 -145h-152l31 152q31 155 119 237t227 82z" />
    <glyph glyph-name="at" unicode="@" horiz-adv-x="1425" 
d="M657 328q129 0 193 204l53 168q10 51 10 94t-31 79q-32 36 -87 36q-96 0 -144 -139l-86 -272q-12 -39 -12 -76q0 -94 104 -94zM1012 338q76 0 149 115q76 111 119 257t43 253q0 172 -109 267q-110 95 -310 95t-369 -145q-168 -146 -256 -360q-89 -214 -89 -435t126 -332
t362 -110q180 0 344 96l-39 -148q-143 -76 -313 -75q-285 0 -453 145t-168 415t109 517q106 245 308 403t452 158t390 -121q142 -121 142 -348q0 -166 -58 -346t-170 -307t-241 -127q-160 0 -166 133q-90 -133 -221 -133q-88 0 -141 46q-53 47 -53 113t22 144l92 297
q76 233 256 233q156 0 197 -135l37 119h147l-182 -567q-12 -33 -13 -62q0 -55 56 -55z" />
    <glyph glyph-name="A" unicode="A" horiz-adv-x="823" 
d="M561 1241l-307 -797h278zM-76 0l572 1434h221l-39 -1434h-162l10 305h-327l-117 -305h-158z" />
    <glyph glyph-name="B" unicode="B" horiz-adv-x="827" 
d="M354 145q174 0 213 199l27 121q10 66 10 88q0 68 -39 95.5t-127 27.5h-143l-113 -531h172zM455 821q193 0 235 203l15 74q10 57 10 78q0 61 -33 86.5t-102 25.5h-154l-100 -467h129zM346 0h-358l305 1434h307q281 0 281 -228q0 -47 -13 -106l-12 -60q-25 -127 -77 -194.5
t-142 -87.5v-2q129 -49 129 -205q0 -47 -12 -102l-27 -121q-35 -172 -125 -250t-256 -78z" />
    <glyph glyph-name="C" unicode="C" horiz-adv-x="782" 
d="M338 -20q-147 0 -227 70.5t-80 199.5q0 47 12 102l170 797q33 145 121 225t227 80t219 -69.5t80 -198.5q0 -49 -12 -105l-25 -116h-155l32 141q6 31 7 59q0 70 -41 107t-113 37q-141 0 -178 -168l-174 -813q-8 -26 -8 -78t39.5 -88.5t113.5 -36.5q145 0 180 166l45 221
h154l-47 -227q-66 -305 -340 -305z" />
    <glyph glyph-name="D" unicode="D" horiz-adv-x="835" 
d="M338 145q170 0 217 203l160 752q8 35 8 86q0 102 -131 102h-166l-244 -1143h156zM336 0h-348l305 1434h315q279 0 279 -244q0 -49 -13 -111l-157 -737q-37 -178 -127 -260t-254 -82z" />
    <glyph glyph-name="E" unicode="E" horiz-adv-x="729" 
d="M575 0h-587l305 1434h588l-31 -146h-424l-100 -467h344l-31 -145h-344l-113 -531h424z" />
    <glyph glyph-name="F" unicode="F" horiz-adv-x="700" 
d="M152 0h-164l305 1434h569l-31 -146h-405l-104 -487h325l-31 -146h-325z" />
    <glyph glyph-name="G" unicode="G" horiz-adv-x="804" 
d="M346 -20q-150 0 -232.5 69.5t-82.5 202.5q0 55 12 113l164 774q70 315 344 315q154 0 233.5 -70.5t79.5 -201.5q0 -51 -12 -111l-16 -86h-156l25 113q8 43 8 69q0 143 -160 144q-143 0 -182 -178l-172 -797q-8 -43 -9 -70q0 -141 152 -141t193 176l73 342h-162l31 145
h316l-105 -491q-66 -317 -342 -317z" />
    <glyph glyph-name="H" unicode="H" horiz-adv-x="858" 
d="M152 0h-164l305 1434h164l-131 -613h338l131 613h161l-305 -1434h-162l144 676h-338z" />
    <glyph glyph-name="I" unicode="I" horiz-adv-x="358" 
d="M152 0h-164l305 1434h164z" />
    <glyph glyph-name="J" unicode="J" horiz-adv-x="534" 
d="M80 -8q-100 0 -156 26l31 144q55 -23 113 -23q137 0 170 162l239 1133h164l-244 -1145q-61 -297 -317 -297z" />
    <glyph glyph-name="K" unicode="K" horiz-adv-x="835" 
d="M817 1434h178l-415 -545l112 -889h-162l-88 707l-194 -254l-96 -453h-164l305 1434h164l-148 -689z" />
    <glyph glyph-name="L" unicode="L" horiz-adv-x="700" 
d="M557 0h-569l305 1434h164l-275 -1289h406z" />
    <glyph glyph-name="M" unicode="M" horiz-adv-x="1079" 
d="M133 0h-145l305 1434h231l-32 -1145l452 1145h238l-305 -1434h-158l256 1196l-481 -1196h-134l29 1196z" />
    <glyph glyph-name="N" unicode="N" horiz-adv-x="870" 
d="M137 0h-149l305 1434h201l106 -1024l219 1024h150l-305 -1434h-162l-117 1165z" />
    <glyph glyph-name="O" unicode="O" 
d="M358 125q139 0 177 178l167 793q8 31 9 67q0 145 -162 146q-143 0 -180 -179l-168 -792q-8 -31 -8 -66q-1 -147 165 -147zM348 -20q-150 0 -233.5 72.5t-83.5 207.5q0 49 12 105l164 772q68 317 348 317q150 0 233.5 -72.5t83.5 -205.5q0 -51 -12 -107l-164 -774
q-63 -315 -348 -315z" />
    <glyph glyph-name="P" unicode="P" horiz-adv-x="788" 
d="M457 762q92 0 142 47t71 152l30 141q27 120 -22 160q-31 26 -98 26h-154l-113 -526h144zM604 1434q268 0 268 -240q0 -51 -12 -113l-26 -125q-39 -178 -130.5 -259t-261.5 -81h-159l-131 -616h-164l305 1434h311z" />
    <glyph glyph-name="Q" unicode="Q" 
d="M193 272q0 -147 165 -147q139 0 177 178l167 793q8 31 9 67q0 145 -162 146q-143 0 -180 -179l-168 -792q-8 -31 -8 -66zM653 12h52l-31 -145h-47q-147 0 -162 129q-59 -16 -117 -16q-150 0 -233.5 72.5t-83.5 207.5q0 49 12 105l164 772q68 317 348 317
q150 0 233.5 -72.5t83.5 -205.5q0 -52 -12 -107l-164 -774q-31 -152 -116 -232q6 -31 20 -41t53 -10z" />
    <glyph glyph-name="R" unicode="R" horiz-adv-x="823" 
d="M438 793q100 0 156.5 47t81.5 155l22 103q10 61 11 82q0 109 -134 108h-149l-107 -495h119zM604 1434q268 0 268 -232q0 -49 -12 -110l-16 -78q-29 -133 -83 -204t-149 -93v-2q121 -31 121 -180q0 -55 -14 -111l-53 -256q-29 -138 -19 -168h-158q-2 10 -2 53t19 127
l55 264q12 52 12 102q0 100 -151 101h-133l-137 -647h-164l305 1434h311z" />
    <glyph glyph-name="S" unicode="S" horiz-adv-x="755" 
d="M299 -20q-295 0 -295 262q0 61 14 116l11 50h153l-16 -76q-8 -43 -8 -70q0 -137 153 -137q94 0 144.5 70.5t50.5 181.5q0 141 -148 299q-180 193 -180 375q0 183 98 293q100 110 254 110q304 0 304 -256q0 -45 -17 -121l-6 -26h-154l13 51q8 31 8 74q0 133 -150 133
q-90 0 -139 -65.5t-49 -168.5q0 -139 147 -299q180 -193 180.5 -380t-98 -301.5t-270.5 -114.5z" />
    <glyph glyph-name="T" unicode="T" horiz-adv-x="739" 
d="M342 0h-164l275 1288h-254l30 146h672l-33 -146h-254z" />
    <glyph glyph-name="U" unicode="U" horiz-adv-x="825" 
d="M352 -20q-147 0 -230 70.5t-83 203.5q0 53 12 111l228 1069h163l-235 -1098q-8 -43 -8 -66q0 -145 163 -145q135 0 177 176l241 1133h158l-244 -1137q-68 -317 -342 -317z" />
    <glyph glyph-name="V" unicode="V" horiz-adv-x="794" 
d="M401 0h-221l51 1434h162l-55 -1217l463 1217h153z" />
    <glyph glyph-name="W" unicode="W" horiz-adv-x="1142" 
d="M324 0h-218l132 1434h153l-117 -1213l406 1213h180l-110 -1213l401 1213h145l-477 -1434h-207l93 1118z" />
    <glyph glyph-name="X" unicode="X" 
d="M88 0h-166l443 743l-121 691h159l89 -527l311 527h168l-426 -711l131 -723h-162l-94 561z" />
    <glyph glyph-name="Y" unicode="Y" horiz-adv-x="804" 
d="M373 0h-164l135 629l-117 805h164l74 -598l336 598h168l-461 -805z" />
    <glyph glyph-name="Z" unicode="Z" horiz-adv-x="727" 
d="M571 0h-639l29 143l701 1145h-435l33 146h617l-29 -142l-698 -1147h452z" />
    <glyph glyph-name="bracketleft" unicode="[" horiz-adv-x="540" 
d="M319 -205h-342l349 1639h342l-27 -123h-192l-297 -1393h194z" />
    <glyph glyph-name="backslash" unicode="\" horiz-adv-x="763" 
d="M578 -205h-132l-217 1639h131z" />
    <glyph glyph-name="bracketright" unicode="]" horiz-adv-x="540" 
d="M260 -205h-344l27 123h194l295 1393h-192l26 123h342z" />
    <glyph glyph-name="asciicircum" unicode="^" 
d="M276 883h-141l293 551h117l291 -551h-140l-211 395z" />
    <glyph glyph-name="underscore" unicode="_" horiz-adv-x="614" 
d="M461 -211h-615l21 105h616z" />
    <glyph glyph-name="grave" unicode="`" horiz-adv-x="1024" 
d="M745 1157h-118l-142 262h172z" />
    <glyph glyph-name="a" unicode="a" horiz-adv-x="751" 
d="M274 115q139 0 189 176l53 248q-29 -29 -170 -80q-190 -66 -190 -232q-1 -112 118 -112zM451 1051q126 0 199 -59.5t73 -176.5q0 -45 -12 -104l-97 -455q-37 -176 -32 -256h-148q-4 35 10 111q-88 -131 -235 -131q-102 0 -159.5 59t-57.5 160q0 145 82 232t237.5 138
t194.5 75t47 73v-6l8 41q6 27 6 51q0 115 -128 115t-154 -144l-11 -45h-149l12 53q29 129 108.5 199t205.5 70z" />
    <glyph glyph-name="b" unicode="b" horiz-adv-x="788" 
d="M606 799q0 115 -117 114q-70 0 -122 -52t-74 -152l-74 -342h2q-10 -47 -10 -105.5t38 -101.5t105 -43q113 -1 148 157l96 457q8 31 8 68zM540.5 1051q114.5 0 172 -55.5t57.5 -157.5q0 -43 -14 -107l-101 -481q-57 -270 -268 -270q-92 0 -153.5 49t-75.5 137l-60 -166
h-114l305 1434h157l-102 -484q82 101 196.5 101z" />
    <glyph glyph-name="c" unicode="c" horiz-adv-x="735" 
d="M729 803q0 -61 -16 -125h-152l10 47q8 31 9 68q0 121 -130.5 120.5t-164.5 -157.5l-97 -451q-8 -31 -8 -67q0 -121 130 -121t165 157l12 56h150l-10 -56q-62 -294 -314 -294q-139 0 -214.5 64.5t-75.5 186.5q0 49 12 105l90 422q31 141 112.5 217t211.5 76t205 -63.5
t75 -184.5z" />
    <glyph glyph-name="d" unicode="d" horiz-adv-x="786" 
d="M432 913q-115 0 -147 -155l-97 -459q-8 -43 -8 -68q0 -114 119 -114q68 0 118 49t75 143l81 383l5 60q0 78 -39 119.5t-107 41.5zM238 -20q-104 0 -162 55t-58 158q0 47 13 108l102 481q55 268 266 269q170 0 219 -146l115 529h158l-250 -1178q-37 -166 -33 -256h-147
q-4 33 10 121q-86 -141 -233 -141z" />
    <glyph glyph-name="e" unicode="e" horiz-adv-x="757" 
d="M590 782q0 131 -146 131q-128 1 -163 -163l-29 -132h309l21 101q8 43 8 63zM446 1051q141 0 218 -68t77 -190q0 -49 -12 -105l-41 -196h-463l-37 -175q-8 -47 -8 -69q0 -131 146 -131q129 0 166 168l10 45h151l-10 -45q-31 -147 -114 -226t-217 -79t-210.5 68.5
t-76.5 191.5q0 51 12 108l86 404q63 299 323 299z" />
    <glyph glyph-name="f" unicode="f" horiz-adv-x="536" 
d="M579 1317q-51 0 -74.5 -24.5t-35.5 -80.5l-39 -182h186l-28 -131h-187l-190 -899h-158l193 899h-129l28 131h129l45 215q45 209 236 209q94 0 147 -33l-26 -131q-46 27 -97 27z" />
    <glyph glyph-name="g" unicode="g" horiz-adv-x="782" 
d="M573 750q0 78 -37.5 120.5t-105.5 42.5q-113 0 -147 -157l-84 -402q-8 -31 -9 -67q0 -115 119 -115q68 0 120 55.5t75 153.5l63 301q6 37 6 68zM244 -209q72 0 111.5 36t56.5 116l41 198q-85 -102 -197 -102q-228 0 -227 213q0 47 12 108l90 422q59 268 266 269
q92 0 153 -47.5t77 -133.5l37 160h135l-232 -1096q-31 -137 -107.5 -204.5t-216 -67.5t-214 58.5t-74.5 166.5l4 47h150q-2 -6 -3 -28q0 -115 138 -115z" />
    <glyph glyph-name="h" unicode="h" horiz-adv-x="788" 
d="M536.5 1051q110.5 0 168 -53.5t57.5 -155.5q0 -55 -14 -111l-156 -731h-158l154 721q10 51 10 76q0 117 -115 116q-63 0 -113.5 -48t-72.5 -138l-154 -727h-155l303 1434h155l-100 -480q80 97 190.5 97z" />
    <glyph glyph-name="i" unicode="i" horiz-adv-x="352" 
d="M145 0h-157l219 1030h158zM395 1178h-153l45 221h155z" />
    <glyph glyph-name="j" unicode="j" horiz-adv-x="350" 
d="M-117.5 -201q35.5 0 51 16.5t25.5 57.5l248 1157h158l-252 -1186q-41 -182 -199 -182q-84 0 -129 33l29 127q33 -23 68.5 -23zM393 1178h-153l45 221h155z" />
    <glyph glyph-name="k" unicode="k" horiz-adv-x="784" 
d="M668 1030h184l-348 -395l137 -635h-158l-104 489l-170 -192l-64 -297h-157l305 1434h158l-189 -887z" />
    <glyph glyph-name="l" unicode="l" horiz-adv-x="352" 
d="M145 0h-157l305 1434h158z" />
    <glyph glyph-name="m" unicode="m" horiz-adv-x="1212" 
d="M979 1051q100 0 155.5 -53.5t55.5 -153.5q0 -51 -12 -113l-156 -731h-158l154 721q8 39 8 78q0 115 -108 114q-127 0 -181 -172v-4q-2 -2 -2 -6l-155 -731h-158l153 721q10 61 11 78q0 115 -111 114q-68 0 -117 -53t-69 -151l-152 -709h-157l219 1030h133l-23 -119
q86 139 230 140q176 0 206 -152q84 152 234 152z" />
    <glyph glyph-name="n" unicode="n" horiz-adv-x="788" 
d="M547 1051q100 0 157.5 -53.5t57.5 -155.5q0 -55 -14 -111l-156 -731h-158l154 721q10 51 10 76q0 117 -115 116q-63 0 -113.5 -48t-72.5 -136l-156 -729h-157l219 1030h133l-23 -117q89 138 234 138z" />
    <glyph glyph-name="o" unicode="o" horiz-adv-x="759" 
d="M176 246q0 -129 134 -129t171 164l94 438q8 31 9 65q0 129 -134.5 129t-168.5 -163l-97 -439q-8 -41 -8 -65zM313 -20q-135 0 -212.5 68.5t-77.5 191.5q0 47 12 102l88 412q63 297 323 297q135 0 213 -69t78 -191q0 -53 -10 -101l-90 -411q-64 -299 -324 -299z" />
    <glyph glyph-name="p" unicode="p" horiz-adv-x="786" 
d="M604 799q0 115 -117 114q-133 0 -186 -165l-82 -386l-10 -81q0 -78 38 -121t105 -43q113 -1 148 157l96 457q8 31 8 68zM549 1051q104 0 161.5 -55.5t57.5 -157.5q0 -43 -14 -107l-101 -481q-59 -270 -268 -270q-166 0 -217 141l-94 -438h-158l287 1347h133l-21 -117
q87 138 234 138z" />
    <glyph glyph-name="q" unicode="q" horiz-adv-x="786" 
d="M299 117q137 0 188 180l88 412q3 9 3 65t-39 98t-107 41q-115 0 -147 -155l-97 -459q-8 -43 -8 -68q0 -114 119 -114zM246 -20q-112 0 -170 55q-57 55 -58 158q0 47 13 108l102 481q55 268 266 269q94 1 155 -49t77 -138l57 166h115l-287 -1347h-160l84 397
q-82 -100 -194 -100z" />
    <glyph glyph-name="r" unicode="r" horiz-adv-x="544" 
d="M539 1051q57 0 90 -21l-31 -149q-33 18 -88 18q-166 0 -227 -235l-142 -664h-157l219 1030h133l-29 -153q82 174 232 174z" />
    <glyph glyph-name="s" unicode="s" horiz-adv-x="694" 
d="M-2 211q0 37 14 100h150l-8 -30q-6 -31 -6.5 -70t34.5 -67.5t101.5 -28.5t110.5 48t44 110.5t-32.5 102.5t-97 82t-101.5 70q-33 29 -62.5 87.5t-29.5 119.5q0 135 88 225t215 90.5t195.5 -60t68.5 -165.5q0 -31 -10 -82h-146q8 43 8.5 79t-30.5 64.5t-90.5 28.5
t-102.5 -46t-43 -105t34 -101t112 -93.5t121 -96.5q61 -61 61 -182t-89 -216t-245 -95q-119 0 -191.5 61t-72.5 170z" />
    <glyph glyph-name="t" unicode="t" horiz-adv-x="544" 
d="M271.5 -20q-78.5 0 -130 46t-51.5 130q0 35 8 65l146 678h-129l28 131h131l80 297h138l-64 -297h186l-28 -131h-187l-143 -674l-4 -37q0 -72 88 -71q33 0 78 16l-19 -137q-49 -16 -127.5 -16z" />
    <glyph glyph-name="u" unicode="u" horiz-adv-x="788" 
d="M242 -20q-100 0 -157.5 53t-57.5 155q0 57 14 113l156 729h157l-153 -721q-10 -51 -11 -76q0 -117 115 -116q68 0 119.5 54.5t71.5 150.5l151 708h158l-219 -1030h-133l22 117q-88 -137 -233 -137z" />
    <glyph glyph-name="v" unicode="v" horiz-adv-x="733" 
d="M303 1030v-823l350 823h154l-449 -1030h-198l-13 1030h156z" />
    <glyph glyph-name="w" unicode="w" horiz-adv-x="1093" 
d="M309 0h-200l43 1030h149l-33 -817l312 817h161l-36 -817l315 817h145l-395 -1030h-190l24 743z" />
    <glyph glyph-name="x" unicode="x" horiz-adv-x="751" 
d="M92 0h-170l369 539l-133 491h157l93 -362l241 362h168l-352 -510l141 -520h-160l-96 393z" />
    <glyph glyph-name="y" unicode="y" horiz-adv-x="741" 
d="M28 -338q-91 0 -139 35l29 129q41 -27 92 -27t77 20.5t48 69.5l53 113l-45 1028h154l20 -780l342 780h156l-534 -1177q-49 -100 -105.5 -145.5t-147.5 -45.5z" />
    <glyph glyph-name="z" unicode="z" horiz-adv-x="671" 
d="M510 0h-571l24 129l559 770h-372l28 131h551l-27 -129l-557 -768h394z" />
    <glyph glyph-name="braceleft" unicode="{" horiz-adv-x="540" 
d="M246 -205q-82 0 -129 40t-47 118q0 23 8 70l82 385q10 52 10 82q0 64 -104 63l14 125q76 0 115 35t55 118l82 390q47 213 250 213h98l-27 -125h-28q-70 0 -106 -35t-52 -119l-74 -354q-18 -82 -57 -130t-111 -59q92 -27 92 -131q0 -37 -8 -67l-73 -353q-23 -61 -6 -104
t89 -37h39l-26 -125h-86z" />
    <glyph glyph-name="bar" unicode="|" horiz-adv-x="614" 
d="M416 -410h-135v2050h135v-2050z" />
    <glyph glyph-name="braceright" unicode="}" horiz-adv-x="540" 
d="M0 -205h-96l26 125h27q69 0 105 35t55 119l76 352q16 84 54 131t111 59q-92 29 -92 132q0 29 6 65l76 354q24 61 6 105t-90 37h-39l27 125h86q176 0 176 -160q0 -35 -8 -66l-82 -389q-10 -51 -10 -81q0 -60 106 -60l-16 -125q-76 0 -114 -36t-58 -122l-80 -385
q-47 -215 -252 -215z" />
    <glyph glyph-name="asciitilde" unicode="~" 
d="M287 741q68 0 157 -63q96 -62 133 -62t66 28t76 104l90 -68q-59 -102 -111 -148t-118 -45q-66 -1 -158 61t-131 63t-68 -27t-76 -103l-90 68q57 102 109 147t121 45z" />
    <glyph glyph-name="uni00A0" unicode="&#xa0;" horiz-adv-x="333" 
 />
    <glyph glyph-name="exclamdown" unicode="&#xa1;" horiz-adv-x="405" 
d="M88 -406h-164l144 676l108 402h119l-64 -402zM350 825h-162l43 205h162z" />
    <glyph glyph-name="cent" unicode="&#xa2;" 
d="M850 1061q0 -49 -12 -105l-9 -34h-151l12 59q6 35 6 59q0 68 -41 105t-112 37q-141 0 -178 -166l-123 -561q-6 -33 -6 -62q0 -69 40 -105t110 -36q71 0 119 44t64 124l27 133h156l-31 -141q-31 -142 -115 -222t-211 -84l-30 -147h-132l33 162q-195 53 -194 256
q0 47 12 102l119 545q31 139 113 218q83 79 206 85l29 127h131l-31 -139q199 -45 199 -254z" />
    <glyph glyph-name="sterling" unicode="&#xa3;" 
d="M217 1016q0 194 94 316t273 122q139 0 216 -75t77 -205q0 -55 -21 -140h-151q18 98 18 125q0 70 -37 110t-108 40q-201 0 -201 -303q-1 -88 23 -196t28 -138h281l-27 -127h-250q-11 -208 -242 -400h467l-30 -145h-654l25 141q104 57 193 166t94 238h-189l27 127h158
q-8 39 -36 145t-28 199z" />
    <glyph glyph-name="currency" unicode="&#xa4;" 
d="M586 718q0 58 -37 96t-96 38t-97 -38t-39 -97q0 -59 38 -96q37 -37 97 -37t97 38t37 96zM452 467q-76 0 -141 43l-106 -117l-76 76l115 109q-43 63 -43 139t43 139l-115 109l76 75l106 -114q66 43 142 43t141 -43l106 114l76 -75l-114 -109q41 -59 41 -139t-41 -139
l114 -109l-76 -76l-106 117q-66 -43 -142 -43z" />
    <glyph glyph-name="yen" unicode="&#xa5;" 
d="M811 1434h166l-447 -779h203l-22 -110h-213l-39 -178h213l-23 -113h-213l-55 -254h-162l55 254h-206l22 113h207l39 178h-207l23 110h198l-110 779h161l74 -598z" />
    <glyph glyph-name="brokenbar" unicode="&#xa6;" horiz-adv-x="614" 
d="M416 -410h-135v820h135v-820zM416 819h-135v819h135v-819z" />
    <glyph glyph-name="section" unicode="&#xa7;" horiz-adv-x="849" 
d="M459 829q-95 0 -155 -57t-60 -143q0 -45 28 -90q29 -39 52 -57t106 -74h4q96 0 156 57q59 57 59 140t-88 157q-15 12 -98 67h-4zM727 1184q0 61 -41 97q-40 36 -114 36t-122 -46q-48 -47 -48 -117t38 -114q39 -44 121 -95q82 -52 130 -89t83 -98t35 -131q0 -121 -70 -202
t-190 -103q98 -92 98 -228t-92 -225q-93 -88 -235 -88t-222 72t-80 192q0 33 7 70h147q-6 -37 -6 -62q0 -61 41 -98t115 -37t121 46q49 46 49 108t-29 104q-8 12 -14 22q-7 10 -17 18q-10 9 -16 15q-6 7 -22 17t-33 23q-18 13 -86 57q-67 44 -129 106t-62 180t69 197
q69 80 191 104q-98 91 -98 227t92 224t234 88t223 -72q80 -72 79 -192q0 -31 -6 -68h-147q6 37 6 62z" />
    <glyph glyph-name="dieresis" unicode="&#xa8;" horiz-adv-x="1024" 
d="M854 1178h-143l47 221h143zM596 1178h-143l47 221h143z" />
    <glyph glyph-name="copyright" unicode="&#xa9;" horiz-adv-x="1544" 
d="M809 268q-225 0 -225 244v408q0 248 225 247q223 0 223 -247v-64h-112v72q0 129 -109 129t-109 -129v-422q0 -127 109 -127t109 127v104h112v-98q0 -116 -56 -180t-167 -64zM815 90q260 0 430 178t170 450t-169 448q-169 177 -430 177t-430 -175t-169 -451
q0 -275 169 -451t429 -176zM102 718q0 316 203 526t510 210t510 -210t203 -526t-203 -528q-203 -210 -510 -210t-510 208q-203 214 -203 530z" />
    <glyph glyph-name="ordfeminine" unicode="&#xaa;" horiz-adv-x="575" 
d="M479 467h-422l23 100h420zM238 858q0 -78 90 -78t131 117l37 178q-18 -18 -121 -53q-137 -49 -137 -164zM450 1454q90 0 142 -44t53 -126q0 -29 -8 -76l-68 -313q-31 -147 -30 -195h-97q0 25 7 80q-63 -94 -168 -94q-76 0 -118 40t-42 108q0 199 244 270q81 27 113 43
t42 39l10 53q4 33 5 35q1 84 -91 84t-114 -103l-4 -16h-105l4 23q19 90 77 141t148 51z" />
    <glyph glyph-name="guillemotleft" unicode="&#xab;" horiz-adv-x="624" 
d="M539 401h-115l-86 213l172 205h121l-156 -215zM281 401h-115l-88 213l174 205h121l-158 -215z" />
    <glyph glyph-name="logicalnot" unicode="&#xac;" 
d="M758 338h-123v293h-574v121h697v-414z" />
    <glyph glyph-name="uni00AD" unicode="&#xad;" horiz-adv-x="542" 
d="M489 549h-419l26 131h420z" />
    <glyph glyph-name="registered" unicode="&#xae;" horiz-adv-x="1544" 
d="M721 1044v-282h86q65 0 95 29t30 96v33q0 66 -26 96t-85 28h-100zM721 279h-119v876h225q113 0 168 -54t56 -169v-27q0 -152 -113 -190v-2q113 -31 113 -187v-127q0 -80 18 -120h-123q-14 41 -14 122v119q0 74 -29 103t-100 28h-82v-372zM815 90q260 0 430 178t170 450
t-169 448q-169 177 -430 177t-430 -175t-169 -451q0 -275 169 -451t429 -176zM102 718q0 316 203 526t510 210t510 -210t203 -526t-203 -528q-203 -210 -510 -210t-510 208q-203 214 -203 530z" />
    <glyph glyph-name="overscore" unicode="&#xaf;" horiz-adv-x="1024" 
d="M881 1229h-435l27 121h434z" />
    <glyph glyph-name="degree" unicode="&#xb0;" 
d="M682 1216q0 52 -36 88t-87 36t-86 -36t-35 -88t35 -87t86 -35t87 36q36 34 36 86zM559 977q-100 0 -170 70q-67 72 -67 171q0 100 68 168t169 68q100 0 170 -69t70 -169t-70 -169q-70 -70 -170 -70z" />
    <glyph glyph-name="plusminus" unicode="&#xb1;" 
d="M760 231h-656v121h267v260h-267v123h267v266h123v-266h266v-123h-266v-260h266v-121z" />
    <glyph glyph-name="uni00B2" unicode="&#xb2;" horiz-adv-x="579" 
d="M502 1649q200 0 200 -185q0 -178 -251 -372q-91 -70 -131 -120t-54 -116l-8 -37h299l-22 -100h-408l25 117q23 102 73 174q51 72 156 151q207 158 207 301q0 86 -89 86t-114 -106l-18 -86h-105l19 90q47 203 221 203z" />
    <glyph glyph-name="uni00B3" unicode="&#xb3;" horiz-adv-x="581" 
d="M358 698q-203 0 -202 172q0 43 8 74l12 51h107l-17 -69q-4 -37 -4 -41q0 -86 90 -86t117 116l23 105q6 31 6 51q0 74 -84 74h-60l21 98h53q106 0 137 127l8 41q8 23 9 51q0 86 -92 86t-115 -104l-15 -66h-104l14 68q45 203 222 203q201 0 200 -172q0 -39 -8 -70l-6 -31
q-31 -154 -146 -182v-4q74 -35 74 -129q0 -27 -8 -62l-18 -98q-40 -203 -222 -203z" />
    <glyph glyph-name="acute" unicode="&#xb4;" horiz-adv-x="1024" 
d="M678 1157h-133l200 262h187z" />
    <glyph glyph-name="uni00B5" unicode="&#xb5;" horiz-adv-x="794" 
d="M254 -20q-59 0 -111 22l-67 -319h-156l287 1347h158l-154 -721q-8 -35 -8 -76q0 -117 112 -116q68 0 118 51t73 147l151 715h158l-217 -1030h-135l20 115q-86 -135 -229 -135z" />
    <glyph glyph-name="paragraph" unicode="&#xb6;" horiz-adv-x="917" 
d="M156 852q0 47 12 109l29 131q72 342 401 342h395l-348 -1633h-125l322 1512h-160l-322 -1512h-124l180 822q-260 2 -260 229z" />
    <glyph glyph-name="middot" unicode="&#xb7;" horiz-adv-x="374" 
d="M268 512h-162l44 205h161z" />
    <glyph glyph-name="cedilla" unicode="&#xb8;" horiz-adv-x="1024" 
d="M344 -317q-166 0 -166 100q0 4 4 37h115q-6 -14 -6 -29q0 -37 50 -37q95 0 95 72q0 39 -65 39h-25l33 155h78l-29 -110q121 0 121 -90q0 -78 -50.5 -107.5t-154.5 -29.5z" />
    <glyph glyph-name="uni00B9" unicode="&#xb9;" horiz-adv-x="581" 
d="M438 719h-114l157 731q-70 -20 -155 -23l4 82q147 4 223 119h78z" />
    <glyph glyph-name="ordmasculine" unicode="&#xba;" horiz-adv-x="575" 
d="M487 469h-419l22 98h420zM262 877q0 -93 97 -93t120 115l70 318l4 45q0 94 -98 94t-121 -117l-68 -317l-4 -38v-7zM358 684q-98 0 -152 49t-54 137q0 41 8 72l63 299q41 213 234 213q98 0 152 -49t55 -137q0 -41 -9 -72l-63 -299q-48 -213 -234 -213z" />
    <glyph glyph-name="guillemotright" unicode="&#xbb;" horiz-adv-x="624" 
d="M416 401h-123l160 215l-68 203h115l90 -213zM158 401h-123l158 215l-66 203h115l88 -213z" />
    <glyph glyph-name="onequarter" unicode="&#xbc;" horiz-adv-x="1339" 
d="M1153 715l-285 -439h187zM1108 0h-113l37 178h-289l19 101l416 630h122l-135 -633h72l-20 -98h-72zM397 524h-114l157 731q-70 -20 -155 -22l4 82q147 4 223 119h78zM340 0h-113l863 1434h112z" />
    <glyph glyph-name="onehalf" unicode="&#xbd;" horiz-adv-x="1339" 
d="M1196 743q0 86 -91 86t-112 -106l-18 -86h-107l21 90q45 203 221 203q96 0 147 -46t52 -128q0 -188 -250 -383q-92 -70 -131 -120t-54 -116l-8 -37h297l-20 -100h-408l25 117q23 102 74 174t155 151q207 158 207 301zM397 524h-114l157 731q-70 -20 -155 -22l4 82
q147 4 223 119h78zM340 0h-113l863 1434h112z" />
    <glyph glyph-name="threequarters" unicode="&#xbe;" horiz-adv-x="1339" 
d="M1153 715l-285 -439h187zM1108 0h-113l37 178h-289l19 101l416 630h122l-135 -633h72l-20 -98h-72zM340 0h-113l863 1434h112zM315 504q-98 0 -149 45t-51 127q0 43 8 74l10 51h107l-15 -70q-6 -23 -6 -41q0 -86 92 -86t115 117l23 104q6 31 6 52q0 74 -84 73h-60l23 99
h53q106 0 135 127l10 41q6 29 7 51q1 86 -91 86t-114 -105l-15 -65h-104l14 67q41 203 220 203q203 0 202 -172q0 -27 -8 -70l-6 -30q-31 -156 -148 -183v-4q74 -31 74 -129q0 -31 -6 -61l-20 -98q-42 -203 -222 -203z" />
    <glyph glyph-name="questiondown" unicode="&#xbf;" horiz-adv-x="741" 
d="M216 -424q-140 0 -222 71t-82 199q0 246 246 473q94 87 137 149t57 132l15 72h139l-19 -90q-31 -156 -198 -324q-95 -100 -155 -192t-60 -203q0 -141 157 -142q139 0 179 181l32 147h152l-31 -153q-31 -154 -119 -237t-228 -83zM553 825h-162l43 205h162z" />
    <glyph glyph-name="Agrave" unicode="&#xc0;" horiz-adv-x="823" 
d="M561 1241l-307 -797h278zM82 0h-158l572 1434h221l-39 -1434h-162l10 305h-327zM637 1802l88 -262h-119l-141 262h172z" />
    <glyph glyph-name="Aacute" unicode="&#xc1;" horiz-adv-x="823" 
d="M561 1241l-307 -797h278zM82 0h-158l572 1434h221l-39 -1434h-162l10 305h-327zM725 1802h186l-254 -262h-133z" />
    <glyph glyph-name="Acircumflex" unicode="&#xc2;" horiz-adv-x="823" 
d="M561 1241l-307 -797h278zM82 0h-158l572 1434h221l-39 -1434h-162l10 305h-327zM602 1802h162l102 -262h-118l-76 172l-152 -172h-133z" />
    <glyph glyph-name="Atilde" unicode="&#xc3;" horiz-adv-x="823" 
d="M561 1241l-307 -797h278zM82 0h-158l572 1434h221l-39 -1434h-162l10 305h-327zM743 1577q-53 0 -96 37t-67 37q-57 0 -103 -88l-80 59q90 145 178 145q55 0 98.5 -37t65.5 -36q52 0 101 88l80 -60q-90 -145 -177 -145z" />
    <glyph glyph-name="Adieresis" unicode="&#xc4;" horiz-adv-x="823" 
d="M561 1241l-307 -797h278zM82 0h-158l572 1434h221l-39 -1434h-162l10 305h-327zM690 1561l47 221h144l-47 -221h-144zM479 1782h144l-48 -221h-143z" />
    <glyph glyph-name="Aring" unicode="&#xc5;" horiz-adv-x="823" 
d="M561 1241l-307 -797h278zM82 0h-158l572 1434h221l-39 -1434h-162l10 305h-327zM656 1626q32 0 56.5 24.5t24.5 57.5t-18.5 52.5t-50 19.5t-56 -25.5t-24.5 -58.5t18 -51.5t50 -18.5zM673 1864q71 0 112.5 -41t41.5 -110t-53 -121t-123 -52t-112.5 41t-42.5 109.5t53 121
t124 52.5z" />
    <glyph glyph-name="AE" unicode="&#xc6;" horiz-adv-x="1193" 
d="M309 444h240l168 787zM1348 1434l-33 -146h-422l-98 -467h342l-31 -145h-342l-115 -531h424l-31 -145h-587l65 305h-282l-158 -305h-160l750 1434h678z" />
    <glyph glyph-name="Ccedilla" unicode="&#xc7;" horiz-adv-x="782" 
d="M561 1454q139 0 219 -69.5t80 -198.5q0 -49 -12 -105l-25 -116h-155l32 141q6 31 7 59q0 70 -41 107t-113 37q-141 0 -178 -168l-174 -813q-8 -27 -8 -78.5t39.5 -88t113.5 -36.5q145 0 180 166l45 221h154l-47 -227q-66 -305 -340 -305h-8l-19 -70q121 0 121 -90
q0 -78 -50 -107.5t-155 -29.5q-166 0 -166 100q0 4 5 37h114q-6 -16 -6 -29q0 -37 50 -37q94 0 95 72q0 39 -65 39h-25l25 121q-223 39 -223 264q0 47 12 102l170 797q33 145 121 225t227 80z" />
    <glyph glyph-name="Egrave" unicode="&#xc8;" horiz-adv-x="729" 
d="M575 0h-587l305 1434h588l-31 -146h-424l-100 -467h344l-31 -145h-344l-113 -531h424zM707 1540h-119l-142 262h172z" />
    <glyph glyph-name="Eacute" unicode="&#xc9;" horiz-adv-x="729" 
d="M575 0h-587l305 1434h588l-31 -146h-424l-100 -467h344l-31 -145h-344l-113 -531h424zM637 1540h-133l201 262h186z" />
    <glyph glyph-name="Ecircumflex" unicode="&#xca;" horiz-adv-x="729" 
d="M575 0h-587l305 1434h588l-31 -146h-424l-100 -467h344l-31 -145h-344l-113 -531h424zM502 1540h-133l215 262h161l103 -262h-119l-76 172z" />
    <glyph glyph-name="Edieresis" unicode="&#xcb;" horiz-adv-x="729" 
d="M575 0h-587l305 1434h588l-31 -146h-424l-100 -467h344l-31 -145h-344l-113 -531h424zM815 1561h-143l47 221h143zM557 1561h-143l47 221h143z" />
    <glyph glyph-name="Igrave" unicode="&#xcc;" horiz-adv-x="358" 
d="M152 0h-164l305 1434h164zM492 1540h-119l-142 262h172z" />
    <glyph glyph-name="Iacute" unicode="&#xcd;" horiz-adv-x="358" 
d="M152 0h-164l305 1434h164zM424 1540h-133l201 262h186z" />
    <glyph glyph-name="Icircumflex" unicode="&#xce;" horiz-adv-x="358" 
d="M152 0h-164l305 1434h164zM287 1540h-133l215 262h161l103 -262h-119l-76 172z" />
    <glyph glyph-name="Idieresis" unicode="&#xcf;" horiz-adv-x="358" 
d="M152 0h-164l305 1434h164zM600 1561h-143l47 221h143zM342 1561h-143l47 221h143z" />
    <glyph glyph-name="Eth" unicode="&#xd0;" horiz-adv-x="864" 
d="M623 1288h-168l-101 -471h152l-29 -137h-151l-113 -535h156q168 0 215 203l159 752q10 57 10.5 97t-31.5 65.5t-99 25.5zM639 1434q279 0 279 -244q0 -45 -15 -111l-155 -737q-37 -178 -127.5 -260t-253.5 -82h-349l146 680h-98l28 137h99l131 617h315z" />
    <glyph glyph-name="Ntilde" unicode="&#xd1;" horiz-adv-x="870" 
d="M137 0h-149l305 1434h201l106 -1024l219 1024h150l-305 -1434h-162l-117 1165zM600 1767q55 0 98.5 -37t65.5 -36q51 0 100 88l80 -60q-90 -145 -176 -145q-53 0 -96.5 37t-67.5 37q-57 0 -102 -88l-80 59q90 145 178 145z" />
    <glyph glyph-name="Ograve" unicode="&#xd2;" 
d="M358 125q139 0 177 178l167 793q8 31 9 67q0 145 -162 146q-143 0 -180 -179l-168 -792q-8 -31 -8 -66q-1 -147 165 -147zM348 -20q-150 0 -233.5 72.5t-83.5 207.5q0 49 12 105l164 772q68 317 348 317q150 0 233.5 -72.5t83.5 -205.5q0 -51 -12 -107l-164 -774
q-63 -315 -348 -315zM725 1540h-119l-141 262h172z" />
    <glyph glyph-name="Oacute" unicode="&#xd3;" 
d="M358 125q139 0 177 178l167 793q8 31 9 67q0 145 -162 146q-143 0 -180 -179l-168 -792q-8 -31 -8 -66q-1 -147 165 -147zM348 -20q-150 0 -233.5 72.5t-83.5 207.5q0 49 12 105l164 772q68 317 348 317q150 0 233.5 -72.5t83.5 -205.5q0 -51 -12 -107l-164 -774
q-63 -315 -348 -315zM657 1540h-133l201 262h186z" />
    <glyph glyph-name="Ocircumflex" unicode="&#xd4;" 
d="M358 125q139 0 177 178l167 793q8 31 9 67q0 145 -162 146q-143 0 -180 -179l-168 -792q-8 -31 -8 -66q-1 -147 165 -147zM348 -20q-150 0 -233.5 72.5t-83.5 207.5q0 49 12 105l164 772q68 317 348 317q150 0 233.5 -72.5t83.5 -205.5q0 -51 -12 -107l-164 -774
q-63 -315 -348 -315zM520 1540h-133l215 262h162l102 -262h-118l-76 172z" />
    <glyph glyph-name="Otilde" unicode="&#xd5;" 
d="M358 125q139 0 177 178l167 793q8 31 9 67q0 145 -162 146q-143 0 -180 -179l-168 -792q-8 -31 -8 -66q-1 -147 165 -147zM348 -20q-150 0 -233.5 72.5t-83.5 207.5q0 49 12 105l164 772q68 317 348 317q150 0 233.5 -72.5t83.5 -205.5q0 -51 -12 -107l-164 -774
q-63 -315 -348 -315zM575 1767q55 0 98.5 -37t65.5 -36q51 0 101 88l80 -60q-90 -145 -177 -145q-53 0 -96 37t-67 37q-58 0 -103 -88l-80 59q90 145 178 145z" />
    <glyph glyph-name="Odieresis" unicode="&#xd6;" 
d="M358 125q139 0 177 178l167 793q8 31 9 67q0 145 -162 146q-143 0 -180 -179l-168 -792q-8 -31 -8 -66q-1 -147 165 -147zM348 -20q-150 0 -233.5 72.5t-83.5 207.5q0 49 12 105l164 772q68 317 348 317q150 0 233.5 -72.5t83.5 -205.5q0 -51 -12 -107l-164 -774
q-63 -315 -348 -315zM834 1561h-144l47 221h144zM575 1561h-143l47 221h144z" />
    <glyph glyph-name="multiply" unicode="&#xd7;" 
d="M434 532l-235 -239l-82 84l233 237l-233 238l84 84l233 -238l234 240l82 -84l-234 -240l234 -237l-82 -84z" />
    <glyph glyph-name="Oslash" unicode="&#xd8;" 
d="M358 125q140 0 177 178l149 703l-483 -793q31 -88 157 -88zM369 1130l-150 -708l483 797q-29 90 -153 90q-143 -1 -180 -179zM872 1181q0 -56 -12 -112l-164 -774q-63 -315 -348 -315q-156 0 -239 77l-72 -116l-80 51l94 153q-20 43 -20 103.5t12 116.5l164 772
q68 317 348 317q162 0 244 -80l71 119l78 -51l-94 -156q18 -49 18 -105z" />
    <glyph glyph-name="Ugrave" unicode="&#xd9;" horiz-adv-x="825" 
d="M352 -20q-147 0 -230 70.5t-83 203.5q0 53 12 111l228 1069h163l-235 -1098q-8 -43 -8 -66q0 -145 163 -145q135 0 177 176l241 1133h158l-244 -1137q-68 -317 -342 -317zM727 1540h-119l-141 262h172z" />
    <glyph glyph-name="Uacute" unicode="&#xda;" horiz-adv-x="825" 
d="M352 -20q-147 0 -230 70.5t-83 203.5q0 53 12 111l228 1069h163l-235 -1098q-8 -43 -8 -66q0 -145 163 -145q135 0 177 176l241 1133h158l-244 -1137q-68 -317 -342 -317zM659 1540h-133l201 262h186z" />
    <glyph glyph-name="Ucircumflex" unicode="&#xdb;" horiz-adv-x="825" 
d="M352 -20q-147 0 -230 70.5t-83 203.5q0 53 12 111l228 1069h163l-235 -1098q-8 -43 -8 -66q0 -145 163 -145q135 0 177 176l241 1133h158l-244 -1137q-68 -317 -342 -317zM522 1540h-133l215 262h162l102 -262h-118l-76 172z" />
    <glyph glyph-name="Udieresis" unicode="&#xdc;" horiz-adv-x="825" 
d="M352 -20q-147 0 -230 70.5t-83 203.5q0 53 12 111l228 1069h163l-235 -1098q-8 -43 -8 -66q0 -145 163 -145q135 0 177 176l241 1133h158l-244 -1137q-68 -317 -342 -317zM836 1561h-144l47 221h144zM578 1561h-144l47 221h144z" />
    <glyph glyph-name="Yacute" unicode="&#xdd;" horiz-adv-x="804" 
d="M373 0h-164l135 629l-117 805h164l74 -598l336 598h168l-461 -805zM645 1540h-133l201 262h186z" />
    <glyph glyph-name="Thorn" unicode="&#xde;" horiz-adv-x="788" 
d="M412 545q90 0 140 46t73 152l28 142q10 51 11 73q0 113 -129 113h-156l-111 -526h144zM827 977q0 -57 -14 -113l-27 -125q-37 -178 -129 -259t-262 -81h-159l-84 -399h-164l305 1434h164l-45 -215l147 -2q268 0 268 -240z" />
    <glyph glyph-name="germandbls" unicode="&#xdf;" horiz-adv-x="804" 
d="M412 -23q-84 0 -150 35l29 133q47 -29 115 -29t112 54q45 54 45 120t-65 142q-90 102 -90 209q0 68 21 127t42 88q20 29 70 86l59 76q59 80 59 190q-1 110 -119 109q-118 0 -153 -154l-246 -1163h-157l247 1171q59 283 312 283q125 0 199 -61t75 -176q-1 -80 -25 -147
t-49 -99q-19 -31 -49 -63t-73 -83q-53 -71 -53 -153t73 -164q80 -94 80 -184q0 -143 -86 -245t-223 -102z" />
    <glyph glyph-name="agrave" unicode="&#xe0;" horiz-adv-x="751" 
d="M274 115q139 0 189 176l53 248q-29 -29 -170 -80q-190 -66 -190 -232q-1 -112 118 -112zM451 1051q126 0 199 -59.5t73 -176.5q0 -45 -12 -104l-97 -455q-37 -176 -32 -256h-148q-4 35 10 111q-88 -131 -235 -131q-102 0 -159.5 59t-57.5 160q0 145 82 232t237.5 138
t194.5 75t47 73v-6l8 41q6 27 6 51q0 115 -128 115t-154 -144l-11 -45h-149l12 53q29 129 108.5 199t205.5 70zM518 1419l88 -262h-119l-141 262h172z" />
    <glyph glyph-name="aacute" unicode="&#xe1;" horiz-adv-x="751" 
d="M274 115q139 0 189 176l53 248q-29 -29 -170 -80q-190 -66 -190 -232q-1 -112 118 -112zM451 1051q126 0 199 -59.5t73 -176.5q0 -45 -12 -104l-97 -455q-37 -176 -32 -256h-148q-4 35 10 111q-88 -131 -235 -131q-102 0 -159.5 59t-57.5 160q0 145 82 232t237.5 138
t194.5 75t47 73v-6l8 41q6 27 6 51q0 115 -128 115t-154 -144l-11 -45h-149l12 53q29 129 108.5 199t205.5 70zM606 1419h187l-254 -262h-133z" />
    <glyph glyph-name="acircumflex" unicode="&#xe2;" horiz-adv-x="751" 
d="M274 115q139 0 189 176l53 248q-29 -29 -170 -80q-190 -66 -190 -232q-1 -112 118 -112zM451 1051q126 0 199 -59.5t73 -176.5q0 -45 -12 -104l-97 -455q-37 -176 -32 -256h-148q-4 35 10 111q-88 -131 -235 -131q-102 0 -159.5 59t-57.5 160q0 145 82 232t237.5 138
t194.5 75t47 73v-6l8 41q6 27 6 51q0 115 -128 115t-154 -144l-11 -45h-149l12 53q29 129 108.5 199t205.5 70zM629 1157l-76 172l-152 -172h-133l215 262h162l103 -262h-119z" />
    <glyph glyph-name="atilde" unicode="&#xe3;" horiz-adv-x="751" 
d="M274 115q139 0 189 176l53 248q-29 -29 -170 -80q-190 -66 -190 -232q-1 -112 118 -112zM451 1051q126 0 199 -59.5t73 -176.5q0 -45 -12 -104l-97 -455q-37 -176 -32 -256h-148q-4 35 10 111q-88 -131 -235 -131q-102 0 -159.5 59t-57.5 160q0 145 82 232t237.5 138
t194.5 75t47 73v-6l8 41q6 27 6 51q0 115 -128 115t-154 -144l-11 -45h-149l12 53q29 129 108.5 199t205.5 70zM625 1194q-53 0 -96.5 37t-67.5 37q-57 0 -103 -88l-79 59q90 145 178 145q55 0 98 -37t66 -36q51 0 100 88l80 -60q-90 -145 -176 -145z" />
    <glyph glyph-name="adieresis" unicode="&#xe4;" horiz-adv-x="751" 
d="M274 115q139 0 189 176l53 248q-29 -29 -170 -80q-190 -66 -190 -232q-1 -112 118 -112zM451 1051q126 0 199 -59.5t73 -176.5q0 -45 -12 -104l-97 -455q-37 -176 -32 -256h-148q-4 35 10 111q-88 -131 -235 -131q-102 0 -159.5 59t-57.5 160q0 145 82 232t237.5 138
t194.5 75t47 73v-6l8 41q6 27 6 51q0 115 -128 115t-154 -144l-11 -45h-149l12 53q29 129 108.5 199t205.5 70zM618 1399h144l-47 -221h-144zM360 1399h144l-47 -221h-144z" />
    <glyph glyph-name="aring" unicode="&#xe5;" horiz-adv-x="751" 
d="M274 115q139 0 189 176l53 248q-29 -29 -170 -80q-190 -66 -190 -232q-1 -112 118 -112zM451 1051q126 0 199 -59.5t73 -176.5q0 -45 -12 -104l-97 -455q-37 -176 -32 -256h-148q-4 35 10 111q-88 -131 -235 -131q-102 0 -159.5 59t-57.5 160q0 145 82 232t237.5 138
t194.5 75t47 73v-6l8 41q6 27 6 51q0 115 -128 115t-154 -144l-11 -45h-149l12 53q29 129 108.5 199t205.5 70zM550 1397q-32 0 -56.5 -25.5t-24.5 -58.5t18.5 -51.5t50.5 -18.5t56 23.5t24 57.5t-18 53.5t-50 19.5zM532 1157q-70 0 -112.5 41t-42.5 109.5t53 121t124 52.5
t113 -41t42 -110t-53.5 -121t-123.5 -52z" />
    <glyph glyph-name="ae" unicode="&#xe6;" horiz-adv-x="1191" 
d="M274 115q143 0 191 190l49 232q-35 -31 -168 -78q-190 -66 -190 -230q-1 -114 118 -114zM1026 782q0 131 -137 131t-172 -163l-25 -115l-4 -17h307l23 101q8 43 8 63zM223 -20q-231 0 -231 246.5t334 346.5q121 39 168 64q43 25 57 63l10 52q6 27 6 51q0 115 -128 115
t-154 -144l-9 -45h-149l12 53q29 129 109 199t198 70q182 0 222 -131q81 131 222.5 131t214.5 -68t73 -190q0 -49 -13 -105l-41 -196h-460l-39 -175q-8 -47 -9 -69q0 -131 146 -131q129 0 166 168l10 45h152l-11 -45q-31 -147 -113.5 -226t-209.5 -79q-217 0 -275 149
q-86 -150 -258 -149z" />
    <glyph glyph-name="ccedilla" unicode="&#xe7;" horiz-adv-x="735" 
d="M729 803q0 -61 -16 -125h-152l10 47q8 31 9 68q0 121 -130.5 120.5t-164.5 -157.5l-97 -451q-8 -31 -8 -67q0 -121 130 -121t165 157l12 56h150l-10 -56q-61 -295 -314 -294h-10l-18 -70q121 0 121 -90q0 -78 -50.5 -107.5t-154.5 -29.5q-166 0 -166 100q0 4 4 37h115
q-6 -16 -7 -29q1 -37 51 -37q96 0 95 72q0 39 -66 39h-24l26 121q-207 41 -206 245q0 49 12 105l90 422q31 141 112.5 217t211.5 76t205 -63.5t75 -184.5z" />
    <glyph glyph-name="egrave" unicode="&#xe8;" horiz-adv-x="757" 
d="M590 782q0 131 -146 131q-128 1 -163 -163l-29 -132h309l21 101q8 43 8 63zM446 1051q141 0 218 -68t77 -190q0 -49 -12 -105l-41 -196h-463l-37 -175q-8 -47 -8 -69q0 -131 146 -131q129 0 166 168l10 45h151l-10 -45q-31 -147 -114 -226t-217 -79t-210.5 68.5
t-76.5 191.5q0 51 12 108l86 404q63 299 323 299zM526 1419l88 -262h-118l-142 262h172z" />
    <glyph glyph-name="eacute" unicode="&#xe9;" horiz-adv-x="757" 
d="M590 782q0 131 -146 131q-128 1 -163 -163l-29 -132h309l21 101q8 43 8 63zM446 1051q141 0 218 -68t77 -190q0 -49 -12 -105l-41 -196h-463l-37 -175q-8 -47 -8 -69q0 -131 146 -131q129 0 166 168l10 45h151l-10 -45q-31 -147 -114 -226t-217 -79t-210.5 68.5
t-76.5 191.5q0 51 12 108l86 404q63 299 323 299zM614 1419h187l-254 -262h-133z" />
    <glyph glyph-name="ecircumflex" unicode="&#xea;" horiz-adv-x="757" 
d="M590 782q0 131 -146 131q-128 1 -163 -163l-29 -132h309l21 101q8 43 8 63zM446 1051q141 0 218 -68t77 -190q0 -49 -12 -105l-41 -196h-463l-37 -175q-8 -47 -8 -69q0 -131 146 -131q129 0 166 168l10 45h151l-10 -45q-31 -147 -114 -226t-217 -79t-210.5 68.5
t-76.5 191.5q0 51 12 108l86 404q63 299 323 299zM637 1157l-76 172l-151 -172h-134l216 262h161l103 -262h-119z" />
    <glyph glyph-name="edieresis" unicode="&#xeb;" horiz-adv-x="757" 
d="M590 782q0 131 -146 131q-128 1 -163 -163l-29 -132h309l21 101q8 43 8 63zM446 1051q141 0 218 -68t77 -190q0 -49 -12 -105l-41 -196h-463l-37 -175q-8 -47 -8 -69q0 -131 146 -131q129 0 166 168l10 45h151l-10 -45q-31 -147 -114 -226t-217 -79t-210.5 68.5
t-76.5 191.5q0 51 12 108l86 404q63 299 323 299zM627 1399h143l-47 -221h-143zM369 1399h143l-47 -221h-143z" />
    <glyph glyph-name="igrave" unicode="&#xec;" horiz-adv-x="352" 
d="M145 0h-157l219 1030h158zM410 1157h-119l-141 262h172z" />
    <glyph glyph-name="iacute" unicode="&#xed;" horiz-adv-x="352" 
d="M145 0h-157l219 1030h158zM342 1157h-133l201 262h186z" />
    <glyph glyph-name="icircumflex" unicode="&#xee;" horiz-adv-x="352" 
d="M145 0h-157l219 1030h158zM205 1157h-133l215 262h162l102 -262h-119l-76 172z" />
    <glyph glyph-name="idieresis" unicode="&#xef;" horiz-adv-x="352" 
d="M145 0h-157l219 1030h158zM518 1178h-143l47 221h143zM260 1178h-143l47 221h143z" />
    <glyph glyph-name="eth" unicode="&#xf0;" horiz-adv-x="765" 
d="M557 674q0 78 -38 121t-105 43q-113 0 -148 -158l-80 -369q-8 -31 -8 -65q0 -129 133 -129t170 164l74 350q2 10 2 43zM752 934q0 -129 -33 -275l-80 -380q-63 -299 -326 -299q-135 0 -213 68t-77 192q0 47 12 102l80 367q57 270 266 270q166 0 215 -139q8 39 8 130
t-47 201l-143 -114h-142l242 194q-63 98 -180 183h186q57 -39 105 -97l118 97h144l-213 -170q78 -133 78 -330z" />
    <glyph glyph-name="ntilde" unicode="&#xf1;" horiz-adv-x="788" 
d="M547 1051q100 0 157.5 -53.5t57.5 -155.5q0 -55 -14 -111l-156 -731h-158l154 721q10 51 10 76q0 117 -115 116q-63 0 -113.5 -48t-72.5 -136l-156 -729h-157l219 1030h133l-23 -117q89 138 234 138zM483 1268q-57 0 -102 -88l-80 59q90 145 178 145q55 0 99 -37t65 -36
q51 0 100 88l80 -60q-90 -145 -176 -145q-53 0 -96 37t-68 37z" />
    <glyph glyph-name="ograve" unicode="&#xf2;" horiz-adv-x="759" 
d="M176 246q0 -129 134 -129t171 164l94 438q8 31 9 65q0 129 -134.5 129t-168.5 -163l-97 -439q-8 -41 -8 -65zM313 -20q-135 0 -212.5 68.5t-77.5 191.5q0 47 12 102l88 412q63 297 323 297q135 0 213 -69t78 -191q0 -53 -10 -101l-90 -411q-64 -299 -324 -299zM614 1157
h-118l-142 262h172z" />
    <glyph glyph-name="oacute" unicode="&#xf3;" horiz-adv-x="759" 
d="M176 246q0 -129 134 -129t171 164l94 438q8 31 9 65q0 129 -134.5 129t-168.5 -163l-97 -439q-8 -41 -8 -65zM313 -20q-135 0 -212.5 68.5t-77.5 191.5q0 47 12 102l88 412q63 297 323 297q135 0 213 -69t78 -191q0 -53 -10 -101l-90 -411q-64 -299 -324 -299zM547 1157
h-133l200 262h187z" />
    <glyph glyph-name="ocircumflex" unicode="&#xf4;" horiz-adv-x="759" 
d="M176 246q0 -129 134 -129t171 164l94 438q8 31 9 65q0 129 -134.5 129t-168.5 -163l-97 -439q-8 -41 -8 -65zM313 -20q-135 0 -212.5 68.5t-77.5 191.5q0 47 12 102l88 412q63 297 323 297q135 0 213 -69t78 -191q0 -53 -10 -101l-90 -411q-64 -299 -324 -299zM410 1157
h-134l216 262h161l103 -262h-119l-76 172z" />
    <glyph glyph-name="otilde" unicode="&#xf5;" horiz-adv-x="759" 
d="M176 246q0 -129 134 -129t171 164l94 438q8 31 9 65q0 129 -134.5 129t-168.5 -163l-97 -439q-8 -41 -8 -65zM313 -20q-135 0 -212.5 68.5t-77.5 191.5q0 47 12 102l88 412q63 297 323 297q135 0 213 -69t78 -191q0 -53 -10 -101l-90 -411q-64 -299 -324 -299zM465 1384
q55 0 98 -37t66 -36q51 0 100 88l80 -60q-90 -145 -176 -145q-53 0 -96.5 37t-67.5 37q-57 0 -102 -88l-80 59q90 145 178 145z" />
    <glyph glyph-name="odieresis" unicode="&#xf6;" horiz-adv-x="759" 
d="M176 246q0 -129 134 -129t171 164l94 438q8 31 9 65q0 129 -134.5 129t-168.5 -163l-97 -439q-8 -41 -8 -65zM313 -20q-135 0 -212.5 68.5t-77.5 191.5q0 47 12 102l88 412q63 297 323 297q135 0 213 -69t78 -191q0 -53 -10 -101l-90 -411q-64 -299 -324 -299zM723 1178
h-143l47 221h143zM465 1178h-143l47 221h143z" />
    <glyph glyph-name="divide" unicode="&#xf7;" 
d="M510 217h-164v203h164v-203zM776 553h-696v123h696v-123zM510 811h-164v201h164v-201z" />
    <glyph glyph-name="oslash" unicode="&#xf8;" horiz-adv-x="759" 
d="M317 117q127 0 164 164l94 438l3 10l-381 -561q33 -51 120 -51zM281 750l-97 -439v-6l-2 -6l383 561q-35 53 -123 53q-126 1 -161 -163zM313 -20q-129 0 -202 61l-72 -104l-70 51l84 121q-50 88 -18 233l88 412q63 297 323 297q131 0 205 -62l74 107l68 -52l-84 -122
q46 -97 18 -232l-90 -411q-63 -299 -324 -299z" />
    <glyph glyph-name="ugrave" unicode="&#xf9;" horiz-adv-x="788" 
d="M242 -20q-100 0 -157.5 53t-57.5 155q0 57 14 113l156 729h157l-153 -721q-10 -51 -11 -76q0 -117 115 -116q68 0 119.5 54.5t71.5 150.5l151 708h158l-219 -1030h-133l22 117q-88 -137 -233 -137zM537 1419l88 -262h-119l-141 262h172z" />
    <glyph glyph-name="uacute" unicode="&#xfa;" horiz-adv-x="788" 
d="M242 -20q-100 0 -157.5 53t-57.5 155q0 57 14 113l156 729h157l-153 -721q-10 -51 -11 -76q0 -117 115 -116q68 0 119.5 54.5t71.5 150.5l151 708h158l-219 -1030h-133l22 117q-88 -137 -233 -137zM625 1419h186l-254 -262h-133z" />
    <glyph glyph-name="ucircumflex" unicode="&#xfb;" horiz-adv-x="788" 
d="M242 -20q-100 0 -157.5 53t-57.5 155q0 57 14 113l156 729h157l-153 -721q-10 -51 -11 -76q0 -117 115 -116q68 0 119.5 54.5t71.5 150.5l151 708h158l-219 -1030h-133l22 117q-88 -137 -233 -137zM647 1157l-76 172l-151 -172h-133l215 262h162l102 -262h-119z" />
    <glyph glyph-name="udieresis" unicode="&#xfc;" horiz-adv-x="788" 
d="M242 -20q-100 0 -157.5 53t-57.5 155q0 57 14 113l156 729h157l-153 -721q-10 -51 -11 -76q0 -117 115 -116q68 0 119.5 54.5t71.5 150.5l151 708h158l-219 -1030h-133l22 117q-88 -137 -233 -137zM637 1399h143l-47 -221h-143zM379 1399h143l-47 -221h-143z" />
    <glyph glyph-name="yacute" unicode="&#xfd;" horiz-adv-x="741" 
d="M28 -338q-91 0 -139 35l29 129q41 -27 92 -27t77 20.5t48 69.5l53 113l-45 1028h154l20 -780l342 780h156l-534 -1177q-49 -100 -105.5 -145.5t-147.5 -45.5zM528 1157h-133l201 262h186z" />
    <glyph glyph-name="thorn" unicode="&#xfe;" horiz-adv-x="786" 
d="M606 799q0 115 -119 114q-135 0 -186 -172l-86 -407q-4 -29 -4 -53q0 -78 38 -121t105 -43q113 -1 148 157l96 457q8 43 8 68zM542 1051q110 1 168 -55t58 -158q0 -47 -12 -107l-103 -481q-59 -270 -266 -270q-166 0 -217 141l-94 -438h-160l375 1751h158l-103 -480
q86 97 196 97z" />
    <glyph glyph-name="ydieresis" unicode="&#xff;" horiz-adv-x="741" 
d="M28 -338q-91 0 -139 35l29 129q41 -27 92 -27t77 20.5t48 69.5l53 113l-45 1028h154l20 -780l342 780h156l-534 -1177q-49 -100 -105.5 -145.5t-147.5 -45.5zM705 1178h-144l47 221h144zM446 1178h-143l47 221h144z" />
    <glyph glyph-name="Amacron" unicode="&#x100;" horiz-adv-x="823" 
d="M561 1241l-307 -797h278zM82 0h-158l572 1434h221l-39 -1434h-162l10 305h-327zM426 1612l27 121h434l-27 -121h-434z" />
    <glyph glyph-name="amacron" unicode="&#x101;" horiz-adv-x="751" 
d="M274 115q139 0 189 176l53 248q-29 -29 -170 -80q-190 -66 -190 -232q-1 -112 118 -112zM451 1051q126 0 199 -59.5t73 -176.5q0 -45 -12 -104l-97 -455q-37 -176 -32 -256h-148q-4 35 10 111q-88 -131 -235 -131q-102 0 -159.5 59t-57.5 160q0 145 82 232t237.5 138
t194.5 75t47 73v-6l8 41q6 27 6 51q0 115 -128 115t-154 -144l-11 -45h-149l12 53q29 129 108.5 199t205.5 70zM307 1229l27 121h434l-27 -121h-434z" />
    <glyph glyph-name="Abreve" unicode="&#x102;" horiz-adv-x="823" 
d="M561 1241l-307 -797h278zM82 0h-158l572 1434h221l-39 -1434h-162l10 305h-327zM649 1563q-90 0 -138 44t-48 126q0 2 4 47h96q-2 -6 -2 -23q0 -86 100.5 -86t137.5 109h96q-43 -217 -246 -217z" />
    <glyph glyph-name="abreve" unicode="&#x103;" horiz-adv-x="751" 
d="M274 115q139 0 189 176l53 248q-29 -29 -170 -80q-190 -66 -190 -232q-1 -112 118 -112zM451 1051q126 0 199 -59.5t73 -176.5q0 -45 -12 -104l-97 -455q-37 -176 -32 -256h-148q-4 35 10 111q-88 -131 -235 -131q-102 0 -159.5 59t-57.5 160q0 145 82 232t237.5 138
t194.5 75t47 73v-6l8 41q6 27 6 51q0 115 -128 115t-154 -144l-11 -45h-149l12 53q29 129 108.5 199t205.5 70zM530 1180q-90 0 -138 44t-48 126q0 2 4 47h96q-2 -6 -2 -23q0 -86 101 -86t137 109h96q-43 -217 -246 -217z" />
    <glyph glyph-name="Aogonek" unicode="&#x104;" horiz-adv-x="823" 
d="M561 1241l-307 -797h278zM492 -170q0 -51 69 -51q45 0 96 26l-22 -102q-49 -20 -115 -20q-156 0 -155 118q0 123 155 199h-4l10 305h-327l-117 -305h-158l572 1434h221l-39 -1434h-47q-139 -80 -139 -170z" />
    <glyph glyph-name="aogonek" unicode="&#x105;" horiz-adv-x="751" 
d="M274 115q139 0 189 176l53 248q-29 -29 -170 -80q-190 -66 -190 -232q-1 -112 118 -112zM451 1051q126 0 199 -59.5t73 -176.5q0 -45 -12 -104l-97 -455q-37 -176 -32 -256h-58q-135 -86 -135 -174q0 -47 57.5 -47t96.5 20l-11 -96q-47 -20 -114 -20q-158 0 -158 108
q0 131 174 217q-4 39 10 103q-88 -131 -235 -131q-102 0 -159.5 59t-57.5 160q0 145 82 232t237.5 138t194.5 75t47 73v-6l8 41q6 27 6 51q0 115 -128 115t-154 -144l-11 -45h-149l12 53q29 129 108.5 199t205.5 70z" />
    <glyph glyph-name="Cacute" unicode="&#x106;" horiz-adv-x="782" 
d="M338 -20q-147 0 -227 70.5t-80 199.5q0 47 12 102l170 797q33 145 121 225t227 80t219 -69.5t80 -198.5q0 -49 -12 -105l-25 -116h-155l32 141q6 31 7 59q0 70 -41 107t-113 37q-141 0 -178 -168l-174 -813q-8 -26 -8 -78t39.5 -88.5t113.5 -36.5q145 0 180 166l45 221
h154l-47 -227q-66 -305 -340 -305zM647 1540h-133l201 262h186z" />
    <glyph glyph-name="cacute" unicode="&#x107;" horiz-adv-x="735" 
d="M729 803q0 -61 -16 -125h-152l10 47q8 31 9 68q0 121 -130.5 120.5t-164.5 -157.5l-97 -451q-8 -31 -8 -67q0 -121 130 -121t165 157l12 56h150l-10 -56q-62 -294 -314 -294q-139 0 -214.5 64.5t-75.5 186.5q0 49 12 105l90 422q31 141 112.5 217t211.5 76t205 -63.5
t75 -184.5zM541 1157h-133l200 262h187z" />
    <glyph glyph-name="Ccircumflex" unicode="&#x108;" horiz-adv-x="782" 
d="M338 -20q-147 0 -227 70.5t-80 199.5q0 47 12 102l170 797q33 145 121 225t227 80t219 -69.5t80 -198.5q0 -49 -12 -105l-25 -116h-155l32 141q6 31 7 59q0 70 -41 107t-113 37q-141 0 -178 -168l-174 -813q-8 -26 -8 -78t39.5 -88.5t113.5 -36.5q145 0 180 166l45 221
h154l-47 -227q-66 -305 -340 -305zM510 1540h-133l215 262h162l102 -262h-119l-75 172z" />
    <glyph glyph-name="ccircumflex" unicode="&#x109;" horiz-adv-x="735" 
d="M729 803q0 -61 -16 -125h-152l10 47q8 31 9 68q0 121 -130.5 120.5t-164.5 -157.5l-97 -451q-8 -31 -8 -67q0 -121 130 -121t165 157l12 56h150l-10 -56q-62 -294 -314 -294q-139 0 -214.5 64.5t-75.5 186.5q0 49 12 105l90 422q31 141 112.5 217t211.5 76t205 -63.5
t75 -184.5zM403 1157h-133l215 262h162l103 -262h-119l-76 172z" />
    <glyph glyph-name="Cdotaccent" unicode="&#x10a;" horiz-adv-x="782" 
d="M338 -20q-147 0 -227 70.5t-80 199.5q0 47 12 102l170 797q33 145 121 225t227 80t219 -69.5t80 -198.5q0 -49 -12 -105l-25 -116h-155l32 141q6 31 7 59q0 70 -41 107t-113 37q-141 0 -178 -168l-174 -813q-8 -26 -8 -78t39.5 -88.5t113.5 -36.5q145 0 180 166l45 221
h154l-47 -227q-66 -305 -340 -305zM700 1561h-153l45 221h156z" />
    <glyph glyph-name="cdotaccent" unicode="&#x10b;" horiz-adv-x="735" 
d="M729 803q0 -61 -16 -125h-152l10 47q8 31 9 68q0 121 -130.5 120.5t-164.5 -157.5l-97 -451q-8 -31 -8 -67q0 -121 130 -121t165 157l12 56h150l-10 -56q-62 -294 -314 -294q-139 0 -214.5 64.5t-75.5 186.5q0 49 12 105l90 422q31 141 112.5 217t211.5 76t205 -63.5
t75 -184.5zM594 1178h-154l45 221h156z" />
    <glyph glyph-name="Ccaron" unicode="&#x10c;" horiz-adv-x="782" 
d="M338 -20q-147 0 -227 70.5t-80 199.5q0 47 12 102l170 797q33 145 121 225t227 80t219 -69.5t80 -198.5q0 -49 -12 -105l-25 -116h-155l32 141q6 31 7 59q0 70 -41 107t-113 37q-141 0 -178 -168l-174 -813q-8 -26 -8 -78t39.5 -88.5t113.5 -36.5q145 0 180 166l45 221
h154l-47 -227q-66 -305 -340 -305zM700 1540h-161l-103 262h119l74 -172l153 172h133z" />
    <glyph glyph-name="ccaron" unicode="&#x10d;" horiz-adv-x="735" 
d="M729 803q0 -61 -16 -125h-152l10 47q8 31 9 68q0 121 -130.5 120.5t-164.5 -157.5l-97 -451q-8 -31 -8 -67q0 -121 130 -121t165 157l12 56h150l-10 -56q-62 -294 -314 -294q-139 0 -214.5 64.5t-75.5 186.5q0 49 12 105l90 422q31 141 112.5 217t211.5 76t205 -63.5
t75 -184.5zM594 1157h-162l-102 262h119l73 -172l154 172h133z" />
    <glyph glyph-name="Dcaron" unicode="&#x10e;" horiz-adv-x="835" 
d="M338 145q170 0 217 203l160 752q8 35 8 86q0 102 -131 102h-166l-244 -1143h156zM336 0h-348l305 1434h315q279 0 279 -244q0 -49 -13 -111l-157 -737q-37 -178 -127 -260t-254 -82zM698 1540h-161l-103 262h119l74 -172l153 172h133z" />
    <glyph glyph-name="dcaron" unicode="&#x10f;" horiz-adv-x="901" 
d="M432 913q-115 0 -147 -155l-97 -459q-8 -43 -8 -68q0 -114 119 -114q68 0 118 49t75 143l81 383l5 60q0 78 -39 119.5t-107 41.5zM920 1241l43 193h147l-37 -179l-119 -206h-69l90 192h-55zM238 -20q-104 0 -162 55t-58 158q0 47 13 108l102 481q55 268 266 269
q170 0 219 -146l115 529h158l-250 -1178q-37 -166 -33 -256h-147q-4 33 10 121q-86 -141 -233 -141z" />
    <glyph glyph-name="Dcroat" unicode="&#x110;" horiz-adv-x="864" 
d="M623 1288h-168l-101 -471h152l-29 -137h-151l-113 -535h156q168 0 215 203l159 752q10 57 10.5 97t-31.5 65.5t-99 25.5zM639 1434q279 0 279 -244q0 -45 -15 -111l-155 -737q-37 -178 -127.5 -260t-253.5 -82h-349l146 680h-98l28 137h99l131 617h315z" />
    <glyph glyph-name="dslash" unicode="&#x111;" horiz-adv-x="786" 
d="M432 913q-115 0 -147 -155l-97 -459q-8 -43 -8 -68q0 -114 119 -114q68 0 118 49t75 143l81 383l5 60q0 78 -39 119.5t-107 41.5zM238 -20q-104 0 -162 55t-58 158q0 47 13 108l102 481q55 268 266 269q170 0 219 -146l58 262h-166l31 119h159l33 148h158l-31 -148h92
l-28 -119h-90l-193 -911q-37 -166 -33 -256h-147q-4 33 10 121q-86 -141 -233 -141z" />
    <glyph glyph-name="Emacron" unicode="&#x112;" horiz-adv-x="729" 
d="M575 0h-587l305 1434h588l-31 -146h-424l-100 -467h344l-31 -145h-344l-113 -531h424zM842 1612h-434l26 121h434z" />
    <glyph glyph-name="emacron" unicode="&#x113;" horiz-adv-x="757" 
d="M590 782q0 131 -146 131q-128 1 -163 -163l-29 -132h309l21 101q8 43 8 63zM446 1051q141 0 218 -68t77 -190q0 -49 -12 -105l-41 -196h-463l-37 -175q-8 -47 -8 -69q0 -131 146 -131q129 0 166 168l10 45h151l-10 -45q-31 -147 -114 -226t-217 -79t-210.5 68.5
t-76.5 191.5q0 51 12 108l86 404q63 299 323 299zM315 1229l27 121h434l-26 -121h-435z" />
    <glyph glyph-name="Ebreve" unicode="&#x114;" horiz-adv-x="729" 
d="M575 0h-587l305 1434h588l-31 -146h-424l-100 -467h344l-31 -145h-344l-113 -531h424zM631 1563q-90 0 -138.5 44t-48.5 126q0 2 5 47h96q-2 -6 -2 -23q1 -86 101 -86t136 109h97q-43 -217 -246 -217z" />
    <glyph glyph-name="ebreve" unicode="&#x115;" horiz-adv-x="757" 
d="M590 782q0 131 -146 131q-128 1 -163 -163l-29 -132h309l21 101q8 43 8 63zM446 1051q141 0 218 -68t77 -190q0 -49 -12 -105l-41 -196h-463l-37 -175q-8 -47 -8 -69q0 -131 146 -131q129 0 166 168l10 45h151l-10 -45q-31 -147 -114 -226t-217 -79t-210.5 68.5
t-76.5 191.5q0 51 12 108l86 404q63 299 323 299zM539 1180q-90 0 -138.5 44t-48.5 126q0 2 4 47h97q-2 -6 -2 -23q0 -86 100.5 -86t136.5 109h96q-42 -217 -245 -217z" />
    <glyph glyph-name="Edotaccent" unicode="&#x116;" horiz-adv-x="729" 
d="M575 0h-587l305 1434h588l-31 -146h-424l-100 -467h344l-31 -145h-344l-113 -531h424zM692 1561h-153l45 221h155z" />
    <glyph glyph-name="edotaccent" unicode="&#x117;" horiz-adv-x="757" 
d="M590 782q0 131 -146 131q-128 1 -163 -163l-29 -132h309l21 101q8 43 8 63zM446 1051q141 0 218 -68t77 -190q0 -49 -12 -105l-41 -196h-463l-37 -175q-8 -47 -8 -69q0 -131 146 -131q129 0 166 168l10 45h151l-10 -45q-31 -147 -114 -226t-217 -79t-210.5 68.5
t-76.5 191.5q0 51 12 108l86 404q63 299 323 299zM492 1399h155l-47 -221h-154z" />
    <glyph glyph-name="Eogonek" unicode="&#x118;" horiz-adv-x="729" 
d="M375 -170q0 -51 69 -51q39 0 95 22l-21 -98q-53 -20 -115 -20q-158 0 -157 120q0 115 153 197h-411l305 1434h588l-31 -146h-424l-100 -467h344l-31 -145h-344l-113 -531h424l-31 -145h-71q-55 -33 -92 -80t-37 -90z" />
    <glyph glyph-name="eogonek" unicode="&#x119;" horiz-adv-x="757" 
d="M590 782q0 131 -146 131q-128 1 -163 -163l-29 -132h309l21 101q8 43 8 63zM446 1051q141 0 218 -68t77 -190q0 -49 -12 -105l-41 -196h-463l-37 -175q-8 -47 -8 -69q0 -131 146 -131q129 0 166 168l10 45h151l-10 -45q-43 -207 -184 -275q-113 -94 -113 -184
q0 -47 57.5 -47t96.5 20l-11 -96q-47 -20 -114 -20q-158 0 -158 107t113 190h-11q-141 0 -217.5 68.5t-76.5 191.5q0 51 12 108l86 404q63 299 323 299z" />
    <glyph glyph-name="Ecaron" unicode="&#x11a;" horiz-adv-x="729" 
d="M575 0h-587l305 1434h588l-31 -146h-424l-100 -467h344l-31 -145h-344l-113 -531h424zM692 1540h-162l-102 262h119l74 -172l153 172h133z" />
    <glyph glyph-name="ecaron" unicode="&#x11b;" horiz-adv-x="757" 
d="M590 782q0 131 -146 131q-128 1 -163 -163l-29 -132h309l21 101q8 43 8 63zM446 1051q141 0 218 -68t77 -190q0 -49 -12 -105l-41 -196h-463l-37 -175q-8 -47 -8 -69q0 -131 146 -131q129 0 166 168l10 45h151l-10 -45q-31 -147 -114 -226t-217 -79t-210.5 68.5
t-76.5 191.5q0 51 12 108l86 404q63 299 323 299zM815 1419l-215 -262h-162l-102 262h119l73 -172l154 172h133z" />
    <glyph glyph-name="Gcircumflex" unicode="&#x11c;" horiz-adv-x="804" 
d="M346 -20q-150 0 -232.5 69.5t-82.5 202.5q0 55 12 113l164 774q70 315 344 315q154 0 233.5 -70.5t79.5 -201.5q0 -51 -12 -111l-16 -86h-156l25 113q8 43 8 69q0 143 -160 144q-143 0 -182 -178l-172 -797q-8 -43 -9 -70q0 -141 152 -141t193 176l73 342h-162l31 145
h316l-105 -491q-66 -317 -342 -317zM512 1540h-133l215 262h162l102 -262h-119l-75 172z" />
    <glyph glyph-name="gcircumflex" unicode="&#x11d;" horiz-adv-x="782" 
d="M573 750q0 78 -37.5 120.5t-105.5 42.5q-113 0 -147 -157l-84 -402q-8 -31 -9 -67q0 -115 119 -115q68 0 120 55.5t75 153.5l63 301q6 37 6 68zM244 -209q72 0 111.5 36t56.5 116l41 198q-85 -102 -197 -102q-228 0 -227 213q0 47 12 108l90 422q59 268 266 269
q92 0 153 -47.5t77 -133.5l37 160h135l-232 -1096q-31 -137 -107.5 -204.5t-216 -67.5t-214 58.5t-74.5 166.5l4 47h150q-2 -6 -3 -28q0 -115 138 -115zM627 1157l-76 172l-152 -172h-133l215 262h162l102 -262h-118z" />
    <glyph glyph-name="Gbreve" unicode="&#x11e;" horiz-adv-x="804" 
d="M346 -20q-150 0 -232.5 69.5t-82.5 202.5q0 55 12 113l164 774q70 315 344 315q154 0 233.5 -70.5t79.5 -201.5q0 -51 -12 -111l-16 -86h-156l25 113q8 43 8 69q0 143 -160 144q-143 0 -182 -178l-172 -797q-8 -43 -9 -70q0 -141 152 -141t193 176l73 342h-162l31 145
h316l-105 -491q-66 -317 -342 -317zM641 1563q-90 0 -138 44t-48 126q0 2 4 47h96q-2 -6 -2 -23q1 -86 101 -86t137 109h96q-43 -217 -246 -217z" />
    <glyph glyph-name="gbreve" unicode="&#x11f;" horiz-adv-x="782" 
d="M573 750q0 78 -37.5 120.5t-105.5 42.5q-113 0 -147 -157l-84 -402q-8 -31 -9 -67q0 -115 119 -115q68 0 120 55.5t75 153.5l63 301q6 37 6 68zM244 -209q72 0 111.5 36t56.5 116l41 198q-85 -102 -197 -102q-228 0 -227 213q0 47 12 108l90 422q59 268 266 269
q92 0 153 -47.5t77 -133.5l37 160h135l-232 -1096q-31 -137 -107.5 -204.5t-216 -67.5t-214 58.5t-74.5 166.5l4 47h150q-2 -6 -3 -28q0 -115 138 -115zM528 1180q-90 0 -138 44t-48 126q0 2 4 47h96q-2 -6 -2 -23q0 -86 100.5 -86t137.5 109h96q-43 -217 -246 -217z" />
    <glyph glyph-name="Gdotaccent" unicode="&#x120;" horiz-adv-x="804" 
d="M346 -20q-150 0 -232.5 69.5t-82.5 202.5q0 55 12 113l164 774q70 315 344 315q154 0 233.5 -70.5t79.5 -201.5q0 -51 -12 -111l-16 -86h-156l25 113q8 43 8 69q0 143 -160 144q-143 0 -182 -178l-172 -797q-8 -43 -9 -70q0 -141 152 -141t193 176l73 342h-162l31 145
h316l-105 -491q-66 -317 -342 -317zM702 1561h-153l45 221h156z" />
    <glyph glyph-name="gdotaccent" unicode="&#x121;" horiz-adv-x="782" 
d="M573 750q0 78 -37.5 120.5t-105.5 42.5q-113 0 -147 -157l-84 -402q-8 -31 -9 -67q0 -115 119 -115q68 0 120 55.5t75 153.5l63 301q6 37 6 68zM244 -209q72 0 111.5 36t56.5 116l41 198q-85 -102 -197 -102q-228 0 -227 213q0 47 12 108l90 422q59 268 266 269
q92 0 153 -47.5t77 -133.5l37 160h135l-232 -1096q-31 -137 -107.5 -204.5t-216 -67.5t-214 58.5t-74.5 166.5l4 47h150q-2 -6 -3 -28q0 -115 138 -115zM481 1399h156l-47 -221h-154z" />
    <glyph glyph-name="uni0122" unicode="&#x122;" horiz-adv-x="804" 
d="M205 -377h-64l90 109h-69l39 172h153l-30 -158zM346 -20q-150 0 -232.5 69.5t-82.5 202.5q0 55 12 113l164 774q70 315 344 315q154 0 233.5 -70.5t79.5 -201.5q0 -51 -12 -111l-16 -86h-156l25 113q8 43 8 69q0 143 -160 144q-143 0 -182 -178l-172 -797q-8 -43 -9 -70
q0 -141 152 -141t193 176l73 342h-162l31 145h316l-105 -491q-66 -317 -342 -317z" />
    <glyph glyph-name="uni0123" unicode="&#x123;" horiz-adv-x="782" 
d="M573 750q0 78 -37.5 120.5t-105.5 42.5q-113 0 -147 -157l-84 -402q-8 -31 -9 -67q0 -115 119 -115q68 0 120 55.5t75 153.5l63 301q6 37 6 68zM244 -209q72 0 111.5 36t56.5 116l41 198q-85 -102 -197 -102q-228 0 -227 213q0 47 12 108l90 422q59 268 266 269
q92 0 153 -47.5t77 -133.5l37 160h135l-232 -1096q-31 -137 -107.5 -204.5t-216 -67.5t-214 58.5t-74.5 166.5l4 47h150q-2 -6 -3 -28q0 -115 138 -115zM557 1352h68l-35 -174h-156l33 159l108 123h64z" />
    <glyph glyph-name="Hcircumflex" unicode="&#x124;" horiz-adv-x="858" 
d="M152 0h-164l305 1434h164l-131 -613h338l131 613h161l-305 -1434h-162l144 676h-338zM539 1540h-133l215 262h161l103 -262h-119l-76 172z" />
    <glyph glyph-name="hcircumflex" unicode="&#x125;" horiz-adv-x="788" 
d="M536.5 1051q110.5 0 168 -53.5t57.5 -155.5q0 -55 -14 -111l-156 -731h-158l154 721q10 51 10 76q0 117 -115 116q-63 0 -113.5 -48t-72.5 -138l-154 -727h-155l303 1434h155l-100 -480q80 97 190.5 97zM512 1540l-76 172l-151 -172h-133l215 262h161l103 -262h-119z" />
    <glyph glyph-name="Hbar" unicode="&#x126;" horiz-adv-x="897" 
d="M346 821h338l51 242h-338zM928 1194h80l-27 -131h-82l-225 -1063h-164l143 676h-338l-143 -676h-162l226 1063h-86l28 131h86l51 240h162l-51 -240h338l51 240h164z" />
    <glyph glyph-name="hbar" unicode="&#x127;" horiz-adv-x="788" 
d="M536.5 1051q110.5 0 168 -53.5t57.5 -155.5q0 -55 -14 -111l-156 -731h-158l154 721q10 51 10 76q0 117 -115 116q-63 0 -113.5 -48t-72.5 -138l-154 -727h-155l248 1167h-99l31 119h92l31 148h155l-30 -148h164l-29 -119h-160l-45 -213q80 97 190.5 97z" />
    <glyph glyph-name="Itilde" unicode="&#x128;" horiz-adv-x="358" 
d="M152 0h-164l305 1434h164zM342 1767q55 0 98.5 -37t65.5 -36q51 0 100 88l80 -60q-90 -145 -176 -145q-53 0 -96.5 37t-67.5 37q-57 0 -102 -88l-80 59q90 145 178 145z" />
    <glyph glyph-name="itilde" unicode="&#x129;" horiz-adv-x="352" 
d="M145 0h-157l219 1030h158zM260 1384q55 0 98.5 -37t65.5 -36q51 0 100 88l80 -60q-90 -145 -176 -145q-53 0 -96.5 37t-67.5 37q-57 0 -102 -88l-80 59q90 145 178 145z" />
    <glyph glyph-name="Imacron" unicode="&#x12a;" horiz-adv-x="358" 
d="M152 0h-164l305 1434h164zM627 1612h-434l26 121h434z" />
    <glyph glyph-name="imacron" unicode="&#x12b;" horiz-adv-x="352" 
d="M145 0h-157l219 1030h158zM545 1229h-434l26 121h434z" />
    <glyph glyph-name="Ibreve" unicode="&#x12c;" horiz-adv-x="358" 
d="M152 0h-164l305 1434h164zM416 1563q-90 0 -138.5 44t-48.5 126q0 2 4 47h97q-2 -6 -2 -23q0 -86 100 -86t137 109h97q-43 -217 -246 -217z" />
    <glyph glyph-name="ibreve" unicode="&#x12d;" horiz-adv-x="352" 
d="M145 0h-157l219 1030h158zM334 1180q-90 0 -138.5 44t-48.5 126q0 2 5 47h96q-2 -6 -2 -23q0 -86 100 -86t137 109h97q-43 -217 -246 -217z" />
    <glyph glyph-name="Iogonek" unicode="&#x12e;" horiz-adv-x="358" 
d="M6 -176q0 -45 68 -45q43 0 86 20l-10 -96q-53 -20 -115 -20q-160 0 -160 113.5t148 203.5h-35l305 1434h164l-305 -1434h-31q-51 -35 -83 -83t-32 -93z" />
    <glyph glyph-name="iogonek" unicode="&#x12f;" horiz-adv-x="352" 
d="M4 -176q0 -45 68 -45q43 0 86 20l-11 -96q-53 -20 -114 -20q-160 0 -160 113.5t147 203.5h-32l219 1030h158l-220 -1030h-26q-51 -35 -83 -83t-32 -93zM242 1178l45 221h155l-47 -221h-153z" />
    <glyph glyph-name="Idot" unicode="&#x130;" horiz-adv-x="358" 
d="M152 0h-164l305 1434h164zM477 1561h-153l45 221h155z" />
    <glyph glyph-name="dotlessi" unicode="&#x131;" horiz-adv-x="352" 
d="M145 0h-157l219 1030h158z" />
    <glyph glyph-name="IJ" unicode="&#x132;" horiz-adv-x="890" 
d="M438 -8q-98 0 -153 26l30 144q55 -23 111 -23q137 0 170 162l240 1133h163l-243 -1145q-62 -297 -318 -297zM152 0h-164l305 1434h164z" />
    <glyph glyph-name="ij" unicode="&#x133;" horiz-adv-x="702" 
d="M240 -201q55 0 71 74l248 1157h158l-252 -1186q-41 -182 -199 -182q-82 0 -127 33l27 127q35 -23 74 -23zM145 0h-157l219 1030h158zM745 1178h-153l45 221h156zM395 1178h-153l45 221h155z" />
    <glyph glyph-name="Jcircumflex" unicode="&#x134;" horiz-adv-x="534" 
d="M80 -8q-100 0 -156 26l31 144q55 -23 113 -23q137 0 170 162l239 1133h164l-244 -1145q-61 -297 -317 -297zM453 1540h-134l216 262h161l103 -262h-119l-76 172z" />
    <glyph glyph-name="jcircumflex" unicode="&#x135;" horiz-adv-x="350" 
d="M-117.5 -201q35.5 0 51 16.5t25.5 57.5l248 1157h158l-252 -1186q-41 -182 -199 -182q-84 0 -129 33l29 127q33 -23 68.5 -23zM203 1157h-133l215 262h161l103 -262h-119l-76 172z" />
    <glyph glyph-name="uni0136" unicode="&#x136;" horiz-adv-x="835" 
d="M268 -268h-69l39 172h153l-31 -158l-118 -123h-64zM817 1434h178l-415 -545l112 -889h-162l-88 707l-194 -254l-96 -453h-164l305 1434h164l-148 -689z" />
    <glyph glyph-name="uni0137" unicode="&#x137;" horiz-adv-x="784" 
d="M244 -268h-70l39 172h154l-31 -158l-119 -123h-63zM668 1030h184l-348 -395l137 -635h-158l-104 489l-170 -192l-64 -297h-157l305 1434h158l-189 -887z" />
    <glyph glyph-name="kgreenlandic" unicode="&#x138;" horiz-adv-x="782" 
d="M668 1030h184l-348 -395l137 -635h-158l-104 489l-170 -190l-64 -299h-157l221 1030h158l-103 -481z" />
    <glyph glyph-name="Lacute" unicode="&#x139;" horiz-adv-x="700" 
d="M557 0h-569l305 1434h164l-275 -1289h406zM444 1540h-133l201 262h186z" />
    <glyph glyph-name="lacute" unicode="&#x13a;" horiz-adv-x="352" 
d="M145 0h-157l305 1434h158zM422 1540h-133l200 262h187z" />
    <glyph glyph-name="uni013B" unicode="&#x13b;" horiz-adv-x="700" 
d="M184 -377h-63l90 109h-70l39 172h154l-31 -158zM557 0h-569l305 1434h164l-275 -1289h406z" />
    <glyph glyph-name="uni013C" unicode="&#x13c;" horiz-adv-x="352" 
d="M-25 -377h-63l90 109h-70l37 172h156l-31 -158zM145 0h-157l305 1434h158z" />
    <glyph glyph-name="Lcaron" unicode="&#x13d;" horiz-adv-x="700" 
d="M625 1049h-70l90 192h-55l43 193h147l-37 -179zM557 0h-569l305 1434h164l-275 -1289h406z" />
    <glyph glyph-name="lcaron" unicode="&#x13e;" horiz-adv-x="464" 
d="M518 1049h-69l90 192h-56l43 193h148l-37 -179zM145 0h-157l305 1434h158z" />
    <glyph glyph-name="Ldot" unicode="&#x13f;" horiz-adv-x="698" 
d="M637 678h-156l43 199h154zM557 0h-569l305 1434h164l-275 -1289h406z" />
    <glyph glyph-name="ldot" unicode="&#x140;" horiz-adv-x="516" 
d="M514 614h-162l43 205h162zM145 0h-157l305 1434h158z" />
    <glyph glyph-name="Lslash" unicode="&#x141;" horiz-adv-x="751" 
d="M698 1036l-41 -192l-338 -293l-86 -406h406l-31 -145h-569l80 375l-137 -119l41 190l137 119l184 869h164l-148 -693z" />
    <glyph glyph-name="lslash" unicode="&#x142;" horiz-adv-x="444" 
d="M393 944l127 109l-37 -179l-129 -110l-161 -764h-158l127 598l-127 -109l37 179l129 110l139 656h158z" />
    <glyph glyph-name="Nacute" unicode="&#x143;" horiz-adv-x="870" 
d="M137 0h-149l305 1434h201l106 -1024l219 1024h150l-305 -1434h-162l-117 1165zM682 1540h-133l201 262h186z" />
    <glyph glyph-name="nacute" unicode="&#x144;" horiz-adv-x="788" 
d="M547 1051q100 0 157.5 -53.5t57.5 -155.5q0 -55 -14 -111l-156 -731h-158l154 721q10 51 10 76q0 117 -115 116q-63 0 -113.5 -48t-72.5 -136l-156 -729h-157l219 1030h133l-23 -117q89 138 234 138zM629 1419h186l-254 -262h-133z" />
    <glyph glyph-name="uni0145" unicode="&#x145;" horiz-adv-x="870" 
d="M236 -377h-64l90 109h-69l38 172h154l-31 -158zM137 0h-149l305 1434h201l106 -1024l219 1024h150l-305 -1434h-162l-117 1165z" />
    <glyph glyph-name="uni0146" unicode="&#x146;" horiz-adv-x="788" 
d="M221 -268h-69l38 172h154l-31 -158l-118 -123h-64zM547 1051q100 0 157.5 -53.5t57.5 -155.5q0 -55 -14 -111l-156 -731h-158l154 721q10 51 10 76q0 117 -115 116q-63 0 -113.5 -48t-72.5 -136l-156 -729h-157l219 1030h133l-23 -117q89 138 234 138z" />
    <glyph glyph-name="Ncaron" unicode="&#x147;" horiz-adv-x="870" 
d="M137 0h-149l305 1434h201l106 -1024l219 1024h150l-305 -1434h-162l-117 1165zM735 1540h-162l-102 262h119l74 -172l153 172h133z" />
    <glyph glyph-name="ncaron" unicode="&#x148;" horiz-adv-x="788" 
d="M547 1051q100 0 157.5 -53.5t57.5 -155.5q0 -55 -14 -111l-156 -731h-158l154 721q10 51 10 76q0 117 -115 116q-63 0 -113.5 -48t-72.5 -136l-156 -729h-157l219 1030h133l-23 -117q89 138 234 138zM829 1419l-215 -262h-161l-103 262h119l74 -172l153 172h133z" />
    <glyph glyph-name="napostrophe" unicode="&#x149;" horiz-adv-x="788" 
d="M547 1051q100 0 157.5 -53.5t57.5 -155.5q0 -55 -14 -111l-156 -731h-158l154 721q10 51 10 76q0 117 -115 116q-63 0 -113.5 -48t-72.5 -136l-156 -729h-157l219 1030h133l-23 -117q89 138 234 138zM256 1251l-125 -202h-68l91 186h-60l43 199h156z" />
    <glyph glyph-name="Eng" unicode="&#x14a;" horiz-adv-x="870" 
d="M358 -338q-110 0 -176 25l29 131q47 -25 115 -25q129 0 166 164q30 118 20 168l-123 1053l-252 -1178h-149l305 1434h201l112 -994l213 994h150l-316 -1475q-33 -153 -109 -225t-186 -72z" />
    <glyph glyph-name="eng" unicode="&#x14b;" horiz-adv-x="790" 
d="M547 1051q99 1 157 -53t58 -156q0 -55 -14 -111l-183 -862q-47 -207 -233 -207q-92 0 -150 33l27 131q45 -27 96 -27t75 25t34 80l174 817q10 51 10 76q0 117 -115 116q-63 0 -113 -48t-73 -136l-156 -729h-157l219 1030h133l-23 -117q89 138 234 138z" />
    <glyph glyph-name="Omacron" unicode="&#x14c;" 
d="M358 125q139 0 177 178l167 793q8 31 9 67q0 145 -162 146q-143 0 -180 -179l-168 -792q-8 -31 -8 -66q-1 -147 165 -147zM348 -20q-150 0 -233.5 72.5t-83.5 207.5q0 49 12 105l164 772q68 317 348 317q150 0 233.5 -72.5t83.5 -205.5q0 -51 -12 -107l-164 -774
q-63 -315 -348 -315zM860 1612h-434l27 121h434z" />
    <glyph glyph-name="omacron" unicode="&#x14d;" horiz-adv-x="759" 
d="M176 246q0 -129 134 -129t171 164l94 438q8 31 9 65q0 129 -134.5 129t-168.5 -163l-97 -439q-8 -41 -8 -65zM313 -20q-135 0 -212.5 68.5t-77.5 191.5q0 47 12 102l88 412q63 297 323 297q135 0 213 -69t78 -191q0 -53 -10 -101l-90 -411q-64 -299 -324 -299zM750 1229
h-435l27 121h434z" />
    <glyph glyph-name="Obreve" unicode="&#x14e;" 
d="M358 125q139 0 177 178l167 793q8 31 9 67q0 145 -162 146q-143 0 -180 -179l-168 -792q-8 -31 -8 -66q-1 -147 165 -147zM348 -20q-150 0 -233.5 72.5t-83.5 207.5q0 49 12 105l164 772q68 317 348 317q150 0 233.5 -72.5t83.5 -205.5q0 -51 -12 -107l-164 -774
q-63 -315 -348 -315zM649 1563q-90 0 -138 44t-48 126q0 2 4 47h96q-2 -6 -2 -23q1 -86 101 -86t137 109h96q-43 -217 -246 -217z" />
    <glyph glyph-name="obreve" unicode="&#x14f;" horiz-adv-x="759" 
d="M176 246q0 -129 134 -129t171 164l94 438q8 31 9 65q0 129 -134.5 129t-168.5 -163l-97 -439q-8 -41 -8 -65zM313 -20q-135 0 -212.5 68.5t-77.5 191.5q0 47 12 102l88 412q63 297 323 297q135 0 213 -69t78 -191q0 -53 -10 -101l-90 -411q-64 -299 -324 -299zM539 1180
q-90 0 -138.5 44t-48.5 126q0 2 4 47h97q-2 -6 -2 -23q0 -86 100.5 -86t136.5 109h96q-42 -217 -245 -217z" />
    <glyph glyph-name="Ohungarumlaut" unicode="&#x150;" 
d="M358 125q139 0 177 178l167 793q8 31 9 67q0 145 -162 146q-143 0 -180 -179l-168 -792q-8 -31 -8 -66q-1 -147 165 -147zM348 -20q-150 0 -233.5 72.5t-83.5 207.5q0 49 12 105l164 772q68 317 348 317q150 0 233.5 -72.5t83.5 -205.5q0 -51 -12 -107l-164 -774
q-63 -315 -348 -315zM791 1540h-125l200 262h176zM520 1540h-123l201 262h176z" />
    <glyph glyph-name="ohungarumlaut" unicode="&#x151;" horiz-adv-x="759" 
d="M176 246q0 -129 134 -129t171 164l94 438q8 31 9 65q0 129 -134.5 129t-168.5 -163l-97 -439q-8 -41 -8 -65zM313 -20q-135 0 -212.5 68.5t-77.5 191.5q0 47 12 102l88 412q63 297 323 297q135 0 213 -69t78 -191q0 -53 -10 -101l-90 -411q-64 -299 -324 -299zM680 1157
h-125l201 262h176zM410 1157h-123l200 262h177z" />
    <glyph glyph-name="OE" unicode="&#x152;" horiz-adv-x="1204" 
d="M330 145h166l241 1143h-153q-174 0 -217 -201l-160 -751q-10 -57 -10 -98q-1 -41 31 -67t102 -26zM303 0q-268 0 -268 240q0 53 12 114l158 738q37 178 131 260t260 82h762l-33 -146h-424l-100 -467h346l-31 -145h-346l-113 -531h426l-30 -145h-750z" />
    <glyph glyph-name="oe" unicode="&#x153;" horiz-adv-x="1212" 
d="M739 750l-28 -132h309l20 101q8 43 9 63q0 131 -146 131q-129 1 -164 -163zM450 913q-134 0 -169 -163l-97 -439q-8 -41 -8 -65q0 -129 134 -129t171 164l94 438q8 31 9 65q0 129 -134 129zM904 1051q146 0 221 -66t75 -188q0 -51 -12 -109l-41 -196h-463l-37 -175
q-8 -47 -8 -69q0 -131 137 -131t174 168l11 45h151l-10 -45q-66 -305 -318 -305q-199 0 -247 133q-77 -133 -221 -133t-219 66t-74 190q0 47 12 106l88 412q63 297 317 297q190 0 242 -131q76 131 222 131z" />
    <glyph glyph-name="Racute" unicode="&#x154;" horiz-adv-x="823" 
d="M438 793q100 0 156.5 47t81.5 155l22 103q10 61 11 82q0 109 -134 108h-149l-107 -495h119zM604 1434q268 0 268 -232q0 -49 -12 -110l-16 -78q-29 -133 -83 -204t-149 -93v-2q121 -31 121 -180q0 -55 -14 -111l-53 -256q-29 -138 -19 -168h-158q-2 10 -2 53t19 127
l55 264q12 52 12 102q0 100 -151 101h-133l-137 -647h-164l305 1434h311zM637 1540h-133l201 262h186z" />
    <glyph glyph-name="racute" unicode="&#x155;" horiz-adv-x="544" 
d="M539 1051q57 0 90 -21l-31 -149q-33 18 -88 18q-166 0 -227 -235l-142 -664h-157l219 1030h133l-29 -153q82 174 232 174zM524 1419h187l-254 -262h-133z" />
    <glyph glyph-name="uni0156" unicode="&#x156;" horiz-adv-x="823" 
d="M227 -377h-63l90 109h-70l39 172h154l-31 -158zM438 793q100 0 156.5 47t81.5 155l22 103q10 61 11 82q0 109 -134 108h-149l-107 -495h119zM604 1434q268 0 268 -232q0 -49 -12 -110l-16 -78q-29 -133 -83 -204t-149 -93v-2q121 -31 121 -180q0 -55 -14 -111l-53 -256
q-29 -138 -19 -168h-158q-2 10 -2 53t19 127l55 264q12 52 12 102q0 100 -151 101h-133l-137 -647h-164l305 1434h311z" />
    <glyph glyph-name="uni0157" unicode="&#x157;" horiz-adv-x="544" 
d="M0 -268h-70l37 172h156l-31 -158l-119 -123h-63zM539 1051q57 0 90 -21l-31 -149q-33 18 -88 18q-166 0 -227 -235l-142 -664h-157l219 1030h133l-29 -153q82 174 232 174z" />
    <glyph glyph-name="Rcaron" unicode="&#x158;" horiz-adv-x="823" 
d="M438 793q100 0 156.5 47t81.5 155l22 103q10 61 11 82q0 109 -134 108h-149l-107 -495h119zM604 1434q268 0 268 -232q0 -49 -12 -110l-16 -78q-29 -133 -83 -204t-149 -93v-2q121 -31 121 -180q0 -55 -14 -111l-53 -256q-29 -138 -19 -168h-158q-2 10 -2 53t19 127
l55 264q12 52 12 102q0 100 -151 101h-133l-137 -647h-164l305 1434h311zM692 1540h-162l-102 262h119l74 -172l153 172h133z" />
    <glyph glyph-name="rcaron" unicode="&#x159;" horiz-adv-x="544" 
d="M539 1051q57 0 90 -21l-31 -149q-33 18 -88 18q-166 0 -227 -235l-142 -664h-157l219 1030h133l-29 -153q82 174 232 174zM725 1419l-215 -262h-162l-102 262h119l73 -172l154 172h133z" />
    <glyph glyph-name="Sacute" unicode="&#x15a;" horiz-adv-x="755" 
d="M299 -20q-295 0 -295 262q0 61 14 116l11 50h153l-16 -76q-8 -43 -8 -70q0 -137 153 -137q94 0 144.5 70.5t50.5 181.5q0 141 -148 299q-180 193 -180 375q0 183 98 293q100 110 254 110q304 0 304 -256q0 -45 -17 -121l-6 -26h-154l13 51q8 31 8 74q0 133 -150 133
q-90 0 -139 -65.5t-49 -168.5q0 -139 147 -299q180 -193 180.5 -380t-98 -301.5t-270.5 -114.5zM621 1526h-134l201 262h186z" />
    <glyph glyph-name="sacute" unicode="&#x15b;" horiz-adv-x="694" 
d="M-2 211q0 37 14 100h150l-8 -30q-6 -31 -6.5 -70t34.5 -67.5t101.5 -28.5t110.5 48t44 110.5t-32.5 102.5t-97 82t-101.5 70q-33 29 -62.5 87.5t-29.5 119.5q0 135 88 225t215 90.5t195.5 -60t68.5 -165.5q0 -31 -10 -82h-146q8 43 8.5 79t-30.5 64.5t-90.5 28.5
t-102.5 -46t-43 -105t34 -101t112 -93.5t121 -96.5q61 -61 61 -182t-89 -216t-245 -95q-119 0 -191.5 61t-72.5 170zM508 1157h-133l200 262h187z" />
    <glyph glyph-name="Scircumflex" unicode="&#x15c;" horiz-adv-x="755" 
d="M299 -20q-295 0 -295 262q0 61 14 116l11 50h153l-16 -76q-8 -43 -8 -70q0 -137 153 -137q94 0 144.5 70.5t50.5 181.5q0 141 -148 299q-180 193 -180 375q0 183 98 293q100 110 254 110q304 0 304 -256q0 -45 -17 -121l-6 -26h-154l13 51q8 31 8 74q0 133 -150 133
q-90 0 -139 -65.5t-49 -168.5q0 -139 147 -299q180 -193 180.5 -380t-98 -301.5t-270.5 -114.5zM483 1526h-133l215 262h162l102 -262h-118l-76 172z" />
    <glyph glyph-name="scircumflex" unicode="&#x15d;" horiz-adv-x="694" 
d="M-2 211q0 37 14 100h150l-8 -30q-6 -31 -6.5 -70t34.5 -67.5t101.5 -28.5t110.5 48t44 110.5t-32.5 102.5t-97 82t-101.5 70q-33 29 -62.5 87.5t-29.5 119.5q0 135 88 225t215 90.5t195.5 -60t68.5 -165.5q0 -31 -10 -82h-146q8 43 8.5 79t-30.5 64.5t-90.5 28.5
t-102.5 -46t-43 -105t34 -101t112 -93.5t121 -96.5q61 -61 61 -182t-89 -216t-245 -95q-119 0 -191.5 61t-72.5 170zM371 1157h-133l215 262h161l103 -262h-119l-76 172z" />
    <glyph glyph-name="Scedilla" unicode="&#x15e;" horiz-adv-x="755" 
d="M530 1454q304 0 304 -256q0 -45 -17 -121l-6 -26h-154l13 51q8 31 8 74q0 133 -150 133q-90 0 -139 -65.5t-49 -168.5q0 -139 147 -299q180 -193 180.5 -380t-98 -301.5t-268.5 -114.5l-16 -62q121 0 121 -90q0 -78 -50.5 -107.5t-154.5 -29.5q-166 0 -166 100q0 4 4 37
h115q-6 -14 -7 -29q1 -37 51 -37q96 0 95 72q0 39 -66 39h-24l22 111q-221 31 -221 258q0 61 14 116l11 50h153l-16 -76q-8 -43 -8 -70q0 -137 153 -137q94 0 144.5 70.5t50.5 181.5q0 141 -148 299q-180 193 -180 375t99 292.5t253 110.5z" />
    <glyph glyph-name="scedilla" unicode="&#x15f;" horiz-adv-x="694" 
d="M-2 211q0 37 14 100h150l-8 -30q-6 -31 -6.5 -70t34.5 -67.5t101.5 -28.5t110.5 48t44 110.5t-32.5 102.5t-97 82t-101.5 70q-33 29 -62.5 87.5t-29.5 119.5q0 135 88 225t215 90.5t195.5 -60t68.5 -165.5q0 -31 -10 -82h-146q8 43 8.5 79t-30.5 64.5t-90.5 28.5
t-102.5 -46t-43 -105t34 -101t112 -93.5t121 -96.5q61 -61 61 -182t-86 -214t-238 -97l-18 -70q121 0 121 -90q0 -78 -50.5 -107.5t-154.5 -29.5q-166 0 -166 100q0 4 4 37h115q-6 -16 -6 -29q0 -37 50 -37q95 0 95 72q0 39 -65 39h-25l25 121q-92 14 -145.5 73.5
t-53.5 151.5z" />
    <glyph glyph-name="Scaron" unicode="&#x160;" horiz-adv-x="755" 
d="M299 -20q-295 0 -295 262q0 61 14 116l11 50h153l-16 -76q-8 -43 -8 -70q0 -137 153 -137q94 0 144.5 70.5t50.5 181.5q0 141 -148 299q-180 193 -180 375q0 183 98 293q100 110 254 110q304 0 304 -256q0 -45 -17 -121l-6 -26h-154l13 51q8 31 8 74q0 133 -150 133
q-90 0 -139 -65.5t-49 -168.5q0 -139 147 -299q180 -193 180.5 -380t-98 -301.5t-270.5 -114.5zM674 1526h-162l-102 262h118l74 -172l154 172h133z" />
    <glyph glyph-name="scaron" unicode="&#x161;" horiz-adv-x="694" 
d="M-2 211q0 37 14 100h150l-8 -30q-6 -31 -6.5 -70t34.5 -67.5t101.5 -28.5t110.5 48t44 110.5t-32.5 102.5t-97 82t-101.5 70q-33 29 -62.5 87.5t-29.5 119.5q0 135 88 225t215 90.5t195.5 -60t68.5 -165.5q0 -31 -10 -82h-146q8 43 8.5 79t-30.5 64.5t-90.5 28.5
t-102.5 -46t-43 -105t34 -101t112 -93.5t121 -96.5q61 -61 61 -182t-89 -216t-245 -95q-119 0 -191.5 61t-72.5 170zM561 1157h-162l-102 262h119l73 -172l154 172h133z" />
    <glyph glyph-name="uni0162" unicode="&#x162;" horiz-adv-x="739" 
d="M395 -180q0 -78 -50 -107.5t-155 -29.5q-166 0 -165 100q0 4 4 37h114q-6 -16 -6 -29q1 -37 51 -37q96 0 95 72q0 39 -66 39h-24l28 135h-43l275 1288h-254l30 146h672l-33 -146h-254l-272 -1288h-45l-23 -90q121 0 121 -90z" />
    <glyph glyph-name="uni0163" unicode="&#x163;" horiz-adv-x="544" 
d="M313.5 -20q-36.5 0 -73.5 4l-19 -74q121 0 121 -90q0 -78 -50 -107.5t-155 -29.5q-166 0 -166 100q0 20 4 37h115q-6 -16 -6 -29q0 -37 50 -37q95 0 95 72q0 39 -65 39h-25l31 141q-80 47 -80 150q0 35 8 65l146 678h-129l28 131h131l80 297h138l-64 -297h186l-28 -131
h-187l-143 -674l-4 -37q0 -72 88 -71q33 0 78 16l-19 -137q-49 -16 -85.5 -16z" />
    <glyph glyph-name="Tcaron" unicode="&#x164;" horiz-adv-x="739" 
d="M342 0h-164l275 1288h-254l30 146h672l-33 -146h-254zM670 1540h-162l-102 262h118l74 -172l154 172h133z" />
    <glyph glyph-name="tcaron" unicode="&#x165;" horiz-adv-x="565" 
d="M271.5 -20q-78.5 0 -130 46t-51.5 130q0 35 8 65l146 678h-129l28 131h131l80 297h138l-64 -297h186l-28 -131h-187l-143 -674l-4 -37q0 -72 88 -71q33 0 78 16l-19 -137q-49 -16 -127.5 -16zM543 1311l41 192h149l-37 -178l-118 -207h-70l90 193h-55z" />
    <glyph glyph-name="Tbar" unicode="&#x166;" horiz-adv-x="735" 
d="M901 1434l-33 -146h-254l-98 -467h168l-31 -145h-168l-143 -676h-164l144 676h-172l30 145h172l101 467h-254l30 146h672z" />
    <glyph glyph-name="tbar" unicode="&#x167;" horiz-adv-x="544" 
d="M271.5 -20q-78.5 0 -130 46t-51.5 130q0 35 8 65l56 256h-111l31 111h102l68 311h-129l28 131h131l80 297h138l-64 -297h186l-28 -131h-187l-65 -311h151l-28 -111h-148l-53 -252l-4 -37q0 -72 88 -71q33 0 78 16l-19 -137q-49 -16 -127.5 -16z" />
    <glyph glyph-name="Utilde" unicode="&#x168;" horiz-adv-x="825" 
d="M352 -20q-147 0 -230 70.5t-83 203.5q0 53 12 111l228 1069h163l-235 -1098q-8 -43 -8 -66q0 -145 163 -145q135 0 177 176l241 1133h158l-244 -1137q-68 -317 -342 -317zM578 1767q55 0 98 -37t65 -36q51 0 101 88l80 -60q-90 -145 -177 -145q-53 0 -96 37t-67 37
q-58 0 -103 -88l-80 59q90 145 179 145z" />
    <glyph glyph-name="utilde" unicode="&#x169;" horiz-adv-x="788" 
d="M242 -20q-100 0 -157.5 53t-57.5 155q0 57 14 113l156 729h157l-153 -721q-10 -51 -11 -76q0 -117 115 -116q68 0 119.5 54.5t71.5 150.5l151 708h158l-219 -1030h-133l22 117q-88 -137 -233 -137zM479 1268q-57 0 -102 -88l-80 59q90 145 178 145q55 0 98.5 -37
t65.5 -36q51 0 100 88l80 -60q-90 -145 -176 -145q-53 0 -111 47q-28 27 -53 27z" />
    <glyph glyph-name="Umacron" unicode="&#x16a;" horiz-adv-x="825" 
d="M352 -20q-147 0 -230 70.5t-83 203.5q0 53 12 111l228 1069h163l-235 -1098q-8 -43 -8 -66q0 -145 163 -145q135 0 177 176l241 1133h158l-244 -1137q-68 -317 -342 -317zM862 1612h-434l27 121h434z" />
    <glyph glyph-name="umacron" unicode="&#x16b;" horiz-adv-x="788" 
d="M242 -20q-100 0 -157.5 53t-57.5 155q0 57 14 113l156 729h157l-153 -721q-10 -51 -11 -76q0 -117 115 -116q68 0 119.5 54.5t71.5 150.5l151 708h158l-219 -1030h-133l22 117q-88 -137 -233 -137zM352 1350h434l-26 -121h-434z" />
    <glyph glyph-name="Ubreve" unicode="&#x16c;" horiz-adv-x="825" 
d="M352 -20q-147 0 -230 70.5t-83 203.5q0 53 12 111l228 1069h163l-235 -1098q-8 -43 -8 -66q0 -145 163 -145q135 0 177 176l241 1133h158l-244 -1137q-68 -317 -342 -317zM651 1563q-90 0 -138 44t-48 126q0 2 4 47h96q-2 -6 -2 -23q1 -86 101 -86t137 109h96
q-43 -217 -246 -217z" />
    <glyph glyph-name="ubreve" unicode="&#x16d;" horiz-adv-x="788" 
d="M242 -20q-100 0 -157.5 53t-57.5 155q0 57 14 113l156 729h157l-153 -721q-10 -51 -11 -76q0 -117 115 -116q68 0 119.5 54.5t71.5 150.5l151 708h158l-219 -1030h-133l22 117q-88 -137 -233 -137zM549 1180q-90 0 -138.5 44t-48.5 126q0 2 5 47h96q-2 -6 -2 -23
q0 -86 100.5 -86t136.5 109h97q-43 -217 -246 -217z" />
    <glyph glyph-name="Uring" unicode="&#x16e;" horiz-adv-x="825" 
d="M352 -20q-147 0 -230 70.5t-83 203.5q0 53 12 111l228 1069h163l-235 -1098q-8 -43 -8 -66q0 -145 163 -145q135 0 177 176l241 1133h158l-244 -1137q-68 -317 -342 -317zM590 1696q0 -70 69 -70q33 0 56.5 24.5t23.5 57.5t-18.5 52.5t-50 19.5t-56 -25.5t-24.5 -58.5z
M653 1540q-70 0 -112.5 41t-42.5 109.5t53 121t124 52.5t112.5 -41t41.5 -110t-53 -121t-123 -52z" />
    <glyph glyph-name="uring" unicode="&#x16f;" horiz-adv-x="788" 
d="M242 -20q-100 0 -157.5 53t-57.5 155q0 57 14 113l156 729h157l-153 -721q-10 -51 -11 -76q0 -117 115 -116q68 0 119.5 54.5t71.5 150.5l151 708h158l-219 -1030h-133l22 117q-88 -137 -233 -137zM568 1397q-32 0 -56.5 -25.5t-24.5 -58.5t18.5 -51.5t51.5 -18.5
t56.5 23.5t23.5 57.5t-18.5 53.5t-50.5 19.5zM551 1157q-70 0 -113 41t-43 109.5t53.5 121t124 52.5t112.5 -41t42 -110t-53 -121t-123 -52z" />
    <glyph glyph-name="Uhungarumlaut" unicode="&#x170;" horiz-adv-x="825" 
d="M352 -20q-147 0 -230 70.5t-83 203.5q0 53 12 111l228 1069h163l-235 -1098q-8 -43 -8 -66q0 -145 163 -145q135 0 177 176l241 1133h158l-244 -1137q-68 -317 -342 -317zM793 1540h-125l200 262h176zM522 1540h-123l201 262h176z" />
    <glyph glyph-name="uhungarumlaut" unicode="&#x171;" horiz-adv-x="788" 
d="M242 -20q-100 0 -157.5 53t-57.5 155q0 57 14 113l156 729h157l-153 -721q-10 -51 -11 -76q0 -117 115 -116q68 0 119.5 54.5t71.5 150.5l151 708h158l-219 -1030h-133l22 117q-88 -137 -233 -137zM942 1419l-252 -262h-125l201 262h176zM498 1419h176l-254 -262h-123z
" />
    <glyph glyph-name="Uogonek" unicode="&#x172;" horiz-adv-x="825" 
d="M307 -174q0 -47 57.5 -47t96.5 20l-10 -96q-47 -20 -115 -20q-158 0 -158 109.5t127 189.5q-127 10 -196.5 80.5t-69.5 191.5q0 53 12 111l228 1069h163l-235 -1098q-8 -43 -8 -66q0 -145 163 -145q136 0 177 176l241 1133h158l-244 -1137q-59 -274 -272 -311
q-115 -80 -115 -160z" />
    <glyph glyph-name="uogonek" unicode="&#x173;" horiz-adv-x="788" 
d="M408 -174q0 -47 57 -47t96 20l-10 -96q-47 -20 -115 -20q-158 0 -157 108q0 131 176 217l20 109q-88 -137 -233 -137q-100 0 -157.5 53t-57.5 155q0 57 14 113l156 729h157l-153 -721q-10 -51 -11 -76q0 -117 115 -116q68 0 119 54t72 151l151 708h158l-219 -1030h-43
q-135 -86 -135 -174z" />
    <glyph glyph-name="Wcircumflex" unicode="&#x174;" horiz-adv-x="1142" 
d="M324 0h-218l132 1434h153l-117 -1213l406 1213h180l-110 -1213l401 1213h145l-477 -1434h-207l93 1118zM682 1540h-133l215 262h162l102 -262h-119l-75 172z" />
    <glyph glyph-name="wcircumflex" unicode="&#x175;" horiz-adv-x="1093" 
d="M309 0h-200l43 1030h149l-33 -817l312 817h161l-36 -817l315 817h145l-395 -1030h-190l24 743zM578 1157h-134l215 262h162l103 -262h-119l-76 172z" />
    <glyph glyph-name="Ycircumflex" unicode="&#x176;" horiz-adv-x="804" 
d="M373 0h-164l135 629l-117 805h164l74 -598l336 598h168l-461 -805zM508 1540h-133l215 262h162l102 -262h-119l-76 172z" />
    <glyph glyph-name="ycircumflex" unicode="&#x177;" horiz-adv-x="741" 
d="M28 -338q-91 0 -139 35l29 129q41 -27 92 -27t77 20.5t48 69.5l53 113l-45 1028h154l20 -780l342 780h156l-534 -1177q-49 -100 -105.5 -145.5t-147.5 -45.5zM391 1157h-133l215 262h162l102 -262h-119l-75 172z" />
    <glyph glyph-name="Ydieresis" unicode="&#x178;" horiz-adv-x="804" 
d="M373 0h-164l135 629l-117 805h164l74 -598l336 598h168l-461 -805zM821 1561h-143l47 221h143zM563 1561h-143l47 221h143z" />
    <glyph glyph-name="Zacute" unicode="&#x179;" horiz-adv-x="727" 
d="M571 0h-639l29 143l701 1145h-435l33 146h617l-29 -142l-698 -1147h452zM618 1540h-133l201 262h186z" />
    <glyph glyph-name="zacute" unicode="&#x17a;" horiz-adv-x="671" 
d="M510 0h-571l24 129l559 770h-372l28 131h551l-27 -129l-557 -768h394zM510 1157h-133l201 262h186z" />
    <glyph glyph-name="Zdotaccent" unicode="&#x17b;" horiz-adv-x="727" 
d="M571 0h-639l29 143l701 1145h-435l33 146h617l-29 -142l-698 -1147h452zM672 1561h-154l45 221h156z" />
    <glyph glyph-name="zdotaccent" unicode="&#x17c;" horiz-adv-x="671" 
d="M510 0h-571l24 129l559 770h-372l28 131h551l-27 -129l-557 -768h394zM563 1178h-153l45 221h155z" />
    <glyph glyph-name="Zcaron" unicode="&#x17d;" horiz-adv-x="727" 
d="M571 0h-639l29 143l701 1145h-435l33 146h617l-29 -142l-698 -1147h452zM672 1540h-162l-102 262h118l74 -172l154 172h133z" />
    <glyph glyph-name="zcaron" unicode="&#x17e;" horiz-adv-x="671" 
d="M510 0h-571l24 129l559 770h-372l28 131h551l-27 -129l-557 -768h394zM563 1157h-162l-102 262h119l74 -172l153 172h133z" />
    <glyph glyph-name="florin" unicode="&#x192;" 
d="M600 550q0 107 -164 105h-108l-99 -458h129q181 -1 220 198l10 51q12 53 12 104zM571 1237h-120l-93 -436h88q195 0 238 203l10 43q10 57 11 81q0 109 -134 109zM868 1163q0 -43 -14 -106l-6 -31q-25 -127 -77 -197t-144 -94v-4q129 -51 129 -205q0 -47 -13 -100l-10 -47
q-57 -272 -284 -318l-37 -174h-107l35 164h-133l-35 -164h-106l34 164h-151l31 146h90l221 1040h-88l30 145h150l31 144h106l-31 -144h134l30 144h107l-35 -160q143 -45 143 -203z" />
    <glyph glyph-name="AEacute" unicode="&#x1fc;" horiz-adv-x="1193" 
d="M309 444h240l168 787zM1348 1434l-33 -146h-422l-98 -467h342l-31 -145h-342l-115 -531h424l-31 -145h-587l65 305h-282l-158 -305h-160l750 1434h678zM920 1802h186l-254 -262h-133z" />
    <glyph glyph-name="aeacute" unicode="&#x1fd;" horiz-adv-x="1191" 
d="M274 115q143 0 191 190l49 232q-35 -31 -168 -78q-190 -66 -190 -230q-1 -114 118 -114zM1026 782q0 131 -137 131t-172 -163l-25 -115l-4 -17h307l23 101q8 43 8 63zM223 -20q-231 0 -231 246.5t334 346.5q121 39 168 64q43 25 57 63l10 52q6 27 6 51q0 115 -128 115
t-154 -144l-9 -45h-149l12 53q29 129 109 199t198 70q182 0 222 -131q81 131 222.5 131t214.5 -68t73 -190q0 -49 -13 -105l-41 -196h-460l-39 -175q-8 -47 -9 -69q0 -131 146 -131q129 0 166 168l10 45h152l-11 -45q-31 -147 -113.5 -226t-209.5 -79q-217 0 -275 149
q-86 -150 -258 -149zM829 1419h187l-254 -262h-133z" />
    <glyph glyph-name="Oslashacute" unicode="&#x1fe;" 
d="M358 125q140 0 177 178l149 703l-483 -793q31 -88 157 -88zM369 1130l-150 -708l483 797q-29 90 -153 90q-143 -1 -180 -179zM872 1181q0 -56 -12 -112l-164 -774q-63 -315 -348 -315q-156 0 -239 77l-72 -116l-80 51l94 153q-20 43 -20 103.5t12 116.5l164 772
q68 317 348 317q162 0 244 -80l71 119l78 -51l-94 -156q18 -49 18 -105zM725 1802h186l-254 -262h-133z" />
    <glyph glyph-name="oslashacute" unicode="&#x1ff;" horiz-adv-x="759" 
d="M317 117q127 0 164 164l94 438l3 10l-381 -561q33 -51 120 -51zM281 750l-97 -439v-6l-2 -6l383 561q-35 53 -123 53q-126 1 -161 -163zM313 -20q-129 0 -202 61l-72 -104l-70 51l84 121q-50 88 -18 233l88 412q63 297 323 297q131 -1 205 -62l74 107l68 -52l-84 -122
q46 -97 18 -232l-90 -411q-63 -299 -324 -299zM614 1419h187l-254 -262h-133z" />
    <glyph glyph-name="uni0218" unicode="&#x218;" horiz-adv-x="755" 
d="M178 -369h-63l90 109h-70l39 172h154l-31 -158zM299 -20q-295 0 -295 262q0 61 14 116l11 50h153l-16 -76q-8 -43 -8 -70q0 -137 153 -137q94 0 144.5 70.5t50.5 181.5q0 141 -148 299q-180 193 -180 375q0 183 98 293q100 110 254 110q304 0 304 -256q0 -45 -17 -121
l-6 -26h-154l13 51q8 31 8 74q0 133 -150 133q-90 0 -139 -65.5t-49 -168.5q0 -139 147 -299q180 -193 180.5 -380t-98 -301.5t-270.5 -114.5z" />
    <glyph glyph-name="uni0219" unicode="&#x219;" horiz-adv-x="694" 
d="M147 -377h-63l90 109h-70l39 172h154l-31 -158zM-2 211q0 37 14 100h150l-8 -30q-6 -31 -6.5 -70t34.5 -67.5t101.5 -28.5t110.5 48t44 110.5t-32.5 102.5t-97 82t-101.5 70q-33 29 -62.5 87.5t-29.5 119.5q0 135 88 225t215 90.5t195.5 -60t68.5 -165.5q0 -31 -10 -82
h-146q8 43 8.5 79t-30.5 64.5t-90.5 28.5t-102.5 -46t-43 -105t34 -101t112 -93.5t121 -96.5q61 -61 61 -182t-89 -216t-245 -95q-119 0 -191.5 61t-72.5 170z" />
    <glyph glyph-name="uni021A" unicode="&#x21a;" horiz-adv-x="739" 
d="M168 -377h-64l91 109h-70l39 172h153l-30 -158zM342 0h-164l275 1288h-254l30 146h672l-33 -146h-254z" />
    <glyph glyph-name="uni021B" unicode="&#x21b;" horiz-adv-x="544" 
d="M141 -268h-69l39 172h153l-31 -158l-118 -123h-64zM271.5 -20q-78.5 0 -130 46t-51.5 130q0 35 8 65l146 678h-129l28 131h131l80 297h138l-64 -297h186l-28 -131h-187l-143 -674l-4 -37q0 -72 88 -71q33 0 78 16l-19 -137q-49 -16 -127.5 -16z" />
    <glyph glyph-name="uni0237" unicode="&#x237;" horiz-adv-x="350" 
d="M-117.5 -201q35.5 0 51 16.5t25.5 57.5l248 1157h158l-252 -1186q-41 -182 -199 -182q-84 0 -129 33l29 127q33 -23 68.5 -23z" />
    <glyph glyph-name="uni02BC" unicode="&#x2bc;" horiz-adv-x="0" 
d="M113 1049h-70l92 186h-59l43 199h153l-36 -183z" />
    <glyph glyph-name="circumflex" unicode="&#x2c6;" horiz-adv-x="1024" 
d="M541 1157h-133l215 262h161l103 -262h-119l-76 172z" />
    <glyph glyph-name="caron" unicode="&#x2c7;" horiz-adv-x="1024" 
d="M731 1157h-162l-102 262h119l73 -172l154 172h133z" />
    <glyph glyph-name="uni02C9" unicode="&#x2c9;" horiz-adv-x="1024" 
d="M881 1229h-435l27 121h434z" />
    <glyph glyph-name="breve" unicode="&#x2d8;" horiz-adv-x="1024" 
d="M670 1180q-90 0 -138.5 44t-48.5 126q0 2 4 47h97q-2 -6 -2 -23q0 -86 100 -86t137 109h96q-42 -217 -245 -217z" />
    <glyph glyph-name="dotaccent" unicode="&#x2d9;" horiz-adv-x="1024" 
d="M731 1178h-153l45 221h155z" />
    <glyph glyph-name="ring" unicode="&#x2da;" horiz-adv-x="1024" 
d="M677 1243q32 0 56.5 23.5t24.5 57.5t-18.5 53.5t-50.5 19.5t-56.5 -25.5t-24.5 -58.5t18.5 -51.5t50.5 -18.5zM672 1157q-70 0 -113 41t-43 109.5t53.5 121t124 52.5t112.5 -41t42 -110t-53 -121t-123 -52z" />
    <glyph glyph-name="ogonek" unicode="&#x2db;" horiz-adv-x="1024" 
d="M377 -317q-158 -1 -158 119t176 210l88 -8q-57 -33 -96 -82t-39 -92q0 -51 70 -51q39 0 94 22l-20 -98q-54 -20 -115 -20z" />
    <glyph glyph-name="tilde" unicode="&#x2dc;" horiz-adv-x="1024" 
d="M596 1384q55 0 98.5 -37t65.5 -36q51 0 100 88l80 -60q-90 -145 -176 -145q-53 0 -96.5 37t-67.5 37q-57 0 -102 -88l-80 59q90 145 178 145z" />
    <glyph glyph-name="hungarumlaut" unicode="&#x2dd;" horiz-adv-x="1024" 
d="M811 1157h-125l201 262h176zM541 1157h-123l200 262h177z" />
    <glyph glyph-name="gravecomb" unicode="&#x300;" horiz-adv-x="0" 
d="M233 1157h-118l-142 262h172z" />
    <glyph glyph-name="acutecomb" unicode="&#x301;" horiz-adv-x="0" 
d="M166 1157h-133l200 262h187z" />
    <glyph glyph-name="uni0302" unicode="&#x302;" horiz-adv-x="0" 
d="M29 1157h-135l217 262h161l103 -262h-119l-76 172z" />
    <glyph glyph-name="tildecomb" unicode="&#x303;" horiz-adv-x="0" 
d="M84 1384q55 0 98.5 -37t65.5 -36q51 0 100 88l80 -60q-90 -145 -176 -145q-53 0 -96.5 37t-67.5 37q-57 0 -102 -88l-80 59q90 145 178 145z" />
    <glyph glyph-name="uni0304" unicode="&#x304;" horiz-adv-x="0" 
d="M369 1229h-435l25 121h436z" />
    <glyph glyph-name="uni0306" unicode="&#x306;" horiz-adv-x="0" 
d="M158 1180q-92 0 -140.5 45t-48.5 125q0 2 4 47h99q-2 -6 -2 -23q0 -86 100 -86t137 109h96q-42 -217 -245 -217z" />
    <glyph glyph-name="uni0307" unicode="&#x307;" horiz-adv-x="0" 
d="M219 1178h-153l45 221h155z" />
    <glyph glyph-name="uni0308" unicode="&#x308;" horiz-adv-x="0" 
d="M342 1178h-143l47 221h143zM84 1178h-143l45 221h145z" />
    <glyph glyph-name="uni030A" unicode="&#x30a;" horiz-adv-x="0" 
d="M165 1243q32 0 56.5 23.5t24.5 57.5t-18.5 53.5t-50.5 19.5t-56.5 -25.5t-24.5 -58.5t18.5 -51.5t50.5 -18.5zM160 1157q-70 0 -113 41t-43 109.5t53.5 121t124 52.5t112.5 -41t42 -110t-53 -121t-123 -52z" />
    <glyph glyph-name="uni030B" unicode="&#x30b;" horiz-adv-x="0" 
d="M299 1157h-125l201 262h176zM29 1157h-125l202 262h177z" />
    <glyph glyph-name="uni030C" unicode="&#x30c;" horiz-adv-x="0" 
d="M219 1157h-162l-102 262h119l73 -172l154 172h133z" />
    <glyph glyph-name="uni0312" unicode="&#x312;" horiz-adv-x="0" 
d="M219 1178h-156l33 159l109 123h63l-82 -108h68z" />
    <glyph glyph-name="uni0326" unicode="&#x326;" horiz-adv-x="0" 
d="M-201 -377h-63l90 109h-70l37 172h156l-33 -158z" />
    <glyph glyph-name="uni0327" unicode="&#x327;" horiz-adv-x="0" 
d="M-178 -317q-166 0 -166 100q0 20 4 37h113l-4 -29q0 -37 49 -37q96 0 96 72q0 39 -66 39h-26l33 155h79l-28 -110q121 0 121 -90q0 -78 -50.5 -107.5t-154.5 -29.5z" />
    <glyph glyph-name="uni0328" unicode="&#x328;" horiz-adv-x="0" 
d="M-135 -317q-160 -1 -160 119t176 210l88 -8q-59 -37 -97 -85t-38 -89q0 -51 70 -51q41 0 96 22l-20 -98q-54 -20 -115 -20z" />
    <glyph glyph-name="uni0335" unicode="&#x335;" horiz-adv-x="0" 
d="M236 649h-414l28 137h414z" />
    <glyph glyph-name="uni0336" unicode="&#x336;" horiz-adv-x="0" 
d="M444 651h-831l29 131h831z" />
    <glyph glyph-name="uni0337" unicode="&#x337;" horiz-adv-x="0" 
d="M412 1044l-756 -1107l-68 51l756 1108z" />
    <glyph glyph-name="uni0338" unicode="&#x338;" horiz-adv-x="0" 
d="M539 1442l-914 -1501l-78 51l914 1501z" />
    <glyph glyph-name="uni0394" unicode="&#x394;" horiz-adv-x="821" 
d="M561 1245l-428 -1106h387zM-76 0l572 1434h219l-37 -1434h-754z" />
    <glyph glyph-name="uni03A9" unicode="&#x3a9;" horiz-adv-x="813" 
d="M80 457q0 92 22 200l103 480q33 153 123 235t232 82t226 -72q82 -72 82 -204q0 -51 -12 -111l-88 -422q-38 -172 -102 -286t-179 -214h168l-30 -145h-289l29 152q94 94 145 193t84 247l106 502q8 47 9 69q0 145 -162 146q-143 0 -182 -181l-117 -548q-27 -132 -27 -232
t64 -207l-27 -141h-291l31 145h188q-106 145 -106 312z" />
    <glyph glyph-name="uni03BC" unicode="&#x3bc;" horiz-adv-x="794" 
d="M254 -20q-59 0 -111 22l-67 -319h-156l287 1347h158l-154 -721q-8 -35 -8 -76q0 -117 112 -116q68 0 118 51t73 147l151 715h158l-217 -1030h-135l20 115q-86 -135 -229 -135z" />
    <glyph glyph-name="pi" unicode="&#x3c0;" horiz-adv-x="897" 
d="M213 0h-156l191 899h-131l28 131h826l-29 -131h-129l-190 -899h-156l190 899h-254z" />
    <glyph glyph-name="uni0401" unicode="&#x401;" horiz-adv-x="729" 
d="M575 0h-587l305 1434h588l-31 -146h-424l-100 -467h344l-31 -145h-344l-113 -531h424zM815 1561h-143l47 221h143zM557 1561h-143l47 221h143z" />
    <glyph glyph-name="uni0404" unicode="&#x404;" horiz-adv-x="782" 
d="M561 1454q139 0 219 -69.5t80 -198.5q0 -49 -12 -105l-10 -49h-154l16 74q6 31 7 59q0 70 -41 107t-113 37q-141 0 -178 -168l-68 -320h271l-31 -145h-273l-73 -348q-8 -27 -8 -78.5t39.5 -88t113.5 -36.5q145 0 180 166l31 147h154l-33 -153q-66 -305 -340 -305
q-147 0 -227 70.5t-80 199.5q0 47 12 102l170 797q33 145 121 225t227 80z" />
    <glyph glyph-name="uni0406" unicode="&#x406;" horiz-adv-x="358" 
d="M152 0h-164l305 1434h164z" />
    <glyph glyph-name="uni0407" unicode="&#x407;" horiz-adv-x="358" 
d="M152 0h-164l305 1434h164zM600 1561h-143l47 221h143zM342 1561h-143l47 221h143z" />
    <glyph glyph-name="uni0410" unicode="&#x410;" horiz-adv-x="823" 
d="M561 1241l-307 -797h278zM-76 0l572 1434h221l-39 -1434h-162l10 305h-327l-117 -305h-158z" />
    <glyph glyph-name="uni0411" unicode="&#x411;" horiz-adv-x="802" 
d="M336 145q90 0 141 46t74 153l35 164q8 35 8 76q0 113 -129 112h-164l-119 -551h154zM324 0h-336l305 1434h571l-30 -146h-408l-96 -446h162q268 0 268 -240q0 -57 -15 -113l-30 -147q-37 -178 -129 -260t-262 -82z" />
    <glyph glyph-name="uni0412" unicode="&#x412;" horiz-adv-x="827" 
d="M354 145q174 0 213 199l27 121q10 66 10 88q0 68 -39 95.5t-127 27.5h-143l-113 -531h172zM455 821q193 0 235 203l15 74q10 57 10 78q0 61 -33 86.5t-102 25.5h-154l-100 -467h129zM346 0h-358l305 1434h307q281 0 281 -228q0 -47 -13 -106l-12 -60q-25 -127 -77 -194.5
t-142 -87.5v-2q129 -49 129 -205q0 -47 -12 -102l-27 -121q-35 -172 -125 -250t-256 -78z" />
    <glyph glyph-name="uni0413" unicode="&#x413;" horiz-adv-x="679" 
d="M152 0h-164l305 1434h549l-31 -146h-385z" />
    <glyph glyph-name="uni0414" unicode="&#x414;" horiz-adv-x="964" 
d="M236 145h352l243 1143h-270l-231 -946q-31 -125 -94 -197zM438 1434h586l-274 -1289h102l-72 -338h-162l41 193h-573l-41 -193h-162l72 338h106q74 68 107 203z" />
    <glyph glyph-name="uni0415" unicode="&#x415;" horiz-adv-x="729" 
d="M575 0h-587l305 1434h588l-31 -146h-424l-100 -467h344l-31 -145h-344l-113 -531h424z" />
    <glyph glyph-name="uni0416" unicode="&#x416;" horiz-adv-x="1257" 
d="M1241 1434h176l-397 -537l94 -897h-153l-70 745l-186 -243l-107 -502h-160l111 518l-76 223l-379 -741h-172l479 913l-165 521h157l203 -695l147 695h160l-147 -697z" />
    <glyph glyph-name="uni0417" unicode="&#x417;" horiz-adv-x="770" 
d="M317 -20q-159 0 -237 70t-78 202q0 49 12 110l17 76h153l-20 -100q-8 -31 -8 -68q0 -145 161 -145q143 0 187 192l33 152q8 35 8 78q0 129 -144 129h-90l31 145h84q86 0 145 51t78 150l15 72q8 27 8 65q0 150 -154 150q-137 0 -176 -174l-25 -103h-153l24 107
q68 315 338 315q146 0 228 -71t82 -199q0 -53 -13 -111l-8 -31q-53 -252 -233 -290v-2q125 -51 125 -205q0 -31 -11 -88l-34 -164q-73 -313 -345 -313z" />
    <glyph glyph-name="uni0418" unicode="&#x418;" horiz-adv-x="870" 
d="M209 362l586 1072h174l-305 -1434h-146l230 1077l-586 -1077h-174l305 1434h145z" />
    <glyph glyph-name="uni0419" unicode="&#x419;" horiz-adv-x="870" 
d="M209 362l586 1072h174l-305 -1434h-146l230 1077l-586 -1077h-174l305 1434h145zM674 1563q-90 0 -138.5 44t-48.5 126q0 2 5 47h96q-2 -6 -2 -23q0 -86 100 -86t137 109h97q-43 -217 -246 -217z" />
    <glyph glyph-name="uni041A" unicode="&#x41a;" horiz-adv-x="835" 
d="M817 1434h178l-415 -545l112 -889h-162l-88 707l-194 -254l-96 -453h-164l305 1434h164l-148 -689z" />
    <glyph glyph-name="uni041B" unicode="&#x41b;" horiz-adv-x="931" 
d="M-14 -2q-12 0 -56 6l19 141q12 -4 28 -4q78 0 125 48t74 159l268 1086h586l-305 -1434h-164l275 1288h-267l-231 -946q-46 -182 -124 -263t-228 -81z" />
    <glyph glyph-name="uni041C" unicode="&#x41c;" horiz-adv-x="1079" 
d="M133 0h-145l305 1434h231l-32 -1145l452 1145h238l-305 -1434h-158l256 1196l-481 -1196h-134l29 1196z" />
    <glyph glyph-name="uni041D" unicode="&#x41d;" horiz-adv-x="858" 
d="M152 0h-164l305 1434h164l-131 -613h338l131 613h161l-305 -1434h-162l144 676h-338z" />
    <glyph glyph-name="uni041E" unicode="&#x41e;" 
d="M358 125q139 0 177 178l167 793q8 31 9 67q0 145 -162 146q-143 0 -180 -179l-168 -792q-8 -31 -8 -66q-1 -147 165 -147zM348 -20q-150 0 -233.5 72.5t-83.5 207.5q0 49 12 105l164 772q68 317 348 317q150 0 233.5 -72.5t83.5 -205.5q0 -51 -12 -107l-164 -774
q-63 -315 -348 -315z" />
    <glyph glyph-name="uni041F" unicode="&#x41f;" horiz-adv-x="856" 
d="M152 0h-164l305 1434h661l-305 -1434h-164l275 1288h-334z" />
    <glyph glyph-name="uni0420" unicode="&#x420;" horiz-adv-x="788" 
d="M457 762q92 0 142 47t71 152l30 141q27 120 -22 160q-31 26 -98 26h-154l-113 -526h144zM604 1434q268 0 268 -240q0 -51 -12 -113l-26 -125q-39 -178 -130.5 -259t-261.5 -81h-159l-131 -616h-164l305 1434h311z" />
    <glyph glyph-name="uni0421" unicode="&#x421;" horiz-adv-x="782" 
d="M338 -20q-147 0 -227 70.5t-80 199.5q0 47 12 102l170 797q33 145 121 225t227 80t219 -69.5t80 -198.5q0 -49 -12 -105l-25 -116h-155l32 141q6 31 7 59q0 70 -41 107t-113 37q-141 0 -178 -168l-174 -813q-8 -26 -8 -78t39.5 -88.5t113.5 -36.5q145 0 180 166l45 221
h154l-47 -227q-66 -305 -340 -305z" />
    <glyph glyph-name="uni0422" unicode="&#x422;" horiz-adv-x="739" 
d="M342 0h-164l275 1288h-254l30 146h672l-33 -146h-254z" />
    <glyph glyph-name="uni0423" unicode="&#x423;" horiz-adv-x="796" 
d="M118 -20q-96 0 -145 30l29 133q35 -18 90 -18t93 28t71 91l43 86l-61 1104h159l37 -832l371 832h162l-557 -1225q-57 -127 -126 -178q-70 -51 -166 -51z" />
    <glyph glyph-name="uni0424" unicode="&#x424;" horiz-adv-x="1124" 
d="M686 309q90 0 140 45t73 152l90 432q8 35 8 76q0 113 -129 112h-96l-174 -817h88zM340 309h98l174 817l-88 2q-90 0 -141 -48t-72 -152l-90 -432q-10 -51 -10 -74q0 -113 129 -113zM47 403q0 57 14 113l86 416q37 178 129 259t263 81h104l35 162h160l-35 -162h90
q268 -4 268 -240q0 -51 -12 -112l-88 -416q-35 -178 -128 -260t-263 -82h-103l-35 -162h-159l35 162l-93 2q-268 0 -268 239z" />
    <glyph glyph-name="uni0425" unicode="&#x425;" 
d="M88 0h-166l443 743l-121 691h159l89 -527l311 527h168l-426 -711l131 -723h-162l-94 561z" />
    <glyph glyph-name="uni0426" unicode="&#x426;" horiz-adv-x="911" 
d="M727 -193h-162l41 193h-618l305 1434h164l-275 -1289h334l275 1289h163l-274 -1289h119z" />
    <glyph glyph-name="uni0427" unicode="&#x427;" horiz-adv-x="827" 
d="M375 528q-252 0 -252 222q0 47 12 102l125 582h162l-121 -572q-6 -37 -6 -67q0 -121 125 -121q184 0 229 229l2 -2l113 533h162l-305 -1434h-162l131 618q-90 -90 -215 -90z" />
    <glyph glyph-name="uni0428" unicode="&#x428;" horiz-adv-x="1204" 
d="M866 145l275 1289h162l-306 -1434h-1009l305 1434h164l-275 -1289h262l275 1289h162l-275 -1289h260z" />
    <glyph glyph-name="uni0429" unicode="&#x429;" horiz-adv-x="1261" 
d="M1303 1434l-275 -1289h121l-72 -340h-164l41 195h-966l305 1434h164l-275 -1289h262l275 1289h162l-275 -1289h260l275 1289h162z" />
    <glyph glyph-name="uni042A" unicode="&#x42a;" horiz-adv-x="901" 
d="M438 145q90 0 141 46q50 46 72 153l41 184q8 51 8 76q0 113 -129 113h-153l-121 -572h141zM422 0h-320l275 1288h-178l30 146h342l-122 -572h147q268 0 268 -239q0 -57 -14 -113l-37 -168q-39 -180 -130 -261t-261 -81z" />
    <glyph glyph-name="uni042B" unicode="&#x42b;" horiz-adv-x="1144" 
d="M324 145q90 0 140 46.5t73 152.5l41 184q8 51 8 76q0 113 -129 113h-152l-123 -572h142zM938 0h-164l305 1434h164zM307 0h-319l305 1434h164l-121 -572h145q268 0 269 -239q0 -57 -15 -113l-37 -168q-39 -180 -130 -261t-261 -81z" />
    <glyph glyph-name="uni042C" unicode="&#x42c;" horiz-adv-x="786" 
d="M324 145q90 0 140 46t73 153l41 184q8 51 8 76q0 113 -129 113h-152l-123 -572h142zM307 0h-319l305 1434h164l-121 -572h145q268 0 269 -239q0 -57 -15 -113l-37 -168q-39 -180 -130 -261t-261 -81z" />
    <glyph glyph-name="uni042D" unicode="&#x42d;" horiz-adv-x="784" 
d="M543 1454q141 0 219 -73t78 -201q0 -47 -11 -99l-170 -796q-31 -147 -121 -227q-90 -78 -232 -78t-222 74t-80 198q0 39 10 100l19 86h153l-22 -110q-8 -25 -8 -58q0 -68 42 -106t115 -39q147 0 185 166l82 385h-271l31 145h270l62 285q6 31 6 59q0 68 -42 106t-112 38
q-147 0 -186 -168l-25 -109h-153l26 117q62 305 357 305z" />
    <glyph glyph-name="uni042E" unicode="&#x42e;" horiz-adv-x="1193" 
d="M1085 1163q0 145 -161 146q-143 0 -181 -179l-168 -792q-8 -31 -8 -66q0 -147 166 -147q139 0 176 178l168 793q8 31 8 67zM930 1454q150 0 233.5 -72.5t83.5 -205.5q0 -51 -12 -107l-164 -774q-63 -315 -348 -315q-150 0 -233.5 72.5t-83.5 207.5q0 49 12 105l65 311
h-188l-143 -676h-164l305 1434h164l-131 -613h188l68 316q67 317 348 317z" />
    <glyph glyph-name="uni042F" unicode="&#x42f;" horiz-adv-x="823" 
d="M516 793h107l104 495h-141q-90 0 -140 -46t-73 -152l-23 -107q-6 -20 -6 -57q0 -133 172 -133zM188 936q0 51 9 90l12 68q37 178 129 259t262 81h322l-306 -1434h-163l139 647h-111q-105 0 -165 -50t-85 -165l-55 -264q-24 -115 -55 -168h-168q43 84 63 180l54 256
q55 250 233 293l12 4q-127 43 -127 203z" />
    <glyph glyph-name="uni0430" unicode="&#x430;" horiz-adv-x="751" 
d="M274 115q139 0 189 176l53 248q-29 -29 -170 -80q-190 -66 -190 -232q-1 -112 118 -112zM451 1051q126 0 199 -59.5t73 -176.5q0 -45 -12 -104l-97 -455q-37 -176 -32 -256h-148q-4 35 10 111q-88 -131 -235 -131q-102 0 -159.5 59t-57.5 160q0 145 82 232t237.5 138
t194.5 75t47 73v-6l8 41q6 27 6 51q0 115 -128 115t-154 -144l-11 -45h-149l12 53q29 129 108.5 199t205.5 70z" />
    <glyph glyph-name="uni0431" unicode="&#x431;" horiz-adv-x="772" 
d="M328 117q127 0 161 166l86 395q8 31 9 70q0 115 -119 114q-71 0 -123 -54t-72 -149l-73 -346q-28 -110 28 -162q37 -34 103 -34zM518 999q114 0 172 -55t58 -158q0 -43 -15 -106l-86 -401q-66 -299 -323 -299q-137 0 -214 68t-77 190q0 49 12 104l121 567q54 269 225 367
q59 35 107 53t148 50q99 32 183 75l-32 -156q-51 -26 -155 -60t-128 -44q-25 -10 -70 -43q-82 -59 -114 -211l-8 -41q82 100 196 100z" />
    <glyph glyph-name="uni0432" unicode="&#x432;" horiz-adv-x="790" 
d="M332 133q106 0 154 51t48 162t-155 111h-135l-70 -324h158zM389 588q115 0 167 49t52 155t-123 107h-149l-66 -311h119zM317 0h-329l219 1030h299q124 0 192 -55t68 -160q0 -240 -197 -289v-4q119 -39 119 -182q0 -340 -371 -340z" />
    <glyph glyph-name="uni0433" unicode="&#x433;" horiz-adv-x="602" 
d="M145 0h-157l219 1030h469l-29 -131h-309z" />
    <glyph glyph-name="uni0434" unicode="&#x434;" horiz-adv-x="897" 
d="M221 133h305l162 766h-223l-160 -612q-27 -107 -84 -154zM344 1030h530l-190 -897h96l-69 -326h-158l41 193h-510l-41 -193h-158l70 326h102q61 47 90 156z" />
    <glyph glyph-name="uni0435" unicode="&#x435;" horiz-adv-x="757" 
d="M590 782q0 131 -146 131q-128 1 -163 -163l-29 -132h309l21 101q8 43 8 63zM446 1051q141 0 218 -68t77 -190q0 -49 -12 -105l-41 -196h-463l-37 -175q-8 -47 -8 -69q0 -131 146 -131q129 0 166 168l10 45h151l-10 -45q-31 -147 -114 -226t-217 -79t-210.5 68.5
t-76.5 191.5q0 51 12 108l86 404q63 299 323 299z" />
    <glyph glyph-name="uni0436" unicode="&#x436;" horiz-adv-x="1161" 
d="M1042 1030h185l-328 -395l117 -635h-150l-86 522l-159 -186l-72 -336h-156l74 344l-74 174l-297 -518h-174l391 651l-155 379h155l189 -516l110 516h156l-104 -493z" />
    <glyph glyph-name="uni0437" unicode="&#x437;" horiz-adv-x="743" 
d="M301 119q137 0 172 153l6 27q6 23 6 53q0 121 -145 121h-82l29 129h84q203 0 202 176q0 70 -32 102q-33 32 -105 31q-143 0 -178 -145l-6 -35h-152l17 68q55 252 335 252t281 -252q0 -104 -58 -176t-155 -84v-4q123 -47 123 -179q0 -27 -10 -77l-6 -29
q-62 -270 -336 -270q-137 0 -216 64t-79 181q0 43 10 80l4 25h150l-8 -39q0 -13 -5 -43q0 -59 40 -94t114 -35z" />
    <glyph glyph-name="uni0438" unicode="&#x438;" horiz-adv-x="808" 
d="M190 289l459 741h172l-219 -1030h-141l153 737l-454 -737h-172l219 1030h141z" />
    <glyph glyph-name="uni0439" unicode="&#x439;" horiz-adv-x="808" 
d="M190 289l459 741h172l-219 -1030h-141l153 737l-454 -737h-172l219 1030h141zM563 1180q-90 0 -138 44t-48 126q0 2 4 47h96q-2 -6 -2 -23q1 -86 101 -86t137 109h96q-43 -217 -246 -217z" />
    <glyph glyph-name="uni043A" unicode="&#x43a;" horiz-adv-x="782" 
d="M668 1030h184l-348 -395l137 -635h-158l-104 489l-170 -190l-64 -299h-157l221 1030h158l-103 -481z" />
    <glyph glyph-name="uni043B" unicode="&#x43b;" horiz-adv-x="868" 
d="M12 -6q-37 0 -80 12l19 131q20 -4 65 -4q99 0 138 150l196 747h531l-219 -1030h-158l190 891h-223l-166 -639q-35 -135 -104 -197q-70 -61 -189 -61z" />
    <glyph glyph-name="uni043C" unicode="&#x43c;" horiz-adv-x="1077" 
d="M477 246l381 784h232l-220 -1030h-151l182 848l-414 -848h-122l-56 848l-182 -848h-139l219 1030h219z" />
    <glyph glyph-name="uni043D" unicode="&#x43d;" horiz-adv-x="804" 
d="M569 602l90 428h158l-219 -1030h-158l101 471h-295l-101 -471h-157l219 1030h158l-91 -428h295z" />
    <glyph glyph-name="uni043E" unicode="&#x43e;" horiz-adv-x="759" 
d="M176 246q0 -129 134 -129t171 164l94 438q8 31 9 65q0 129 -134.5 129t-168.5 -163l-97 -439q-8 -41 -8 -65zM313 -20q-135 0 -212.5 68.5t-77.5 191.5q0 47 12 102l88 412q63 297 323 297q135 0 213 -69t78 -191q0 -53 -10 -101l-90 -411q-64 -299 -324 -299z" />
    <glyph glyph-name="uni043F" unicode="&#x43f;" horiz-adv-x="794" 
d="M207 1030h600l-219 -1030h-158l191 899h-285l-191 -899h-157z" />
    <glyph glyph-name="uni0440" unicode="&#x440;" horiz-adv-x="786" 
d="M604 799q0 115 -117 114q-133 0 -186 -165l-82 -386l-10 -81q0 -78 38 -121t105 -43q113 -1 148 157l96 457q8 31 8 68zM549 1051q104 0 161.5 -55.5t57.5 -157.5q0 -43 -14 -107l-101 -481q-59 -270 -268 -270q-166 0 -217 141l-94 -438h-158l287 1347h133l-21 -117
q87 138 234 138z" />
    <glyph glyph-name="uni0441" unicode="&#x441;" horiz-adv-x="735" 
d="M729 803q0 -61 -16 -125h-152l10 47q8 31 9 68q0 121 -130.5 120.5t-164.5 -157.5l-97 -451q-8 -31 -8 -67q0 -121 130 -121t165 157l12 56h150l-10 -56q-62 -294 -314 -294q-139 0 -214.5 64.5t-75.5 186.5q0 49 12 105l90 422q31 141 112.5 217t211.5 76t205 -63.5
t75 -184.5z" />
    <glyph glyph-name="uni0442" unicode="&#x442;" horiz-adv-x="716" 
d="M328 0h-158l190 899h-243l28 131h646l-29 -131h-244z" />
    <glyph glyph-name="uni0443" unicode="&#x443;" horiz-adv-x="741" 
d="M28 -338q-91 0 -139 35l29 129q41 -27 92 -27t77 20.5t48 69.5l53 113l-45 1028h154l20 -780l342 780h156l-534 -1177q-49 -100 -105.5 -145.5t-147.5 -45.5z" />
    <glyph glyph-name="uni0444" unicode="&#x444;" horiz-adv-x="1026" 
d="M537 133q100 0 146 40t69 146l86 404q6 31 6 53q0 123 -133 123h-39l-162 -766h27zM315 133h39l162 766h-27q-100 0 -146 -40t-69 -146l-86 -406q-6 -29 -6 -53q0 -121 133 -121zM299 0q-125 0 -199 70t-73 184q0 33 10 84l80 367q41 181 126 253t263 72h37l88 404h157
l-86 -404h25q125 0 199 -68t73 -186q0 -27 -10 -84l-80 -366q-37 -180 -125 -253t-264 -73h-37l-67 -317h-158l68 317h-27z" />
    <glyph glyph-name="uni0445" unicode="&#x445;" horiz-adv-x="751" 
d="M92 0h-170l369 539l-133 491h157l93 -362l241 362h168l-352 -510l141 -520h-160l-96 393z" />
    <glyph glyph-name="uni0446" unicode="&#x446;" horiz-adv-x="847" 
d="M662 -193h-158l41 193h-557l219 1030h158l-191 -897h285l190 897h158l-191 -897h115z" />
    <glyph glyph-name="uni0447" unicode="&#x447;" horiz-adv-x="763" 
d="M312 379q-226 0 -226 209q0 57 14 112l72 332h158l-70 -323q-8 -35 -8 -76q0 -117 113 -117q63 0 112 52t74 143l67 319h158l-219 -1030h-158l101 473q-76 -94 -188 -94z" />
    <glyph glyph-name="uni0448" unicode="&#x448;" horiz-adv-x="1181" 
d="M975 0h-987l219 1030h158l-191 -897h258l191 897h157l-190 -897h254l190 897h160z" />
    <glyph glyph-name="uni0449" unicode="&#x449;" horiz-adv-x="1234" 
d="M1049 -193h-158l41 193h-944l219 1030h158l-191 -897h258l191 897h157l-190 -897h256l190 897h158l-190 -897h114z" />
    <glyph glyph-name="uni044A" unicode="&#x44a;" horiz-adv-x="899" 
d="M453 141q96 -1 151 61t55 152q1 90 -31 120t-108 30h-145l-76 -363h154zM440 0h-329l190 899h-184l28 131h342l-81 -385h126q145 1 214 -65t69 -222t-100 -258q-101 -100 -275 -100z" />
    <glyph glyph-name="uni044B" unicode="&#x44b;" horiz-adv-x="1128" 
d="M399 504h-145l-78 -363h154q98 0 153.5 61.5t55.5 151t-32 120t-108 30.5zM922 0h-158l219 1030h158zM412 645q145 0 213.5 -66.5t68.5 -222t-100 -256t-275 -100.5h-331l219 1030h158l-82 -385h129z" />
    <glyph glyph-name="uni044C" unicode="&#x44c;" horiz-adv-x="776" 
d="M399 504h-145l-78 -363h154q98 -1 153 61t55 152t-31 120q-32 30 -108 30zM412 645q145 -1 214 -67t68 -203q0 -175 -100 -275t-275 -100h-331l219 1030h158l-82 -385h129z" />
    <glyph glyph-name="uni044D" unicode="&#x44d;" horiz-adv-x="749" 
d="M433 1051q134 0 211 -69t77 -191q0 -49 -12 -107l-86 -405q-31 -143 -114 -221t-217 -78t-211 66t-77 194q0 27 12 90h150q-12 -59 -12 -82q0 -131 147 -131q127 0 164 166l41 190h-252l27 127h251l25 115q8 43 8 69q0 129 -138 129t-171 -168l-4 -24h-152l4 27
q29 147 112 225t217 78z" />
    <glyph glyph-name="uni044E" unicode="&#x44e;" horiz-adv-x="1132" 
d="M956 784q0 129 -134 129t-171 -163l-94 -439q-8 -27 -8 -65q0 -129 134 -129t169 164l96 438q8 43 8 65zM819 1051q135 0 213 -69t78 -191q0 -49 -12 -101l-88 -411q-63 -299 -324 -299q-135 0 -213 68.5t-78 191.5q0 51 11 102l28 129h-194l-101 -471h-157l221 1030h155
l-90 -428h195l33 152q63 297 323 297z" />
    <glyph glyph-name="uni044F" unicode="&#x44f;" horiz-adv-x="808" 
d="M449 565h114l70 334h-137q-98 0 -154.5 -49t-56.5 -133t40 -118t124 -34zM131 709q0 322 373 321h317l-219 -1030h-160l93 434h-119q-102 0 -156.5 -43t-75.5 -139l-24 -121q-14 -76 -45 -131h-166q39 74 55 141l25 115q27 121 75 179.5t144 76.5v4q-117 41 -117 193z
" />
    <glyph glyph-name="uni0451" unicode="&#x451;" horiz-adv-x="757" 
d="M590 782q0 131 -146 131q-128 1 -163 -163l-29 -132h309l21 101q8 43 8 63zM446 1051q141 0 218 -68t77 -190q0 -49 -12 -105l-41 -196h-463l-37 -175q-8 -47 -8 -69q0 -131 146 -131q129 0 166 168l10 45h151l-10 -45q-31 -147 -114 -226t-217 -79t-210.5 68.5
t-76.5 191.5q0 51 12 108l86 404q63 299 323 299zM627 1399h143l-47 -221h-143zM369 1399h143l-47 -221h-143z" />
    <glyph glyph-name="uni0454" unicode="&#x454;" horiz-adv-x="735" 
d="M180 238q0 -121 130 -121t165 157l12 56h150l-10 -56q-61 -295 -314 -294q-139 0 -214.5 64.5t-75.5 186.5q0 49 12 105l90 422q31 141 112.5 217t211.5 76t205 -63.5t75 -184.5q0 -47 -8 -82h-150q8 39 9 72q0 121 -130.5 120.5t-164.5 -157.5l-33 -156h250l-27 -127
h-250l-37 -168q-8 -31 -8 -67z" />
    <glyph glyph-name="uni0456" unicode="&#x456;" horiz-adv-x="352" 
d="M145 0h-157l219 1030h158zM395 1178h-153l45 221h155z" />
    <glyph glyph-name="uni0457" unicode="&#x457;" horiz-adv-x="352" 
d="M145 0h-157l219 1030h158zM518 1178h-143l47 221h143zM260 1178h-143l47 221h143z" />
    <glyph glyph-name="uni0490" unicode="&#x490;" horiz-adv-x="679" 
d="M152 0h-164l305 1434h387l41 192h162l-72 -338h-385z" />
    <glyph glyph-name="uni0491" unicode="&#x491;" horiz-adv-x="602" 
d="M145 0h-157l219 1030h311l41 193h158l-70 -324h-309z" />
    <glyph glyph-name="uni1E02" unicode="&#x1e02;" horiz-adv-x="827" 
d="M354 145q174 0 213 199l27 121q10 66 10 88q0 68 -39 95.5t-127 27.5h-143l-113 -531h172zM455 821q193 0 235 203l15 74q10 57 10 78q0 61 -33 86.5t-102 25.5h-154l-100 -467h129zM346 0h-358l305 1434h307q281 0 281 -228q0 -47 -13 -106l-12 -60q-25 -127 -77 -194.5
t-142 -87.5v-2q129 -49 129 -205q0 -47 -12 -102l-27 -121q-35 -172 -125 -250t-256 -78zM690 1561h-153l45 221h155z" />
    <glyph glyph-name="uni1E03" unicode="&#x1e03;" horiz-adv-x="788" 
d="M606 799q0 115 -117 114q-70 0 -122 -52t-74 -152l-74 -342h2q-10 -47 -10 -105.5t38 -101.5t105 -43q113 -1 148 157l96 457q8 31 8 68zM540.5 1051q114.5 0 172 -55.5t57.5 -157.5q0 -43 -14 -107l-101 -481q-57 -270 -268 -270q-92 0 -153.5 49t-75.5 137l-60 -166
h-114l305 1434h157l-102 -484q82 101 196.5 101zM367 1782h155l-47 -221h-153z" />
    <glyph glyph-name="uni1E0A" unicode="&#x1e0a;" horiz-adv-x="835" 
d="M338 145q170 0 217 203l160 752q8 35 8 86q0 102 -131 102h-166l-244 -1143h156zM336 0h-348l305 1434h315q279 0 279 -244q0 -49 -13 -111l-157 -737q-37 -178 -127 -260t-254 -82zM698 1561h-153l45 221h155z" />
    <glyph glyph-name="uni1E0B" unicode="&#x1e0b;" horiz-adv-x="786" 
d="M432 913q-115 0 -147 -155l-97 -459q-8 -43 -8 -68q0 -114 119 -114q68 0 118 49t75 143l81 383l5 60q0 78 -39 119.5t-107 41.5zM238 -20q-104 0 -162 55t-58 158q0 47 13 108l102 481q55 268 266 269q170 -1 219 -146l115 529h158l-250 -1178q-37 -166 -33 -256h-147
q-4 33 10 121q-86 -141 -233 -141zM758 1561l45 221h155l-47 -221h-153z" />
    <glyph glyph-name="uni1E1E" unicode="&#x1e1e;" horiz-adv-x="700" 
d="M152 0h-164l305 1434h569l-31 -146h-405l-104 -487h325l-31 -146h-325zM682 1561h-154l45 221h156z" />
    <glyph glyph-name="uni1E1F" unicode="&#x1e1f;" horiz-adv-x="536" 
d="M579 1317q-51 0 -74.5 -24.5t-35.5 -80.5l-39 -182h186l-28 -131h-187l-190 -899h-158l193 899h-129l28 131h129l45 215q45 209 236 209q94 0 147 -33l-26 -131q-46 27 -97 27zM510 1782h156l-48 -221h-153z" />
    <glyph glyph-name="uni1E40" unicode="&#x1e40;" horiz-adv-x="1079" 
d="M133 0h-145l305 1434h231l-32 -1145l452 1145h238l-305 -1434h-158l256 1196l-481 -1196h-134l29 1196zM840 1561h-154l45 221h156z" />
    <glyph glyph-name="uni1E41" unicode="&#x1e41;" horiz-adv-x="1212" 
d="M979 1051q100 0 155.5 -53.5t55.5 -153.5q0 -51 -12 -113l-156 -731h-158l154 721q8 39 8 78q0 115 -108 114q-127 0 -181 -172v-4q-2 -2 -2 -6l-155 -731h-158l153 721q10 61 11 78q0 115 -111 114q-68 0 -117 -53t-69 -151l-152 -709h-157l219 1030h133l-23 -119
q86 139 230 140q176 0 206 -152q84 152 234 152zM717 1399h155l-47 -221h-153z" />
    <glyph glyph-name="uni1E56" unicode="&#x1e56;" horiz-adv-x="788" 
d="M457 762q92 0 142 47t71 152l30 141q27 120 -22 160q-31 26 -98 26h-154l-113 -526h144zM604 1434q268 0 268 -240q0 -51 -12 -113l-26 -125q-39 -178 -130.5 -259t-261.5 -81h-159l-131 -616h-164l305 1434h311zM692 1561h-153l45 221h155z" />
    <glyph glyph-name="uni1E57" unicode="&#x1e57;" horiz-adv-x="786" 
d="M604 799q0 115 -117 114q-133 0 -186 -165l-82 -386l-10 -81q0 -78 38 -121t105 -43q113 -1 148 157l96 457q8 31 8 68zM549 1051q104 0 161.5 -55.5t57.5 -157.5q0 -43 -14 -107l-101 -481q-59 -270 -268 -270q-166 0 -217 141l-94 -438h-158l287 1347h133l-21 -117
q87 138 234 138zM512 1399h156l-47 -221h-154z" />
    <glyph glyph-name="uni1E60" unicode="&#x1e60;" horiz-adv-x="755" 
d="M299 -20q-295 0 -295 262q0 61 14 116l11 50h153l-16 -76q-8 -43 -8 -70q0 -137 153 -137q94 0 144.5 70.5t50.5 181.5q0 141 -148 299q-180 193 -180 375q0 183 98 293q100 110 254 110q304 0 304 -256q0 -45 -17 -121l-6 -26h-154l13 51q8 31 8 74q0 133 -150 133
q-90 0 -139 -65.5t-49 -168.5q0 -139 147 -299q180 -193 180.5 -380t-98 -301.5t-270.5 -114.5zM674 1546h-154l45 221h156z" />
    <glyph glyph-name="uni1E61" unicode="&#x1e61;" horiz-adv-x="694" 
d="M-2 211q0 37 14 100h150l-8 -30q-6 -31 -6.5 -70t34.5 -67.5t101.5 -28.5t110.5 48t44 110.5t-32.5 102.5t-97 82t-101.5 70q-33 29 -62.5 87.5t-29.5 119.5q0 135 88 225t215 90.5t195.5 -60t68.5 -165.5q0 -31 -10 -82h-146q8 43 8.5 79t-30.5 64.5t-90.5 28.5
t-102.5 -46t-43 -105t34 -101t112 -93.5t121 -96.5q61 -61 61 -182t-89 -216t-245 -95q-119 0 -191.5 61t-72.5 170zM561 1178h-153l45 221h155z" />
    <glyph glyph-name="uni1E6A" unicode="&#x1e6a;" horiz-adv-x="739" 
d="M342 0h-164l275 1288h-254l30 146h672l-33 -146h-254zM670 1561h-154l45 221h156z" />
    <glyph glyph-name="uni1E6B" unicode="&#x1e6b;" horiz-adv-x="544" 
d="M271.5 -20q-78.5 0 -130 46t-51.5 130q0 35 8 65l146 678h-129l28 131h131l80 297h138l-64 -297h186l-28 -131h-187l-143 -674l-4 -37q0 -72 88 -71q33 0 78 16l-19 -137q-49 -16 -127.5 -16zM418 1675h155l-47 -221h-153z" />
    <glyph glyph-name="Wgrave" unicode="&#x1e80;" horiz-adv-x="1142" 
d="M324 0h-218l132 1434h153l-117 -1213l406 1213h180l-110 -1213l401 1213h145l-477 -1434h-207l93 1118zM887 1540h-119l-141 262h172z" />
    <glyph glyph-name="wgrave" unicode="&#x1e81;" horiz-adv-x="1093" 
d="M309 0h-200l43 1030h149l-33 -817l312 817h161l-36 -817l315 817h145l-395 -1030h-190l24 743zM782 1157h-118l-142 262h172z" />
    <glyph glyph-name="Wacute" unicode="&#x1e82;" horiz-adv-x="1142" 
d="M324 0h-218l132 1434h153l-117 -1213l406 1213h180l-110 -1213l401 1213h145l-477 -1434h-207l93 1118zM819 1540h-133l201 262h186z" />
    <glyph glyph-name="wacute" unicode="&#x1e83;" horiz-adv-x="1093" 
d="M309 0h-200l43 1030h149l-33 -817l312 817h161l-36 -817l315 817h145l-395 -1030h-190l24 743zM715 1157h-133l200 262h187z" />
    <glyph glyph-name="Wdieresis" unicode="&#x1e84;" horiz-adv-x="1142" 
d="M324 0h-218l132 1434h153l-117 -1213l406 1213h180l-110 -1213l401 1213h145l-477 -1434h-207l93 1118zM995 1561h-143l47 221h143zM737 1561h-143l47 221h143z" />
    <glyph glyph-name="wdieresis" unicode="&#x1e85;" horiz-adv-x="1093" 
d="M309 0h-200l43 1030h149l-33 -817l312 817h161l-36 -817l315 817h145l-395 -1030h-190l24 743zM891 1178h-143l47 221h143zM633 1178h-144l48 221h143z" />
    <glyph glyph-name="uni1E9E" unicode="&#x1e9e;" horiz-adv-x="839" 
d="M360 0h-77l30 145h62q84 0 132 46t71 153l38 182q8 31 9 70q0 117 -138 117h-49l27 137l297 438h-336l-274 -1288h-164l305 1434h661l-30 -148l-295 -440q160 -43 159 -223q0 -55 -12 -117l-35 -164q-35 -178 -126 -260t-255 -82z" />
    <glyph glyph-name="Ygrave" unicode="&#x1ef2;" horiz-adv-x="804" 
d="M373 0h-164l135 629l-117 805h164l74 -598l336 598h168l-461 -805zM713 1540h-119l-141 262h172z" />
    <glyph glyph-name="ygrave" unicode="&#x1ef3;" horiz-adv-x="741" 
d="M28 -338q-91 0 -139 35l29 129q41 -27 92 -27t77 20.5t48 69.5l53 113l-45 1028h154l20 -780l342 780h156l-534 -1177q-49 -100 -105.5 -145.5t-147.5 -45.5zM596 1157h-119l-141 262h172z" />
    <glyph glyph-name="uni2002" unicode="&#x2002;" horiz-adv-x="614" 
 />
    <glyph glyph-name="uni2003" unicode="&#x2003;" horiz-adv-x="1024" 
 />
    <glyph glyph-name="uni2007" unicode="&#x2007;" 
 />
    <glyph glyph-name="uni2008" unicode="&#x2008;" horiz-adv-x="374" 
 />
    <glyph glyph-name="uni200B" unicode="&#x200b;" horiz-adv-x="0" 
 />
    <glyph glyph-name="figuredash" unicode="&#x2012;" 
d="M827 555h-819l27 119h819z" />
    <glyph glyph-name="endash" unicode="&#x2013;" horiz-adv-x="614" 
d="M623 555h-615l27 119h614z" />
    <glyph glyph-name="emdash" unicode="&#x2014;" horiz-adv-x="1024" 
d="M1032 555h-1024l27 119h1024z" />
    <glyph glyph-name="quoteleft" unicode="&#x2018;" horiz-adv-x="374" 
d="M362 1438h78l-118 -221h57l-45 -207h-162l39 190z" />
    <glyph glyph-name="quoteright" unicode="&#x2019;" horiz-adv-x="374" 
d="M315 1008h-79l118 221h-55l43 205h162l-39 -191z" />
    <glyph glyph-name="quotesinglbase" unicode="&#x201a;" horiz-adv-x="374" 
d="M14 -221h-80l119 221h-57l45 207h162l-39 -191z" />
    <glyph glyph-name="quotedblleft" unicode="&#x201c;" horiz-adv-x="632" 
d="M621 1434h77l-118 -222h57l-45 -204h-162l39 190zM362 1434h78l-118 -222h57l-45 -204h-162l39 190z" />
    <glyph glyph-name="quotedblright" unicode="&#x201d;" horiz-adv-x="632" 
d="M571 1008h-79l118 221h-55l43 205h162l-39 -191zM313 1008h-77l118 221h-57l45 205h162l-39 -191z" />
    <glyph glyph-name="quotedblbase" unicode="&#x201e;" horiz-adv-x="632" 
d="M270 -221h-77l118 221h-57l45 207h162l-39 -191zM14 -221h-80l119 221h-57l45 207h162l-39 -191z" />
    <glyph glyph-name="dagger" unicode="&#x2020;" horiz-adv-x="841" 
d="M342 -199h-145l233 1096h-291l31 139h289l86 398h145l-86 -398h291l-31 -139h-289z" />
    <glyph glyph-name="daggerdbl" unicode="&#x2021;" horiz-adv-x="860" 
d="M352 -199h-145l88 422h-289l29 139h291l112 535h-288l28 139h291l84 398h145l-84 -398h289l-29 -139h-290l-113 -535h289l-29 -139h-291z" />
    <glyph glyph-name="bullet" unicode="&#x2022;" horiz-adv-x="614" 
d="M319 485q-55 0 -89 32t-34 87t44 95q43 40 99 40q56 1 89 -31t33 -86t-43 -96q-44 -41 -99 -41z" />
    <glyph glyph-name="ellipsis" unicode="&#x2026;" horiz-adv-x="1024" 
d="M825 0h-161l45 207h161zM483 0h-161l45 207h161zM141 0h-161l45 207h161z" />
    <glyph glyph-name="perthousand" unicode="&#x2030;" horiz-adv-x="1685" 
d="M1342 78q90 0 114 106l76 357q4 37 4 39q0 88 -91 88t-116 -107l-74 -356q-4 -37 -4 -41q1 -86 91 -86zM731 164q0 -86 90 -86t115 106l76 357q4 37 4 39q0 88 -91 88t-116 -107l-74 -356q-4 -37 -4 -41zM1346 -23q-98 1 -152 47t-55 132q0 39 8 69l72 340
q47 203 223 203q98 0 151 -47t54 -131q0 -39 -9 -70l-71 -340q-47 -203 -221 -203zM825 -23q-98 1 -152 47t-55 132q0 39 9 69l71 340q47 203 224 203q98 0 151 -47t53 -131q0 -39 -8 -70l-71 -340q-48 -203 -222 -203zM236 850q0 -86 92 -86t112 106l76 355q6 20 6 39
q0 88 -93 88t-114 -107l-73 -354q-6 -25 -6 -41zM252 0h-113l862 1434h113zM330 664q-98 0 -152 45q-53 45 -53 131q0 41 8 71l72 338q41 203 228 203q93 0 147 -46t53 -132q0 -39 -8 -70l-74 -338q-39 -202 -221 -202z" />
    <glyph glyph-name="guilsinglleft" unicode="&#x2039;" horiz-adv-x="366" 
d="M281 401h-115l-88 213l174 205h121l-158 -215z" />
    <glyph glyph-name="guilsinglright" unicode="&#x203a;" horiz-adv-x="366" 
d="M158 401h-123l158 215l-66 203h115l88 -213z" />
    <glyph glyph-name="fraction" unicode="&#x2044;" horiz-adv-x="178" 
d="M-242 0h-114l864 1434h113z" />
    <glyph glyph-name="uni2070" unicode="&#x2070;" horiz-adv-x="579" 
d="M361 799q90 0 114 106l111 516q4 37 4 39q0 88 -91 88t-116 -106l-109 -516q-4 -37 -4 -41q1 -86 91 -86zM365 698q-98 0 -153 46q-54 46 -54 133q0 39 8 69l106 500q47 203 224 203q98 0 151 -46t53 -133q0 -39 -8 -69l-106 -500q-45 -203 -221 -203z" />
    <glyph glyph-name="uni2074" unicode="&#x2074;" horiz-adv-x="581" 
d="M547 1434l-285 -439h187zM502 719h-113l37 178h-289l19 100l415 631h123l-135 -633h72l-21 -98h-71z" />
    <glyph glyph-name="uni2075" unicode="&#x2075;" horiz-adv-x="581" 
d="M367 698q-199 0 -199 176q0 27 8 70l6 31h105l-8 -49q-6 -20 -7 -39q0 -88 92 -88t113 106l41 203q6 25 6 43q0 84 -88 84q-80 0 -108 -92l-9 -25h-104l133 510h371l-23 -98h-270l-68 -260q47 66 134 65q150 0 149 -149q0 -45 -8 -76l-45 -209q-43 -203 -221 -203z" />
    <glyph glyph-name="uni2076" unicode="&#x2076;" horiz-adv-x="577" 
d="M427 1190q-91 0 -116 -111l-30 -153q-4 -20 -5 -41q1 -86 92 -86t111 106l35 158l4 43q0 84 -91 84zM367 698q-98 0 -151 46q-52 46 -52 133q0 39 8 69l107 498q45 205 225 205q203 0 203 -179q0 -29 -7 -59h-108q6 31 6 55q0 82 -93 82t-118 -121l-45 -204q51 67 132 67
t122 -39t41 -110q0 -23 -10 -74l-35 -166q-49 -203 -225 -203z" />
    <glyph glyph-name="uni2077" unicode="&#x2077;" horiz-adv-x="579" 
d="M295 719h-123l426 811h-305l22 98h418l-18 -96z" />
    <glyph glyph-name="uni2078" unicode="&#x2078;" horiz-adv-x="579" 
d="M411 1147q-101 0 -122 -113l-21 -98q-6 -25 -6 -45q1 -92 102 -92t123 114l21 99l4 43q0 92 -101 92zM455 1243q94 0 116 105l15 69q6 25 6 41q0 90 -95 90t-118 -108l-12 -70q0 -4 -7 -39q1 -88 95 -88zM150 881q0 39 8 65l16 82q33 143 139 176v2q-63 39 -63 123
q0 23 8 64l10 55q41 201 234 201q92 0 146 -46t54 -130q0 -33 -6 -70l-12 -53q-27 -133 -133 -168v-2q72 -41 72 -133q0 -23 -9 -66l-18 -80q-43 -203 -231 -203q-98 0 -157 48q-58 49 -58 135z" />
    <glyph glyph-name="uni2079" unicode="&#x2079;" horiz-adv-x="577" 
d="M340 1241q0 -84 90 -84t117 111l31 155q4 20 4 41q0 84 -90 84t-113 -104l-35 -160q-4 -37 -4 -43zM354 698q-203 0 -202 179q0 29 6 61h108q-6 -33 -6 -55q0 -84 94 -84q88 0 117 123l45 204q-55 -70 -134 -70t-120 40q-41 39 -41 112q0 20 10 72l35 166q45 203 226 203
q98 0 150 -46t52 -130q0 -39 -8 -70l-106 -498q-48 -207 -226 -207z" />
    <glyph glyph-name="uni2080" unicode="&#x2080;" horiz-adv-x="579" 
d="M88 33q0 -86 92 -86t113 106l110 516q6 20 7 39q0 88 -94 88t-113 -106l-109 -516q-6 -23 -6 -41zM182 -154q-98 0 -152 46t-55 133q0 39 9 69l108 500q47 203 223 203q97 0 151 -46t54 -133q0 -39 -8 -69l-109 -500q-47 -203 -221 -203z" />
    <glyph glyph-name="uni2081" unicode="&#x2081;" horiz-adv-x="579" 
d="M256 -133h-113l158 731q-68 -20 -158 -23l7 82q145 4 221 119h78z" />
    <glyph glyph-name="uni2082" unicode="&#x2082;" horiz-adv-x="581" 
d="M322 797q200 0 200 -185q0 -179 -252 -372q-92 -70 -131 -120t-53 -116l-8 -39h299l-23 -98h-407l24 115q23 102 74 175t156 152q207 158 207 301q0 86 -90 86t-113 -106l-19 -86h-104l18 90q47 203 222 203z" />
    <glyph glyph-name="uni2083" unicode="&#x2083;" horiz-adv-x="581" 
d="M176 -154q-203 0 -203 172q0 43 9 74l12 51h106l-14 -69q-6 -23 -6 -41q0 -86 93 -86t114 116l22 105q6 31 6 51q0 74 -84 74h-59l23 98h53q106 0 135 127l10 41q6 27 6 51q0 86 -92 86t-112 -104l-15 -66h-104l14 68q41 203 219 203q203 0 203 -172q0 -27 -8 -70l-6 -31
q-31 -156 -148 -182v-4q74 -31 74 -129q0 -31 -6 -62l-21 -98q-41 -203 -221 -203z" />
    <glyph glyph-name="uni2084" unicode="&#x2084;" horiz-adv-x="581" 
d="M365 582l-285 -439h186zM319 -133h-112l39 178h-291l18 100l416 631h125l-135 -633h72l-21 -98h-72z" />
    <glyph glyph-name="uni2085" unicode="&#x2085;" horiz-adv-x="579" 
d="M184 -154q-98 0 -149 46t-51 131q0 27 8 69l6 31h106l-8 -49q-6 -23 -6 -39q0 -88 92 -88t113 106l41 203q6 25 6 43q0 84 -85 84t-112 -92l-8 -25h-104l133 510h371l-23 -98h-270l-68 -260q47 66 133 65q150 0 150 -149q0 -45 -8 -76l-45 -209q-44 -203 -222 -203z" />
    <glyph glyph-name="uni2086" unicode="&#x2086;" horiz-adv-x="579" 
d="M247 338q-91 0 -116 -111l-31 -153q-4 -20 -4 -41q0 -86 91 -86t112 106l35 158l4 43q0 84 -91 84zM186 -154q-98 0 -151 46t-53 133q0 39 8 69l108 498q45 205 226 205q203 0 202 -179q0 -29 -6 -59h-108q6 31 6 55q0 82 -93 82t-118 -121l-45 -204q51 67 132 67
t122 -39t41 -110q0 -23 -11 -74l-34 -166q-48 -203 -226 -203z" />
    <glyph glyph-name="uni2087" unicode="&#x2087;" horiz-adv-x="579" 
d="M115 -133h-125l426 811h-303l20 98h420l-21 -96z" />
    <glyph glyph-name="uni2088" unicode="&#x2088;" horiz-adv-x="579" 
d="M230 295q-102 0 -121 -113l-21 -98q-6 -25 -6 -45q0 -92 101 -92t124 114l21 99l4 43q0 92 -102 92zM274 391q94 0 117 105l15 69q6 25 6 41q0 90 -96 90t-117 -108l-13 -70l-6 -39q0 -88 94 -88zM-31 29q0 31 6 65l19 82q33 143 139 176v2q-63 39 -63 123q0 23 8 64
l10 55q41 201 234 201q92 0 146 -46t54 -130q0 -33 -6 -70l-12 -53q-27 -133 -133 -168v-2q72 -41 71 -133q0 -23 -8 -66l-18 -80q-43 -203 -232 -203q-98 0 -156 48t-59 135z" />
    <glyph glyph-name="uni2089" unicode="&#x2089;" horiz-adv-x="579" 
d="M160 389q0 -84 90 -84t117 111l30 155q4 20 4 41q0 84 -90 84t-112 -104l-35 -160q-4 -37 -4 -43zM174 -154q-203 0 -203 179q0 29 6 61h109q-6 -33 -6 -55q0 -84 92 -84t119 123l45 204q-55 -70 -134 -70t-120 40q-41 39 -41 112q0 20 10 72l35 166q45 203 225 203
q99 0 151 -46t52 -130q0 -39 -8 -70l-107 -498q-43 -207 -225 -207z" />
    <glyph glyph-name="Euro" unicode="&#x20ac;" 
d="M72 250q0 49 12 108l49 224h-65l18 94h68l30 135h-67l18 92h64l51 236q31 151 119 233t228 82t219 -70t79 -198q0 -61 -14 -113l-11 -45h-151l14 70q6 37 6 65q0 145 -146 145t-183 -175l-48 -230h351l-19 -92h-350l-31 -135h353l-21 -94h-350l-53 -250q-30 -115 31 -170
q40 -37 114 -37q139 0 176 172l35 158h154l-35 -162q-68 -313 -347 -313q-140 0 -219 70t-79 200z" />
    <glyph glyph-name="uni20B9" unicode="&#x20b9;" 
d="M403 666h-124l368 -666h-176l-369 666l25 129h223q219 0 246 190h-428l27 129h415q8 100 -38 146t-156 45h-180l28 129h688l-28 -129h-232q80 -72 74 -191h117l-27 -129h-102q-25 -145 -122 -232t-229 -87z" />
    <glyph glyph-name="uni20BD" unicode="&#x20bd;" 
d="M508 813q174 0 211 193l20 92q11 57 11 98t-31 67t-98 25h-129l-101 -475h117zM639 1434q268 0 268 -238q0 -53 -12 -117l-14 -71q-37 -174 -132 -257t-262 -83h-129l-39 -183h244l-33 -145h-241l-72 -340h-160l72 340h-123l33 145h121l39 183h-121l31 145h122l131 621
h277z" />
    <glyph glyph-name="uni20BF" unicode="&#x20bf;" 
d="M600 550q0 105 -164 105h-108l-99 -458h129q181 -1 220 198l10 51q12 53 12 104zM571 1237h-120l-93 -436h88q195 0 238 203l10 43q10 57 11 81q0 109 -134 109zM868 1163q0 -43 -14 -106l-6 -31q-25 -127 -77 -196.5t-144 -94.5v-4q129 -51 129 -205q0 -47 -13 -100
l-10 -47q-57 -272 -284 -318l-37 -174h-107l35 164h-133l-35 -164h-106l34 164h-151l31 146h90l221 1040h-88l30 145h150l31 144h106l-31 -144h134l30 144h107l-35 -160q143 -45 143 -203z" />
    <glyph glyph-name="uni2113" unicode="&#x2113;" horiz-adv-x="475" 
d="M206 -20q-78 0 -128 44q-51 44 -51 128q0 39 8 69l258 1213h153l-256 -1207q-6 -23 -6 -41q0 -68 76 -67q49 0 92 18l-18 -141q-50 -16 -128 -16z" />
    <glyph glyph-name="uni2116" unicode="&#x2116;" horiz-adv-x="1349" 
d="M1235 369h-420l23 98h419zM1010 776q0 -92 97 -92t120 115l69 317l4 45q0 94 -99 94t-120 -116l-67 -318l-4 -38v-7zM1106 584q-98 0 -152.5 49t-54.5 137q0 41 8 72l64 299q41 213 233 213q98 0 152.5 -49.5t54.5 -137.5q0 -41 -8 -71l-64 -299q-47 -213 -233 -213z
M133 0h-145l305 1434h209l37 -1024l219 1024h145l-305 -1434h-168l-47 1165z" />
    <glyph glyph-name="uni2117" unicode="&#x2117;" horiz-adv-x="1544" 
d="M752 1026v-305h100q57 0 84 29t27 96v55q0 69 -27 97t-84 28h-100zM752 260h-119v877h225q223 0 223 -224v-79q0 -223 -223 -224h-106v-350zM815 90q260 0 430 178t170 450t-169 448q-169 177 -430 177t-430 -175t-169 -451q0 -275 169 -451t429 -176zM102 718
q0 316 203 526t510 210t510 -210t203 -526t-203 -528q-203 -210 -510 -210t-510 208q-203 214 -203 530z" />
    <glyph glyph-name="uni2120" unicode="&#x2120;" horiz-adv-x="1222" 
d="M772 705h-96v729h160l131 -527l129 527h161v-729h-104v591l-147 -591h-84l-150 591v-591zM178 872v41h105v-39q0 -94 96 -94t96 94q0 56 -30 88q-29 32 -111 72t-119 92q-37 51 -37 133q0 83 52 135t146 52t144 -48q51 -48 51 -134v-21h-104v19q0 92 -88 92
q-41 0 -66 -24t-25 -70t30 -76q28 -31 112 -75t119 -95t35 -136q0 -86 -54 -138t-149 -52q-96 0 -150 48q-53 48 -53 136z" />
    <glyph glyph-name="trademark" unicode="&#x2122;" horiz-adv-x="1226" 
d="M776 705h-96v729h160l131 -527l129 527h162v-729h-105v591l-147 -591h-84l-150 591v-591zM426 705h-111v628h-163v101h436v-101h-162v-628z" />
    <glyph glyph-name="uni2126" unicode="&#x2126;" horiz-adv-x="813" 
d="M80 457q0 92 22 200l103 480q33 153 123 235t232 82t226 -72q82 -72 82 -204q0 -51 -12 -111l-88 -422q-38 -172 -102 -286t-179 -214h168l-30 -145h-289l29 152q94 94 145 193t84 247l106 502q8 47 9 69q0 145 -162 146q-143 0 -182 -181l-117 -548q-27 -132 -27 -232
t64 -207l-27 -141h-291l31 145h188q-106 145 -106 312z" />
    <glyph glyph-name="estimated" unicode="&#x212e;" horiz-adv-x="1681" 
d="M399 739h961q14 0 14 15v401q0 18 -24 45q-86 100 -209 154t-260 55q-258 0 -475 -217q-23 -23 -23 -45v-393q0 -15 16 -15zM877 -20q-322 0 -551 217q-228 219 -228 521t228 519q229 217 552 217t547 -217q229 -217 230 -520v-19h-1256q-16 0 -16 -14v-395q0 -10 23 -43
q74 -106 200 -164t275 -57q299 0 499 245h115q-111 -138 -273 -214t-345 -76z" />
    <glyph glyph-name="uni2153" unicode="&#x2153;" horiz-adv-x="1339" 
d="M965 -20q-203 0 -203 172q0 43 8 73l12 51h107l-17 -69q-4 -37 -4 -41q0 -86 90 -86t117 117l23 104q6 31 6 51q0 74 -84 74h-59l20 98h53q106 0 137 127l9 41q8 23 8 51q0 86 -91 86t-116 -104l-14 -66h-105l15 68q45 203 221 203q201 0 200 -172q0 -39 -8 -70l-6 -31
q-31 -154 -145 -182v-4q74 -33 73 -129q0 -27 -8 -61l-18 -99q-39 -202 -221 -202zM397 524h-114l157 731q-70 -20 -155 -22l4 82q147 4 223 119h78zM340 0h-113l863 1434h112z" />
    <glyph glyph-name="uni2154" unicode="&#x2154;" horiz-adv-x="1337" 
d="M963 -20q-203 0 -203 172q0 43 8 73l12 51h107l-17 -69q-4 -37 -4 -41q0 -86 90 -86t117 117l23 104q6 31 6 51q0 74 -84 74h-60l21 98h53q106 0 137 127l9 41q8 23 8 51q0 86 -91 86t-116 -104l-14 -66h-105l14 68q47 203 222 203q201 0 200 -172q0 -39 -8 -70l-6 -31
q-31 -154 -145 -182v-4q74 -33 73 -129q0 -27 -8 -61l-18 -99q-41 -202 -221 -202zM338 0h-113l862 1434h113zM547 1268q0 86 -89 86t-114 -107l-18 -86h-105l19 90q47 203 221 203q201 0 201 -185q1 -177 -252 -372q-92 -70 -131 -120t-54 -115l-8 -37h299l-22 -101h-408
l25 117q23 102 73 174q51 72 156 152q207 158 207 301z" />
    <glyph glyph-name="oneeighth" unicode="&#x215b;" horiz-adv-x="1339" 
d="M1019 428q-101 0 -122 -113l-20 -98q-6 -25 -7 -45q1 -92 102 -92t124 115l20 98l4 43q0 92 -101 92zM1064 524q95 0 116 105l14 69q6 25 6 41q0 90 -95 90t-118 -108l-12 -70l-6 -39q0 -88 95 -88zM758 162q0 39 8 65l16 82q33 143 140 176v2q-63 39 -64 123q0 23 8 64
l11 55q41 201 233 201q92 0 146 -46t55 -130q0 -33 -6 -70l-13 -53q-27 -133 -133 -168v-2q72 -41 72 -133q0 -23 -8 -66l-19 -80q-43 -203 -231 -202q-98 0 -157 48q-58 48 -58 134zM397 524h-114l157 731q-70 -20 -155 -22l4 82q147 4 223 119h78zM340 0h-113l863 1434
h112z" />
    <glyph glyph-name="threeeighths" unicode="&#x215c;" horiz-adv-x="1339" 
d="M1019 428q-101 0 -122 -113l-20 -98q-6 -25 -7 -45q1 -92 102 -92t124 115l20 98l4 43q0 92 -101 92zM1064 524q95 0 116 105l14 69q6 25 6 41q0 90 -95 90t-118 -108l-12 -70l-6 -39q0 -88 95 -88zM758 162q0 39 8 65l16 82q33 143 140 176v2q-63 39 -64 123q0 23 8 64
l11 55q41 201 233 201q92 0 146 -46t55 -130q0 -33 -6 -70l-13 -53q-27 -133 -133 -168v-2q72 -41 72 -133q0 -23 -8 -66l-19 -80q-43 -203 -231 -202q-98 0 -157 48q-58 48 -58 134zM340 0h-113l863 1434h112zM315 504q-98 0 -149 45t-51 127q0 43 8 74l10 51h107l-15 -70
q-6 -23 -6 -41q0 -86 92 -86t115 117l23 104q6 31 6 52q0 74 -84 73h-60l23 99h53q106 0 135 127l10 41q6 29 7 51q1 86 -91 86t-114 -105l-15 -65h-104l14 67q41 203 220 203q203 0 202 -172q0 -27 -8 -70l-6 -30q-31 -156 -148 -183v-4q74 -31 74 -129q0 -31 -6 -61
l-20 -98q-42 -203 -222 -203z" />
    <glyph glyph-name="fiveeighths" unicode="&#x215d;" horiz-adv-x="1339" 
d="M1019 428q-101 0 -122 -113l-20 -98q-6 -25 -7 -45q1 -92 102 -92t124 115l20 98l4 43q0 92 -101 92zM1064 524q95 0 116 105l14 69q6 25 6 41q0 90 -95 90t-118 -108l-12 -70l-6 -39q0 -88 95 -88zM758 162q0 39 8 65l16 82q33 143 140 176v2q-63 39 -64 123q0 23 8 64
l11 55q41 201 233 201q92 0 146 -46t55 -130q0 -33 -6 -70l-13 -53q-27 -133 -133 -168v-2q72 -41 72 -133q0 -23 -8 -66l-19 -80q-43 -203 -231 -202q-98 0 -157 48q-58 48 -58 134zM340 0h-113l863 1434h112zM393 1040q-78 0 -108 -92l-9 -24h-104l135 510h369l-21 -99
h-270l-68 -260q47 66 132 66q150 0 149 -150q0 -45 -8 -76l-43 -208q-43 -203 -221 -203q-98 0 -150 46q-51 46 -51 130q0 27 8 70l6 30h107l-10 -49q-4 -37 -5 -39q1 -88 93 -88t112 107l41 202l4 43q0 84 -88 84z" />
    <glyph glyph-name="seveneighths" unicode="&#x215e;" horiz-adv-x="1337" 
d="M1017 428q-101 0 -122 -113l-21 -98q-6 -25 -6 -45q1 -92 102 -92t124 115l20 98l4 43q0 92 -101 92zM1061 524q94 0 117 105l14 69q6 25 6 41q0 90 -95 90t-118 -108l-12 -70l-6 -39q0 -88 94 -88zM756 162q0 39 8 65l16 82q33 143 140 176v2q-63 39 -64 123q0 23 8 64
l10 55q41 201 234 201q92 0 146 -46t55 -130q0 -33 -6 -70l-13 -53q-27 -133 -133 -168v-2q72 -41 72 -133q0 -23 -8 -66l-19 -80q-43 -203 -231 -202q-98 0 -157 48q-58 48 -58 134zM338 0h-113l862 1434h113zM254 524h-123l426 811h-305l22 99h418l-18 -97z" />
    <glyph glyph-name="partialdiff" unicode="&#x2202;" horiz-adv-x="845" 
d="M420 125q160 0 172 192l16 230q6 100 -38 156t-134 57q-152 0 -166 -187l-16 -245v-25q0 -178 166 -178zM415 -20q-155 0 -239 82t-84 239q0 33 2 43l19 248q20 315 274 315q176 0 236 -151l22 325q2 8 2 39q0 190 -168 191q-158 0 -174 -195l-2 -31h-151l2 27
q29 342 327 342q326 0 326 -324q0 -37 -2 -49l-53 -757q-12 -168 -97 -256t-240 -88z" />
    <glyph glyph-name="emptyset" unicode="&#x2205;" horiz-adv-x="1402" 
d="M741 182q213 0 351 150t139 375q0 180 -96 313l-699 -727q133 -111 305 -111zM741 1231q-211 0 -349 -150t-138 -374q0 -185 94 -312l699 727q-131 109 -306 109zM741 1368q233 0 408 -141l121 129l100 -92l-129 -134q141 -176 141 -440t-182 -457q-182 -188 -459 -188
q-229 0 -405 141l-123 -127l-98 91l127 133q-142 177 -142 443t182 454t459 188z" />
    <glyph glyph-name="uni2206" unicode="&#x2206;" horiz-adv-x="821" 
d="M561 1245l-428 -1106h387zM-76 0l572 1434h219l-37 -1434h-754z" />
    <glyph glyph-name="product" unicode="&#x220f;" horiz-adv-x="952" 
d="M317 -317h-159v1751h721v-1751h-160v1605h-402v-1605z" />
    <glyph glyph-name="summation" unicode="&#x2211;" horiz-adv-x="839" 
d="M842 -317h-719v143l399 735l-399 729v144h719v-146h-543l393 -729l-393 -731h543v-145z" />
    <glyph glyph-name="minus" unicode="&#x2212;" 
d="M780 553h-696v123h696v-123z" />
    <glyph glyph-name="uni2215" unicode="&#x2215;" 
d="M68 0h-138l910 1434h135z" />
    <glyph glyph-name="uni2219" unicode="&#x2219;" horiz-adv-x="380" 
d="M332 616h-203v203h203v-203z" />
    <glyph glyph-name="radical" unicode="&#x221a;" horiz-adv-x="954" 
d="M90 655v123h283l143 -676l311 1332h129l-370 -1567h-166l-174 788h-156z" />
    <glyph glyph-name="infinity" unicode="&#x221e;" horiz-adv-x="1304" 
d="M962 412q72 0 118 56t46 145t-45 145t-118 57q-73 0 -117 -43t-109 -164q73 -120 113 -158t112 -38zM384 416q75 0 122 45t98 162q-63 113 -108 153t-116 41q-71 0 -116 -55q-45 -54 -45 -144t45 -146t120 -56zM377 289q-141 0 -217 94q-74 96 -74 236q0 139 77 231
t212 92q91 0 157 -47t134 -158h6q113 205 297 205q141 0 216 -95t75 -237t-76 -231q-76 -90 -213 -90q-92 0 -158 47t-133 158h-8q-107 -205 -295 -205z" />
    <glyph glyph-name="integral" unicode="&#x222b;" 
d="M270 -348q-78 0 -125 20v148q39 -25 97 -25q109 0 108 125v1358q0 258 238 258q78 0 125 -20v-146q-41 23 -95 23q-109 0 -108 -125v-1358q0 -127 -61 -193q-62 -65 -179 -65z" />
    <glyph glyph-name="approxequal" unicode="&#x2248;" 
d="M307 575q68 0 158 -63q96 -61 133 -61q37 -1 66 27t75 104l90 -68q-59 -102 -111 -147t-118 -45t-158 61t-131 62t-67 -27t-76 -103l-90 68q57 102 109 147t120 45zM307 909q68 0 158 -63q96 -62 133 -62t66 28t75 103l90 -67q-59 -102 -111 -148t-118 -45
q-66 -1 -158 61t-131 63t-67 -27t-76 -103l-90 68q57 102 109 147t120 45z" />
    <glyph glyph-name="notequal" unicode="&#x2260;" 
d="M104 387v123h201l129 209h-330v123h402l121 198h123l-119 -198h129v-123h-203l-129 -209h332v-123h-404l-118 -199h-125l120 199h-129z" />
    <glyph glyph-name="lessequal" unicode="&#x2264;" 
d="M731 229h-614v123h614v-123zM731 545v-127l-614 233v117l614 233v-127l-446 -163z" />
    <glyph glyph-name="greaterequal" unicode="&#x2265;" 
d="M748 229h-615v123h615v-123zM748 651l-615 -233v127l447 166l-447 163v127l615 -233v-117z" />
    <glyph glyph-name="lozenge" unicode="&#x25ca;" 
d="M233 717l224 -520l223 520l-223 522zM485 -20h-57l-332 737l332 737h57l332 -737z" />
    <glyph glyph-name="uniE0FF" unicode="&#xe0ff;" horiz-adv-x="1089" 
 />
    <glyph glyph-name="uniEFFD" unicode="&#xeffd;" horiz-adv-x="1089" 
 />
    <glyph glyph-name="uniF000" unicode="&#xf000;" horiz-adv-x="1089" 
 />
    <glyph glyph-name="uniF8FF" unicode="&#xf8ff;" horiz-adv-x="1298" 
d="M702 700h-122q-80 0 -124 -41t-44 -107t41 -106q47 -36 104 -40t104 44t41 125v125zM582 1012h120v237h320v-237h270v-312h-270v-122q0 -224 -129 -356t-337 -132t-339 127q-129 129 -129 334t132 333t362 128z" />
    <glyph glyph-name="_1" horiz-adv-x="0" 
 />
    <glyph glyph-name="CR.001" horiz-adv-x="681" 
 />
    <glyph glyph-name="NULL" horiz-adv-x="0" 
 />
    <glyph glyph-name="uni00A40301" horiz-adv-x="534" 
d="M80 -8q-100 0 -156 26l31 144q55 -23 113 -23q137 0 170 162l239 1133h164l-244 -1145q-61 -297 -317 -297zM590 1540h-133l200 262h187z" />
    <glyph glyph-name="i.loclTRK" horiz-adv-x="352" 
d="M145 0h-157l219 1030h158zM395 1178h-153l45 221h155z" />
    <glyph glyph-name="germandbls.calt" horiz-adv-x="839" 
d="M360 0h-77l30 145h62q84 0 132 46t71 153l38 182q8 31 9 70q0 117 -138 117h-49l27 137l297 438h-336l-274 -1288h-164l305 1434h661l-30 -148l-295 -440q160 -43 159 -223q0 -55 -12 -117l-35 -164q-35 -178 -126 -260t-255 -82z" />
    <glyph glyph-name="zero.tf" 
d="M358 125q139 0 177 178l167 793q8 31 9 67q0 145 -162 146q-143 0 -180 -179l-168 -792q-8 -31 -8 -66q-1 -147 165 -147zM348 -20q-150 0 -234 72t-83 208q0 49 12 105l164 772q68 317 348 317q149 0 233 -73t84 -205q0 -51 -12 -107l-164 -774q-63 -315 -348 -315z" />
    <glyph glyph-name="one.tf" 
d="M481 0h-164l254 1171q-106 -43 -254 -45l15 119q225 2 338 189h121z" />
    <glyph glyph-name="two.tf" 
d="M565 1454q154 0 232 -72t77 -200q0 -189 -133 -360q-91 -116 -243 -232t-225 -201q-73 -84 -93 -190l-10 -54h475l-31 -145h-639l37 162q33 164 121 287q90 121 246 239q157 118 229 204q98 115 103 271q1 145 -151 145t-189 -178l-31 -147h-154l33 154q68 317 346 317z
" />
    <glyph glyph-name="three.tf" 
d="M342 -20q-158 0 -237 70t-78 202q0 49 12 110l16 76h154l-21 -100q-8 -31 -8 -68q0 -145 162 -145q143 0 186 192l33 152q8 35 8 78q0 129 -143 129h-90l31 145h84q86 0 145 51t78 150l14 72q8 27 8 65q0 150 -153 150q-137 0 -176 -174l-25 -103h-154l25 107
q68 315 338 315q147 0 228 -71t81 -199q0 -53 -12 -111l-8 -31q-53 -252 -234 -290v-2q125 -51 125 -205q0 -31 -10 -88l-35 -164q-72 -313 -344 -313z" />
    <glyph glyph-name="four.tf" 
d="M641 1151l-467 -717h313zM559 0h-164l62 289h-465l31 147l657 998h184l-213 -1000h115l-31 -145h-114z" />
    <glyph glyph-name="five.tf" 
d="M39 254q0 53 12 111l17 65h151l-18 -90q-8 -31 -8 -68q0 -147 163 -147q139 0 181 178l63 305q10 45 10 82q0 135 -137 135t-201 -172h-153l211 781h569l-31 -146h-422l-120 -430q98 113 214 113q116 1 177 -63t61 -177q0 -68 -14 -127l-66 -307q-68 -317 -354 -317
q-142 0 -224 72t-81 202z" />
    <glyph glyph-name="six.tf" 
d="M350 125q152 0 191 176l53 248q8 31 8 72q0 139 -149 139q-74 0 -125 -51t-70 -138l-51 -235q-8 -31 -8 -70q-1 -141 151 -141zM37 254q0 53 12 111l164 765q72 324 348 324q152 0 234 -71t82 -201q0 -47 -13 -107h-153q12 51 12 92q0 141 -164 142q-145 0 -188 -203
l-68 -320q88 119 216 119q127 0 191 -61t64 -176q0 -47 -14 -119l-55 -254q-73 -315 -361 -315q-144 0 -226 72t-81 202z" />
    <glyph glyph-name="seven.tf" 
d="M236 0h-179l676 1288h-489l32 146h656l-31 -142z" />
    <glyph glyph-name="eight.tf" 
d="M354 125q152 0 197 192l31 142q6 33 6 61q0 74 -45 112t-123 38q-158 0 -199 -176l-28 -140q-8 -47 -9 -73q0 -76 46 -116t124 -40zM492 811q152 0 190 168l27 121q8 41 8 65q0 70 -44 107t-120 37q-150 0 -186 -174l-27 -121q-6 -31 -6 -60q0 -68 43 -106t115 -37z
M342 -20q-145 0 -233 72t-89 206q0 49 13 104l26 132q49 221 224 270v4q-104 63 -105 199q0 31 10 96l19 84q68 307 358 307q143 0 227 -70t85 -198q0 -47 -13 -107l-16 -86q-45 -209 -215 -264v-2q113 -63 112 -209q0 -51 -8 -90l-30 -135q-68 -313 -365 -313z" />
    <glyph glyph-name="nine.tf" 
d="M453 674q74 0 125 50t71 138l51 236q8 43 9 69q0 141 -162 142q-141 0 -182 -176l-54 -248q-8 -47 -8 -72q0 -139 150 -139zM346 -23q-152 0 -234 71t-81 204q0 51 10 106h156q-12 -51 -13 -92q0 -141 162 -141q74 0 120 49t69 154l67 319q-82 -119 -227 -119
q-115 0 -178 62t-64 176q0 63 14 119l56 254q69 315 359 315q146 0 226 -72t80 -202q0 -53 -12 -111l-164 -766q-70 -326 -346 -326z" />
    <glyph glyph-name="zero.dnom" horiz-adv-x="579" 
d="M117 166q0 -86 92 -86t113 106l110 516q6 23 6 39q0 88 -93 88t-114 -106l-108 -516q-6 -23 -6 -41zM211 -20q-98 0 -152 46q-53 46 -53 132q0 39 8 69l107 500q47 203 223 203q98 0 152 -46t53 -132q0 -39 -8 -70l-109 -500q-47 -202 -221 -202z" />
    <glyph glyph-name="one.dnom" horiz-adv-x="579" 
d="M285 0h-113l158 731q-68 -20 -158 -22l6 82q145 4 221 118h78z" />
    <glyph glyph-name="two.dnom" horiz-adv-x="579" 
d="M436 743q0 86 -91 86t-112 -106l-18 -86h-106l20 90q47 203 221 203q96 0 148 -46t51 -128q0 -188 -250 -383q-92 -70 -131 -120t-53 -116l-9 -37h297l-20 -100h-410l25 117q25 102 77 173t154 152q207 158 207 301z" />
    <glyph glyph-name="three.dnom" horiz-adv-x="579" 
d="M205 -20q-203 0 -203 172q0 43 8 73l13 51h106l-16 -69q-4 -37 -4 -41q0 -86 94 -86q84 0 112 117l23 104q6 31 6 51q0 74 -84 74h-59l20 98h53q106 0 138 127l8 41q8 23 8 51q0 86 -91 86t-116 -104l-14 -66h-105l15 68q47 203 221 203q201 0 201 -172q0 -39 -9 -70
l-6 -31q-31 -154 -145 -182v-4q74 -33 74 -129q0 -27 -9 -61l-18 -99q-41 -202 -221 -202z" />
    <glyph glyph-name="four.dnom" horiz-adv-x="579" 
d="M393 715l-284 -439h186zM348 0h-112l36 178h-290l20 101l416 630h123l-135 -633h71l-20 -98h-72z" />
    <glyph glyph-name="five.dnom" horiz-adv-x="579" 
d="M213 -20q-199 0 -199 176q0 27 9 69l6 31h104l-8 -49q-6 -23 -6 -39q0 -88 92 -88t113 106l41 203q6 25 6 43q0 84 -85 84t-112 -92l-8 -25h-105l134 510h370l-22 -98h-271l-67 -260q47 66 133 65q150 0 149 -149q0 -45 -8 -76l-45 -209q-43 -202 -221 -202z" />
    <glyph glyph-name="six.dnom" horiz-adv-x="579" 
d="M276 471q-92 0 -116 -111l-31 -153q-4 -20 -4 -41q0 -86 91 -86t112 106l34 158l5 43q1 84 -91 84zM215 -20q-98 0 -150 46t-53 132q0 39 8 69l107 498q45 205 225 205q203 0 203 -178q0 -29 -6 -60h-109q6 31 6 56q0 82 -94 81q-92 0 -116 -120l-46 -205q54 68 134 68
t120 -40q40 -39 41 -110q0 -23 -10 -74l-35 -166q-49 -202 -225 -202z" />
    <glyph glyph-name="seven.dnom" horiz-adv-x="579" 
d="M141 0h-123l426 811h-305l23 98h418l-19 -96z" />
    <glyph glyph-name="eight.dnom" horiz-adv-x="579" 
d="M259 428q-101 0 -122 -113l-20 -98q-6 -25 -6 -45q0 -92 101 -92t124 115l20 98l4 43q0 92 -101 92zM303 524q94 0 117 105l14 69q6 25 6 41q0 90 -95 90t-118 -108l-12 -70l-6 -39q0 -88 94 -88zM-2 162q0 39 8 65l17 82q33 143 139 176v2q-63 39 -64 123q0 23 8 64
l11 55q41 201 233 201q92 0 146 -46t55 -130q0 -33 -6 -70l-13 -53q-27 -133 -133 -168v-2q72 -41 72 -133q0 -23 -8 -66l-19 -80q-43 -203 -231 -202q-98 0 -157 48q-58 48 -58 134z" />
    <glyph glyph-name="nine.dnom" horiz-adv-x="579" 
d="M279 438q90 0 116 111l31 156q4 20 4 40q0 84 -90 84t-113 -104l-34 -160q-4 -37 -5 -43q1 -84 91 -84zM203 -20q-203 0 -203 178q0 27 6 61h109q-6 -35 -6 -55q0 -84 94 -84q88 0 116 123l46 205q-55 -70 -135 -70q-160 0 -160 151q0 20 10 72l35 166q45 203 225 203
q98 0 150 -46t53 -130q0 -39 -8 -70l-107 -498q-47 -206 -225 -206z" />
    <glyph glyph-name="zero.numr" horiz-adv-x="579" 
d="M320 604q92 0 112 107l111 516q6 23 6 39q0 88 -93 88t-114 -107l-109 -516q-6 -23 -6 -41q1 -86 93 -86zM322 504q-98 0 -152 46q-53 46 -53 132q0 39 8 70l106 499q47 203 224 203q98 0 151 -46t53 -132q0 -39 -8 -70l-108 -499q-47 -203 -221 -203z" />
    <glyph glyph-name="one.numr" horiz-adv-x="581" 
d="M397 524h-114l157 731q-70 -20 -155 -22l4 82q147 4 223 119h78z" />
    <glyph glyph-name="two.numr" horiz-adv-x="579" 
d="M547 1268q0 86 -89 86t-114 -107l-18 -86h-105l19 90q47 203 221 203q201 0 201 -185q1 -177 -252 -372q-92 -70 -131 -120t-54 -115l-8 -37h299l-22 -101h-408l25 117q23 102 73 174q51 72 156 152q207 158 207 301z" />
    <glyph glyph-name="three.numr" horiz-adv-x="581" 
d="M315 504q-98 0 -149 45t-51 127q0 43 8 74l10 51h107l-15 -70q-6 -23 -6 -41q0 -86 92 -86t115 117l23 104q6 31 6 52q0 74 -84 73h-60l23 99h53q106 0 135 127l10 41q6 29 7 51q1 86 -91 86t-114 -105l-15 -65h-104l14 67q41 203 220 203q203 0 202 -172q0 -27 -8 -70
l-6 -30q-31 -156 -148 -183v-4q74 -31 74 -129q0 -31 -6 -61l-20 -98q-42 -203 -222 -203z" />
    <glyph glyph-name="four.numr" horiz-adv-x="581" 
d="M506 1239l-285 -438h187zM461 524h-113l37 178h-289l19 101l415 631h123l-135 -633h72l-21 -99h-71z" />
    <glyph glyph-name="five.numr" horiz-adv-x="581" 
d="M393 1040q-78 0 -108 -92l-9 -24h-104l135 510h369l-21 -99h-270l-68 -260q47 66 132 66q150 0 149 -150q0 -45 -8 -76l-43 -208q-43 -203 -221 -203q-98 0 -150 46q-51 46 -51 130q0 27 8 70l6 30h107l-10 -49q-4 -37 -5 -39q1 -88 93 -88t112 107l41 202l4 43
q0 84 -88 84z" />
    <glyph glyph-name="six.numr" horiz-adv-x="577" 
d="M386 995q-91 0 -116 -110l-30 -154q-4 -20 -4 -41q0 -86 91 -86t111 107l35 157l4 43q0 84 -91 84zM326 504q-98 0 -151 46q-52 46 -52 132q0 39 8 70l107 497q45 205 225 205q203 0 203 -178q0 -29 -7 -59h-108q6 31 6 55q0 82 -93 82t-118 -121l-45 -205q51 68 132 68
t122 -39t41 -111q0 -23 -10 -74l-35 -165q-49 -203 -225 -203z" />
    <glyph glyph-name="seven.numr" horiz-adv-x="579" 
d="M254 524h-123l426 811h-305l22 99h418l-18 -97z" />
    <glyph glyph-name="eight.numr" horiz-adv-x="579" 
d="M370 952q-101 0 -122 -112l-21 -99q-6 -25 -6 -45q1 -92 102 -92t123 115l21 98l4 43q0 92 -101 92zM414 1049q94 0 116 104l15 70q6 25 6 41q0 90 -95 90t-118 -109l-12 -69q0 -11 -7 -39q1 -88 95 -88zM109 686q0 39 8 66l16 82q33 143 139 176v2q-63 39 -63 123
q0 23 8 63l10 55q41 201 234 201q92 0 146 -46t55 -130q0 -33 -7 -70l-12 -53q-27 -133 -133 -168v-2q72 -41 72 -133q0 -23 -9 -66l-18 -79q-43 -203 -231 -203q-98 0 -157 48q-58 48 -58 134z" />
    <glyph glyph-name="nine.numr" horiz-adv-x="577" 
d="M299 1047q0 -84 90 -84t117 110l31 156q4 20 4 41q-1 84 -91 84t-112 -105l-35 -159q-4 -37 -4 -43zM313 504q-203 0 -202 178q0 27 6 61h108q-6 -35 -6 -55q0 -84 94 -84q88 0 117 123l45 205q-55 -70 -134 -70q-161 0 -161 152q0 20 10 71l35 166q45 203 226 203
q98 0 150 -46t52 -130q0 -39 -8 -70l-106 -497q-48 -207 -226 -207z" />
    <glyph glyph-name="caroncomb.alt" horiz-adv-x="0" 
d="M115 1049h-70l90 192h-55l43 193h147l-37 -179z" />
    <glyph glyph-name="caron.alt" horiz-adv-x="1024" 
d="M627 1049h-70l90 192h-55l43 193h147l-37 -179z" />
    </font>
</defs>
</svg>
