<svg xmlns="http://www.w3.org/2000/svg">
<defs>
<font id="bc4d954363db885259d2526a48c9b3db" horiz-adv-x='1024' >
  <font-face 
    font-family="BebasNeuePro-BoldItalic"
    font-weight="700"
    font-style="italic"
    font-stretch="normal"
    units-per-em="2048"
    panose-1="2 11 6 6 2 2 2 12 2 1"
    ascent="1434"
    descent="-614"
    x-height="1044"
    cap-height="1434"
    bbox="-471 -410 1655 1880"
    underline-thickness="163"
    underline-position="0"
    slope="-12"
    unicode-range="U+000D-FB02"
  />
<missing-glyph horiz-adv-x="1511" 
d="M1210 307h-32v33h32v-33zM1112 340v-33h-33v33h33zM981 373h66v65h-66v-65zM915 406h33v32h-33v-32zM453 471h102v-98h-102v98zM420 340h168v164h-168v-164zM981 537h33v-33h-33v33zM784 504h-32v33h32v-33zM387 537h234v-230h-234v230zM1145 471v33h33v65h32v-131h-32
v33h-33zM948 471h99v98h-99v-98zM1145 602h33v-33h-33v-32h-33v32h33v33zM752 569h-33v33h33v-33zM487 569h-34v33h34v-33zM981 635h-33v-33h33v33zM653 668v-66h33v33h33v-33h-33v-65h33v-66h-66v33h33v33h-33v32h-65v33h33v33h-66v33h98zM1210 635h-32v33h-33v32h33v33h32
v-98zM883 700h98v33h66v-65h98v-33h-98v-33h32v-65h33v-33h-33v-33h33v-33h66v-32h32v-33h-65v33h-66v-66h-65v-33h-33v33h-33v-33h-33v66h-32v-66h-66v33h-65v-33h-99v99h66v-66h33v33h32v65h-32v-32h-33v65h98v33h33v-66h-33v-32h66v98h32v33h-32v32h-33v-32h-33v65h-65
v33h-33v33h33v-33h32v65h-32v33h65v-33h33v-65h-33v-33h33v33h33v65zM387 733h33v-65h-33v65zM883 733h-33v33h33v-33zM686 668v98h33v-98h-33zM588 733h65v-33h-131v-65h33v-66h-33v33h-35v33h-34v-33h-66v33h66v33h34v32h35v33h33v33h33v-33zM784 799v-33h-32v33h32z
M817 831h33v-32h-33v32zM1210 766h-32v33h-33v65h65v-98zM915 799v-33h-32v98h32v-33h33v33h131v-33h33v-32h33v-33h-33v-33h-65v33h-66v-33h-33v66h33v32h-33v-32h-33zM453 831v-32h34v-33h35v-33h-35v33h-67v33h-33v65h100v-33h-34zM948 897h-33v33h33v-33zM1047 1061h98

<glyph glyph-name="fi" unicode="fi" horiz-adv-x="931" 
d="M737 0h-221l221 1044h221zM768 1174l49 237h217l-49 -237h-217zM557 1454q94 0 158 -35l-37 -180q-49 23 -90 23q-66 0 -84 -84l-29 -134h156l-39 -184h-156l-184 -860h-219l184 860h-119l39 184h119l39 185q49 225 262 225z" />
    <glyph glyph-name="fl" unicode="fl" horiz-adv-x="931" 
d="M516 0l305 1434h221l-305 -1434h-221zM557 1454q94 0 158 -35l-37 -180q-49 23 -90 23q-66 0 -84 -84l-29 -134h156l-39 -184h-156l-184 -860h-219l184 860h-119l39 184h119l39 185q49 225 262 225z" />
    <glyph glyph-name=".notdef" horiz-adv-x="1511" 
d="M1210 307h-32v33h32v-33zM1112 340v-33h-33v33h33zM981 373h66v65h-66v-65zM915 406h33v32h-33v-32zM453 471h102v-98h-102v98zM420 340h168v164h-168v-164zM981 537h33v-33h-33v33zM784 504h-32v33h32v-33zM387 537h234v-230h-234v230zM1145 471v33h33v65h32v-131h-32
v33h-33zM948 471h99v98h-99v-98zM1145 602h33v-33h-33v-32h-33v32h33v33zM752 569h-33v33h33v-33zM487 569h-34v33h34v-33zM981 635h-33v-33h33v33zM653 668v-66h33v33h33v-33h-33v-65h33v-66h-66v33h33v33h-33v32h-65v33h33v33h-66v33h98zM1210 635h-32v33h-33v32h33v33h32
v-98zM883 700h98v33h66v-65h98v-33h-98v-33h32v-65h33v-33h-33v-33h33v-33h66v-32h32v-33h-65v33h-66v-66h-65v-33h-33v33h-33v-33h-33v66h-32v-66h-66v33h-65v-33h-99v99h66v-66h33v33h32v65h-32v-32h-33v65h98v33h33v-66h-33v-32h66v98h32v33h-32v32h-33v-32h-33v65h-65
v33h-33v33h33v-33h32v65h-32v33h65v-33h33v-65h-33v-33h33v33h33v65zM387 733h33v-65h-33v65zM883 733h-33v33h33v-33zM686 668v98h33v-98h-33zM588 733h65v-33h-131v-65h33v-66h-33v33h-35v33h-34v-33h-66v33h66v33h34v32h35v33h33v33h33v-33zM784 799v-33h-32v33h32z
M817 831h33v-32h-33v32zM1210 766h-32v33h-33v65h65v-98zM915 799v-33h-32v98h32v-33h33v33h131v-33h33v-32h33v-33h-33v-33h-65v33h-66v-33h-33v66h33v32h-33v-32h-33zM453 831v-32h34v-33h35v-33h-35v33h-67v33h-33v65h100v-33h-34zM948 897h-33v33h33v-33zM1047 1061h98
v-98h-98v98zM453 1061h102v-98h-102v98zM1014 930h164v164h-164v-164zM420 930h168v164h-168v-164zM981 1126h229v-229h-229v229zM915 1126h33v-65h-33v65zM387 1126h234v-229h-234v229zM354 274h889v885h-889v-885zM154 0v1434h1290v-1434h-1290zM883 635v-33h32v33h-32z
M817 340h33v33h-33v-33zM588 766v33h33v32h32v-65h-65zM1079 831h-32v-32h32v32zM588 799h-66v32h33v33h66v-33h-33v-32zM883 864h-33v66h33v-66zM752 930v-33h32v33h33v-66h-65v-65h-66v32h-33v164h66v66h-66v65h33v-32h66v32h65v-32h33v32h33v-65h32v-33h-32v-65h-33v-33
h-33v98h-65v-33h32v-65h-32zM752 930v33h-66v-99h33v66h33zM752 1094v-33h32v33h-32z" />
    <glyph glyph-name=".null" horiz-adv-x="0" 
 />
    <glyph glyph-name="nonmarkingreturn" horiz-adv-x="681" 
 />
    <glyph glyph-name="CR" unicode="&#xd;" horiz-adv-x="327" 
 />
    <glyph glyph-name="space" unicode=" " horiz-adv-x="327" 
 />
    <glyph glyph-name="exclam" unicode="!" horiz-adv-x="438" 
d="M221 0h-225l47 225h225zM272 379h-168l68 457l127 598h229l-127 -598z" />
    <glyph glyph-name="quotedbl" unicode="&#x22;" horiz-adv-x="663" 
d="M639 971h-121l45 463h230zM336 971h-121l45 463h229z" />
    <glyph glyph-name="numbersign" unicode="#" 
d="M444 952l-120 -389h151l119 389h-150zM145 0h-165l135 418h-103l45 145h103l121 389h-105l45 146h105l106 336h164l-104 -336h149l104 336h164l-104 -336h104l-47 -146h-102l-121 -389h104l-47 -145h-102l-133 -418h-164l131 418h-149z" />
    <glyph glyph-name="dollar" unicode="$" 
d="M872 1147q0 -57 -14 -109l-10 -41l-211 21l12 53q6 25 6 45q0 90 -108 90q-63 0 -95 -47t-32 -125q0 -113 129 -250q172 -184 172 -351t-89 -281t-237 -127l-28 -138h-185l31 152q-184 51 -184 252q0 47 12 102l20 96l211 -20l-22 -107q-4 -20 -4 -40q0 -92 110 -93
q66 1 101 51t35 132q0 111 -130 245q-174 179 -174 349t86 278t232 125l24 117h185l-27 -131q184 -51 184 -248z" />
    <glyph glyph-name="percent" unicode="%" horiz-adv-x="1148" 
d="M814 106q69 0 83 82l76 349l4 28q0 68 -70 68t-84 -82l-73 -348l-5 -31q0 -66 69 -66zM815 -23q-101 -1 -157 47t-56 134q0 41 8 71l70 328q45 205 229 205q103 0 157 -48t54 -134q0 -39 -8 -70l-72 -328q-45 -205 -225 -205zM323 795q69 0 83 82l75 348l4 28
q1 68 -69 68t-84 -82l-74 -348l-4 -31q0 -65 69 -65zM260 0h-147l858 1434h149zM324 666q-100 0 -157 47q-56 47 -56 133q0 41 8 72l69 327q45 205 230 205q102 0 156 -48t55 -134q0 -39 -8 -70l-72 -328q-45 -204 -225 -204z" />
    <glyph glyph-name="ampersand" unicode="&#x26;" horiz-adv-x="847" 
d="M467 631q-154 0 -199 -193l-32 -139q-6 -20 -7 -45q0 -92 105 -92q116 -1 147 151l70 318h-84zM231 -20q-233 0 -233 219q0 43 14 108l33 146q49 221 236 284v4q-117 45 -117 195q0 47 12 104l21 95q68 319 354 319q156 0 241 -72t85 -206q0 -49 -17 -132h-213
q14 74 15 111q0 100 -105 100q-113 0 -139 -137l-31 -141q-8 -41 -8 -57q0 -88 119 -89h374l-43 -200h-55l-74 -338q-43 -195 -36 -293h-191q-10 27 2 121q-82 -141 -244 -141z" />
    <glyph glyph-name="quotesingle" unicode="'" horiz-adv-x="360" 
d="M336 971h-121l45 463h229z" />
    <glyph glyph-name="parenleft" unicode="(" horiz-adv-x="557" 
d="M274 -205q-134 0 -198 48t-64 157q0 49 13 111l219 1024q34 163 114 231t250 68h74l-37 -168h-45q-125 0 -156 -148l-219 -1024q-8 -42 -8 -70q0 -59 90 -61h62l-35 -168h-60z" />
    <glyph glyph-name="parenright" unicode=")" horiz-adv-x="557" 
d="M-12 -205h-74l35 168h45q125 0 156 148l219 1024q8 31 8 65q-1 34 -21 50q-20 15 -69 16h-62l37 168h60q132 0 196 -48t64 -157q0 -45 -13 -111l-219 -1024q-34 -162 -114 -230t-248 -69z" />
    <glyph glyph-name="asterisk" unicode="*" horiz-adv-x="868" 
d="M539 946l-199 -276l-137 108l248 230l-304 67l80 174l277 -139l6 324h184l-88 -324l309 139l35 -174l-323 -67l186 -230l-158 -108z" />
    <glyph glyph-name="plus" unicode="+" 
d="M510 256h-160v281h-274v159h274v277h160v-277h274v-159h-274v-281z" />
    <glyph glyph-name="comma" unicode="," horiz-adv-x="409" 
d="M29 -246h-111l139 246h-75l47 225h225l-41 -202z" />
    <glyph glyph-name="hyphen" unicode="-" horiz-adv-x="552" 
d="M502 522h-451l39 185h451z" />
    <glyph glyph-name="period" unicode="." horiz-adv-x="409" 
d="M207 0h-225l47 225h225z" />
    <glyph glyph-name="slash" unicode="/" horiz-adv-x="792" 
d="M61 -205h-206l913 1639h207z" />
    <glyph glyph-name="zero" unicode="0" 
d="M360 184q92 0 121 127l166 785q6 27 6 51q0 102 -112 102q-94 0 -123 -129l-166 -784q-6 -29 -6 -49q-1 -103 114 -103zM348 -20q-156 0 -244 74t-88 214q0 49 13 105l161 757q33 158 126 241t242 83t237 -75t88 -214q0 -51 -13 -106l-161 -758q-70 -321 -361 -321z" />
    <glyph glyph-name="one" unicode="1" horiz-adv-x="595" 
d="M387 0h-231l239 1094h-235l18 159q141 0 217 39t137 142h166z" />
    <glyph glyph-name="two" unicode="2" horiz-adv-x="759" 
d="M520 1249q-104 0 -133 -127l-35 -168h-217l37 176q72 324 358 324q158 0 241 -72t83 -206q0 -324 -374 -610q-150 -114 -200 -176t-67 -138l-10 -47h430l-43 -205h-658l41 197q33 157 108 271t225 228t232 217q81 102 85 236q1 100 -103 100z" />
    <glyph glyph-name="three" unicode="3" horiz-adv-x="765" 
d="M315 -20q-157 0 -241 72t-84 204q0 51 12 113l18 84h216l-25 -117q-6 -29 -6 -51q0 -100 110 -101q102 0 134 148l28 139q10 57 10 76q0 98 -112 98h-84l43 205h74q145 0 178 160l18 86q6 27 6 51q0 102 -102 102q-92 0 -121 -121l-25 -106h-215l25 113q70 319 350 319
q150 0 235 -71t85 -201q0 -59 -15 -115l-6 -27q-29 -130 -83 -198t-146 -90v-2q123 -57 123 -207q0 -33 -10 -90l-35 -156q-72 -317 -355 -317z" />
    <glyph glyph-name="four" unicode="4" horiz-adv-x="817" 
d="M565 1034l-346 -569h223zM575 0h-231l55 260h-430l41 205l615 969h256l-207 -969h106l-43 -205h-106z" />
    <glyph glyph-name="five" unicode="5" horiz-adv-x="784" 
d="M334 -20q-158 0 -241 72t-83 208q0 51 13 113l18 80h215l-25 -117q-6 -29 -6 -51q0 -100 115 -101q94 0 123 127l67 316q24 94 -19 134q-28 26 -71 25q-113 0 -147 -153h-215l215 801h596l-45 -205h-385l-99 -340q92 104 196 104t162 -62t58 -175q0 -51 -16 -133
l-70 -320q-71 -323 -356 -323z" />
    <glyph glyph-name="six" unicode="6" horiz-adv-x="804" 
d="M348 182q104 0 131 125l56 260q6 31 6 54q1 98 -103 98t-133 -127l-55 -260q-6 -29 -6 -51q0 -99 104 -99zM346 -20q-160 0 -245 74t-85 208q0 53 13 111l159 747q70 334 361 334q162 0 247 -73t85 -207q0 -47 -13 -107h-217q12 49 13 84q0 98 -117 98q-102 0 -135 -162
l-58 -270q82 107 197 107t173 -60t58 -172q0 -66 -14 -121l-59 -270q-74 -321 -363 -321z" />
    <glyph glyph-name="seven" unicode="7" horiz-adv-x="729" 
d="M240 0h-250l626 1229h-442l45 205h676l-41 -197z" />
    <glyph glyph-name="eight" unicode="8" horiz-adv-x="811" 
d="M354 184q109 0 140 148l30 139q6 31 6 55q0 113 -116 113t-146 -145l-28 -136q-6 -35 -7 -59q0 -115 121 -115zM377 946q1 -106 109 -106t135 129l28 131q6 25 6 47q0 102 -108 102t-135 -125l-29 -131q-6 -27 -6 -47zM338 -20q-152 0 -244 74t-92 208q0 49 12 107
l27 125q45 211 207 274l2 4q-92 63 -92 191q0 45 12 100l16 80q72 311 371 311q150 0 238 -72t88 -204q0 -47 -13 -107l-16 -80q-39 -197 -199 -262v-4q98 -70 99 -203q0 -31 -11 -96l-28 -129q-72 -317 -377 -317z" />
    <glyph glyph-name="nine" unicode="9" horiz-adv-x="804" 
d="M346 811q0 -98 104 -98t132 127l55 260q6 27 6 51q-1 98 -105 98t-130 -125l-56 -260q-6 -31 -6 -53zM338 -23q-164 0 -248 73t-84 208q0 49 12 107h218q-12 -49 -13 -84q0 -98 117 -99q102 0 135 162l57 270q-82 -106 -196 -106t-173 60q-58 60 -59 171q0 66 15 121
l59 270q74 322 363 322q161 0 245 -74t84 -209q0 -51 -12 -110l-160 -748q-69 -334 -360 -334z" />
    <glyph glyph-name="colon" unicode=":" horiz-adv-x="409" 
d="M207 0h-225l47 225h225zM373 780h-226l48 226h225z" />
    <glyph glyph-name="semicolon" unicode=";" horiz-adv-x="409" 
d="M29 -246h-111l139 246h-75l47 225h225l-41 -202zM375 780h-225l47 226h225z" />
    <glyph glyph-name="less" unicode="&#x3c;" 
d="M733 432v-164l-627 271v151l627 271v-164l-432 -183z" />
    <glyph glyph-name="equal" unicode="=" 
d="M764 369h-668v159h668v-159zM764 700h-668v160h668v-160z" />
    <glyph glyph-name="greater" unicode="&#x3e;" 
d="M754 539l-627 -271v164l432 182l-432 183v164l627 -271v-151z" />
    <glyph glyph-name="question" unicode="?" horiz-adv-x="737" 
d="M336 0h-225l47 225h225zM606 1151q0 98 -110 98q-94 0 -121 -129l-35 -168h-215l35 176q31 156 121 241q91 85 235 85t230 -73t88 -207q0 -248 -244 -480q-152 -145 -172 -245l-15 -70h-196l20 94q31 162 174 301q166 168 199 324q6 31 6 53z" />
    <glyph glyph-name="at" unicode="@" horiz-adv-x="1417" 
d="M670 369q92 0 145 166l49 157q10 35 10 70q0 96 -88 96q-78 0 -110 -110l-78 -246q-10 -41 -10 -62q0 -71 82 -71zM979 414q0 -31 37 -31q90 0 179 212q89 213 89 361t-102 236t-290 88t-344 -135q-157 -135 -239 -338t-82 -410t119 -308q118 -101 320 -101t383 104
l-54 -198q-156 -78 -323 -78q-291 0 -465 151q-172 152 -172 430q0 197 64 388q140 411 456 581q164 88 344 88q261 0 409 -121t148 -350q0 -178 -59 -355t-178 -302q-113 -123 -250 -123q-170 0 -187 129q-82 -129 -211 -129q-88 0 -141 48q-53 49 -53 121t24 146l86 275
q78 244 263 243q147 0 186 -118l31 100h200l-180 -561q-8 -18 -8 -43z" />
    <glyph glyph-name="A" unicode="A" horiz-adv-x="823" 
d="M545 1174l-248 -699h197zM-88 0l539 1434h311l-72 -1434h-229l20 281h-254l-98 -281h-217z" />
    <glyph glyph-name="B" unicode="B" horiz-adv-x="833" 
d="M369 205q121 0 151 149l27 125q10 57 10 91q0 75 -119 75h-96l-94 -440h121zM465 850q137 0 172 160l16 77q8 41 9 60q0 82 -93 82h-104l-80 -379h80zM352 0h-379l306 1434h327q291 0 291 -236q0 -47 -12 -102l-13 -60q-27 -127 -73.5 -192.5t-130.5 -83.5v-2
q117 -55 116 -203q0 -47 -12 -98l-27 -125q-35 -170 -130 -251t-263 -81z" />
    <glyph glyph-name="C" unicode="C" horiz-adv-x="780" 
d="M340 -20q-158 0 -241 71.5t-83 206.5q0 49 13 107l166 774q69 315 361 315q148 0 229 -71.5t81 -204.5q0 -53 -12 -109l-25 -119h-217l33 156q6 25 6 47q0 96 -100 96t-129 -121l-172 -800q-6 -25 -6 -45q0 -98 105 -98.5t128 116.5l45 223h215l-47 -229
q-63 -315 -350 -315z" />
    <glyph glyph-name="D" unicode="D" horiz-adv-x="837" 
d="M348 205q119 0 154 147l160 746q6 33 6 55q0 76 -86 76h-117l-217 -1024h100zM342 0h-369l306 1434h331q141 0 215 -67t74 -189q0 -47 -12 -107l-154 -725q-37 -178 -131 -262t-260 -84z" />
    <glyph glyph-name="E" unicode="E" horiz-adv-x="735" 
d="M588 0h-615l306 1434h614l-45 -205h-383l-80 -379h303l-43 -205h-303l-94 -440h383z" />
    <glyph glyph-name="F" unicode="F" horiz-adv-x="704" 
d="M205 0h-232l306 1434h595l-45 -205h-364l-84 -400h285l-43 -204h-285z" />
    <glyph glyph-name="G" unicode="G" horiz-adv-x="802" 
d="M346 -20q-156 0 -243 71.5t-87 208.5q0 53 13 115l161 758q70 322 355 321q160 0 242.5 -72.5t82.5 -207.5q0 -51 -12 -111l-18 -92h-217l26 129q6 27 6 51q0 100 -103 100t-132 -127l-170 -790q-6 -27 -6 -51q0 -99 105 -99t132 125l64 295h-115l43 205h332l-109 -506
q-67 -323 -350 -323z" />
    <glyph glyph-name="H" unicode="H" horiz-adv-x="864" 
d="M203 0h-230l306 1434h229l-125 -584h238l124 584h230l-305 -1434h-230l138 645h-238z" />
    <glyph glyph-name="I" unicode="I" horiz-adv-x="397" 
d="M203 0h-230l306 1434h229z" />
    <glyph glyph-name="J" unicode="J" horiz-adv-x="534" 
d="M72 -8q-104 0 -160 24l43 201q55 -18 94 -18q111 0 139 123l236 1112h231l-241 -1129q-68 -313 -342 -313z" />
    <glyph glyph-name="K" unicode="K" horiz-adv-x="847" 
d="M772 1434h246l-387 -539l82 -895h-228l-55 616l-137 -190l-90 -426h-230l306 1434h229l-125 -588z" />
    <glyph glyph-name="L" unicode="L" horiz-adv-x="704" 
d="M569 0h-596l306 1434h229l-262 -1229h366z" />
    <glyph glyph-name="M" unicode="M" horiz-adv-x="1101" 
d="M174 0h-201l306 1434h315l-72 -1041l371 1041h324l-306 -1434h-217l232 1085l-400 -1085h-184l64 1085z" />
    <glyph glyph-name="N" unicode="N" horiz-adv-x="874" 
d="M178 0h-205l306 1434h272l45 -859l184 859h205l-305 -1434h-221l-58 1047z" />
    <glyph glyph-name="O" unicode="O" 
d="M360 184q92 0 121 127l166 785q6 27 6 51q0 102 -112 102q-94 0 -123 -129l-166 -784q-6 -29 -6 -49q-1 -103 114 -103zM348 -20q-156 0 -244 74.5t-88 213.5q0 49 13 105l161 757q33 158 126.5 241t241.5 83t236.5 -74.5t88.5 -214.5q0 -51 -13 -106l-161 -758
q-70 -321 -361 -321z" />
    <glyph glyph-name="P" unicode="P" horiz-adv-x="794" 
d="M465 788q123 0 149 144l35 168q6 31 6 51q0 78 -82 78h-108l-92 -441h92zM608 1434q135 0 207 -67t72 -187q0 -49 -13 -105l-30 -145q-37 -178 -133.5 -262t-268.5 -84h-114l-123 -584h-232l306 1434h329z" />
    <glyph glyph-name="Q" unicode="Q" 
d="M653 1147q0 102 -112 102q-94 0 -123 -129l-166 -784q-6 -29 -6 -49q0 -102 114 -103q92 0 121 127l166 785q6 27 6 51zM676 72h55l-43 -205h-59q-152 0 -160 131q-55 -18 -121 -18q-156 0 -244 74.5t-88 213.5q0 49 13 105l161 757q33 158 126.5 241t242 83t236.5 -74.5
t88 -214.5q-1 -51 -13 -106l-161 -758q-27 -117 -88 -199q8 -20 17 -25t38 -5z" />
    <glyph glyph-name="R" unicode="R" horiz-adv-x="829" 
d="M444 819q139 0 177 160l24 111q8 31 8 65q0 74 -86 74h-102l-88 -410h67zM608 1434q135 0 206 -62.5t71 -183.5q0 -49 -13 -111l-14 -69q-27 -131 -77 -200t-136 -91v-2q104 -35 105 -178q0 -63 -15 -119l-53 -252q-20 -96 -20 -114.5t4 -51.5h-224q-4 49 -4 73.5
t19 110.5l55 262q12 53 12 93t-23.5 57.5t-84.5 17.5h-82l-131 -614h-230l306 1434h329z" />
    <glyph glyph-name="S" unicode="S" horiz-adv-x="759" 
d="M303 -20q-309 0 -309 266q0 68 14 127l10 49h215l-16 -88q-6 -31 -6 -55q0 -94 106 -95q139 0 140 201q0 129 -125 272q-170 193 -170 380t100 302t275 115q307 0 307 -264q0 -47 -17 -129l-6 -27h-215l12 62q6 35 7 61q0 92 -103 92q-66 0 -99.5 -51t-33.5 -135
q0 -123 125 -266q170 -201 170 -391t-102 -310q-103 -116 -279 -116z" />
    <glyph glyph-name="T" unicode="T" horiz-adv-x="749" 
d="M379 0h-229l260 1229h-236l45 205h701l-46 -205h-235z" />
    <glyph glyph-name="U" unicode="U" horiz-adv-x="823" 
d="M350 -20q-154 0 -239.5 73.5t-85.5 208.5q0 53 12 111l227 1061h230l-236 -1102q-6 -29 -6 -49q0 -98 113 -99q96 0 120 125l240 1125h221l-241 -1133q-68 -321 -355 -321z" />
    <glyph glyph-name="V" unicode="V" horiz-adv-x="782" 
d="M434 0h-307l92 1434h225l-94 -1127l385 1127h217z" />
    <glyph glyph-name="W" unicode="W" horiz-adv-x="1140" 
d="M362 0h-299l162 1434h217l-139 -1123l346 1123h246l-133 -1123l340 1123h203l-449 -1434h-285l107 985z" />
    <glyph glyph-name="X" unicode="X" horiz-adv-x="827" 
d="M139 0h-231l424 750l-103 684h228l55 -453l246 453h233l-405 -717l108 -717h-227l-59 489z" />
    <glyph glyph-name="Y" unicode="Y" horiz-adv-x="811" 
d="M408 0h-230l131 610l-96 824h229l39 -535l273 535h233l-448 -824z" />
    <glyph glyph-name="Z" unicode="Z" horiz-adv-x="733" 
d="M584 0h-660l39 201l623 1028h-381l45 205h639l-41 -201l-623 -1028h402z" />
    <glyph glyph-name="bracketleft" unicode="[" horiz-adv-x="557" 
d="M336 -205h-365l348 1639h365l-37 -168h-160l-276 -1303h160z" />
    <glyph glyph-name="backslash" unicode="\" horiz-adv-x="792" 
d="M616 -205h-182l-217 1639h182z" />
    <glyph glyph-name="bracketright" unicode="]" horiz-adv-x="557" 
d="M279 -205h-365l35 168h160l276 1303h-160l37 168h365z" />
    <glyph glyph-name="asciicircum" unicode="^" 
d="M299 881h-184l293 553h151l293 -553h-184l-185 348z" />
    <glyph glyph-name="underscore" unicode="_" horiz-adv-x="614" 
d="M455 -229h-615l31 143h614z" />
    <glyph glyph-name="grave" unicode="`" horiz-adv-x="1024" 
d="M764 1153h-160l-160 277h236z" />
    <glyph glyph-name="a" unicode="a" horiz-adv-x="761" 
d="M293 166q94 0 127 125l45 215q-18 -18 -123 -66q-135 -61 -135 -190q0 -84 86 -84zM446 1065q293 0 293 -248q0 -68 -14 -127l-86 -416q-39 -180 -35 -274h-205q-6 12 7 100q-80 -121 -216 -120q-98 0 -155.5 60t-57.5 163q1 274 307 382q142 50 178.5 73t47.5 63l6 31
q6 27 6 49q0 78 -85 78t-107 -111l-11 -49h-208l14 59q67 287 321 287z" />
    <glyph glyph-name="b" unicode="b" horiz-adv-x="794" 
d="M561 793q0 80 -80 79q-106 0 -137 -147l-78 -369q-8 -41 -8 -75q0 -109 98 -109q78 0 103 115l96 452q6 29 6 54zM577 1065q101 0 157.5 -55.5t56.5 -157.5q0 -43 -15 -115l-102 -483q-59 -274 -268 -274q-86 0 -142.5 47t-70.5 129l-64 -156h-160l303 1434h222l-95 -449
q77 80 178 80z" />
    <glyph glyph-name="c" unicode="c" horiz-adv-x="741" 
d="M307 -20q-137 0 -218 67.5t-81 194.5q0 47 12 102l91 422q31 143 116.5 221t221.5 78t216 -66.5t80 -193.5q0 -49 -12 -105l-8 -34h-211l16 77q6 27 7 48q0 82 -91.5 81.5t-113.5 -108.5l-99 -463q-6 -27 -6 -49q0 -80 90 -80t113 109l12 57h213l-12 -59
q-31 -143 -115 -221t-221 -78z" />
    <glyph glyph-name="d" unicode="d" horiz-adv-x="792" 
d="M311 172q106 0 138 147l79 375q8 35 9 70q0 109 -101 108q-78 0 -102 -114l-96 -453q-6 -27 -7 -53q0 -80 80 -80zM2 193q0 43 14 114l103 484q59 274 268 274q145 0 197 -117l104 486h221l-245 -1160q-39 -180 -35 -274h-205q-8 14 6 106q-80 -127 -215 -126
q-100 0 -156.5 55t-56.5 158z" />
    <glyph glyph-name="e" unicode="e" horiz-adv-x="765" 
d="M545 782q0 90 -94 90.5t-121 -116.5l-23 -109h213l19 88q6 27 6 47zM453 1065q140 0 223.5 -70.5t83.5 -199.5q0 -47 -12 -103l-46 -217h-432l-34 -162q-6 -31 -7 -53q0 -88 107 -88q88 0 115 119l10 47h211l-10 -49q-64 -309 -348 -309q-142 0 -223 70.5t-81 199.5
q0 49 13 106l86 404q31 147 117.5 226t226.5 79z" />
    <glyph glyph-name="f" unicode="f" horiz-adv-x="542" 
d="M588 1262q-66 0 -84 -84l-29 -134h156l-39 -184h-156l-184 -860h-219l184 860h-119l39 184h119l39 185q49 225 262 225q94 0 158 -35l-37 -180q-49 23 -90 23z" />
    <glyph glyph-name="g" unicode="g" horiz-adv-x="788" 
d="M324 231q94 0 131 134l73 346l4 49q0 113 -98 112q-78 0 -102 -118l-84 -389q-6 -29 -6 -54q0 -80 82 -80zM248.5 -338q-148.5 0 -227 61.5t-78.5 176.5q0 4 4 49h209q-2 -6 -2 -27q0 -82 93 -82t122 117l34 168q-72 -78 -174 -78t-158.5 55.5t-56.5 157.5q0 43 15 115
l88 416q59 274 268 274q84 0 139.5 -43t71.5 -121l35 143h188l-231 -1095q-31 -145 -111 -216t-228.5 -71z" />
    <glyph glyph-name="h" unicode="h" horiz-adv-x="796" 
d="M574 1065q101 0 155.5 -53.5t54.5 -155.5q0 -61 -14 -117l-158 -739h-221l156 727q8 31 8 64q0 82 -80 81q-98 0 -129 -137l-156 -735h-217l303 1434h218l-95 -447q74 78 175 78z" />
    <glyph glyph-name="i" unicode="i" horiz-adv-x="389" 
d="M195 0h-222l222 1044h221zM442 1174h-217l49 237h218z" />
    <glyph glyph-name="j" unicode="j" horiz-adv-x="387" 
d="M-103.5 -145q41.5 0 54.5 53l244 1136h221l-252 -1179q-43 -203 -227 -203q-97 0 -148 33l37 176q29 -16 70.5 -16zM440 1174h-217l49 237h217z" />
    <glyph glyph-name="k" unicode="k" horiz-adv-x="806" 
d="M633 1044h256l-330 -399l115 -645h-221l-74 428l-125 -154l-59 -274h-222l306 1434h221l-170 -795z" />
    <glyph glyph-name="l" unicode="l" horiz-adv-x="389" 
d="M195 0h-222l306 1434h221z" />
    <glyph glyph-name="m" unicode="m" horiz-adv-x="1214" 
d="M993 1065q100 0 154.5 -53.5t54.5 -155.5q0 -61 -14 -117l-158 -739h-221l156 727q8 31 8 64q0 81 -83 81t-120 -112q0 -4 -4 -21l-158 -739h-221l156 727q8 31 8 64q0 82 -80 81q-100 0 -131 -145l-154 -727h-221l219 1044h189l-19 -108q84 129 217 129q164 0 201 -137
q80 137 221 137z" />
    <glyph glyph-name="n" unicode="n" horiz-adv-x="796" 
d="M575 1065q100 0 154.5 -53.5t54.5 -155.5q0 -61 -14 -117l-158 -739h-221l156 727q8 31 8 64q0 82 -80 81q-96 0 -129 -131l-156 -741h-221l219 1044h189l-19 -108q84 129 217 129z" />
    <glyph glyph-name="o" unicode="o" horiz-adv-x="765" 
d="M319 172q93 0 117 115l99 450q6 25 6 47q0 88 -93.5 88t-117.5 -114l-99 -451q-6 -25 -6 -47q1 -88 94 -88zM319 -20q-143 0 -226 71.5t-83 198.5q0 53 10 100l91 412q63 303 335 303q143 0 226.5 -71.5t83.5 -198.5q0 -53 -11 -101l-90 -411q-64 -303 -336 -303z" />
    <glyph glyph-name="p" unicode="p" horiz-adv-x="792" 
d="M559 793q0 80 -87 79.5t-122 -116.5l-88 -418q-6 -37 -6 -57q0 -109 98 -109q78 0 103 115l96 452q6 29 6 54zM575 1065q100 0 156.5 -55.5t56.5 -157.5q0 -43 -14 -115l-102 -483q-59 -274 -269 -274q-139 0 -194 112l-86 -409h-221l286 1361h189l-17 -106
q80 127 215 127z" />
    <glyph glyph-name="q" unicode="q" horiz-adv-x="792" 
d="M311 172q98 0 133 133l88 416q4 20 5 43q0 109 -101 108q-78 0 -102 -114l-96 -453q-6 -27 -7 -53q0 -80 80 -80zM2 193q0 43 14 114l103 484q59 274 268 274q87 0 143 -47t70 -129l64 155l159 -2l-288 -1359h-222l80 374q-78 -77 -178 -77t-157 55q-56 55 -56 158z" />
    <glyph glyph-name="r" unicode="r" horiz-adv-x="561" 
d="M571 1065q57 0 84 -21l-43 -206q-37 14 -77 14q-152 0 -207 -199l-138 -653h-221l219 1044h189l-27 -163q80 184 221 184z" />
    <glyph glyph-name="s" unicode="s" horiz-adv-x="700" 
d="M-12 225q0 48 14 107h211l-8 -35q-6 -27 -6 -49q0 -82 82 -82q53 0 82.5 37t29.5 84t-27.5 83t-96.5 84t-118.5 106.5t-50 185t90 223t226.5 96.5t207.5 -62.5t71.5 -173.5q0 -35 -10 -92h-205q8 47 8 70q0 70 -71 70q-47 0 -75 -34t-28 -81t30 -83t95.5 -83t83.5 -66
q35 -29 62.5 -88t27.5 -123q0 -139 -94 -239t-238.5 -100t-219 65.5t-74.5 179.5z" />
    <glyph glyph-name="t" unicode="t" horiz-adv-x="559" 
d="M379 172q27 0 63 10l-24 -186q-49 -16 -135 -16t-146.5 50t-60.5 142q0 39 8 70l131 618h-119l39 184h129l80 283h193l-60 -283h156l-39 -184h-158l-129 -606l-4 -29q0 -53 76 -53z" />
    <glyph glyph-name="u" unicode="u" horiz-adv-x="796" 
d="M221 -20q-100 0 -154.5 53t-54.5 155q0 61 15 117l157 739h222l-156 -727q-8 -31 -8 -63q0 -82 80 -82q100 0 131 145l153 727h221l-219 -1044h-188l18 109q-82 -129 -217 -129z" />
    <glyph glyph-name="v" unicode="v" horiz-adv-x="739" 
d="M399 0h-276l14 1044h219l-32 -751l288 751h215z" />
    <glyph glyph-name="w" unicode="w" horiz-adv-x="1107" 
d="M352 0h-280l69 1044h211l-55 -751l264 751h219l-59 -751l268 751h203l-377 -1044h-266l41 643z" />
    <glyph glyph-name="x" unicode="x" horiz-adv-x="770" 
d="M139 0h-233l360 551l-119 493h224l61 -311l186 311h234l-342 -522l125 -522h-223l-68 344z" />
    <glyph glyph-name="y" unicode="y" horiz-adv-x="749" 
d="M50 -338q-104 0 -161 37l39 180q49 -25 112 -24.5t97 79.5l19 46l-23 1064h217l-12 -716l283 716h215l-498 -1165q-51 -115 -117.5 -166t-170.5 -51z" />
    <glyph glyph-name="z" unicode="z" horiz-adv-x="679" 
d="M524 0h-596l35 180l496 680h-328l39 184h575l-34 -180l-496 -680h348z" />
    <glyph glyph-name="braceleft" unicode="{" horiz-adv-x="557" 
d="M246 -205q-86 0 -138 46t-53 130q0 27 6 60l82 387q9 40 9 64q1 47 -105 48l19 168q74 0 112 30t53 99l82 387q23 109 94 164t173 56h125l-37 -168h-25q-61 0 -95 -31t-48 -100l-72 -347q-16 -74 -54 -117t-120 -61q102 -35 102 -135q0 -25 -6 -51l-74 -346
q-8 -31 -8 -62t18 -42t64 -11h41l-35 -168h-110z" />
    <glyph glyph-name="bar" unicode="|" horiz-adv-x="614" 
d="M440 -410h-184v2048h184v-2048z" />
    <glyph glyph-name="braceright" unicode="}" horiz-adv-x="557" 
d="M14 -205h-123l35 168h25q61 0 95 31t48 100l74 346q31 139 154 174l18 4q-102 35 -102 136q0 25 6 51l73 346q22 85 -10 103q-18 11 -63 12h-41l37 168h108q86 0 138 -46t53 -131q0 -25 -7 -59l-81 -387q-9 -41 -9 -65q-1 -47 105 -48l-19 -168q-74 0 -112 -30t-54 -99
l-81 -387q-23 -109 -94 -164t-173 -55z" />
    <glyph glyph-name="asciitilde" unicode="~" 
d="M286 758q68 0 158 -58t122 -59q32 0 56 23t76 100l117 -88q-66 -113 -120 -159q-53 -46 -119 -46t-157 58q-91 59 -124 59t-57 -22t-76 -101l-117 88q66 113 120 159q53 46 121 46z" />
    <glyph glyph-name="uni00A0" unicode="&#xa0;" horiz-adv-x="327" 
 />
    <glyph glyph-name="exclamdown" unicode="&#xa1;" horiz-adv-x="438" 
d="M139 -389h-229l127 598l129 457h168l-68 -457zM395 819h-225l47 225h225z" />
    <glyph glyph-name="cent" unicode="&#xa2;" 
d="M856 1053q0 -49 -12 -109l-8 -39h-215l14 76q4 20 4 45q1 96 -101 96t-126 -118l-119 -549q-6 -25 -6 -47q0 -96 105 -96t126 118l29 139h219l-33 -147q-31 -139 -111 -221t-202 -92l-31 -150h-184l35 168q-180 57 -181 258q0 49 13 107l112 522q29 137 109 218t201 93
l28 129h185l-33 -145q182 -55 182 -256z" />
    <glyph glyph-name="sterling" unicode="&#xa3;" 
d="M272 553h-192l37 174h147q-57 190 -57 305q0 194 97 308t271 114q139 0 225 -75t85 -212q0 -49 -23 -157h-217q25 121 25 137q0 102 -99 102q-141 0 -141 -233q0 -106 22 -195q22 -90 21 -94h254l-37 -174h-213q-15 -208 -209 -348h408l-43 -205h-670l35 197
q102 43 173 125t93 182q8 33 8 49z" />
    <glyph glyph-name="currency" unicode="&#xa4;" 
d="M451 608q49 0 79 30t29 79q0 49 -30 79q-31 30 -79 30t-78 -30t-30 -79t29 -80q31 -29 80 -29zM186 717q0 72 37 135l-119 111l101 100l108 -121q137 80 275 0l108 121l101 -100l-119 -111q37 -63 37 -135t-37 -135l119 -111l-101 -100l-108 121q-137 -80 -275 0
l-108 -121l-101 100l119 111q-37 63 -37 135z" />
    <glyph glyph-name="yen" unicode="&#xa5;" 
d="M762 1434h229l-418 -772h168l-28 -142h-187l-32 -149h186l-29 -142h-188l-49 -229h-230l49 229h-180l29 142h182l33 149h-182l28 142h166l-88 772h230l38 -535z" />
    <glyph glyph-name="brokenbar" unicode="&#xa6;" horiz-adv-x="614" 
d="M440 -410h-184v820h184v-820zM440 819h-184v819h184v-819z" />
    <glyph glyph-name="section" unicode="&#xa7;" horiz-adv-x="847" 
d="M596 590q0 54 -29 97q-29 44 -129 112l-8 6q-66 -8 -104 -57q-38 -48 -37 -102q-1 -54 25 -90t51 -60q61 -47 90 -66q65 8 103 57t38 103zM674 1163q0 98 -105 99q-61 0 -94 -35t-33 -85q0 -76 78 -145l84 -57q80 -57 115 -86t69 -92t33 -129q0 -117 -62 -202t-169 -114
q70 -82 69 -198q0 -150 -95 -244q-96 -94 -244 -94t-234 75t-86 199q0 27 8 78h211q-8 -31 -8 -61q0 -98 104 -99q61 0 95 35q32 35 32 84t-28 89t-52 55q-18 16 -90 66t-106 79q-35 29 -69 92t-34 129q1 117 63 202t169 114q-70 82 -70 215q-1 133 95 227t244 94t234 -75
t87 -199q0 -27 -8 -78h-211q8 31 8 61z" />
    <glyph glyph-name="dieresis" unicode="&#xa8;" horiz-adv-x="1024" 
d="M893 1174h-195l50 237h194zM604 1174h-194l49 237h194z" />
    <glyph glyph-name="copyright" unicode="&#xa9;" horiz-adv-x="1515" 
d="M559 516v397q-1 254 231 254t232 -254v-73h-148v86q0 98 -80 98t-79 -98v-418q0 -96 80 -96t79 96v123h148v-115q0 -250 -232 -250t-231 250zM800 123q248 0 406 168t158 427t-160 425q-156 168 -404 168t-408 -168q-159 -168 -159 -426t158 -428q160 -166 409 -166z
M86 718q0 316 203 526t510 210t510 -210t203 -526t-203 -528q-203 -210 -510 -210t-510 208q-203 214 -203 530z" />
    <glyph glyph-name="ordfeminine" unicode="&#xaa;" horiz-adv-x="565" 
d="M475 449h-434l29 129h434zM326 805q84 0 106 121l29 131q-10 -10 -94 -47q-109 -47 -109 -144q0 -61 68 -61zM502 1266q0 66 -67 66t-87 -87l-4 -16h-137l4 24q19 93 79 147t152 54t148 -45t55 -131q0 -29 -10 -86l-64 -291q-33 -150 -32 -205h-123q-2 14 4 82
q-59 -92 -158 -92q-74 0 -114 38t-39 107q0 205 237 279q80 27 107 42t34 38l11 43l4 28v5z" />
    <glyph glyph-name="guillemotleft" unicode="&#xab;" horiz-adv-x="704" 
d="M629 377h-160l-107 237l199 226h170l-176 -238zM326 377h-160l-109 237l201 226h170l-178 -238z" />
    <glyph glyph-name="logicalnot" unicode="&#xac;" 
d="M764 336h-160v280h-549v160h709v-440z" />
    <glyph glyph-name="uni00AD" unicode="&#xad;" horiz-adv-x="552" 
d="M502 522h-451l39 185h451z" />
    <glyph glyph-name="registered" unicode="&#xae;" horiz-adv-x="1515" 
d="M729 1012v-236h64q94 0 94 105v26q0 104 -84 105h-74zM729 279h-156v876h238q231 0 231 -229v-19q0 -145 -106 -190v-4q106 -33 106 -189v-125q0 -80 19 -120h-160q-14 35 -14 122v113q-1 68 -21 94t-75 25h-62v-354zM800 123q248 0 406 168t158 427t-160 425
q-156 168 -404 168t-408 -168q-159 -168 -159 -426t158 -428q160 -166 409 -166zM86 718q0 316 203 526t510 210t510 -210t203 -526t-203 -528q-203 -210 -510 -210t-510 208q-203 214 -203 530z" />
    <glyph glyph-name="overscore" unicode="&#xaf;" horiz-adv-x="1024" 
d="M895 1212h-471l33 160h471z" />
    <glyph glyph-name="degree" unicode="&#xb0;" 
d="M553 1087q45 0 77 31t32 76t-32 77t-77 32t-76 -32t-31 -77t31 -76t76 -31zM552 934q-108 0 -184 76t-75 184q0 108 76 184q77 76 185 76t184 -76t75 -184q0 -108 -76 -184q-77 -76 -185 -76z" />
    <glyph glyph-name="plusminus" unicode="&#xb1;" 
d="M764 213h-668v160h254v235h-254v160h254v244h160v-244h254v-160h-254v-235h254v-160z" />
    <glyph glyph-name="uni00B2" unicode="&#xb2;" horiz-adv-x="567" 
d="M489 1649q209 -1 209 -189q0 -96 -63 -187t-193 -196q-78 -59 -108 -100t-41 -92l-8 -37h272l-27 -129h-415l26 131q19 100 65 169t144 142q201 154 201 293q0 66 -66 66t-84 -84l-18 -90h-137l20 96q47 207 223 207z" />
    <glyph glyph-name="uni00B3" unicode="&#xb3;" horiz-adv-x="571" 
d="M283 891q0 -63 69 -64q63 0 84 95l23 100q6 31 6 49q0 57 -70 57h-57l29 129h47q96 0 116 107l11 45q6 25 6 45q1 66 -67 66t-87 -80l-14 -66h-135l14 70q43 205 225 205q207 0 207 -176q0 -41 -8 -72l-6 -29q-16 -80 -49 -122t-95 -58v-4q72 -43 72 -133q0 -25 -8 -60
l-16 -92q-40 -205 -226 -205q-207 0 -207 174q0 45 9 76l12 56h137l-18 -80l-4 -28v-5z" />
    <glyph glyph-name="acute" unicode="&#xb4;" horiz-adv-x="1024" 
d="M698 1153h-180l203 277h256z" />
    <glyph glyph-name="uni00B5" unicode="&#xb5;" horiz-adv-x="802" 
d="M231 -20q-8 0 -45 4l-63 -301h-217l289 1361h221l-156 -727q-8 -31 -8 -63q0 -82 80 -82q100 0 131 145l153 727h222l-220 -1044h-188l19 109q-84 -129 -218 -129z" />
    <glyph glyph-name="paragraph" unicode="&#xb6;" horiz-adv-x="923" 
d="M139 852q0 49 13 111l26 124q37 179 134 263t266 84h436l-348 -1633h-168l313 1469h-123l-313 -1469h-168l184 824q-252 0 -252 227z" />
    <glyph glyph-name="middot" unicode="&#xb7;" horiz-adv-x="409" 
d="M313 502h-225l47 225h225z" />
    <glyph glyph-name="cedilla" unicode="&#xb8;" horiz-adv-x="1024" 
d="M344 -317q-186 0 -186 108q0 14 4 39h151q-6 -18 -6 -33q0 -33 41 -33q66 0 66 82q0 37 -58 37h-18l31 146h100l-31 -109q127 0 127 -90q0 -84 -54 -115.5t-167 -31.5z" />
    <glyph glyph-name="uni00B9" unicode="&#xb9;" horiz-adv-x="571" 
d="M446 719h-145l148 694h-144l4 100q84 0 136 26t98 89h94z" />
    <glyph glyph-name="ordmasculine" unicode="&#xba;" horiz-adv-x="567" 
d="M485 449h-434l29 129h434zM355 811q73 0 94 88l69 322q4 33 4 34q0 72 -84 72q-66 0 -84 -90l-67 -322q-4 -33 -4 -34q-1 -70 72 -70zM356 682q-104 0 -160 49t-57 139q0 43 8 74l62 295q45 215 240 215q104 0 160 -50t57 -140q0 -41 -9 -72l-63 -295q-45 -215 -238 -215
z" />
    <glyph glyph-name="guillemotright" unicode="&#xbb;" horiz-adv-x="702" 
d="M481 377h-170l178 237l-75 226h159l109 -238zM178 377h-170l176 237l-73 226h159l107 -238z" />
    <glyph glyph-name="onequarter" unicode="&#xbc;" horiz-adv-x="1331" 
d="M1112 662l-225 -369h141zM1110 0h-145l34 164h-270l25 129l391 616h158l-132 -616h68l-27 -129h-67zM406 524h-146l148 695h-144l4 100q84 0 136 26t98 89h94zM352 0h-147l858 1434h149z" />
    <glyph glyph-name="onehalf" unicode="&#xbd;" horiz-adv-x="1331" 
d="M1096 801q-66 0 -84 -84l-19 -90h-137l21 96q47 207 223 207q208 0 208 -188q0 -96 -62 -188q-64 -92 -193 -196q-78 -59 -109 -100t-41 -92l-8 -37h272l-26 -129h-416l27 131q20 100 65 169t144 142q201 154 200 293q1 66 -65 66zM406 524h-146l148 695h-144l4 100
q84 0 136 26t98 89h94zM352 0h-147l858 1434h149z" />
    <glyph glyph-name="threequarters" unicode="&#xbe;" horiz-adv-x="1329" 
d="M1110 662l-225 -369h141zM1108 0h-145l34 164h-270l25 129l391 616h157l-131 -616h68l-27 -129h-67zM350 0h-147l858 1434h149zM240 696q0 -63 69 -63q63 0 84 94l23 100q6 31 6 50q0 57 -70 57h-57l29 129h47q96 0 116 106l11 45q6 25 6 46q0 66 -68 66t-86 -81l-14 -65
h-135l14 69q43 205 225 205q207 0 207 -176q0 -41 -8 -72l-6 -28q-16 -80 -49 -122t-95 -59v-4q72 -43 72 -133q0 -25 -8 -59l-16 -92q-40 -205 -226 -205q-207 0 -207 174q0 45 9 76l12 55h137l-18 -80l-4 -28v-5z" />
    <glyph glyph-name="questiondown" unicode="&#xbf;" horiz-adv-x="737" 
d="M220 -410q-144 0 -232 73q-86 73 -86 208q0 251 243 479q150 145 172 246l15 70h196l-20 -95q-35 -158 -174 -301q-205 -207 -205 -376q0 -98 111 -99q92 0 120 129l35 168h215l-35 -176q-31 -156 -121 -241t-234 -85zM578 819h-226l47 225h226z" />
    <glyph glyph-name="Agrave" unicode="&#xc0;" horiz-adv-x="823" 
d="M545 1174l-248 -699h197zM-88 0l539 1434h311l-72 -1434h-229l20 281h-254l-98 -281h-217zM657 1798l84 -276h-159l-160 276h235z" />
    <glyph glyph-name="Aacute" unicode="&#xc1;" horiz-adv-x="823" 
d="M545 1174l-248 -699h197zM129 0h-217l539 1434h311l-72 -1434h-229l20 281h-254zM698 1798h256l-278 -276h-180z" />
    <glyph glyph-name="Acircumflex" unicode="&#xc2;" horiz-adv-x="823" 
d="M545 1174l-248 -699h197zM129 0h-217l539 1434h311l-72 -1434h-229l20 281h-254zM735 1522l-69 153l-140 -153h-180l227 276h213l109 -276h-160z" />
    <glyph glyph-name="Atilde" unicode="&#xc3;" horiz-adv-x="823" 
d="M545 1174l-248 -699h197zM129 0h-217l539 1434h311l-72 -1434h-229l20 281h-254zM739 1544q-55 0 -99 38t-67 38q-55 0 -100 -88l-104 82q96 164 198 164q57 0 100.5 -38t65.5 -38q47 0 98 88l107 -82q-96 -164 -199 -164z" />
    <glyph glyph-name="Adieresis" unicode="&#xc4;" horiz-adv-x="823" 
d="M545 1174l-248 -699h197zM129 0h-217l539 1434h311l-72 -1434h-229l20 281h-254zM676 1542l49 238h195l-50 -238h-194zM436 1780h195l-49 -238h-195z" />
    <glyph glyph-name="Aring" unicode="&#xc5;" horiz-adv-x="823" 
d="M545 1174l-248 -699h197zM129 0h-217l539 1434h311l-72 -1434h-229l20 281h-254zM655 1630q29 0 51.5 22.5t22.5 57.5q6 45 -41 57q-55 12 -82 -32q-12 -18 -12 -44t16 -43.5t45 -17.5zM672 1880q78 0 126 -46t48 -121t-59.5 -133t-137.5 -58t-126 46t-48 120.5t59.5 133
t137.5 58.5z" />
    <glyph glyph-name="AE" unicode="&#xc6;" horiz-adv-x="1183" 
d="M668 1151l-316 -676h170zM1341 1434l-45 -205h-383l-79 -379h303l-43 -205h-303l-95 -440h383l-43 -205h-614l59 281h-219l-131 -281h-225l692 1434h743z" />
    <glyph glyph-name="Ccedilla" unicode="&#xc7;" horiz-adv-x="780" 
d="M556 1454q148 0 229 -71.5t81 -204.5q0 -53 -12 -109l-25 -119h-217l33 156q6 25 6 47q0 96 -100 96t-129 -121l-172 -800q-6 -25 -6 -45q0 -98 105 -98.5t128 116.5l45 223h215l-47 -229q-63 -315 -350 -315h-2l-16 -60q127 0 127 -90q0 -84 -54.5 -115.5t-167.5 -31.5
q-186 0 -186 108q0 14 4 39h152q-6 -18 -7 -33q0 -33 41 -33q66 0 66 82q0 37 -57 37h-19l23 105q-227 43 -228 270q0 49 13 107l166 774q68 315 361 315z" />
    <glyph glyph-name="Egrave" unicode="&#xc8;" horiz-adv-x="735" 
d="M588 0h-615l306 1434h614l-45 -205h-383l-80 -379h303l-43 -205h-303l-94 -440h383zM721 1522h-160l-160 276h236z" />
    <glyph glyph-name="Eacute" unicode="&#xc9;" horiz-adv-x="735" 
d="M588 0h-615l306 1434h614l-45 -205h-383l-80 -379h303l-43 -205h-303l-94 -440h383zM655 1522h-180l203 276h256z" />
    <glyph glyph-name="Ecircumflex" unicode="&#xca;" horiz-adv-x="735" 
d="M588 0h-615l306 1434h614l-45 -205h-383l-80 -379h303l-43 -205h-303l-94 -440h383zM506 1522h-180l227 276h213l108 -276h-159l-70 153z" />
    <glyph glyph-name="Edieresis" unicode="&#xcb;" horiz-adv-x="735" 
d="M588 0h-615l306 1434h614l-45 -205h-383l-80 -379h303l-43 -205h-303l-94 -440h383zM850 1542h-195l50 238h194zM561 1542h-194l49 238h194z" />
    <glyph glyph-name="Igrave" unicode="&#xcc;" horiz-adv-x="397" 
d="M203 0h-230l306 1434h229zM526 1522h-159l-160 276h235z" />
    <glyph glyph-name="Iacute" unicode="&#xcd;" horiz-adv-x="397" 
d="M203 0h-230l306 1434h229zM461 1522h-180l202 276h256z" />
    <glyph glyph-name="Icircumflex" unicode="&#xce;" horiz-adv-x="397" 
d="M203 0h-230l306 1434h229zM311 1522h-180l227 276h213l109 -276h-160l-69 153z" />
    <glyph glyph-name="Idieresis" unicode="&#xcf;" horiz-adv-x="397" 
d="M203 0h-230l306 1434h229zM655 1542h-194l49 238h195zM367 1542h-195l49 238h195z" />
    <glyph glyph-name="Eth" unicode="&#xd0;" horiz-adv-x="874" 
d="M618 1229h-116l-82 -385h110l-41 -193h-110l-94 -446h100q119 0 154 147l159 746q6 33 7 55q0 76 -87 76zM647 1434q141 0 215 -67t74 -189q0 -47 -12 -107l-154 -725q-37 -178 -131 -262t-260 -84h-369l140 651h-99l41 193h98l125 590h332z" />
    <glyph glyph-name="Ntilde" unicode="&#xd1;" horiz-adv-x="874" 
d="M178 0h-205l306 1434h272l45 -859l184 859h205l-305 -1434h-221l-58 1047zM594 1778q57 0 100.5 -38t65.5 -38q47 0 98 88l107 -82q-96 -164 -199 -164q-57 0 -100.5 38t-65.5 38q-55 0 -100 -88l-105 82q96 164 199 164z" />
    <glyph glyph-name="Ograve" unicode="&#xd2;" 
d="M360 184q92 0 121 127l166 785q6 27 6 51q0 102 -112 102q-94 0 -123 -129l-166 -784q-6 -29 -6 -49q-1 -103 114 -103zM348 -20q-156 0 -244 74.5t-88 213.5q0 49 13 105l161 757q33 158 126.5 241t241.5 83t236.5 -74.5t88.5 -214.5q0 -51 -13 -106l-161 -758
q-70 -321 -361 -321zM739 1522h-159l-160 276h235z" />
    <glyph glyph-name="Oacute" unicode="&#xd3;" 
d="M360 184q92 0 121 127l166 785q6 27 6 51q0 102 -112 102q-94 0 -123 -129l-166 -784q-6 -29 -6 -49q-1 -103 114 -103zM348 -20q-156 0 -244 74.5t-88 213.5q0 49 13 105l161 757q33 158 126.5 241t241.5 83t236.5 -74.5t88.5 -214.5q0 -51 -13 -106l-161 -758
q-70 -321 -361 -321zM674 1522h-180l202 276h256z" />
    <glyph glyph-name="Ocircumflex" unicode="&#xd4;" 
d="M360 184q92 0 121 127l166 785q6 27 6 51q0 102 -112 102q-94 0 -123 -129l-166 -784q-6 -29 -6 -49q-1 -103 114 -103zM348 -20q-156 0 -244 74.5t-88 213.5q0 49 13 105l161 757q33 158 126.5 241t241.5 83t236.5 -74.5t88.5 -214.5q0 -51 -13 -106l-161 -758
q-70 -321 -361 -321zM524 1522h-180l227 276h213l109 -276h-160l-69 153z" />
    <glyph glyph-name="Otilde" unicode="&#xd5;" 
d="M360 184q92 0 121 127l166 785q6 27 6 51q0 102 -112 102q-94 0 -123 -129l-166 -784q-6 -29 -6 -49q-1 -103 114 -103zM348 -20q-156 0 -244 74.5t-88 213.5q0 49 13 105l161 757q33 158 126.5 241t242 83t236.5 -74.5t88 -214.5q0 -51 -13 -106l-161 -758
q-70 -321 -361 -321zM565 1778q57 0 100.5 -38t65.5 -38q47 0 98 88l107 -82q-96 -164 -199 -164q-57 0 -100 38t-66 38q-55 0 -100 -88l-104 82q96 164 198 164z" />
    <glyph glyph-name="Odieresis" unicode="&#xd6;" 
d="M360 184q92 0 121 127l166 785q6 27 6 51q0 102 -112 102q-94 0 -123 -129l-166 -784q-6 -29 -6 -49q-1 -103 114 -103zM348 -20q-156 0 -244 74.5t-88 213.5q0 49 13 105l161 757q33 158 126.5 241t241.5 83t236.5 -74.5t88.5 -214.5q0 -51 -13 -106l-161 -758
q-70 -321 -361 -321zM868 1542h-194l49 238h195zM580 1542h-195l49 238h195z" />
    <glyph glyph-name="multiply" unicode="&#xd7;" 
d="M434 506l-219 -225l-109 108l218 225l-215 224l108 108l217 -223l217 225l109 -108l-217 -226l217 -225l-109 -108z" />
    <glyph glyph-name="Oslash" unicode="&#xd8;" 
d="M360 184q92 0 121 127l107 506l-340 -553q12 -80 112 -80zM541 1249q-94 0 -123 -129l-109 -510l344 555q-12 84 -112 84zM554 1454q144 0 234 -70l68 111l107 -70l-97 -155q30 -100 4 -211l-161 -758q-70 -322 -361 -321q-147 0 -233 67l-68 -108l-108 69l94 154
q-30 99 -4 211l161 757q33 158 126.5 241t237.5 83z" />
    <glyph glyph-name="Ugrave" unicode="&#xd9;" horiz-adv-x="823" 
d="M350 -20q-154 0 -239.5 73.5t-85.5 208.5q0 53 12 111l227 1061h230l-236 -1102q-6 -29 -6 -49q0 -98 113 -99q96 0 120 125l240 1125h221l-241 -1133q-68 -321 -355 -321zM741 1522h-159l-160 276h235z" />
    <glyph glyph-name="Uacute" unicode="&#xda;" horiz-adv-x="823" 
d="M350 -20q-154 0 -239.5 73.5t-85.5 208.5q0 53 12 111l227 1061h230l-236 -1102q-6 -29 -6 -49q0 -98 113 -99q96 0 120 125l240 1125h221l-241 -1133q-68 -321 -355 -321zM676 1522h-180l202 276h256z" />
    <glyph glyph-name="Ucircumflex" unicode="&#xdb;" horiz-adv-x="823" 
d="M350 -20q-154 0 -239.5 73.5t-85.5 208.5q0 53 12 111l227 1061h230l-236 -1102q-6 -29 -6 -49q0 -98 113 -99q96 0 120 125l240 1125h221l-241 -1133q-68 -321 -355 -321zM526 1522h-180l227 276h213l109 -276h-160l-69 153z" />
    <glyph glyph-name="Udieresis" unicode="&#xdc;" horiz-adv-x="823" 
d="M350 -20q-154 0 -239.5 73.5t-85.5 208.5q0 53 12 111l227 1061h230l-236 -1102q-6 -29 -6 -49q0 -98 113 -99q96 0 120 125l240 1125h221l-241 -1133q-68 -321 -355 -321zM870 1542h-194l49 238h195zM582 1542h-195l49 238h195z" />
    <glyph glyph-name="Yacute" unicode="&#xdd;" horiz-adv-x="811" 
d="M408 0h-230l131 610l-96 824h229l39 -535l273 535h233l-448 -824zM666 1522h-181l203 276h256z" />
    <glyph glyph-name="Thorn" unicode="&#xde;" horiz-adv-x="794" 
d="M422 586q123 0 149 143l35 168q6 31 6 51q0 78 -82 78h-108l-92 -440h92zM565 1231q135 0 207 -67t72 -187q0 -49 -13 -105l-30 -145q-37 -178 -133 -262t-269 -84h-114l-80 -381h-232l306 1434h231l-43 -203h98z" />
    <glyph glyph-name="germandbls" unicode="&#xdf;" horiz-adv-x="811" 
d="M420 -23q-82 0 -146 33l39 183q39 -21 89 -21t84 40t34 90t-62 136t-63 172q0 86 24 156q24 68 97 162l51 73q53 76 54 181q0 80 -82 80t-107 -111l-244 -1151h-219l244 1161q59 293 328 293q135 0 217 -66t82 -201q0 -136 -68 -241q-4 -6 -44 -58t-75 -102
q-37 -52 -37 -122t63 -156t62 -168q0 -147 -89 -255t-232 -108z" />
    <glyph glyph-name="agrave" unicode="&#xe0;" horiz-adv-x="761" 
d="M293 166q94 0 127 125l45 215q-18 -18 -123 -66q-135 -61 -135 -190q0 -84 86 -84zM446 1065q293 0 293 -248q0 -68 -14 -127l-86 -416q-39 -180 -35 -274h-205q-6 12 7 100q-80 -121 -216 -120q-98 0 -155.5 60t-57.5 163q1 274 307 382q142 50 178.5 73t47.5 63l6 31
q6 27 6 49q0 78 -85 78t-107 -111l-11 -49h-208l14 59q67 287 321 287zM543 1430l84 -277h-160l-160 277h236z" />
    <glyph glyph-name="aacute" unicode="&#xe1;" horiz-adv-x="761" 
d="M293 166q94 0 127 125l45 215q-18 -18 -123 -66q-135 -61 -135 -190q0 -84 86 -84zM446 1065q293 0 293 -248q0 -68 -14 -127l-86 -416q-39 -180 -35 -274h-205q-6 12 7 100q-80 -121 -216 -120q-98 0 -155.5 60t-57.5 163q1 274 307 382q142 50 178.5 73t47.5 63l6 31
q6 27 6 49q0 78 -85 78t-107 -111l-11 -49h-208l14 59q67 287 321 287zM584 1430h256l-279 -277h-180z" />
    <glyph glyph-name="acircumflex" unicode="&#xe2;" horiz-adv-x="761" 
d="M293 166q94 0 127 125l45 215q-18 -18 -123 -66q-135 -61 -135 -190q0 -84 86 -84zM446 1065q293 0 293 -248q0 -68 -14 -127l-86 -416q-39 -180 -35 -274h-205q-6 12 7 100q-80 -121 -216 -120q-98 0 -155.5 60t-57.5 163q1 274 307 382q142 50 178.5 73t47.5 63l6 31
q6 27 6 49q0 78 -85 78t-107 -111l-11 -49h-208l14 59q67 287 321 287zM621 1153l-70 154l-139 -154h-181l228 277h213l108 -277h-159z" />
    <glyph glyph-name="atilde" unicode="&#xe3;" horiz-adv-x="761" 
d="M293 166q94 0 127 125l45 215q-18 -18 -123 -66q-135 -61 -135 -190q0 -84 86 -84zM446 1065q293 0 293 -248q0 -68 -14 -127l-86 -416q-39 -180 -35 -274h-205q-6 12 7 100q-80 -121 -216 -120q-98 0 -155.5 60t-57.5 163q1 274 307 382q142 50 178.5 73t47.5 63l6 31
q6 27 6 49q0 78 -85 78t-107 -111l-11 -49h-208l14 59q67 287 321 287zM453 1409q55 0 99 -38t66 -38q48 0 99 88l106 -82q-96 -164 -198 -163q-55 0 -99.5 38t-66.5 37q-55 0 -101 -88l-104 82q96 164 199 164z" />
    <glyph glyph-name="adieresis" unicode="&#xe4;" horiz-adv-x="761" 
d="M293 166q94 0 127 125l45 215q-18 -18 -123 -66q-135 -61 -135 -190q0 -84 86 -84zM446 1065q293 0 293 -248q0 -68 -14 -127l-86 -416q-39 -180 -35 -274h-205q-6 12 7 100q-80 -121 -216 -120q-98 0 -155.5 60t-57.5 163q1 274 307 382q142 50 178.5 73t47.5 63l6 31
q6 27 6 49q0 78 -85 78t-107 -111l-11 -49h-208l14 59q67 287 321 287zM561 1174l49 237h195l-49 -237h-195zM322 1411h194l-49 -237h-195z" />
    <glyph glyph-name="aring" unicode="&#xe5;" horiz-adv-x="761" 
d="M293 166q94 0 127 125l45 215q-18 -18 -123 -66q-135 -61 -135 -190q0 -84 86 -84zM446 1065q293 0 293 -248q0 -68 -14 -127l-86 -416q-39 -180 -35 -274h-205q-6 12 7 100q-80 -121 -216 -120q-98 0 -155.5 60t-57.5 163q1 274 307 382q142 50 178.5 73t47.5 63l6 31
q6 27 6 49q0 78 -85 78t-107 -111l-11 -49h-208l14 59q67 287 321 287zM479 1322q0 -26 16.5 -43t45.5 -17t51 22.5t22 56.5q6 45 -41 58q-55 12 -81 -33q-13 -18 -13 -44zM534 1153q-78 0 -126 46t-48 121t59.5 133t137.5 58t126 -46t48 -120.5t-59.5 -133t-137.5 -58.5z
" />
    <glyph glyph-name="ae" unicode="&#xe6;" horiz-adv-x="1173" 
d="M293 166q98 0 131 149l39 191q-31 -29 -121 -66q-135 -61 -135 -184q0 -90 86 -90zM954 782q0 90 -94 90t-121 -116l-24 -109h215l18 88q6 27 6 47zM880 1065q136 0 212.5 -70.5t76.5 -197.5q0 -49 -12 -105l-45 -217h-432l-35 -162q-6 -31 -6 -53q0 -88 106 -88
q88 0 115 119l10 47h211l-10 -49q-31 -150 -118 -229.5t-220 -79.5q-217 0 -284 141q-76 -141 -242 -141q-109 0 -169.5 59t-60.5 164q-1 276 309 384q144 50 181 72q35 23 45 64l6 29q6 27 6 49q0 78 -86 78t-106 -111l-10 -49h-209l14 59q68 287 322 287q170 0 215 -113
q80 113 216 113z" />
    <glyph glyph-name="ccedilla" unicode="&#xe7;" horiz-adv-x="741" 
d="M449 1065q136 0 216 -66.5t80 -193.5q0 -49 -12 -105l-8 -34h-211l16 77q6 27 7 48q0 82 -91.5 81.5t-113.5 -108.5l-99 -463q-6 -27 -6 -49q0 -80 90 -80t113 109l12 57h213l-12 -59q-31 -143 -115 -221t-213 -78h-2l-16 -60q127 0 127 -90q0 -84 -54.5 -115.5
t-166.5 -31.5q-186 0 -187 108q0 14 4 39h152q-6 -18 -6 -33q0 -33 41 -33q66 0 65 82q0 37 -57 37h-18l22 105q-211 43 -211 254q0 47 12 102l91 422q31 143 116.5 221t221.5 78z" />
    <glyph glyph-name="egrave" unicode="&#xe8;" horiz-adv-x="765" 
d="M545 782q0 90 -94 90.5t-121 -116.5l-23 -109h213l19 88q6 27 6 47zM453 1065q140 0 223.5 -70.5t83.5 -199.5q0 -47 -12 -103l-46 -217h-432l-34 -162q-6 -31 -7 -53q0 -88 107 -88q88 0 115 119l10 47h211l-10 -49q-64 -309 -348 -309q-142 0 -223 70.5t-81 199.5
q0 49 13 106l86 404q31 147 117.5 226t226.5 79zM551 1430l84 -277h-160l-160 277h236z" />
    <glyph glyph-name="eacute" unicode="&#xe9;" horiz-adv-x="765" 
d="M545 782q0 90 -94 90.5t-121 -116.5l-23 -109h213l19 88q6 27 6 47zM453 1065q140 0 223.5 -70.5t83.5 -199.5q0 -47 -12 -103l-46 -217h-432l-34 -162q-6 -31 -7 -53q0 -88 107 -88q88 0 115 119l10 47h211l-10 -49q-64 -309 -348 -309q-142 0 -223 70.5t-81 199.5
q0 49 13 106l86 404q31 147 117.5 226t226.5 79zM592 1430h256l-279 -277h-180z" />
    <glyph glyph-name="ecircumflex" unicode="&#xea;" horiz-adv-x="765" 
d="M545 782q0 90 -94 90.5t-121 -116.5l-23 -109h213l19 88q6 27 6 47zM453 1065q140 0 223.5 -70.5t83.5 -199.5q0 -47 -12 -103l-46 -217h-432l-34 -162q-6 -31 -7 -53q0 -88 107 -88q88 0 115 119l10 47h211l-10 -49q-64 -309 -348 -309q-142 0 -223 70.5t-81 199.5
q0 49 13 106l86 404q31 147 117.5 226t226.5 79zM629 1153l-70 154l-139 -154h-180l227 277h213l108 -277h-159z" />
    <glyph glyph-name="edieresis" unicode="&#xeb;" horiz-adv-x="765" 
d="M545 782q0 90 -94 90.5t-121 -116.5l-23 -109h213l19 88q6 27 6 47zM453 1065q140 0 223.5 -70.5t83.5 -199.5q0 -47 -12 -103l-46 -217h-432l-34 -162q-6 -31 -7 -53q0 -88 107 -88q88 0 115 119l10 47h211l-10 -49q-64 -309 -348 -309q-142 0 -223 70.5t-81 199.5
q0 49 13 106l86 404q31 147 117.5 226t226.5 79zM569 1174l49 237h195l-49 -237h-195zM330 1411h194l-49 -237h-194z" />
    <glyph glyph-name="igrave" unicode="&#xec;" horiz-adv-x="389" 
d="M195 0h-222l222 1044h221zM446 1153h-159l-160 277h235z" />
    <glyph glyph-name="iacute" unicode="&#xed;" horiz-adv-x="389" 
d="M195 0h-222l222 1044h221zM381 1153h-180l202 277h256z" />
    <glyph glyph-name="icircumflex" unicode="&#xee;" horiz-adv-x="389" 
d="M195 0h-222l222 1044h221zM231 1153h-180l228 277h213l108 -277h-160l-69 154z" />
    <glyph glyph-name="idieresis" unicode="&#xef;" horiz-adv-x="389" 
d="M195 0h-222l222 1044h221zM575 1174h-194l49 237h195zM287 1174h-195l49 237h195z" />
    <glyph glyph-name="eth" unicode="&#xf0;" horiz-adv-x="770" 
d="M320 172q92 0 116 115l74 354q2 8 2 31q0 111 -98 110q-78 0 -103 -116l-78 -359q-6 -29 -6 -49q1 -86 93 -86zM766 934q0 -127 -41 -332l-68 -317q-31 -147 -117 -227q-88 -78 -226 -78t-221 72t-83 198q0 53 10 100l76 352q57 279 266 279q135 0 191 -107q2 14 2 89
t-33 167l-92 -73h-186l227 182q-70 111 -168 195h250q41 -35 72 -72l90 72h186l-209 -168q74 -139 74 -332z" />
    <glyph glyph-name="ntilde" unicode="&#xf1;" horiz-adv-x="796" 
d="M575 1065q100 0 154.5 -53.5t54.5 -155.5q0 -61 -14 -117l-158 -739h-221l156 727q8 31 8 64q0 82 -80 81q-96 0 -129 -131l-156 -741h-221l219 1044h189l-19 -108q84 129 217 129zM483 1251q-55 0 -100 -88l-104 82q96 164 198 164q55 0 99 -38t67 -38q47 0 98 88
l107 -82q-96 -164 -199 -163q-55 0 -99 38t-67 37z" />
    <glyph glyph-name="ograve" unicode="&#xf2;" horiz-adv-x="765" 
d="M319 172q93 0 117 115l99 450q6 25 6 47q0 88 -93.5 88t-117.5 -114l-99 -451q-6 -25 -6 -47q1 -88 94 -88zM319 -20q-143 0 -226 71.5t-83 198.5q0 53 10 100l91 412q63 303 335 303q143 0 226.5 -71.5t83.5 -198.5q0 -53 -11 -101l-90 -411q-64 -303 -336 -303z
M635 1153h-160l-160 277h236z" />
    <glyph glyph-name="oacute" unicode="&#xf3;" horiz-adv-x="765" 
d="M319 172q93 0 117 115l99 450q6 25 6 47q0 88 -93.5 88t-117.5 -114l-99 -451q-6 -25 -6 -47q1 -88 94 -88zM319 -20q-143 0 -226 71.5t-83 198.5q0 53 10 100l91 412q63 303 335 303q143 0 226.5 -71.5t83.5 -198.5q0 -53 -11 -101l-90 -411q-64 -303 -336 -303z
M569 1153h-180l203 277h256z" />
    <glyph glyph-name="ocircumflex" unicode="&#xf4;" horiz-adv-x="765" 
d="M319 172q93 0 117 115l99 450q6 25 6 47q0 88 -93.5 88t-117.5 -114l-99 -451q-6 -25 -6 -47q1 -88 94 -88zM319 -20q-143 0 -226 71.5t-83 198.5q0 53 10 100l91 412q63 303 335 303q143 0 226.5 -71.5t83.5 -198.5q0 -53 -11 -101l-90 -411q-64 -303 -336 -303z
M420 1153h-180l227 277h213l108 -277h-159l-70 154z" />
    <glyph glyph-name="otilde" unicode="&#xf5;" horiz-adv-x="765" 
d="M319 172q93 0 117 115l99 450q6 25 6 47q0 88 -93.5 88t-117.5 -114l-99 -451q-6 -25 -6 -47q1 -88 94 -88zM319 -20q-143 0 -226 71.5t-83 198.5q0 53 10 100l91 412q63 303 335 303q143 0 226.5 -71.5t83.5 -198.5q0 -53 -11 -101l-90 -411q-64 -303 -336 -303z
M461 1409q55 0 99 -38t67 -38q47 0 98 88l106 -82q-96 -164 -198 -163q-55 0 -99.5 38t-66.5 37q-55 0 -100 -88l-105 82q96 164 199 164z" />
    <glyph glyph-name="odieresis" unicode="&#xf6;" horiz-adv-x="765" 
d="M319 172q93 0 117 115l99 450q6 25 6 47q0 88 -93.5 88t-117.5 -114l-99 -451q-6 -25 -6 -47q1 -88 94 -88zM319 -20q-143 0 -226 71.5t-83 198.5q0 53 10 100l91 412q63 303 335 303q143 0 226.5 -71.5t83.5 -198.5q0 -53 -11 -101l-90 -411q-64 -303 -336 -303z
M764 1174h-195l49 237h195zM475 1174h-194l49 237h194z" />
    <glyph glyph-name="divide" unicode="&#xf7;" 
d="M537 195h-218v217h218v-217zM782 535h-708v159h708v-159zM537 817h-218v217h218v-217z" />
    <glyph glyph-name="oslash" unicode="&#xf8;" horiz-adv-x="765" 
d="M324 172q87 0 112 115l68 311l-264 -391q23 -35 84 -35zM330 758l-68 -312l264 392q-23 35 -84 34q-87 1 -112 -114zM756 806.5q0 -64.5 -11 -112.5l-90 -411q-63 -303 -336 -303q-123 0 -198 51l-66 -97l-92 70l78 115q-31 55 -31 119.5t10 111.5l91 412q63 303 335 303
q123 0 199 -51l66 96l92 -70l-78 -114q31 -55 31 -119.5z" />
    <glyph glyph-name="ugrave" unicode="&#xf9;" horiz-adv-x="796" 
d="M221 -20q-100 0 -154.5 53t-54.5 155q0 61 15 117l157 739h222l-156 -727q-8 -31 -8 -63q0 -82 80 -82q100 0 131 145l153 727h221l-219 -1044h-188l18 109q-82 -129 -217 -129zM563 1430l84 -277h-160l-159 277h235z" />
    <glyph glyph-name="uacute" unicode="&#xfa;" horiz-adv-x="796" 
d="M221 -20q-100 0 -154.5 53t-54.5 155q0 61 15 117l157 739h222l-156 -727q-8 -31 -8 -63q0 -82 80 -82q100 0 131 145l153 727h221l-219 -1044h-188l18 109q-82 -129 -217 -129zM604 1430h256l-278 -277h-181z" />
    <glyph glyph-name="ucircumflex" unicode="&#xfb;" horiz-adv-x="796" 
d="M221 -20q-100 0 -154.5 53t-54.5 155q0 61 15 117l157 739h222l-156 -727q-8 -31 -8 -63q0 -82 80 -82q100 0 131 145l153 727h221l-219 -1044h-188l18 109q-82 -129 -217 -129zM641 1153l-70 154l-139 -154h-180l227 277h213l109 -277h-160z" />
    <glyph glyph-name="udieresis" unicode="&#xfc;" horiz-adv-x="796" 
d="M221 -20q-100 0 -154.5 53t-54.5 155q0 61 15 117l157 739h222l-156 -727q-8 -31 -8 -63q0 -82 80 -82q100 0 131 145l153 727h221l-219 -1044h-188l18 109q-82 -129 -217 -129zM631 1411h194l-49 -237h-194zM342 1411h195l-50 -237h-194z" />
    <glyph glyph-name="yacute" unicode="&#xfd;" horiz-adv-x="749" 
d="M50 -338q-104 0 -161 37l39 180q49 -25 112 -24.5t97 79.5l19 46l-23 1064h217l-12 -716l283 716h215l-498 -1165q-51 -115 -117.5 -166t-170.5 -51zM555 1153h-180l203 277h256z" />
    <glyph glyph-name="thorn" unicode="&#xfe;" horiz-adv-x="792" 
d="M559 793q0 79 -84 79t-121 -104l-94 -444q-4 -25 -4 -43q0 -109 98 -109q78 0 103 115l96 452q6 29 6 54zM576 1065q100 0 156 -55t56 -158q0 -43 -14 -115l-102 -483q-59 -274 -269 -274q-139 0 -194 110l-86 -407h-221l372 1751h222l-95 -445q76 76 175 76z" />
    <glyph glyph-name="ydieresis" unicode="&#xff;" horiz-adv-x="749" 
d="M50 -338q-104 0 -161 37l39 180q49 -25 112 -24.5t97 79.5l19 46l-23 1064h217l-12 -716l283 716h215l-498 -1165q-51 -115 -117.5 -166t-170.5 -51zM750 1174h-195l49 237h195zM461 1174h-195l49 237h195z" />
    <glyph glyph-name="Amacron" unicode="&#x100;" horiz-adv-x="823" 
d="M545 1174l-248 -699h197zM129 0h-217l539 1434h311l-72 -1434h-229l20 281h-254zM401 1581l33 160h471l-33 -160h-471z" />
    <glyph glyph-name="amacron" unicode="&#x101;" horiz-adv-x="761" 
d="M293 166q94 0 127 125l45 215q-18 -18 -123 -66q-135 -61 -135 -190q0 -84 86 -84zM446 1065q293 0 293 -248q0 -68 -14 -127l-86 -416q-39 -180 -35 -274h-205q-6 12 7 100q-80 -121 -216 -120q-98 0 -155.5 60t-57.5 163q1 274 307 382q142 50 178.5 73t47.5 63l6 31
q6 27 6 49q0 78 -85 78t-107 -111l-11 -49h-208l14 59q67 287 321 287zM287 1212l32 160h472l-33 -160h-471z" />
    <glyph glyph-name="Abreve" unicode="&#x102;" horiz-adv-x="823" 
d="M545 1174l-248 -699h197zM129 0h-217l539 1434h311l-72 -1434h-229l20 281h-254zM647 1538q-100 0 -154.5 50t-54.5 141q0 4 4 53h127v-17q0 -47 20.5 -64.5t63.5 -17.5q101 1 138 99h131q-49 -244 -275 -244z" />
    <glyph glyph-name="abreve" unicode="&#x103;" horiz-adv-x="761" 
d="M293 166q94 0 127 125l45 215q-18 -18 -123 -66q-135 -61 -135 -190q0 -84 86 -84zM446 1065q293 0 293 -248q0 -68 -14 -127l-86 -416q-39 -180 -35 -274h-205q-6 12 7 100q-80 -121 -216 -120q-98 0 -155.5 60t-57.5 163q1 274 307 382q142 50 178.5 73t47.5 63l6 31
q6 27 6 49q0 78 -85 78t-107 -111l-11 -49h-208l14 59q67 287 321 287zM532 1169q-100 0 -154 50.5t-54 140.5q0 4 4 53h127v-16q0 -47 20.5 -64.5t63.5 -17.5q100 0 137 98h131q-50 -244 -275 -244z" />
    <glyph glyph-name="Aogonek" unicode="&#x104;" horiz-adv-x="823" 
d="M545 1174l-248 -699h197zM512 -150q0 -43 61 -43q33 0 89 23l-27 -129q-57 -18 -119 -18q-182 0 -182 129q0 115 160 188h-33l20 281h-254l-98 -281h-217l539 1434h311l-72 -1434h-69q-109 -78 -109 -150z" />
    <glyph glyph-name="aogonek" unicode="&#x105;" horiz-adv-x="761" 
d="M293 166q94 0 127 125l45 215q-18 -18 -123 -66q-135 -61 -135 -190q0 -84 86 -84zM446 1065q293 0 293 -248q0 -68 -14 -127l-86 -416q-39 -180 -35 -274h-78q-109 -76 -108 -152q0 -41 48 -41t83 15l-8 -121q-53 -18 -121 -18q-182 0 -182 116q0 125 161 201
q-2 14 7 100q-80 -121 -216 -120q-98 0 -155.5 60t-57.5 163q1 274 307 382q142 50 178.5 73t47.5 63l6 31q6 27 6 49q0 78 -85 78t-107 -111l-11 -49h-208l14 59q67 287 321 287z" />
    <glyph glyph-name="Cacute" unicode="&#x106;" horiz-adv-x="780" 
d="M340 -20q-158 0 -241 71.5t-83 206.5q0 49 13 107l166 774q69 315 361 315q148 0 229 -71.5t81 -204.5q0 -53 -12 -109l-25 -119h-217l33 156q6 25 6 47q0 96 -100 96t-129 -121l-172 -800q-6 -25 -6 -45q0 -98 105 -98.5t128 116.5l45 223h215l-47 -229
q-63 -315 -350 -315zM662 1522h-181l203 276h256z" />
    <glyph glyph-name="cacute" unicode="&#x107;" horiz-adv-x="741" 
d="M307 -20q-137 0 -218 67.5t-81 194.5q0 47 12 102l91 422q31 143 116.5 221t221.5 78t216 -66.5t80 -193.5q0 -49 -12 -105l-8 -34h-211l16 77q6 27 7 48q0 82 -91.5 81.5t-113.5 -108.5l-99 -463q-6 -27 -6 -49q0 -80 90 -80t113 109l12 57h213l-12 -59
q-31 -143 -115 -221t-221 -78zM563 1153h-180l203 277h256z" />
    <glyph glyph-name="Ccircumflex" unicode="&#x108;" horiz-adv-x="780" 
d="M340 -20q-158 0 -241 71.5t-83 206.5q0 49 13 107l166 774q69 315 361 315q148 0 229 -71.5t81 -204.5q0 -53 -12 -109l-25 -119h-217l33 156q6 25 6 47q0 96 -100 96t-129 -121l-172 -800q-6 -25 -6 -45q0 -98 105 -98.5t128 116.5l45 223h215l-47 -229
q-63 -315 -350 -315zM512 1522h-180l227 276h213l109 -276h-160l-70 153z" />
    <glyph glyph-name="ccircumflex" unicode="&#x109;" horiz-adv-x="741" 
d="M307 -20q-137 0 -218 67.5t-81 194.5q0 47 12 102l91 422q31 143 116.5 221t221.5 78t216 -66.5t80 -193.5q0 -49 -12 -105l-8 -34h-211l16 77q6 27 7 48q0 82 -91.5 81.5t-113.5 -108.5l-99 -463q-6 -27 -6 -49q0 -80 90 -80t113 109l12 57h213l-12 -59
q-31 -143 -115 -221t-221 -78zM414 1153h-181l228 277h213l108 -277h-159l-70 154z" />
    <glyph glyph-name="Cdotaccent" unicode="&#x10a;" horiz-adv-x="780" 
d="M340 -20q-158 0 -241 71.5t-83 206.5q0 49 13 107l166 774q69 315 361 315q148 0 229 -71.5t81 -204.5q0 -53 -12 -109l-25 -119h-217l33 156q6 25 6 47q0 96 -100 96t-129 -121l-172 -800q-6 -25 -6 -45q0 -98 105 -98.5t128 116.5l45 223h215l-47 -229
q-63 -315 -350 -315zM723 1542h-217l49 238h217z" />
    <glyph glyph-name="cdotaccent" unicode="&#x10b;" horiz-adv-x="741" 
d="M307 -20q-137 0 -218 67.5t-81 194.5q0 47 12 102l91 422q31 143 116.5 221t221.5 78t216 -66.5t80 -193.5q0 -49 -12 -105l-8 -34h-211l16 77q6 27 7 48q0 82 -91.5 81.5t-113.5 -108.5l-99 -463q-6 -27 -6 -49q0 -80 90 -80t113 109l12 57h213l-12 -59
q-31 -143 -115 -221t-221 -78zM625 1174h-217l49 237h217z" />
    <glyph glyph-name="Ccaron" unicode="&#x10c;" horiz-adv-x="780" 
d="M340 -20q-158 0 -241 71.5t-83 206.5q0 49 13 107l166 774q69 315 361 315q148 0 229 -71.5t81 -204.5q0 -53 -12 -109l-25 -119h-217l33 156q6 25 6 47q0 96 -100 96t-129 -121l-172 -800q-6 -25 -6 -45q0 -98 105 -98.5t128 116.5l45 223h215l-47 -229
q-63 -315 -350 -315zM719 1522h-213l-109 276h160l68 -153l141 153h180z" />
    <glyph glyph-name="ccaron" unicode="&#x10d;" horiz-adv-x="741" 
d="M307 -20q-137 0 -218 67.5t-81 194.5q0 47 12 102l91 422q31 143 116.5 221t221.5 78t216 -66.5t80 -193.5q0 -49 -12 -105l-8 -34h-211l16 77q6 27 7 48q0 82 -91.5 81.5t-113.5 -108.5l-99 -463q-6 -27 -6 -49q0 -80 90 -80t113 109l12 57h213l-12 -59
q-31 -143 -115 -221t-221 -78zM621 1153h-213l-109 277h160l67 -154l142 154h180z" />
    <glyph glyph-name="Dcaron" unicode="&#x10e;" horiz-adv-x="837" 
d="M348 205q119 0 154 147l160 746q6 33 6 55q0 76 -86 76h-117l-217 -1024h100zM342 0h-369l306 1434h331q141 0 215 -67t74 -189q0 -47 -12 -107l-154 -725q-37 -178 -131 -262t-260 -84zM719 1522h-213l-109 276h160l68 -153l141 153h180z" />
    <glyph glyph-name="dcaron" unicode="&#x10f;" horiz-adv-x="958" 
d="M311 172q106 0 138 147l79 375q8 35 9 70q0 109 -101 108q-78 0 -102 -114l-96 -453q-6 -27 -7 -53q0 -80 80 -80zM920 1225l45 209h209l-39 -187l-144 -235h-96l104 213h-79zM2 193q0 43 14 114l103 484q59 274 268 274q145 0 197 -117l104 486h221l-245 -1160
q-39 -180 -35 -274h-205q-8 14 6 106q-80 -127 -215 -126q-100 0 -156.5 55t-56.5 158z" />
    <glyph glyph-name="Dcroat" unicode="&#x110;" horiz-adv-x="874" 
d="M618 1229h-116l-82 -385h110l-41 -193h-110l-94 -446h100q119 0 154 147l159 746q6 33 7 55q0 76 -87 76zM647 1434q141 0 215 -67t74 -189q0 -47 -12 -107l-154 -725q-37 -178 -131 -262t-260 -84h-369l140 651h-99l41 193h98l125 590h332z" />
    <glyph glyph-name="dslash" unicode="&#x111;" horiz-adv-x="792" 
d="M311 172q106 0 138 147l79 375q8 35 9 70q0 109 -101 108q-78 0 -102 -114l-96 -453q-6 -27 -7 -53q0 -80 80 -80zM2 193q0 43 14 114l103 484q59 274 268 274q145 0 197 -117l45 205h-144l41 156h136l26 125h221l-26 -125h82l-41 -156h-74l-186 -879q-39 -180 -35 -274
h-205q-8 14 6 106q-80 -127 -215 -126q-100 0 -156.5 55t-56.5 158z" />
    <glyph glyph-name="Emacron" unicode="&#x112;" horiz-adv-x="735" 
d="M588 0h-615l306 1434h614l-45 -205h-383l-80 -379h303l-43 -205h-303l-94 -440h383zM852 1581h-471l33 160h471z" />
    <glyph glyph-name="emacron" unicode="&#x113;" horiz-adv-x="765" 
d="M545 782q0 90 -94 90.5t-121 -116.5l-23 -109h213l19 88q6 27 6 47zM453 1065q140 0 223.5 -70.5t83.5 -199.5q0 -47 -12 -103l-46 -217h-432l-34 -162q-6 -31 -7 -53q0 -88 107 -88q88 0 115 119l10 47h211l-10 -49q-64 -309 -348 -309q-142 0 -223 70.5t-81 199.5
q0 49 13 106l86 404q31 147 117.5 226t226.5 79zM295 1212l33 160h471l-33 -160h-471z" />
    <glyph glyph-name="Ebreve" unicode="&#x114;" horiz-adv-x="735" 
d="M588 0h-615l306 1434h614l-45 -205h-383l-80 -379h303l-43 -205h-303l-94 -440h383zM627 1538q-100 0 -154.5 50t-54.5 141q0 4 4 53h127v-17q0 -47 20.5 -64.5t63.5 -17.5q100 0 137 99h131q-49 -244 -274 -244z" />
    <glyph glyph-name="ebreve" unicode="&#x115;" horiz-adv-x="765" 
d="M545 782q0 90 -94 90.5t-121 -116.5l-23 -109h213l19 88q6 27 6 47zM453 1065q140 0 223.5 -70.5t83.5 -199.5q0 -47 -12 -103l-46 -217h-432l-34 -162q-6 -31 -7 -53q0 -88 107 -88q88 0 115 119l10 47h211l-10 -49q-64 -309 -348 -309q-142 0 -223 70.5t-81 199.5
q0 49 13 106l86 404q31 147 117.5 226t226.5 79zM541 1169q-100 0 -154.5 50.5t-54.5 140.5q0 4 4 53h127v-16q0 -47 20.5 -64.5t63.5 -17.5q100 0 137 98h131q-49 -244 -274 -244z" />
    <glyph glyph-name="Edotaccent" unicode="&#x116;" horiz-adv-x="735" 
d="M588 0h-615l306 1434h614l-45 -205h-383l-80 -379h303l-43 -205h-303l-94 -440h383zM717 1542h-217l49 238h217z" />
    <glyph glyph-name="edotaccent" unicode="&#x117;" horiz-adv-x="765" 
d="M545 782q0 90 -94 90.5t-121 -116.5l-23 -109h213l19 88q6 27 6 47zM453 1065q140 0 223.5 -70.5t83.5 -199.5q0 -47 -12 -103l-46 -217h-432l-34 -162q-6 -31 -7 -53q0 -88 107 -88q88 0 115 119l10 47h211l-10 -49q-64 -309 -348 -309q-142 0 -223 70.5t-81 199.5
q0 49 13 106l86 404q31 147 117.5 226t226.5 79zM463 1411h217l-49 -237h-217z" />
    <glyph glyph-name="Eogonek" unicode="&#x118;" horiz-adv-x="735" 
d="M473 -193q37 0 86 21l-27 -127q-57 -18 -118 -18q-184 0 -185 129q0 113 162 188h-418l306 1434h614l-45 -205h-383l-80 -379h303l-43 -205h-303l-94 -440h383l-43 -205h-70q-109 -72 -108 -150q0 -43 63 -43z" />
    <glyph glyph-name="eogonek" unicode="&#x119;" horiz-adv-x="765" 
d="M545 782q0 90 -94 90.5t-121 -116.5l-23 -109h213l19 88q6 27 6 47zM453 1065q140 0 223.5 -70.5t83.5 -199.5q0 -47 -12 -103l-46 -217h-432l-34 -162q-6 -31 -7 -53q0 -88 107 -88q88 0 115 119l10 47h211l-10 -49q-39 -190 -173 -269q-104 -90 -104 -172q0 -41 50 -41
t81 15l-8 -121q-53 -18 -121 -18q-182 0 -182 116q0 109 123 181h-4q-152 0 -233 70.5t-81 199.5q0 49 13 106l86 404q31 147 117.5 226t226.5 79z" />
    <glyph glyph-name="Ecaron" unicode="&#x11a;" horiz-adv-x="735" 
d="M588 0h-615l306 1434h614l-45 -205h-383l-80 -379h303l-43 -205h-303l-94 -440h383zM713 1522h-213l-109 276h160l67 -153l142 153h180z" />
    <glyph glyph-name="ecaron" unicode="&#x11b;" horiz-adv-x="765" 
d="M545 782q0 90 -94 90.5t-121 -116.5l-23 -109h213l19 88q6 27 6 47zM453 1065q140 0 223.5 -70.5t83.5 -199.5q0 -47 -12 -103l-46 -217h-432l-34 -162q-6 -31 -7 -53q0 -88 107 -88q88 0 115 119l10 47h211l-10 -49q-64 -309 -348 -309q-142 0 -223 70.5t-81 199.5
q0 49 13 106l86 404q31 147 117.5 226t226.5 79zM854 1430l-227 -277h-213l-109 277h160l67 -154l142 154h180z" />
    <glyph glyph-name="Gcircumflex" unicode="&#x11c;" horiz-adv-x="802" 
d="M346 -20q-156 0 -243 71.5t-87 208.5q0 53 13 115l161 758q70 322 355 321q160 0 242.5 -72.5t82.5 -207.5q0 -51 -12 -111l-18 -92h-217l26 129q6 27 6 51q0 100 -103 100t-132 -127l-170 -790q-6 -27 -6 -51q0 -99 105 -99t132 125l64 295h-115l43 205h332l-109 -506
q-67 -323 -350 -323zM516 1522h-180l227 276h213l109 -276h-160l-70 153z" />
    <glyph glyph-name="gcircumflex" unicode="&#x11d;" horiz-adv-x="788" 
d="M324 231q94 0 131 134l73 346l4 49q0 113 -98 112q-78 0 -102 -118l-84 -389q-6 -29 -6 -54q0 -80 82 -80zM248.5 -338q-148.5 0 -227 61.5t-78.5 176.5q0 4 4 49h209q-2 -6 -2 -27q0 -82 93 -82t122 117l34 168q-72 -78 -174 -78t-158.5 55.5t-56.5 157.5q0 43 15 115
l88 416q59 274 268 274q84 0 139.5 -43t71.5 -121l35 143h188l-231 -1095q-31 -145 -111 -216t-228.5 -71zM621 1153l-70 154l-139 -154h-181l228 277h213l108 -277h-159z" />
    <glyph glyph-name="Gbreve" unicode="&#x11e;" horiz-adv-x="802" 
d="M346 -20q-156 0 -243 71.5t-87 208.5q0 53 13 115l161 758q70 322 355 321q160 0 242.5 -72.5t82.5 -207.5q0 -51 -12 -111l-18 -92h-217l26 129q6 27 6 51q0 100 -103 100t-132 -127l-170 -790q-6 -27 -6 -51q0 -99 105 -99t132 125l64 295h-115l43 205h332l-109 -506
q-67 -323 -350 -323zM637 1538q-100 0 -154.5 50t-54.5 141q0 4 4 53h127v-17q0 -47 20.5 -64.5t63.5 -17.5q100 0 137 99h131q-49 -244 -274 -244z" />
    <glyph glyph-name="gbreve" unicode="&#x11f;" horiz-adv-x="788" 
d="M324 231q94 0 131 134l73 346l4 49q0 113 -98 112q-78 0 -102 -118l-84 -389q-6 -29 -6 -54q0 -80 82 -80zM248.5 -338q-148.5 0 -227 61.5t-78.5 176.5q0 4 4 49h209q-2 -6 -2 -27q0 -82 93 -82t122 117l34 168q-72 -78 -174 -78t-158.5 55.5t-56.5 157.5q0 43 15 115
l88 416q59 274 268 274q84 0 139.5 -43t71.5 -121l35 143h188l-231 -1095q-31 -145 -111 -216t-228.5 -71zM532 1169q-100 0 -154 50.5t-54 140.5q0 4 4 53h127v-16q0 -47 20.5 -64.5t63.5 -17.5q100 0 137 98h131q-50 -244 -275 -244z" />
    <glyph glyph-name="Gdotaccent" unicode="&#x120;" horiz-adv-x="802" 
d="M346 -20q-156 0 -243 71.5t-87 208.5q0 53 13 115l161 758q70 322 355 321q160 0 242.5 -72.5t82.5 -207.5q0 -51 -12 -111l-18 -92h-217l26 129q6 27 6 51q0 100 -103 100t-132 -127l-170 -790q-6 -27 -6 -51q0 -99 105 -99t132 125l64 295h-115l43 205h332l-109 -506
q-67 -323 -350 -323zM727 1542h-217l49 238h217z" />
    <glyph glyph-name="gdotaccent" unicode="&#x121;" horiz-adv-x="788" 
d="M324 231q94 0 131 134l73 346l4 49q0 113 -98 112q-78 0 -102 -118l-84 -389q-6 -29 -6 -54q0 -80 82 -80zM248.5 -338q-148.5 0 -227 61.5t-78.5 176.5q0 4 4 49h209q-2 -6 -2 -27q0 -82 93 -82t122 117l34 168q-72 -78 -174 -78t-158.5 55.5t-56.5 157.5q0 43 15 115
l88 416q59 274 268 274q84 0 139.5 -43t71.5 -121l35 143h188l-231 -1095q-31 -145 -111 -216t-228.5 -71zM455 1411h217l-49 -237h-217z" />
    <glyph glyph-name="uni0122" unicode="&#x122;" horiz-adv-x="802" 
d="M205 -387h-86l106 111h-100l41 188h217l-33 -168zM346 -20q-156 0 -243 71.5t-87 208.5q0 53 13 115l161 758q70 322 355 321q160 0 242.5 -72.5t82.5 -207.5q0 -51 -12 -111l-18 -92h-217l26 129q6 27 6 51q0 100 -103 100t-132 -127l-170 -790q-6 -27 -6 -51
q0 -99 105 -99t132 125l64 295h-115l43 205h332l-109 -506q-67 -323 -350 -323z" />
    <glyph glyph-name="uni0123" unicode="&#x123;" horiz-adv-x="788" 
d="M324 231q94 0 131 134l73 346l4 49q0 113 -98 112q-78 0 -102 -118l-84 -389q-6 -29 -6 -54q0 -80 82 -80zM248.5 -338q-148.5 0 -227 61.5t-78.5 176.5q0 4 4 49h209q-2 -6 -2 -27q0 -82 93 -82t122 117l34 168q-72 -78 -174 -78t-158.5 55.5t-56.5 157.5q0 43 15 115
l88 416q59 274 268 274q84 0 139.5 -43t71.5 -121l35 143h188l-231 -1095q-31 -145 -111 -216t-228.5 -71zM563 1362h99l-39 -188h-217l32 167l129 132h86z" />
    <glyph glyph-name="Hcircumflex" unicode="&#x124;" horiz-adv-x="864" 
d="M203 0h-230l306 1434h229l-125 -584h238l124 584h230l-305 -1434h-230l138 645h-238zM545 1522h-180l227 276h213l108 -276h-159l-70 153z" />
    <glyph glyph-name="hcircumflex" unicode="&#x125;" horiz-adv-x="796" 
d="M574 1065q101 0 155.5 -53.5t54.5 -155.5q0 -61 -14 -117l-158 -739h-221l156 727q8 31 8 64q0 82 -80 81q-98 0 -129 -137l-156 -735h-217l303 1434h218l-95 -447q74 78 175 78zM516 1522l-70 153l-139 -153h-180l227 276h213l109 -276h-160z" />
    <glyph glyph-name="Hbar" unicode="&#x126;" horiz-adv-x="905" 
d="M406 850h237l43 201h-237zM954 1235h78l-39 -184h-78l-223 -1051h-229l137 645h-238l-137 -645h-229l223 1051h-82l39 184h82l43 199h229l-43 -199h238l43 199h229z" />
    <glyph glyph-name="hbar" unicode="&#x127;" horiz-adv-x="796" 
d="M574 1065q101 0 155.5 -53.5t54.5 -155.5q0 -61 -14 -117l-158 -739h-221l156 727q8 31 8 64q0 82 -80 81q-98 0 -129 -137l-156 -735h-217l244 1153h-86l41 156h78l26 125h218l-27 -125h143l-41 -156h-135l-35 -166q74 78 175 78z" />
    <glyph glyph-name="Itilde" unicode="&#x128;" horiz-adv-x="397" 
d="M203 0h-230l306 1434h229zM352 1778q57 0 100.5 -38t65.5 -38q47 0 98 88l107 -82q-96 -164 -199 -164q-57 0 -100 38t-66 38q-55 0 -100 -88l-104 82q96 164 198 164z" />
    <glyph glyph-name="itilde" unicode="&#x129;" horiz-adv-x="389" 
d="M195 0h-222l222 1044h221zM272 1409q57 0 100.5 -38t65.5 -38q47 0 99 88l106 -82q-96 -164 -199 -163q-55 0 -99 38t-66 37q-56 0 -101 -88l-104 82q96 164 198 164z" />
    <glyph glyph-name="Imacron" unicode="&#x12a;" horiz-adv-x="397" 
d="M203 0h-230l306 1434h229zM657 1581h-471l33 160h471z" />
    <glyph glyph-name="imacron" unicode="&#x12b;" horiz-adv-x="389" 
d="M195 0h-222l222 1044h221zM578 1212h-472l33 160h471z" />
    <glyph glyph-name="Ibreve" unicode="&#x12c;" horiz-adv-x="397" 
d="M203 0h-230l306 1434h229zM432 1538q-100 0 -154.5 50t-54.5 141q0 4 4 53h127v-17q0 -47 20.5 -64.5t63.5 -17.5q100 0 137 99h132q-50 -244 -275 -244z" />
    <glyph glyph-name="ibreve" unicode="&#x12d;" horiz-adv-x="389" 
d="M195 0h-222l222 1044h221zM352 1169q-100 0 -154.5 50.5t-54.5 140.5q0 4 4 53h127v-16q0 -47 20.5 -64.5t63.5 -17.5q100 0 138 98h131q-50 -244 -275 -244z" />
    <glyph glyph-name="Iogonek" unicode="&#x12e;" horiz-adv-x="397" 
d="M66 -152q0 -41 47 -41t84 15l-9 -121q-57 -18 -120 -18q-182 0 -182.5 121.5t145.5 195.5h-58l306 1434h229l-305 -1434h-49q-39 -31 -63.5 -74t-24.5 -78z" />
    <glyph glyph-name="iogonek" unicode="&#x12f;" horiz-adv-x="389" 
d="M63 -152q0 -41 47.5 -41t84.5 15l-9 -121q-59 -18 -120 -18q-182 0 -183 122q1 121 146 195h-56l222 1044h221l-221 -1044h-43q-39 -31 -64 -74t-25 -78zM225 1174l49 237h218l-50 -237h-217z" />
    <glyph glyph-name="Idot" unicode="&#x130;" horiz-adv-x="397" 
d="M203 0h-230l306 1434h229zM522 1542h-217l49 238h217z" />
    <glyph glyph-name="dotlessi" unicode="&#x131;" horiz-adv-x="389" 
d="M195 0h-222l222 1044h221z" />
    <glyph glyph-name="IJ" unicode="&#x132;" horiz-adv-x="931" 
d="M469 -8q-104 0 -160 24l43 201q55 -18 94 -18q111 0 140 123l235 1112h232l-242 -1129q-68 -313 -342 -313zM203 0h-230l306 1434h229z" />
    <glyph glyph-name="ij" unicode="&#x133;" horiz-adv-x="776" 
d="M286 -145q42 0 54 53l244 1136h221l-252 -1179q-43 -203 -227 -203q-97 0 -148 33l37 176q29 -16 71 -16zM195 0h-222l222 1044h221zM829 1174h-217l50 237h217zM442 1174h-217l49 237h218z" />
    <glyph glyph-name="Jcircumflex" unicode="&#x134;" horiz-adv-x="534" 
d="M72 -8q-104 0 -160 24l43 201q55 -18 94 -18q111 0 139 123l236 1112h231l-241 -1129q-68 -313 -342 -313zM446 1522h-180l228 276h213l108 -276h-160l-69 153z" />
    <glyph glyph-name="jcircumflex" unicode="&#x135;" horiz-adv-x="387" 
d="M-103.5 -145q41.5 0 54.5 53l244 1136h221l-252 -1179q-43 -203 -227 -203q-97 0 -148 33l37 176q29 -16 70.5 -16zM229 1153h-180l227 277h213l109 -277h-160l-69 154z" />
    <glyph glyph-name="uni0136" unicode="&#x136;" horiz-adv-x="847" 
d="M266 -276h-100l41 188h217l-33 -168l-145 -131h-86zM772 1434h246l-387 -539l82 -895h-228l-55 616l-137 -190l-90 -426h-230l306 1434h229l-125 -588z" />
    <glyph glyph-name="uni0137" unicode="&#x137;" horiz-adv-x="806" 
d="M248 -276h-101l41 188h218l-33 -168l-146 -131h-86zM633 1044h256l-330 -399l115 -645h-221l-74 428l-125 -154l-59 -274h-222l306 1434h221l-170 -795z" />
    <glyph glyph-name="kgreenlandic" unicode="&#x138;" horiz-adv-x="806" 
d="M633 1044h256l-330 -399l115 -645h-221l-74 428l-125 -152l-59 -276h-222l224 1044h221l-86 -405z" />
    <glyph glyph-name="Lacute" unicode="&#x139;" horiz-adv-x="704" 
d="M569 0h-596l306 1434h229l-262 -1229h366zM481 1522h-180l203 276h256z" />
    <glyph glyph-name="lacute" unicode="&#x13a;" horiz-adv-x="389" 
d="M195 0h-222l306 1434h221zM459 1522h-180l202 276h256z" />
    <glyph glyph-name="uni013B" unicode="&#x13b;" horiz-adv-x="704" 
d="M184 -387h-86l107 111h-101l41 188h217l-32 -168zM569 0h-596l306 1434h229l-262 -1229h366z" />
    <glyph glyph-name="uni013C" unicode="&#x13c;" horiz-adv-x="389" 
d="M-4 -387h-86l106 111h-100l41 188h217l-33 -168zM195 0h-222l306 1434h221z" />
    <glyph glyph-name="Lcaron" unicode="&#x13d;" horiz-adv-x="704" 
d="M649 1012h-96l104 213h-79l45 209h208l-38 -187zM569 0h-596l306 1434h229l-262 -1229h366z" />
    <glyph glyph-name="lcaron" unicode="&#x13e;" horiz-adv-x="550" 
d="M584 1012h-97l105 213h-80l45 209h209l-39 -187zM195 0h-222l306 1434h221z" />
    <glyph glyph-name="Ldot" unicode="&#x13f;" horiz-adv-x="704" 
d="M690 690h-217l47 217h217zM569 0h-596l306 1434h229l-262 -1229h366z" />
    <glyph glyph-name="ldot" unicode="&#x140;" horiz-adv-x="614" 
d="M612 604h-225l47 225h225zM195 0h-222l306 1434h221z" />
    <glyph glyph-name="Lslash" unicode="&#x141;" horiz-adv-x="753" 
d="M719 1075l-55 -266l-295 -256l-74 -348h367l-44 -205h-595l65 307l-129 -112l57 266l129 112l183 861h229l-131 -615z" />
    <glyph glyph-name="lslash" unicode="&#x142;" horiz-adv-x="456" 
d="M436 975l105 90l-52 -246l-104 -92l-156 -727h-221l105 492l-109 -95l53 246l109 94l147 697h222z" />
    <glyph glyph-name="Nacute" unicode="&#x143;" horiz-adv-x="874" 
d="M178 0h-205l306 1434h272l45 -859l184 859h205l-305 -1434h-221l-58 1047zM702 1522h-180l203 276h256z" />
    <glyph glyph-name="nacute" unicode="&#x144;" horiz-adv-x="796" 
d="M575 1065q100 0 154.5 -53.5t54.5 -155.5q0 -61 -14 -117l-158 -739h-221l156 727q8 31 8 64q0 82 -80 81q-96 0 -129 -131l-156 -741h-221l219 1044h189l-19 -108q84 129 217 129zM608 1430h256l-278 -277h-180z" />
    <glyph glyph-name="uni0145" unicode="&#x145;" horiz-adv-x="874" 
d="M240 -387h-86l106 111h-100l41 188h217l-33 -168zM178 0h-205l306 1434h272l45 -859l184 859h205l-305 -1434h-221l-58 1047z" />
    <glyph glyph-name="uni0146" unicode="&#x146;" horiz-adv-x="796" 
d="M221 -276h-100l41 188h217l-33 -168l-145 -131h-86zM575 1065q100 0 154.5 -53.5t54.5 -155.5q0 -61 -14 -117l-158 -739h-221l156 727q8 31 8 64q0 82 -80 81q-96 0 -129 -131l-156 -741h-221l219 1044h189l-19 -108q84 129 217 129z" />
    <glyph glyph-name="Ncaron" unicode="&#x147;" horiz-adv-x="874" 
d="M178 0h-205l306 1434h272l45 -859l184 859h205l-305 -1434h-221l-58 1047zM760 1522h-213l-109 276h160l68 -153l141 153h180z" />
    <glyph glyph-name="ncaron" unicode="&#x148;" horiz-adv-x="796" 
d="M575 1065q100 0 154.5 -53.5t54.5 -155.5q0 -61 -14 -117l-158 -739h-221l156 727q8 31 8 64q0 82 -80 81q-96 0 -129 -131l-156 -741h-221l219 1044h189l-19 -108q84 129 217 129zM870 1430l-227 -277h-213l-108 277h159l68 -154l141 154h180z" />
    <glyph glyph-name="napostrophe" unicode="&#x149;" horiz-adv-x="796" 
d="M575 1065q100 0 154.5 -53.5t54.5 -155.5q0 -61 -14 -117l-158 -739h-221l156 727q8 31 8 64q0 82 -80 81q-96 0 -129 -131l-156 -741h-221l219 1044h189l-19 -108q84 129 217 129zM264 1239l-147 -227h-97l103 205h-84l47 217h217z" />
    <glyph glyph-name="Eng" unicode="&#x14a;" horiz-adv-x="874" 
d="M336 -338q-96 0 -164 23l39 180q47 -18 98 -19q104 0 135 125q27 99 27 145t-2 60l-61 895l-230 -1071h-205l306 1434h272l51 -826l178 826h205l-311 -1461q-68 -311 -338 -311z" />
    <glyph glyph-name="eng" unicode="&#x14b;" horiz-adv-x="800" 
d="M575 1065q101 0 155 -53t54 -156q0 -61 -14 -117l-182 -854q-49 -223 -258 -223q-96 0 -164 33l39 180q49 -20 87 -20t56 18t29 64l170 790q8 31 8 64q0 82 -80 81q-96 0 -129 -131l-156 -741h-221l219 1044h189l-19 -108q84 129 217 129z" />
    <glyph glyph-name="Omacron" unicode="&#x14c;" 
d="M360 184q92 0 121 127l166 785q6 27 6 51q0 102 -112 102q-94 0 -123 -129l-166 -784q-6 -29 -6 -49q-1 -103 114 -103zM348 -20q-156 0 -244 74.5t-88 213.5q0 49 13 105l161 757q33 158 126.5 241t241.5 83t236.5 -74.5t88.5 -214.5q0 -51 -13 -106l-161 -758
q-70 -321 -361 -321zM870 1581h-471l33 160h471z" />
    <glyph glyph-name="omacron" unicode="&#x14d;" horiz-adv-x="765" 
d="M319 172q93 0 117 115l99 450q6 25 6 47q0 88 -93.5 88t-117.5 -114l-99 -451q-6 -25 -6 -47q1 -88 94 -88zM319 -20q-143 0 -226 71.5t-83 198.5q0 53 10 100l91 412q63 303 335 303q143 0 226.5 -71.5t83.5 -198.5q0 -53 -11 -101l-90 -411q-64 -303 -336 -303z
M766 1212h-471l33 160h471z" />
    <glyph glyph-name="Obreve" unicode="&#x14e;" 
d="M360 184q92 0 121 127l166 785q6 27 6 51q0 102 -112 102q-94 0 -123 -129l-166 -784q-6 -29 -6 -49q-1 -103 114 -103zM348 -20q-156 0 -244 74.5t-88 213.5q0 49 13 105l161 757q33 158 126.5 241t241.5 83t236.5 -74.5t88.5 -214.5q0 -51 -13 -106l-161 -758
q-70 -321 -361 -321zM645 1538q-100 0 -154.5 50t-54.5 141q0 4 4 53h127v-17q0 -47 20.5 -64.5t63.5 -17.5q100 0 137 99h132q-50 -244 -275 -244z" />
    <glyph glyph-name="obreve" unicode="&#x14f;" horiz-adv-x="765" 
d="M319 172q93 0 117 115l99 450q6 25 6 47q0 88 -93.5 88t-117.5 -114l-99 -451q-6 -25 -6 -47q1 -88 94 -88zM319 -20q-143 0 -226 71.5t-83 198.5q0 53 10 100l91 412q63 303 335 303q143 0 226.5 -71.5t83.5 -198.5q0 -53 -11 -101l-90 -411q-64 -303 -336 -303z
M541 1169q-100 0 -154.5 50.5t-54.5 140.5q0 4 4 53h127v-16q0 -47 20.5 -64.5t63.5 -17.5q100 0 137 98h131q-49 -244 -274 -244z" />
    <glyph glyph-name="Ohungarumlaut" unicode="&#x150;" 
d="M360 184q92 0 121 127l166 785q6 27 6 51q0 102 -112 102q-94 0 -123 -129l-166 -784q-6 -29 -6 -49q-1 -103 114 -103zM348 -20q-156 0 -244 74.5t-88 213.5q0 49 13 105l161 757q33 158 126.5 241t241.5 83t236.5 -74.5t88.5 -214.5q0 -51 -13 -106l-161 -758
q-70 -321 -361 -321zM819 1522h-162l203 276h238zM514 1522h-162l203 276h238z" />
    <glyph glyph-name="ohungarumlaut" unicode="&#x151;" horiz-adv-x="765" 
d="M319 172q93 0 117 115l99 450q6 25 6 47q0 88 -93.5 88t-117.5 -114l-99 -451q-6 -25 -6 -47q1 -88 94 -88zM319 -20q-143 0 -226 71.5t-83 198.5q0 53 10 100l91 412q63 303 335 303q143 0 226.5 -71.5t83.5 -198.5q0 -53 -11 -101l-90 -411q-64 -303 -336 -303z
M715 1153h-162l203 277h237zM410 1153h-162l203 277h237z" />
    <glyph glyph-name="OE" unicode="&#x152;" horiz-adv-x="1173" 
d="M338 205h117l217 1024h-101q-121 0 -153 -148l-158 -745q-8 -41 -8 -57q0 -74 86 -74zM301 0q-135 0 -207 65t-71 187q0 51 12 110l153 725q36 175 134 261t268 86h741l-45 -205h-385l-80 -379h305l-43 -205h-305l-94 -440h385l-43 -205h-725z" />
    <glyph glyph-name="oe" unicode="&#x153;" horiz-adv-x="1191" 
d="M975 782q0 90 -94 90t-121 -116l-23 -109h213l19 88q6 27 6 47zM541 784q1 88 -93 88t-118 -114l-99 -451q-6 -25 -6 -47q0 -88 93 -88t118 115l99 450q6 25 6 47zM1190 803q0 -53 -12 -111l-45 -217h-433l-34 -162q-6 -31 -7 -53q0 -88 107 -88q88 0 115 119l10 47h211
l-10 -49q-63 -309 -328 -309q-184 0 -244 108q-68 -108 -210 -108t-222 68t-80 196q0 47 12 106l91 412q63 303 325 303q176 0 236 -109q74 109 216 109q142 1 222 -67t80 -195z" />
    <glyph glyph-name="Racute" unicode="&#x154;" horiz-adv-x="829" 
d="M444 819q139 0 177 160l24 111q8 31 8 65q0 74 -86 74h-102l-88 -410h67zM608 1434q135 0 206 -62.5t71 -183.5q0 -49 -13 -111l-14 -69q-27 -131 -77 -200t-136 -91v-2q104 -35 105 -178q0 -63 -15 -119l-53 -252q-20 -96 -20 -114.5t4 -51.5h-224q-4 49 -4 73.5
t19 110.5l55 262q12 53 12 93t-23.5 57.5t-84.5 17.5h-82l-131 -614h-230l306 1434h329zM655 1522h-180l203 276h256z" />
    <glyph glyph-name="racute" unicode="&#x155;" horiz-adv-x="561" 
d="M571 1065q57 0 84 -21l-43 -206q-37 14 -77 14q-152 0 -207 -199l-138 -653h-221l219 1044h189l-27 -163q80 184 221 184zM508 1430h256l-279 -277h-180z" />
    <glyph glyph-name="uni0156" unicode="&#x156;" horiz-adv-x="829" 
d="M225 -387h-86l107 111h-101l41 188h217l-32 -168zM444 819q139 0 177 160l24 111q8 31 8 65q0 74 -86 74h-102l-88 -410h67zM608 1434q135 0 206 -62.5t71 -183.5q0 -49 -13 -111l-14 -69q-27 -131 -77 -200t-136 -91v-2q104 -35 105 -178q0 -63 -15 -119l-53 -252
q-20 -96 -20 -114.5t4 -51.5h-224q-4 49 -4 73.5t19 110.5l55 262q12 53 12 93t-23.5 57.5t-84.5 17.5h-82l-131 -614h-230l306 1434h329z" />
    <glyph glyph-name="uni0157" unicode="&#x157;" horiz-adv-x="561" 
d="M14 -276h-100l41 188h217l-33 -168l-145 -131h-86zM571 1065q57 0 84 -21l-43 -206q-37 14 -77 14q-152 0 -207 -199l-138 -653h-221l219 1044h189l-27 -163q80 184 221 184z" />
    <glyph glyph-name="Rcaron" unicode="&#x158;" horiz-adv-x="829" 
d="M444 819q139 0 177 160l24 111q8 31 8 65q0 74 -86 74h-102l-88 -410h67zM608 1434q135 0 206 -62.5t71 -183.5q0 -49 -13 -111l-14 -69q-27 -131 -77 -200t-136 -91v-2q104 -35 105 -178q0 -63 -15 -119l-53 -252q-20 -96 -20 -114.5t4 -51.5h-224q-4 49 -4 73.5
t19 110.5l55 262q12 53 12 93t-23.5 57.5t-84.5 17.5h-82l-131 -614h-230l306 1434h329zM713 1522h-213l-109 276h160l67 -153l142 153h180z" />
    <glyph glyph-name="rcaron" unicode="&#x159;" horiz-adv-x="561" 
d="M571 1065q57 0 84 -21l-43 -206q-37 14 -77 14q-152 0 -207 -199l-138 -653h-221l219 1044h189l-27 -163q80 184 221 184zM770 1430l-227 -277h-213l-109 277h160l68 -154l141 154h180z" />
    <glyph glyph-name="Sacute" unicode="&#x15a;" horiz-adv-x="759" 
d="M303 -20q-309 0 -309 266q0 68 14 127l10 49h215l-16 -88q-6 -31 -6 -55q0 -94 106 -95q139 0 140 201q0 129 -125 272q-170 193 -170 380t100 302t275 115q307 0 307 -264q0 -47 -17 -129l-6 -27h-215l12 62q6 35 7 61q0 92 -103 92q-66 0 -99.5 -51t-33.5 -135
q0 -123 125 -266q170 -201 170 -391t-102 -310q-103 -116 -279 -116zM641 1507h-180l203 277h256z" />
    <glyph glyph-name="sacute" unicode="&#x15b;" horiz-adv-x="700" 
d="M-12 225q0 48 14 107h211l-8 -35q-6 -27 -6 -49q0 -82 82 -82q53 0 82.5 37t29.5 84t-27.5 83t-96.5 84t-118.5 106.5t-50 185t90 223t226.5 96.5t207.5 -62.5t71.5 -173.5q0 -35 -10 -92h-205q8 47 8 70q0 70 -71 70q-47 0 -75 -34t-28 -81t30 -83t95.5 -83t83.5 -66
q35 -29 62.5 -88t27.5 -123q0 -139 -94 -239t-238.5 -100t-219 65.5t-74.5 179.5zM530 1153h-180l203 277h256z" />
    <glyph glyph-name="Scircumflex" unicode="&#x15c;" horiz-adv-x="759" 
d="M303 -20q-309 0 -309 266q0 68 14 127l10 49h215l-16 -88q-6 -31 -6 -55q0 -94 106 -95q139 0 140 201q0 129 -125 272q-170 193 -170 380t100 302t275 115q307 0 307 -264q0 -47 -17 -129l-6 -27h-215l12 62q6 35 7 61q0 92 -103 92q-66 0 -99.5 -51t-33.5 -135
q0 -123 125 -266q170 -201 170 -391t-102 -310q-103 -116 -279 -116zM492 1507h-181l228 277h213l108 -277h-160l-69 154z" />
    <glyph glyph-name="scircumflex" unicode="&#x15d;" horiz-adv-x="700" 
d="M-12 225q0 48 14 107h211l-8 -35q-6 -27 -6 -49q0 -82 82 -82q53 0 82.5 37t29.5 84t-27.5 83t-96.5 84t-118.5 106.5t-50 185t90 223t226.5 96.5t207.5 -62.5t71.5 -173.5q0 -35 -10 -92h-205q8 47 8 70q0 70 -71 70q-47 0 -75 -34t-28 -81t30 -83t95.5 -83t83.5 -66
q35 -29 62.5 -88t27.5 -123q0 -139 -94 -239t-238.5 -100t-219 65.5t-74.5 179.5zM381 1153h-180l227 277h213l109 -277h-160l-70 154z" />
    <glyph glyph-name="Scedilla" unicode="&#x15e;" horiz-adv-x="759" 
d="M537 1454q307 0 307 -264q0 -47 -17 -129l-6 -27h-215l12 62q6 35 7 61q0 92 -103 92q-66 0 -99.5 -51t-33.5 -135q0 -123 125 -266q170 -201 170 -391t-99.5 -307t-273.5 -119l-14 -52q127 0 127 -90q0 -84 -54.5 -115.5t-166.5 -31.5q-186 0 -187 108q0 14 4 39h152
q-6 -18 -6 -33q0 -33 41 -32q66 0 65 82q0 37 -57 36h-18l20 95q-223 33 -223 260q0 68 14 127l10 49h215l-16 -88q-6 -31 -6 -55q0 -94 106 -95q139 0 140 201q0 129 -125 272q-170 193 -170 380t100 302t275 115z" />
    <glyph glyph-name="scedilla" unicode="&#x15f;" horiz-adv-x="700" 
d="M-12 225q0 48 14 107h211l-8 -35q-6 -27 -6 -49q0 -82 82 -82q53 0 82.5 37t29.5 84t-27.5 83t-96.5 84t-118.5 106.5t-50 185t90 223t226.5 96.5t207.5 -62.5t71.5 -173.5q0 -35 -10 -92h-205q8 47 8 70q0 70 -71 70q-47 0 -75 -34t-28 -81t30 -83t95.5 -83t83.5 -66
q35 -29 62.5 -88t27.5 -123q0 -133 -89 -232t-242 -107l-17 -60q127 0 127 -90q0 -84 -54 -115.5t-167 -31.5q-186 0 -186 108q0 14 4 39h151q-6 -18 -6 -33q0 -33 41 -33q66 0 66 82q0 37 -58 37h-18l22 103q-94 18 -147 80.5t-53 158.5z" />
    <glyph glyph-name="Scaron" unicode="&#x160;" horiz-adv-x="759" 
d="M303 -20q-309 0 -309 266q0 68 14 127l10 49h215l-16 -88q-6 -31 -6 -55q0 -94 106 -95q139 0 140 201q0 129 -125 272q-170 193 -170 380t100 302t275 115q307 0 307 -264q0 -47 -17 -129l-6 -27h-215l12 62q6 35 7 61q0 92 -103 92q-66 0 -99.5 -51t-33.5 -135
q0 -123 125 -266q170 -201 170 -391t-102 -310q-103 -116 -279 -116zM698 1507h-213l-108 277h160l67 -154l141 154h181z" />
    <glyph glyph-name="scaron" unicode="&#x161;" horiz-adv-x="700" 
d="M-12 225q0 48 14 107h211l-8 -35q-6 -27 -6 -49q0 -82 82 -82q53 0 82.5 37t29.5 84t-27.5 83t-96.5 84t-118.5 106.5t-50 185t90 223t226.5 96.5t207.5 -62.5t71.5 -173.5q0 -35 -10 -92h-205q8 47 8 70q0 70 -71 70q-47 0 -75 -34t-28 -81t30 -83t95.5 -83t83.5 -66
q35 -29 62.5 -88t27.5 -123q0 -139 -94 -239t-238.5 -100t-219 65.5t-74.5 179.5zM588 1153h-213l-109 277h160l68 -154l141 154h180z" />
    <glyph glyph-name="uni0162" unicode="&#x162;" horiz-adv-x="749" 
d="M418 -170q0 -84 -54.5 -115.5t-166.5 -31.5q-186 0 -187 108q0 14 4 39h152q-6 -18 -6 -33q0 -33 41 -33q66 0 65 82q0 37 -57 37h-19l25 117h-65l260 1229h-236l45 205h701l-46 -205h-235l-260 -1229h-66l-22 -80q127 0 127 -90z" />
    <glyph glyph-name="uni0163" unicode="&#x163;" horiz-adv-x="559" 
d="M379 172q27 0 63 10l-24 -186q-49 -16 -98.5 -16t-57.5 2l-16 -62q127 0 127 -90q0 -84 -54.5 -115.5t-166.5 -31.5q-186 0 -187 108q0 14 4 39h152q-6 -18 -6 -33q0 -33 41 -33q66 0 65 82q0 37 -57 37h-19l27 123q-96 47 -96 166q0 39 8 70l131 618h-119l39 184h129
l80 283h193l-60 -283h156l-39 -184h-158l-129 -606l-4 -29q0 -53 76 -53z" />
    <glyph glyph-name="Tcaron" unicode="&#x164;" horiz-adv-x="749" 
d="M379 0h-229l260 1229h-236l45 205h701l-46 -205h-235zM696 1522h-213l-108 276h160l67 -153l141 153h181z" />
    <glyph glyph-name="tcaron" unicode="&#x165;" horiz-adv-x="602" 
d="M379 172q27 0 63 10l-24 -186q-49 -16 -135 -16t-146.5 50t-60.5 142q0 39 8 70l131 618h-119l39 184h129l80 283h193l-60 -283h156l-39 -184h-158l-129 -606l-4 -29q0 -53 76 -53zM563 1327l45 209h209l-39 -186l-143 -236h-96l104 213h-80z" />
    <glyph glyph-name="Tbar" unicode="&#x166;" horiz-adv-x="745" 
d="M920 1434l-46 -205h-235l-80 -379h152l-43 -205h-152l-137 -645h-229l137 645h-156l43 205h156l80 379h-236l45 205h701z" />
    <glyph glyph-name="tbar" unicode="&#x167;" horiz-adv-x="559" 
d="M379 172q27 0 63 10l-24 -186q-49 -16 -135 -16t-146.5 50t-60.5 142q0 39 8 70l45 213h-100l41 155h92l53 250h-119l39 184h129l80 283h193l-60 -283h156l-39 -184h-158l-53 -250h125l-41 -155h-117l-43 -201l-4 -29q0 -53 76 -53z" />
    <glyph glyph-name="Utilde" unicode="&#x168;" horiz-adv-x="823" 
d="M350 -20q-154 0 -239.5 73.5t-85.5 208.5q0 53 12 111l227 1061h230l-236 -1102q-6 -29 -6 -49q0 -98 113 -99q96 0 120 125l240 1125h221l-241 -1133q-68 -321 -355 -321zM567 1778q57 0 100.5 -38t65.5 -38q47 0 98 88l107 -82q-96 -164 -199 -164q-55 0 -99 38t-67 38
q-55 0 -100 -88l-104 82q96 164 198 164z" />
    <glyph glyph-name="utilde" unicode="&#x169;" horiz-adv-x="796" 
d="M221 -20q-100 0 -154.5 53t-54.5 155q0 61 15 117l157 739h222l-156 -727q-8 -31 -8 -63q0 -82 80 -82q100 0 131 145l153 727h221l-219 -1044h-188l18 109q-82 -129 -217 -129zM479 1251q-55 0 -100 -88l-105 82q96 164 199 164q55 0 99.5 -38t66.5 -38q47 0 98 88
l107 -82q-96 -164 -199 -163q-55 0 -99 37.5t-67 37.5z" />
    <glyph glyph-name="Umacron" unicode="&#x16a;" horiz-adv-x="823" 
d="M350 -20q-154 0 -239.5 73.5t-85.5 208.5q0 53 12 111l227 1061h230l-236 -1102q-6 -29 -6 -49q0 -98 113 -99q96 0 120 125l240 1125h221l-241 -1133q-68 -321 -355 -321zM872 1581h-471l33 160h471z" />
    <glyph glyph-name="umacron" unicode="&#x16b;" horiz-adv-x="796" 
d="M221 -20q-100 0 -154.5 53t-54.5 155q0 61 15 117l157 739h222l-156 -727q-8 -31 -8 -63q0 -82 80 -82q100 0 131 145l153 727h221l-219 -1044h-188l18 109q-82 -129 -217 -129zM340 1372h471l-33 -160h-471z" />
    <glyph glyph-name="Ubreve" unicode="&#x16c;" horiz-adv-x="823" 
d="M350 -20q-154 0 -239.5 73.5t-85.5 208.5q0 53 12 111l227 1061h230l-236 -1102q-6 -29 -6 -49q0 -98 113 -99q96 0 120 125l240 1125h221l-241 -1133q-68 -321 -355 -321zM647 1538q-100 0 -154.5 50t-54.5 141q0 4 4 53h127v-17q0 -47 20.5 -64.5t63.5 -17.5
q100 0 138 99h131q-50 -244 -275 -244z" />
    <glyph glyph-name="ubreve" unicode="&#x16d;" horiz-adv-x="796" 
d="M221 -20q-100 0 -154.5 53t-54.5 155q0 61 15 117l157 739h222l-156 -727q-8 -31 -8 -63q0 -82 80 -82q100 0 131 145l153 727h221l-219 -1044h-188l18 109q-82 -129 -217 -129zM553 1169q-100 0 -154.5 50.5t-54.5 140.5q0 4 4 53h127v-16q0 -47 20.5 -64.5t63.5 -17.5
q100 0 137 98h131q-49 -244 -274 -244z" />
    <glyph glyph-name="Uring" unicode="&#x16e;" horiz-adv-x="823" 
d="M350 -20q-154 0 -239.5 73.5t-85.5 208.5q0 53 12 111l227 1061h230l-236 -1102q-6 -29 -6 -49q0 -98 113 -99q96 0 120 125l240 1125h221l-241 -1133q-68 -321 -355 -321zM655 1630q29 0 51.5 22.5t22.5 57.5q6 45 -41 57q-55 12 -82 -32q-12 -18 -12 -44t16 -43.5
t45 -17.5zM649 1522q-78 0 -126 46t-48 120.5t59.5 133t137.5 58.5t126 -46t48 -121t-59.5 -133t-137.5 -58z" />
    <glyph glyph-name="uring" unicode="&#x16f;" horiz-adv-x="796" 
d="M221 -20q-100 0 -154.5 53t-54.5 155q0 61 15 117l157 739h222l-156 -727q-8 -31 -8 -63q0 -82 80 -82q100 0 131 145l153 727h221l-219 -1044h-188l18 109q-82 -129 -217 -129zM500 1322q0 -26 16 -43t45 -17t51.5 22.5t22.5 56.5q6 45 -41 58q-55 12 -82 -33
q-12 -18 -12 -44zM555 1153q-78 0 -126 46t-48 121t59.5 133t137.5 58t126 -46t48 -120.5t-59.5 -133t-137.5 -58.5z" />
    <glyph glyph-name="Uhungarumlaut" unicode="&#x170;" horiz-adv-x="823" 
d="M350 -20q-154 0 -239.5 73.5t-85.5 208.5q0 53 12 111l227 1061h230l-236 -1102q-6 -29 -6 -49q0 -98 113 -99q96 0 120 125l240 1125h221l-241 -1133q-68 -321 -355 -321zM821 1522h-162l203 276h238zM516 1522h-162l203 276h238z" />
    <glyph glyph-name="uhungarumlaut" unicode="&#x171;" horiz-adv-x="796" 
d="M221 -20q-100 0 -154.5 53t-54.5 155q0 61 15 117l157 739h222l-156 -727q-8 -31 -8 -63q0 -82 80 -82q100 0 131 145l153 727h221l-219 -1044h-188l18 109q-82 -129 -217 -129zM1006 1430l-279 -277h-162l203 277h238zM463 1430h237l-278 -277h-162z" />
    <glyph glyph-name="Uogonek" unicode="&#x172;" horiz-adv-x="823" 
d="M330 -152q0 -41 50 -41t81 15l-8 -121q-51 -18 -121 -18q-182 0 -182 115.5t129 185.5q-121 16 -187.5 87.5t-66.5 190.5q0 53 12 111l227 1061h230l-236 -1102q-6 -29 -6 -49q0 -98 113 -99q95 0 120 125l240 1125h221l-241 -1133q-59 -281 -289 -317q-86 -70 -86 -136z
" />
    <glyph glyph-name="uogonek" unicode="&#x173;" horiz-adv-x="796" 
d="M434 -152q0 -41 48 -41t83 15l-8 -121q-53 -18 -121 -18q-182 0 -182 116q0 127 166 203l18 107q-82 -129 -217 -129q-100 0 -154.5 53t-54.5 155q0 61 15 117l157 739h222l-156 -727q-8 -31 -8 -63q0 -82 80 -82q100 0 131 145l153 727h221l-219 -1044h-65
q-109 -76 -109 -152z" />
    <glyph glyph-name="Wcircumflex" unicode="&#x174;" horiz-adv-x="1140" 
d="M362 0h-299l162 1434h217l-139 -1123l346 1123h246l-133 -1123l340 1123h203l-449 -1434h-285l107 985zM686 1522h-180l227 276h213l109 -276h-160l-70 153z" />
    <glyph glyph-name="wcircumflex" unicode="&#x175;" horiz-adv-x="1107" 
d="M352 0h-280l69 1044h211l-55 -751l264 751h219l-59 -751l268 751h203l-377 -1044h-266l41 643zM592 1153h-180l227 277h213l109 -277h-160l-70 154z" />
    <glyph glyph-name="Ycircumflex" unicode="&#x176;" horiz-adv-x="811" 
d="M408 0h-230l131 610l-96 824h229l39 -535l273 535h233l-448 -824zM516 1522h-180l227 276h213l109 -276h-160l-70 153z" />
    <glyph glyph-name="ycircumflex" unicode="&#x177;" horiz-adv-x="749" 
d="M50 -338q-104 0 -161 37l39 180q49 -25 112 -24.5t97 79.5l19 46l-23 1064h217l-12 -716l283 716h215l-498 -1165q-51 -115 -117.5 -166t-170.5 -51zM406 1153h-181l228 277h213l108 -277h-160l-69 154z" />
    <glyph glyph-name="Ydieresis" unicode="&#x178;" horiz-adv-x="811" 
d="M408 0h-230l131 610l-96 824h229l39 -535l273 535h233l-448 -824zM860 1542h-194l49 238h194zM571 1542h-194l49 238h195z" />
    <glyph glyph-name="Zacute" unicode="&#x179;" horiz-adv-x="733" 
d="M584 0h-660l39 201l623 1028h-381l45 205h639l-41 -201l-623 -1028h402zM639 1522h-180l203 276h256z" />
    <glyph glyph-name="zacute" unicode="&#x17a;" horiz-adv-x="679" 
d="M524 0h-596l35 180l496 680h-328l39 184h575l-34 -180l-496 -680h348zM532 1153h-180l203 277h256z" />
    <glyph glyph-name="Zdotaccent" unicode="&#x17b;" horiz-adv-x="733" 
d="M584 0h-660l39 201l623 1028h-381l45 205h639l-41 -201l-623 -1028h402zM700 1542h-217l49 238h218z" />
    <glyph glyph-name="zdotaccent" unicode="&#x17c;" horiz-adv-x="679" 
d="M524 0h-596l35 180l496 680h-328l39 184h575l-34 -180l-496 -680h348zM594 1174h-217l49 237h217z" />
    <glyph glyph-name="Zcaron" unicode="&#x17d;" horiz-adv-x="733" 
d="M584 0h-660l39 201l623 1028h-381l45 205h639l-41 -201l-623 -1028h402zM696 1522h-213l-108 276h160l67 -153l141 153h181z" />
    <glyph glyph-name="zcaron" unicode="&#x17e;" horiz-adv-x="679" 
d="M524 0h-596l35 180l496 680h-328l39 184h575l-34 -180l-496 -680h348zM590 1153h-213l-109 277h160l68 -154l141 154h180z" />
    <glyph glyph-name="florin" unicode="&#x192;" 
d="M549 552q0 71 -113 73h-67l-80 -369h80q126 0 157 150l13 53q10 57 10 93zM647 1102q0 76 -86 76h-76l-73 -349h39q143 0 178 160l10 49q8 43 8 64zM768 528q0 -49 -12 -100l-11 -45q-57 -270 -288 -320l-37 -176h-127l35 164h-119l-35 -164h-127l35 164h-143l43 205h81
l197 922h-82l43 204h144l30 144h127l-30 -144h118l31 144h127l-35 -162q145 -49 146 -209q0 -45 -13 -100l-6 -31q-22 -120 -70 -188t-133 -99v-4q111 -57 111 -205z" />
    <glyph glyph-name="AEacute" unicode="&#x1fc;" horiz-adv-x="1183" 
d="M668 1151l-316 -676h170zM1341 1434l-45 -205h-383l-79 -379h303l-43 -205h-303l-95 -440h383l-43 -205h-614l59 281h-219l-131 -281h-225l692 1434h743zM874 1798h256l-278 -276h-180z" />
    <glyph glyph-name="aeacute" unicode="&#x1fd;" horiz-adv-x="1173" 
d="M293 166q98 0 131 149l39 191q-31 -29 -121 -66q-135 -61 -135 -184q0 -90 86 -90zM954 782q0 90 -94 90t-121 -116l-24 -109h215l18 88q6 27 6 47zM880 1065q136 0 212.5 -70.5t76.5 -197.5q0 -49 -12 -105l-45 -217h-432l-35 -162q-6 -31 -6 -53q0 -88 106 -88
q88 0 115 119l10 47h211l-10 -49q-31 -150 -118 -229.5t-220 -79.5q-217 0 -284 141q-76 -141 -242 -141q-109 0 -169.5 59t-60.5 164q-1 276 309 384q144 50 181 72q35 23 45 64l6 29q6 27 6 49q0 78 -86 78t-106 -111l-10 -49h-209l14 59q68 287 322 287q170 0 215 -113
q80 113 216 113zM797 1430h256l-279 -277h-180z" />
    <glyph glyph-name="Oslashacute" unicode="&#x1fe;" 
d="M360 184q92 0 121 127l107 506l-340 -553q12 -80 112 -80zM541 1249q-94 0 -123 -129l-109 -510l344 555q-12 84 -112 84zM554 1454q144 0 234 -70l68 111l107 -70l-97 -155q30 -100 4 -211l-161 -758q-70 -322 -361 -321q-147 0 -233 67l-68 -108l-108 69l94 154
q-30 99 -4 211l161 757q33 158 126.5 241t237.5 83zM696 1798h256l-278 -276h-180z" />
    <glyph glyph-name="oslashacute" unicode="&#x1ff;" horiz-adv-x="765" 
d="M324 172q87 0 112 115l68 311l-264 -391q23 -35 84 -35zM330 758l-68 -312l264 392q-23 35 -84 34q-87 1 -112 -114zM756 806.5q0 -64.5 -11 -112.5l-90 -411q-63 -303 -336 -303q-123 0 -198 51l-66 -97l-92 70l78 115q-31 55 -31 119.5t10 111.5l91 412q63 303 335 303
q123 0 199 -51l66 96l92 -70l-78 -114q31 -55 31 -119.5zM592 1430h256l-279 -277h-180z" />
    <glyph glyph-name="uni0218" unicode="&#x218;" horiz-adv-x="759" 
d="M182 -379h-86l107 111h-101l41 188h217l-32 -168zM303 -20q-309 0 -309 266q0 68 14 127l10 49h215l-16 -88q-6 -31 -6 -55q0 -94 106 -95q139 0 140 201q0 129 -125 272q-170 193 -170 380t100 302t275 115q307 0 307 -264q0 -47 -17 -129l-6 -27h-215l12 62q6 35 7 61
q0 92 -103 92q-66 0 -99.5 -51t-33.5 -135q0 -123 125 -266q170 -201 170 -391t-102 -310q-103 -116 -279 -116z" />
    <glyph glyph-name="uni0219" unicode="&#x219;" horiz-adv-x="700" 
d="M152 -387h-86l106 111h-100l41 188h217l-33 -168zM-12 225q0 48 14 107h211l-8 -35q-6 -27 -6 -49q0 -82 82 -82q53 0 82.5 37t29.5 84t-27.5 83t-96.5 84t-118.5 106.5t-50 185t90 223t226.5 96.5t207.5 -62.5t71.5 -173.5q0 -35 -10 -92h-205q8 47 8 70q0 70 -71 70
q-47 0 -75 -34t-28 -81t30 -83t95.5 -83t83.5 -66q35 -29 62.5 -88t27.5 -123q0 -139 -94 -239t-238.5 -100t-219 65.5t-74.5 179.5z" />
    <glyph glyph-name="uni021A" unicode="&#x21a;" horiz-adv-x="749" 
d="M176 -387h-86l107 111h-101l41 188h217l-32 -168zM379 0h-229l260 1229h-236l45 205h701l-46 -205h-235z" />
    <glyph glyph-name="uni021B" unicode="&#x21b;" horiz-adv-x="559" 
d="M152 -276h-101l41 188h217l-33 -168l-145 -131h-86zM379 172q27 0 63 10l-24 -186q-49 -16 -135 -16t-146.5 50t-60.5 142q0 39 8 70l131 618h-119l39 184h129l80 283h193l-60 -283h156l-39 -184h-158l-129 -606l-4 -29q0 -53 76 -53z" />
    <glyph glyph-name="uni0237" unicode="&#x237;" horiz-adv-x="387" 
d="M-103.5 -145q41.5 0 54.5 53l244 1136h221l-252 -1179q-43 -203 -227 -203q-97 0 -148 33l37 176q29 -16 70.5 -16z" />
    <glyph glyph-name="uni02BC" unicode="&#x2bc;" horiz-adv-x="0" 
d="M117 1012h-97l103 205h-84l47 217h217l-39 -195z" />
    <glyph glyph-name="circumflex" unicode="&#x2c6;" horiz-adv-x="1024" 
d="M549 1153h-180l227 277h213l109 -277h-160l-70 154z" />
    <glyph glyph-name="caron" unicode="&#x2c7;" horiz-adv-x="1024" 
d="M756 1153h-213l-109 277h160l68 -154l141 154h180z" />
    <glyph glyph-name="uni02C9" unicode="&#x2c9;" horiz-adv-x="1024" 
d="M895 1212h-471l33 160h471z" />
    <glyph glyph-name="breve" unicode="&#x2d8;" horiz-adv-x="1024" 
d="M670 1169q-100 0 -154.5 50.5t-54.5 140.5q0 4 4 53h127v-16q0 -47 20.5 -64.5t63.5 -17.5q100 0 137 98h131q-49 -244 -274 -244z" />
    <glyph glyph-name="dotaccent" unicode="&#x2d9;" horiz-adv-x="1024" 
d="M760 1174h-217l49 237h217z" />
    <glyph glyph-name="ring" unicode="&#x2da;" horiz-adv-x="1024" 
d="M616 1327q0 -65 62 -65q29 0 51.5 22.5t22.5 53t-17.5 48t-46.5 17.5t-50.5 -22.5t-21.5 -53.5zM672 1153q-78 0 -126 46t-48 121t59 133t137 58t126 -46t48 -120.5t-59 -133t-137 -58.5z" />
    <glyph glyph-name="ogonek" unicode="&#x2db;" horiz-adv-x="1024" 
d="M387 -317q-184 0 -184 129q0 117 188 200l103 -10q-111 -74 -111 -152q0 -43 63 -43q37 0 86 21l-26 -127q-60 -18 -119 -18z" />
    <glyph glyph-name="tilde" unicode="&#x2dc;" horiz-adv-x="1024" 
d="M590 1409q57 0 100.5 -38t65.5 -38q47 0 98 88l107 -82q-96 -164 -199 -163q-57 0 -100.5 38t-65.5 37q-55 0 -100 -88l-105 82q96 164 199 164z" />
    <glyph glyph-name="hungarumlaut" unicode="&#x2dd;" horiz-adv-x="1024" 
d="M844 1153h-162l203 277h237zM539 1153h-162l203 277h237z" />
    <glyph glyph-name="gravecomb" unicode="&#x300;" horiz-adv-x="0" 
d="M252 1153h-160l-160 277h236z" />
    <glyph glyph-name="acutecomb" unicode="&#x301;" horiz-adv-x="0" 
d="M186 1153h-180l203 277h256z" />
    <glyph glyph-name="uni0302" unicode="&#x302;" horiz-adv-x="0" 
d="M37 1153h-180l227 277h213l109 -277h-160l-70 154z" />
    <glyph glyph-name="tildecomb" unicode="&#x303;" horiz-adv-x="0" 
d="M78 1409q55 0 99.5 -38t66.5 -38q47 0 98 88l107 -82q-96 -164 -199 -163q-57 0 -100.5 38t-65.5 37q-55 0 -100 -88l-105 82q96 164 199 164z" />
    <glyph glyph-name="uni0304" unicode="&#x304;" horiz-adv-x="0" 
d="M383 1212h-471l33 160h471z" />
    <glyph glyph-name="uni0306" unicode="&#x306;" horiz-adv-x="0" 
d="M158 1169q-100 0 -154.5 50.5t-54.5 140.5q0 4 4 53h127v-16q0 -47 20.5 -64.5t63.5 -17.5q100 0 137 98h131q-49 -244 -274 -244z" />
    <glyph glyph-name="uni0307" unicode="&#x307;" horiz-adv-x="0" 
d="M248 1174h-217l49 237h217z" />
    <glyph glyph-name="uni0308" unicode="&#x308;" horiz-adv-x="0" 
d="M381 1174h-195l50 237h194zM92 1174h-194l49 237h194z" />
    <glyph glyph-name="uni030A" unicode="&#x30a;" horiz-adv-x="0" 
d="M104 1327q0 -65 62 -65q29 0 51.5 22.5t22.5 53t-17.5 48t-46.5 17.5t-50.5 -22.5t-21.5 -53.5zM160 1153q-78 0 -126 46t-48 121t59 133t137 58t126 -46t48 -120.5t-59 -133t-137 -58.5z" />
    <glyph glyph-name="uni030B" unicode="&#x30b;" horiz-adv-x="0" 
d="M332 1153h-162l203 277h237zM27 1153h-162l203 277h237z" />
    <glyph glyph-name="uni030C" unicode="&#x30c;" horiz-adv-x="0" 
d="M244 1153h-213l-109 277h160l68 -154l141 154h180z" />
    <glyph glyph-name="uni0312" unicode="&#x312;" horiz-adv-x="0" 
d="M248 1174h-217l32 167l130 132h86l-91 -111h99z" />
    <glyph glyph-name="uni0326" unicode="&#x326;" horiz-adv-x="0" 
d="M-199 -387h-86l107 111h-101l41 188h218l-33 -168z" />
    <glyph glyph-name="uni0327" unicode="&#x327;" horiz-adv-x="0" 
d="M-178 -317q-186 0 -187 108q0 14 5 39h151q-6 -18 -6 -33q0 -33 41 -33q66 0 65 82q0 37 -57 37h-18l30 146h101l-31 -109q127 0 127 -90q0 -84 -54 -115.5t-167 -31.5z" />
    <glyph glyph-name="uni0328" unicode="&#x328;" horiz-adv-x="0" 
d="M-125 -317q-184 0 -184 129q0 117 188 200l103 -10q-111 -74 -111 -152q0 -43 63 -43q37 0 86 21l-26 -127q-58 -18 -119 -18z" />
    <glyph glyph-name="uni0335" unicode="&#x335;" horiz-adv-x="0" 
d="M240 621h-439l41 192h439z" />
    <glyph glyph-name="uni0336" unicode="&#x336;" horiz-adv-x="0" 
d="M451 625h-857l39 184h856z" />
    <glyph glyph-name="uni0337" unicode="&#x337;" horiz-adv-x="0" 
d="M420 1040l-748 -1106l-92 70l748 1106z" />
    <glyph glyph-name="uni0338" unicode="&#x338;" horiz-adv-x="0" 
d="M553 1425l-915 -1486l-109 69l917 1487z" />
    <glyph glyph-name="uni0394" unicode="&#x394;" 
d="M543 1174l-346 -979h276zM-90 0l539 1434h311l-72 -1434h-778z" />
    <glyph glyph-name="uni03A9" unicode="&#x3a9;" horiz-adv-x="815" 
d="M76 510q0 88 22 190l90 428q33 154 126 240t240 86t237 -75t90 -212q0 -53 -13 -110l-80 -373q-37 -166 -96 -274t-164 -205h154l-43 -205h-309l41 213q121 158 172 391l104 490q6 31 6 53q0 102 -105 102t-132 -131l-113 -530q-31 -152 -31 -227t29 -164l-37 -197h-309
l43 205h180q-102 152 -102 305z" />
    <glyph glyph-name="uni03BC" unicode="&#x3bc;" horiz-adv-x="802" 
d="M231 -20q-8 0 -45 4l-63 -301h-217l289 1361h221l-156 -727q-8 -31 -8 -63q0 -82 80 -82q100 0 131 145l153 727h222l-220 -1044h-188l19 109q-84 -129 -218 -129z" />
    <glyph glyph-name="pi" unicode="&#x3c0;" horiz-adv-x="897" 
d="M252 0h-217l182 860h-119l39 184h844l-39 -184h-119l-182 -860h-217l182 860h-172z" />
    <glyph glyph-name="uni0401" unicode="&#x401;" horiz-adv-x="735" 
d="M588 0h-615l306 1434h614l-45 -205h-383l-80 -379h303l-43 -205h-303l-94 -440h383zM850 1542h-195l50 238h194zM561 1542h-194l49 238h194z" />
    <glyph glyph-name="uni0404" unicode="&#x404;" horiz-adv-x="780" 
d="M556 1454q148 0 229 -71.5t81 -204.5q0 -53 -12 -109l-10 -47h-217l18 84q6 25 6 47q0 96 -100 96t-129 -121l-60 -278h228l-43 -205h-230l-67 -317q-6 -25 -6 -45q0 -98 105 -98.5t128 116.5l31 152h215l-33 -158q-63 -315 -350 -315q-158 0 -241 71.5t-83 206.5
q0 49 13 107l166 774q68 315 361 315z" />
    <glyph glyph-name="uni0406" unicode="&#x406;" horiz-adv-x="397" 
d="M203 0h-230l306 1434h229z" />
    <glyph glyph-name="uni0407" unicode="&#x407;" horiz-adv-x="397" 
d="M203 0h-230l306 1434h229zM655 1542h-194l49 238h195zM367 1542h-195l49 238h195z" />
    <glyph glyph-name="uni0410" unicode="&#x410;" horiz-adv-x="823" 
d="M545 1174l-248 -699h197zM-88 0l539 1434h311l-72 -1434h-229l20 281h-254l-98 -281h-217z" />
    <glyph glyph-name="uni0411" unicode="&#x411;" horiz-adv-x="804" 
d="M346 205q119 0 150 143l41 189q6 31 6 51q0 78 -82 78h-115l-98 -461h98zM330 0h-357l306 1434h595l-45 -205h-364l-76 -359h109q135 0 207 -66t71 -188q0 -49 -12 -104l-33 -166q-35 -176 -132 -261t-269 -85z" />
    <glyph glyph-name="uni0412" unicode="&#x412;" horiz-adv-x="833" 
d="M369 205q121 0 151 149l27 125q10 57 10 91q0 75 -119 75h-96l-94 -440h121zM465 850q137 0 172 160l16 77q8 41 9 60q0 82 -93 82h-104l-80 -379h80zM352 0h-379l306 1434h327q291 0 291 -236q0 -47 -12 -102l-13 -60q-27 -127 -73.5 -192.5t-130.5 -83.5v-2
q117 -55 116 -203q0 -47 -12 -98l-27 -125q-35 -170 -130 -251t-263 -81z" />
    <glyph glyph-name="uni0413" unicode="&#x413;" horiz-adv-x="684" 
d="M205 0h-232l306 1434h575l-45 -205h-344z" />
    <glyph glyph-name="uni0414" unicode="&#x414;" horiz-adv-x="987" 
d="M305 205h252l219 1024h-190l-207 -873q-23 -90 -74 -151zM412 1434h637l-263 -1229h111l-84 -398h-229l41 193h-484l-41 -193h-229l84 398h108q55 47 84 155z" />
    <glyph glyph-name="uni0415" unicode="&#x415;" horiz-adv-x="735" 
d="M588 0h-615l306 1434h614l-45 -205h-383l-80 -379h303l-43 -205h-303l-94 -440h383z" />
    <glyph glyph-name="uni0416" unicode="&#x416;" horiz-adv-x="1257" 
d="M1186 1434h244l-377 -531l71 -903h-215l-43 680l-129 -176l-106 -504h-225l110 520l-47 152l-322 -672h-239l459 922l-146 512h219l142 -609l129 609h225l-127 -594z" />
    <glyph glyph-name="uni0417" unicode="&#x417;" horiz-adv-x="765" 
d="M315 -20q-157 0 -241 72t-84 204q0 51 12 113l18 84h216l-25 -117q-6 -29 -6 -51q0 -100 110 -101q102 0 134 148l28 139q10 57 10 76q0 98 -112 98h-84l43 205h74q145 0 178 160l18 86q6 27 6 51q0 102 -102 102q-92 0 -121 -121l-25 -106h-215l25 113q70 319 350 319
q150 0 235 -71t85 -201q0 -59 -15 -115l-6 -27q-29 -130 -83 -198t-146 -90v-2q123 -57 123 -207q0 -33 -10 -90l-35 -156q-72 -317 -355 -317z" />
    <glyph glyph-name="uni0418" unicode="&#x418;" horiz-adv-x="874" 
d="M279 508l469 926h237l-305 -1434h-201l193 915l-461 -915h-238l306 1434h200z" />
    <glyph glyph-name="uni0419" unicode="&#x419;" horiz-adv-x="874" 
d="M279 508l469 926h237l-305 -1434h-201l193 915l-461 -915h-238l306 1434h200zM672 1538q-100 0 -154.5 50t-54.5 141q0 4 4 53h127v-17q0 -47 20.5 -64.5t63.5 -17.5q100 0 137 99h131q-49 -244 -274 -244z" />
    <glyph glyph-name="uni041A" unicode="&#x41a;" horiz-adv-x="847" 
d="M772 1434h246l-387 -539l82 -895h-228l-55 616l-137 -190l-90 -426h-230l306 1434h229l-125 -588z" />
    <glyph glyph-name="uni041B" unicode="&#x41b;" horiz-adv-x="937" 
d="M-8 -2q-35 0 -70 8l27 195q4 -2 26 -2q74 0 114 38t61 123l262 1074h637l-306 -1434h-229l260 1229h-188l-209 -873q-45 -188 -133 -273t-252 -85z" />
    <glyph glyph-name="uni041C" unicode="&#x41c;" horiz-adv-x="1101" 
d="M174 0h-201l306 1434h315l-72 -1041l371 1041h324l-306 -1434h-217l232 1085l-400 -1085h-184l64 1085z" />
    <glyph glyph-name="uni041D" unicode="&#x41d;" horiz-adv-x="864" 
d="M203 0h-230l306 1434h229l-125 -584h238l124 584h230l-305 -1434h-230l138 645h-238z" />
    <glyph glyph-name="uni041E" unicode="&#x41e;" 
d="M360 184q92 0 121 127l166 785q6 27 6 51q0 102 -112 102q-94 0 -123 -129l-166 -784q-6 -29 -6 -49q-1 -103 114 -103zM348 -20q-156 0 -244 74.5t-88 213.5q0 49 13 105l161 757q33 158 126.5 241t241.5 83t236.5 -74.5t88.5 -214.5q0 -51 -13 -106l-161 -758
q-70 -321 -361 -321z" />
    <glyph glyph-name="uni041F" unicode="&#x41f;" horiz-adv-x="860" 
d="M205 0h-232l306 1434h692l-305 -1434h-230l260 1229h-231z" />
    <glyph glyph-name="uni0420" unicode="&#x420;" horiz-adv-x="794" 
d="M465 788q123 0 149 144l35 168q6 31 6 51q0 78 -82 78h-108l-92 -441h92zM608 1434q135 0 207 -67t72 -187q0 -49 -13 -105l-30 -145q-37 -178 -133.5 -262t-268.5 -84h-114l-123 -584h-232l306 1434h329z" />
    <glyph glyph-name="uni0421" unicode="&#x421;" horiz-adv-x="780" 
d="M340 -20q-158 0 -241 71.5t-83 206.5q0 49 13 107l166 774q69 315 361 315q148 0 229 -71.5t81 -204.5q0 -53 -12 -109l-25 -119h-217l33 156q6 25 6 47q0 96 -100 96t-129 -121l-172 -800q-6 -25 -6 -45q0 -98 105 -98.5t128 116.5l45 223h215l-47 -229
q-63 -315 -350 -315z" />
    <glyph glyph-name="uni0422" unicode="&#x422;" horiz-adv-x="749" 
d="M379 0h-229l260 1229h-236l45 205h701l-46 -205h-235z" />
    <glyph glyph-name="uni0423" unicode="&#x423;" horiz-adv-x="802" 
d="M138 -20q-110 0 -169 32l37 187q35 -14 84 -15q115 0 160 101l10 20l-39 1129h225l7 -748l307 748h223l-518 -1203q-59 -135 -138 -193t-189 -58z" />
    <glyph glyph-name="uni0424" unicode="&#x424;" horiz-adv-x="1142" 
d="M713 367q125 0 149 143l88 428q6 31 6 51q0 78 -82 78h-73l-150 -700h62zM350 367h76l149 700h-63q-125 0 -150 -143l-88 -428q-6 -31 -6 -52q0 -77 82 -77zM315 162q-135 0 -207 66t-71 188q0 49 12 104l84 406q37 178 133 262t269 84h83l35 162h226l-35 -162h65
q135 0 207 -67t72 -187q0 -49 -12 -105l-84 -405q-38 -178 -134 -262t-268 -84h-82l-35 -162h-225l35 162h-68z" />
    <glyph glyph-name="uni0425" unicode="&#x425;" horiz-adv-x="827" 
d="M139 0h-231l424 750l-103 684h228l55 -453l246 453h233l-405 -717l108 -717h-227l-59 489z" />
    <glyph glyph-name="uni0426" unicode="&#x426;" horiz-adv-x="917" 
d="M743 -193h-229l41 193h-582l306 1434h231l-262 -1229h231l262 1229h230l-262 -1229h118z" />
    <glyph glyph-name="uni0427" unicode="&#x427;" horiz-adv-x="831" 
d="M340 506q-110 0 -171 57q-62 57 -63 170q0 49 13 107l127 594h229l-123 -582q-6 -31 -6 -57q0 -84 84 -84q131 0 164 168l119 555h229l-305 -1434h-229l120 569q-78 -63 -188 -63z" />
    <glyph glyph-name="uni0428" unicode="&#x428;" horiz-adv-x="1224" 
d="M844 205l262 1229h229l-305 -1434h-1057l306 1434h231l-262 -1229h184l262 1229h228l-263 -1229h185z" />
    <glyph glyph-name="uni0429" unicode="&#x429;" horiz-adv-x="1284" 
d="M1335 1434l-262 -1229h119l-84 -400h-229l41 195h-947l306 1434h229l-262 -1229h186l262 1229h228l-263 -1229h185l262 1229h229z" />
    <glyph glyph-name="uni042A" unicode="&#x42a;" horiz-adv-x="892" 
d="M438 205q61 0 96 33q34 33 52 110l49 209q6 31 6 51q0 78 -82 78h-108l-103 -481h90zM416 0h-340l260 1229h-162l45 205h391l-116 -543h98q135 0 207 -67t71 -187q0 -49 -12 -105l-41 -186q-37 -176 -134 -261t-267 -85z" />
    <glyph glyph-name="uni042B" unicode="&#x42b;" horiz-adv-x="1187" 
d="M336 205q61 0 95 32.5t52 110.5l49 209q6 31 7 51q0 78 -82 78h-107l-102 -481h88zM993 0h-229l305 1434h229zM313 0h-340l306 1434h231l-117 -543h96q135 0 207 -66.5t72 -187.5q0 -49 -12 -105l-41 -186q-37 -176 -134.5 -261t-267.5 -85z" />
    <glyph glyph-name="uni042C" unicode="&#x42c;" horiz-adv-x="790" 
d="M336 205q61 0 95 33t52 110l49 209q6 31 7 51q0 78 -82 78h-107l-102 -481h88zM313 0h-340l306 1434h231l-117 -543h96q135 0 207 -67t72 -187q0 -49 -12 -105l-41 -186q-37 -176 -135 -261t-267 -85z" />
    <glyph glyph-name="uni042D" unicode="&#x42d;" horiz-adv-x="784" 
d="M539 1454q147 0 229 -74t82 -204q0 -49 -12 -107l-166 -776q-68 -313 -369 -313q-147 0 -230 74t-83 204q0 49 12 104l21 91h215l-27 -127q-6 -24 -6 -58t31 -59t79 -25q98 0 127 117l74 344h-227l43 205h227l55 256q6 25 7 45q1 98 -105 98t-131 -119l-25 -108h-215
l25 117q64 315 369 315z" />
    <glyph glyph-name="uni042E" unicode="&#x42e;" horiz-adv-x="1234" 
d="M1069 1147q0 102 -113 102q-96 0 -122 -129l-166 -784q-6 -29 -6 -49q0 -102 114 -103q92 0 121 127l166 785q6 29 6 51zM974.5 1454q148.5 0 236 -74.5t87.5 -214.5q0 -51 -12 -106l-162 -758q-70 -322 -360 -321q-156 0 -244 74.5t-88 213.5q0 49 12 105l58 272h-162
l-137 -645h-230l306 1434h229l-125 -584h164l59 280q33 158 126.5 241t242 83z" />
    <glyph glyph-name="uni042F" unicode="&#x42f;" horiz-adv-x="829" 
d="M528 819h52l86 410h-88q-119 0 -150 -144l-27 -122q-4 -20 -4 -43q0 -101 131 -101zM176 938q0 51 8 86l13 63q37 179 133 263t268 84h342l-305 -1434h-229l131 614h-52q-162 0 -200 -184l-56 -262q-26 -127 -55 -168h-235q45 80 65 182l53 252q53 250 213 297l19 6
q-113 51 -113 201z" />
    <glyph glyph-name="uni0430" unicode="&#x430;" horiz-adv-x="761" 
d="M293 166q94 0 127 125l45 215q-18 -18 -123 -66q-135 -61 -135 -190q0 -84 86 -84zM446 1065q293 0 293 -248q0 -68 -14 -127l-86 -416q-39 -180 -35 -274h-205q-6 12 7 100q-80 -121 -216 -120q-98 0 -155.5 60t-57.5 163q1 274 307 382q142 50 178.5 73t47.5 63l6 31
q6 27 6 49q0 78 -85 78t-107 -111l-11 -49h-208l14 59q67 287 321 287z" />
    <glyph glyph-name="uni0431" unicode="&#x431;" horiz-adv-x="778" 
d="M453 811q-92 0 -127 -123l-82 -379q-6 -27 -6 -49q0 -88 98 -88q84 0 108 115l84 389q6 31 7 53q0 82 -82 82zM551 1004q101 0 157 -56t56 -157q0 -43 -14 -115l-84 -393q-31 -147 -119 -225t-227 -78t-221 68q-81 69 -81 198q0 49 13 104l121 559q54 272 241 375
q59 33 90 44q31 12 49 18t118 34t194 74l-43 -211q-51 -24 -157 -52t-163 -67q-74 -47 -100 -176l-4 -18q74 74 174 74z" />
    <glyph glyph-name="uni0432" unicode="&#x432;" horiz-adv-x="800" 
d="M344 184q152 0 152 166q0 86 -111 86h-98l-54 -252h111zM399 621q86 -1 127 39t41 126q0 74 -84 74h-106l-51 -239h73zM324 0h-351l222 1044h319q274 0 274 -225t-182 -287v-4q102 -43 103 -186q0 -342 -385 -342z" />
    <glyph glyph-name="uni0433" unicode="&#x433;" horiz-adv-x="604" 
d="M195 0h-222l222 1044h493l-39 -184h-272z" />
    <glyph glyph-name="uni0434" unicode="&#x434;" horiz-adv-x="919" 
d="M283 184h215l143 676h-147l-140 -547q-20 -88 -71 -129zM324 1044h577l-182 -860h102l-80 -377h-221l41 193h-424l-41 -193h-221l80 377h104q53 41 76 131z" />
    <glyph glyph-name="uni0435" unicode="&#x435;" horiz-adv-x="765" 
d="M545 782q0 90 -94 90.5t-121 -116.5l-23 -109h213l19 88q6 27 6 47zM453 1065q140 0 223.5 -70.5t83.5 -199.5q0 -47 -12 -103l-46 -217h-432l-34 -162q-6 -31 -7 -53q0 -88 107 -88q88 0 115 119l10 47h211l-10 -49q-64 -309 -348 -309q-142 0 -223 70.5t-81 199.5
q0 49 13 106l86 404q31 147 117.5 226t226.5 79z" />
    <glyph glyph-name="uni0436" unicode="&#x436;" horiz-adv-x="1187" 
d="M1014 1044h256l-320 -401l105 -643h-211l-60 481l-120 -145l-72 -336h-217l74 350l-48 123l-254 -473h-239l383 666l-144 378h215l136 -462l98 462h217l-88 -419z" />
    <glyph glyph-name="uni0437" unicode="&#x437;" horiz-adv-x="743" 
d="M291 -20q-141 0 -225 64t-84 183q0 43 8 74l8 37h207l-6 -33q-4 -37 -4 -39q1 -42 29 -68t81 -26q96 0 123 117l6 26q4 20 4 45q0 96 -125 97h-71l37 172h77q164 0 164 143q0 53 -22 77q-23 24 -74 23q-98 0 -123 -104l-6 -27h-207l14 70q57 254 336 254q307 0 307 -258
q0 -100 -57 -172t-149 -88v-4q117 -47 116 -183q0 -43 -8 -77l-6 -29q-29 -134 -119 -204t-231 -70z" />
    <glyph glyph-name="uni0438" unicode="&#x438;" horiz-adv-x="821" 
d="M256 408l360 636h232l-221 -1044h-197l131 631l-356 -631h-232l222 1044h196z" />
    <glyph glyph-name="uni0439" unicode="&#x439;" horiz-adv-x="821" 
d="M256 408l360 636h232l-221 -1044h-197l131 631l-356 -631h-232l222 1044h196zM569 1169q-100 0 -154.5 50.5t-54.5 140.5q0 4 5 53h127v-16q0 -47 20 -64.5t63 -17.5q100 0 138 98h131q-50 -244 -275 -244z" />
    <glyph glyph-name="uni043A" unicode="&#x43a;" horiz-adv-x="806" 
d="M633 1044h256l-330 -399l115 -645h-221l-74 428l-125 -152l-59 -276h-222l224 1044h221l-86 -405z" />
    <glyph glyph-name="uni043B" unicode="&#x43b;" horiz-adv-x="872" 
d="M23 -6q-68 0 -99 14l25 185q29 -4 51 -5q98 0 129 119l190 737h580l-221 -1044h-221l180 848h-145l-148 -580q-71 -274 -321 -274z" />
    <glyph glyph-name="uni043C" unicode="&#x43c;" horiz-adv-x="1097" 
d="M506 352l305 692h313l-221 -1044h-209l168 788l-348 -788h-164l-16 788l-168 -788h-193l222 1044h297z" />
    <glyph glyph-name="uni043D" unicode="&#x43d;" horiz-adv-x="813" 
d="M532 639l86 405h222l-222 -1044h-221l97 455h-203l-96 -455h-222l222 1044h221l-86 -405h202z" />
    <glyph glyph-name="uni043E" unicode="&#x43e;" horiz-adv-x="765" 
d="M319 172q93 0 117 115l99 450q6 25 6 47q0 88 -93.5 88t-117.5 -114l-99 -451q-6 -25 -6 -47q1 -88 94 -88zM319 -20q-143 0 -226 71.5t-83 198.5q0 53 10 100l91 412q63 303 335 303q143 0 226.5 -71.5t83.5 -198.5q0 -53 -11 -101l-90 -411q-64 -303 -336 -303z" />
    <glyph glyph-name="uni043F" unicode="&#x43f;" horiz-adv-x="802" 
d="M195 1044h634l-221 -1044h-221l182 860h-192l-182 -860h-222z" />
    <glyph glyph-name="uni0440" unicode="&#x440;" horiz-adv-x="792" 
d="M559 793q0 80 -87 79.5t-122 -116.5l-88 -418q-6 -37 -6 -57q0 -109 98 -109q78 0 103 115l96 452q6 29 6 54zM575 1065q100 0 156.5 -55.5t56.5 -157.5q0 -43 -14 -115l-102 -483q-59 -274 -269 -274q-139 0 -194 112l-86 -409h-221l286 1361h189l-17 -106
q80 127 215 127z" />
    <glyph glyph-name="uni0441" unicode="&#x441;" horiz-adv-x="741" 
d="M307 -20q-137 0 -218 67.5t-81 194.5q0 47 12 102l91 422q31 143 116.5 221t221.5 78t216 -66.5t80 -193.5q0 -49 -12 -105l-8 -34h-211l16 77q6 27 7 48q0 82 -91.5 81.5t-113.5 -108.5l-99 -463q-6 -27 -6 -49q0 -80 90 -80t113 109l12 57h213l-12 -59
q-31 -143 -115 -221t-221 -78z" />
    <glyph glyph-name="uni0442" unicode="&#x442;" horiz-adv-x="724" 
d="M362 0h-221l183 860h-226l39 184h672l-39 -184h-225z" />
    <glyph glyph-name="uni0443" unicode="&#x443;" horiz-adv-x="749" 
d="M50 -338q-104 0 -161 37l39 180q49 -25 112 -24.5t97 79.5l19 46l-23 1064h217l-12 -716l283 716h215l-498 -1165q-51 -115 -117.5 -166t-170.5 -51z" />
    <glyph glyph-name="uni0444" unicode="&#x444;" horiz-adv-x="1058" 
d="M590 184q70 0 98 26t43 103l92 435l4 36q0 76 -77 76h-41l-144 -676h25zM309 184h39l144 676h-23q-69 0 -97 -26t-44 -103l-92 -434l-5 -37q0 -76 78 -76zM287 0q-125 0 -200 71t-75 187q0 31 11 82l81 381q41 182 127 253t261 70h36l86 390h222l-84 -390h20
q125 0 200 -70t75 -188q0 -31 -11 -81l-82 -381q-41 -182 -127 -253t-260 -71h-37l-67 -317h-221l67 317h-22z" />
    <glyph glyph-name="uni0445" unicode="&#x445;" horiz-adv-x="770" 
d="M139 0h-233l360 551l-119 493h224l61 -311l186 311h234l-342 -522l125 -522h-223l-68 344z" />
    <glyph glyph-name="uni0446" unicode="&#x446;" horiz-adv-x="856" 
d="M678 -193h-221l41 193h-525l222 1044h221l-183 -860h193l182 860h221l-182 -860h111z" />
    <glyph glyph-name="uni0447" unicode="&#x447;" horiz-adv-x="772" 
d="M282 379q-101 0 -156 53q-54 53 -54 156q0 61 14 117l74 339h223l-72 -327q-8 -31 -8 -64q0 -82 80 -82q94 1 125 146l70 327h221l-221 -1044h-222l97 455q-70 -76 -171 -76z" />
    <glyph glyph-name="uni0448" unicode="&#x448;" horiz-adv-x="1198" 
d="M1004 0h-1031l222 1044h221l-183 -860h185l182 860h221l-182 -860h182l183 860h221z" />
    <glyph glyph-name="uni0449" unicode="&#x449;" horiz-adv-x="1251" 
d="M1073 -193h-221l41 193h-920l222 1044h221l-183 -860h185l182 860h221l-182 -860h182l183 860h221l-183 -860h111z" />
    <glyph glyph-name="uni044A" unicode="&#x44a;" horiz-adv-x="894" 
d="M457 197q71 0 111 55t40 144t-90 89h-106l-62 -288h107zM440 0h-354l182 860h-170l39 184h391l-75 -362h82q153 0 223 -70t70 -234t-105 -272q-105 -106 -283 -106z" />
    <glyph glyph-name="uni044B" unicode="&#x44b;" horiz-adv-x="1171" 
d="M406 485h-107l-61 -288h106q70 0 111 55t41 144t-90 89zM977 0h-221l221 1044h221zM422 682q152 0 222.5 -69.5t70.5 -234.5t-104.5 -271.5t-282.5 -106.5h-355l222 1044h221l-76 -362h82z" />
    <glyph glyph-name="uni044C" unicode="&#x44c;" horiz-adv-x="782" 
d="M406 485h-107l-61 -288h106q70 0 111 55t41 144t-90 89zM422 682q152 0 222 -70t71 -234q-1 -164 -105 -272q-104 -106 -282 -106h-355l222 1044h221l-76 -362h82z" />
    <glyph glyph-name="uni044D" unicode="&#x44d;" horiz-adv-x="755" 
d="M426 1065q152 0 232 -71t81 -199q0 -49 -12 -107l-86 -403q-31 -147 -118 -227t-227 -78q-140 0 -223 70t-83 200q0 41 12 88h209q-10 -51 -10 -76q0 -90 96 -90t123 117l35 168h-199l37 172h199l22 102q6 31 6 53q0 88 -106 88q-84 0 -111 -118l-6 -27h-213l6 29
q68 309 336 309z" />
    <glyph glyph-name="uni044E" unicode="&#x44e;" horiz-adv-x="1173" 
d="M948 784q0 88 -93 88t-118 -114l-98 -451q-6 -25 -6 -47q0 -88 93 -88t118 115l98 450q6 25 6 47zM854 1065q143 0 226 -71.5t83 -198.5q0 -53 -10 -101l-90 -411q-63 -303 -336 -303q-143 0 -226 71.5t-83 198.5q0 53 10 100l23 105h-168l-97 -455h-219l221 1044h220
l-86 -405h170l26 123q64 303 336 303z" />
    <glyph glyph-name="uni044F" unicode="&#x44f;" 
d="M459 596h69l56 264h-86q-74 0 -118 -41t-44 -108q0 -115 123 -115zM121 715q0 330 385 329h340l-221 -1044h-224l88 412h-71q-150 0 -182 -158l-25 -121q-22 -102 -47 -133h-232q41 74 58 145l24 113q27 125 72 185.5t137 78.5v4q-102 53 -102 189z" />
    <glyph glyph-name="uni0451" unicode="&#x451;" horiz-adv-x="765" 
d="M545 782q0 90 -94 90.5t-121 -116.5l-23 -109h213l19 88q6 27 6 47zM453 1065q140 0 223.5 -70.5t83.5 -199.5q0 -47 -12 -103l-46 -217h-432l-34 -162q-6 -31 -7 -53q0 -88 107 -88q88 0 115 119l10 47h211l-10 -49q-64 -309 -348 -309q-142 0 -223 70.5t-81 199.5
q0 49 13 106l86 404q31 147 117.5 226t226.5 79zM569 1174l49 237h195l-49 -237h-195zM330 1411h194l-49 -237h-194z" />
    <glyph glyph-name="uni0454" unicode="&#x454;" horiz-adv-x="741" 
d="M227 252q0 -80 90 -80t113 109l12 57h213l-12 -59q-31 -143 -115 -221t-221 -78t-218 67.5t-81 194.5q0 47 12 102l91 422q31 143 116.5 221t221.5 78t216 -66.5t80 -193.5q0 -35 -6 -78h-213q10 47 11 64q0 82 -91.5 81.5t-113.5 -108.5l-29 -135h199l-37 -172h-199
l-33 -156q-6 -27 -6 -49z" />
    <glyph glyph-name="uni0456" unicode="&#x456;" horiz-adv-x="389" 
d="M195 0h-222l222 1044h221zM442 1174h-217l49 237h218z" />
    <glyph glyph-name="uni0457" unicode="&#x457;" horiz-adv-x="389" 
d="M195 0h-222l222 1044h221zM575 1174h-194l49 237h195zM287 1174h-195l49 237h195z" />
    <glyph glyph-name="uni0490" unicode="&#x490;" horiz-adv-x="684" 
d="M205 0h-232l306 1434h344l41 192h229l-84 -397h-344z" />
    <glyph glyph-name="uni0491" unicode="&#x491;" horiz-adv-x="604" 
d="M195 0h-222l222 1044h272l41 193h221l-80 -377h-272z" />
    <glyph glyph-name="uni1E02" unicode="&#x1e02;" horiz-adv-x="833" 
d="M369 205q121 0 151 149l27 125q10 57 10 91q0 75 -119 75h-96l-94 -440h121zM465 850q137 0 172 160l16 77q8 41 9 60q0 82 -93 82h-104l-80 -379h80zM352 0h-379l306 1434h327q291 0 291 -236q0 -47 -12 -102l-13 -60q-27 -127 -73.5 -192.5t-130.5 -83.5v-2
q117 -55 116 -203q0 -47 -12 -98l-27 -125q-35 -170 -130 -251t-263 -81zM717 1542h-217l49 238h217z" />
    <glyph glyph-name="uni1E03" unicode="&#x1e03;" horiz-adv-x="794" 
d="M561 793q0 80 -80 79q-106 0 -137 -147l-78 -369q-8 -41 -8 -75q0 -109 98 -109q78 0 103 115l96 452q6 29 6 54zM577 1065q101 0 157.5 -55.5t56.5 -157.5q0 -43 -15 -115l-102 -483q-59 -274 -268 -274q-86 0 -142.5 47t-70.5 129l-64 -156h-160l303 1434h222l-95 -449
q77 80 178 80zM350 1780h217l-49 -238h-217z" />
    <glyph glyph-name="uni1E0A" unicode="&#x1e0a;" horiz-adv-x="837" 
d="M348 205q119 0 154 147l160 746q6 33 6 55q0 76 -86 76h-117l-217 -1024h100zM342 0h-369l306 1434h331q141 0 215 -67t74 -189q0 -47 -12 -107l-154 -725q-37 -178 -131 -262t-260 -84zM723 1542h-217l49 238h217z" />
    <glyph glyph-name="uni1E0B" unicode="&#x1e0b;" horiz-adv-x="792" 
d="M311 172q106 0 138 147l79 375q8 35 9 70q0 109 -101 108q-78 0 -102 -114l-96 -453q-6 -27 -7 -53q0 -80 80 -80zM2 193q0 43 14 114l103 484q59 274 268 274q146 0 197 -117l104 486h221l-245 -1160q-39 -180 -35 -274h-205q-8 14 6 106q-80 -127 -215 -126
q-100 0 -156.5 55t-56.5 158zM709 1542l49 238h217l-49 -238h-217z" />
    <glyph glyph-name="uni1E1E" unicode="&#x1e1e;" horiz-adv-x="704" 
d="M205 0h-232l306 1434h595l-45 -205h-364l-84 -400h285l-43 -204h-285zM707 1542h-218l50 238h217z" />
    <glyph glyph-name="uni1E1F" unicode="&#x1e1f;" horiz-adv-x="542" 
d="M588 1262q-66 0 -84 -84l-29 -134h156l-39 -184h-156l-184 -860h-219l184 860h-119l39 184h119l39 185q49 225 262 225q94 0 158 -35l-37 -180q-49 23 -90 23zM473 1780h217l-49 -238h-217z" />
    <glyph glyph-name="uni1E40" unicode="&#x1e40;" horiz-adv-x="1101" 
d="M174 0h-201l306 1434h315l-72 -1041l371 1041h324l-306 -1434h-217l232 1085l-400 -1085h-184l64 1085zM877 1542h-218l50 238h217z" />
    <glyph glyph-name="uni1E41" unicode="&#x1e41;" horiz-adv-x="1214" 
d="M993 1065q100 0 154.5 -53.5t54.5 -155.5q0 -61 -14 -117l-158 -739h-221l156 727q8 31 8 64q0 81 -83 81t-120 -112q0 -4 -4 -21l-158 -739h-221l156 727q8 31 8 64q0 82 -80 81q-100 0 -131 -145l-154 -727h-221l219 1044h189l-19 -108q84 129 217 129q164 0 201 -137
q80 137 221 137zM684 1411h217l-49 -237h-217z" />
    <glyph glyph-name="uni1E56" unicode="&#x1e56;" horiz-adv-x="794" 
d="M465 788q123 0 149 144l35 168q6 31 6 51q0 78 -82 78h-108l-92 -441h92zM608 1434q135 0 207 -67t72 -187q0 -49 -13 -105l-30 -145q-37 -178 -133.5 -262t-268.5 -84h-114l-123 -584h-232l306 1434h329zM717 1542h-217l49 238h217z" />
    <glyph glyph-name="uni1E57" unicode="&#x1e57;" horiz-adv-x="792" 
d="M559 793q0 80 -87 79.5t-122 -116.5l-88 -418q-6 -37 -6 -57q0 -109 98 -109q78 0 103 115l96 452q6 29 6 54zM575 1065q100 0 156.5 -55.5t56.5 -157.5q0 -43 -14 -115l-102 -483q-59 -274 -269 -274q-139 0 -194 112l-86 -409h-221l286 1361h189l-17 -106
q80 127 215 127zM483 1411h217l-49 -237h-217z" />
    <glyph glyph-name="uni1E60" unicode="&#x1e60;" horiz-adv-x="759" 
d="M303 -20q-309 0 -309 266q0 68 14 127l10 49h215l-16 -88q-6 -31 -6 -55q0 -94 106 -95q139 0 140 201q0 129 -125 272q-170 193 -170 380t100 302t275 115q307 0 307 -264q0 -47 -17 -129l-6 -27h-215l12 62q6 35 7 61q0 92 -103 92q-66 0 -99.5 -51t-33.5 -135
q0 -123 125 -266q170 -201 170 -391t-102 -310q-103 -116 -279 -116zM702 1528h-217l50 237h217z" />
    <glyph glyph-name="uni1E61" unicode="&#x1e61;" horiz-adv-x="700" 
d="M-12 225q0 48 14 107h211l-8 -35q-6 -27 -6 -49q0 -82 82 -82q53 0 82.5 37t29.5 84t-27.5 83t-96.5 84t-118.5 106.5t-50 185t90 223t226.5 96.5t207.5 -62.5t71.5 -173.5q0 -35 -10 -92h-205q8 47 8 70q0 70 -71 70q-47 0 -75 -34t-28 -81t30 -83t95.5 -83t83.5 -66
q35 -29 62.5 -88t27.5 -123q0 -139 -94 -239t-238.5 -100t-219 65.5t-74.5 179.5zM592 1174h-217l49 237h217z" />
    <glyph glyph-name="uni1E6A" unicode="&#x1e6a;" horiz-adv-x="749" 
d="M379 0h-229l260 1229h-236l45 205h701l-46 -205h-235zM700 1542h-217l49 238h218z" />
    <glyph glyph-name="uni1E6B" unicode="&#x1e6b;" horiz-adv-x="559" 
d="M379 172q27 0 63 10l-24 -186q-49 -16 -135 -16t-146.5 50t-60.5 142q0 39 8 70l131 618h-119l39 184h129l80 283h193l-60 -283h156l-39 -184h-158l-129 -606l-4 -29q0 -53 76 -53zM401 1673h217l-49 -237h-217z" />
    <glyph glyph-name="Wgrave" unicode="&#x1e80;" horiz-adv-x="1140" 
d="M362 0h-299l162 1434h217l-139 -1123l346 1123h246l-133 -1123l340 1123h203l-449 -1434h-285l107 985zM901 1522h-160l-159 276h235z" />
    <glyph glyph-name="wgrave" unicode="&#x1e81;" horiz-adv-x="1107" 
d="M352 0h-280l69 1044h211l-55 -751l264 751h219l-59 -751l268 751h203l-377 -1044h-266l41 643zM807 1153h-160l-160 277h236z" />
    <glyph glyph-name="Wacute" unicode="&#x1e82;" horiz-adv-x="1140" 
d="M362 0h-299l162 1434h217l-139 -1123l346 1123h246l-133 -1123l340 1123h203l-449 -1434h-285l107 985zM836 1522h-181l203 276h256z" />
    <glyph glyph-name="wacute" unicode="&#x1e83;" horiz-adv-x="1107" 
d="M352 0h-280l69 1044h211l-55 -751l264 751h219l-59 -751l268 751h203l-377 -1044h-266l41 643zM741 1153h-180l203 277h256z" />
    <glyph glyph-name="Wdieresis" unicode="&#x1e84;" horiz-adv-x="1140" 
d="M362 0h-299l162 1434h217l-139 -1123l346 1123h246l-133 -1123l340 1123h203l-449 -1434h-285l107 985zM1030 1542h-194l49 238h194zM741 1542h-194l49 238h195z" />
    <glyph glyph-name="wdieresis" unicode="&#x1e85;" horiz-adv-x="1107" 
d="M352 0h-280l69 1044h211l-55 -751l264 751h219l-59 -751l268 751h203l-377 -1044h-266l41 643zM936 1174h-195l50 237h194zM647 1174h-194l49 237h194z" />
    <glyph glyph-name="uni1E9E" unicode="&#x1e9e;" horiz-adv-x="843" 
d="M803 625q0 -55 -12 -117l-33 -162q-37 -176 -132 -261t-259 -85h-74l43 205h51q109 0 139 143l41 191q6 29 6 47q0 80 -92 80h-47l37 190l229 373h-235l-260 -1229h-232l306 1434h690l-43 -211l-240 -385q117 -59 117 -213z" />
    <glyph glyph-name="Ygrave" unicode="&#x1ef2;" horiz-adv-x="811" 
d="M408 0h-230l131 610l-96 824h229l39 -535l273 535h233l-448 -824zM731 1522h-160l-159 276h235z" />
    <glyph glyph-name="ygrave" unicode="&#x1ef3;" horiz-adv-x="749" 
d="M50 -338q-104 0 -161 37l39 180q49 -25 112 -24.5t97 79.5l19 46l-23 1064h217l-12 -716l283 716h215l-498 -1165q-51 -115 -117.5 -166t-170.5 -51zM621 1153h-160l-160 277h236z" />
    <glyph glyph-name="uni2002" unicode="&#x2002;" horiz-adv-x="614" 
 />
    <glyph glyph-name="uni2003" unicode="&#x2003;" horiz-adv-x="1024" 
 />
    <glyph glyph-name="uni2007" unicode="&#x2007;" 
 />
    <glyph glyph-name="uni2008" unicode="&#x2008;" horiz-adv-x="409" 
 />
    <glyph glyph-name="uni200B" unicode="&#x200b;" horiz-adv-x="0" 
 />
    <glyph glyph-name="figuredash" unicode="&#x2012;" 
d="M821 532h-819l35 164h819z" />
    <glyph glyph-name="endash" unicode="&#x2013;" horiz-adv-x="614" 
d="M616 532h-614l35 164h614z" />
    <glyph glyph-name="emdash" unicode="&#x2014;" horiz-adv-x="1024" 
d="M1026 532h-1024l35 164h1024z" />
    <glyph glyph-name="quoteleft" unicode="&#x2018;" horiz-adv-x="409" 
d="M381 1434h111l-140 -246h76l-47 -225h-225l41 202z" />
    <glyph glyph-name="quoteright" unicode="&#x2019;" horiz-adv-x="409" 
d="M317 963h-110l139 245h-76l47 226h226l-41 -203z" />
    <glyph glyph-name="quotesinglbase" unicode="&#x201a;" horiz-adv-x="409" 
d="M29 -246h-111l139 246h-75l47 225h225l-41 -202z" />
    <glyph glyph-name="quotedblleft" unicode="&#x201c;" horiz-adv-x="712" 
d="M684 1434h111l-140 -246h76l-47 -225h-225l41 202zM381 1434h111l-140 -246h76l-47 -225h-225l41 202z" />
    <glyph glyph-name="quotedblright" unicode="&#x201d;" horiz-adv-x="712" 
d="M621 963h-111l139 245h-76l48 226h225l-41 -203zM317 963h-110l139 245h-76l47 226h226l-41 -203z" />
    <glyph glyph-name="quotedblbase" unicode="&#x201e;" horiz-adv-x="712" 
d="M332 -246h-111l139 246h-75l47 225h225l-41 -202zM29 -246h-111l139 246h-75l47 225h225l-41 -202z" />
    <glyph glyph-name="dagger" unicode="&#x2020;" 
d="M358 -199h-204l225 1057h-262l41 195h262l82 381h205l-82 -381h262l-41 -195h-262z" />
    <glyph glyph-name="daggerdbl" unicode="&#x2021;" horiz-adv-x="843" 
d="M371 -199h-205l82 381h-262l41 195h262l102 481h-262l41 195h262l82 381h205l-82 -381h262l-41 -195h-262l-102 -481h262l-41 -195h-262z" />
    <glyph glyph-name="bullet" unicode="&#x2022;" horiz-adv-x="614" 
d="M316 457q-66 0 -108 40q-42 39 -42 105t53 116t121 50t107 -40q40 -40 40 -104t-52 -116q-53 -51 -119 -51z" />
    <glyph glyph-name="ellipsis" unicode="&#x2026;" horiz-adv-x="1024" 
d="M856 0h-225l47 225h225zM514 0h-225l47 225h225zM172 0h-225l47 225h225z" />
    <glyph glyph-name="perthousand" unicode="&#x2030;" horiz-adv-x="1673" 
d="M1338 106q69 0 83 82l76 349l4 28q1 68 -69 68t-84 -82l-74 -348l-4 -31q-1 -66 68 -66zM814 106q69 0 83 82l76 349l4 28q0 68 -70 68t-84 -82l-73 -348l-5 -31q0 -66 69 -66zM1339 -23q-100 -1 -156 47t-57 134q0 41 9 71l69 328q45 205 230 205q102 0 156 -48t55 -134
q0 -39 -9 -70l-71 -328q-46 -205 -226 -205zM815 -23q-101 -1 -157 47t-56 134q0 41 8 71l70 328q45 205 229 205q103 0 157 -48t54 -134q0 -39 -8 -70l-72 -328q-45 -205 -225 -205zM323 795q69 0 83 82l75 348l4 28q1 68 -69 68t-84 -82l-74 -348l-4 -31q0 -65 69 -65z
M260 0h-147l858 1434h149zM324 666q-100 0 -157 47q-56 47 -56 133q0 41 8 72l69 327q45 205 230 205q102 0 156 -48t55 -134q0 -39 -8 -70l-72 -328q-45 -204 -225 -204z" />
    <glyph glyph-name="guilsinglleft" unicode="&#x2039;" horiz-adv-x="399" 
d="M326 377h-160l-109 237l201 226h170l-178 -238z" />
    <glyph glyph-name="guilsinglright" unicode="&#x203a;" horiz-adv-x="399" 
d="M178 377h-170l176 237l-73 226h159l107 -238z" />
    <glyph glyph-name="fraction" unicode="&#x2044;" horiz-adv-x="190" 
d="M-219 0h-148l859 1434h149z" />
    <glyph glyph-name="uni2070" unicode="&#x2070;" horiz-adv-x="569" 
d="M359 827q69 0 83 82l111 514l4 29q0 68 -70 68t-84 -82l-108 -514l-4 -31q-1 -66 68 -66zM360 698q-100 0 -156 47t-57 134q0 41 9 71l104 494q45 205 229 205q103 0 157 -48t54 -135q0 -39 -8 -69l-106 -494q-46 -205 -226 -205z" />
    <glyph glyph-name="uni2074" unicode="&#x2074;" horiz-adv-x="571" 
d="M504 1380l-225 -368h141zM502 719h-146l35 164h-270l24 129l392 616h157l-131 -616h68l-27 -129h-67z" />
    <glyph glyph-name="uni2075" unicode="&#x2075;" horiz-adv-x="569" 
d="M489 1151q0 63 -71 63q-66 0 -80 -86l-4 -22h-137l137 522h381l-27 -129h-254l-55 -215q43 61 119 62q143 0 143 -148q0 -45 -8 -76l-45 -219q-44 -205 -226 -205q-205 0 -204 179q0 29 8 71l6 31h135l-10 -57l-4 -31q0 -63 69 -63t82 79l41 211l4 28v5z" />
    <glyph glyph-name="uni2076" unicode="&#x2076;" horiz-adv-x="567" 
d="M483 1104q0 63 -67 63t-84 -80l-33 -165q-2 -8 -2 -31q1 -64 67 -64t82 80l33 164l4 28v5zM360 698q-102 0 -155 47t-53 134q0 39 8 69l104 490q45 211 230 211q211 0 211 -183q0 -29 -7 -59h-139q6 31 6 51q0 61 -71 62q-66 0 -88 -103l-41 -182q53 61 129 61
q143 0 143 -143q0 -25 -10 -76l-37 -174q-46 -205 -230 -205z" />
    <glyph glyph-name="uni2077" unicode="&#x2077;" horiz-adv-x="569" 
d="M313 719h-157l401 780h-283l27 129h430l-24 -125z" />
    <glyph glyph-name="uni2078" unicode="&#x2078;" horiz-adv-x="567" 
d="M283 899q0 -72 77 -72t95 93l20 98q4 37 4 39q0 73 -77 73t-95 -94l-20 -98q-4 -37 -4 -39zM446 1257q74 0 91 86l14 72l4 31q0 74 -70 74t-88 -86l-14 -72l-4 -31q-1 -74 67 -74zM137 887q0 29 6 63l17 76q29 139 131 176v4q-55 43 -55 121q0 23 8 66l10 51
q39 205 240 205q96 0 151 -48t55 -139q0 -33 -6 -65l-10 -49q-29 -133 -125 -168v-4q61 -45 62 -132q0 -37 -9 -67l-16 -74q-45 -205 -238 -205q-102 0 -162 50t-59 139z" />
    <glyph glyph-name="uni2079" unicode="&#x2079;" horiz-adv-x="567" 
d="M367 1276l-5 -33q0 -63 69 -63t83 80l33 165q2 8 2 31q0 64 -68 64t-82 -80zM352 698q-211 0 -211 183q0 29 6 59h140q-6 -31 -6 -51q0 -61 71 -62q63 0 88 103l41 182q-51 -61 -129 -61q-143 0 -143 143q0 25 10 76l37 174q45 205 229 205q101 0 155 -47t54 -134
q0 -39 -8 -69l-104 -490q-46 -211 -230 -211z" />
    <glyph glyph-name="uni2080" unicode="&#x2080;" horiz-adv-x="569" 
d="M177 -25q69 0 83 82l111 514l4 29q0 68 -70 68t-84 -82l-108 -514l-4 -31q-1 -66 68 -66zM178 -154q-100 0 -156 48t-57 133q0 41 8 71l105 494q45 205 229 205q103 0 157 -48t54 -135q0 -39 -8 -69l-107 -494q-45 -205 -225 -205z" />
    <glyph glyph-name="uni2081" unicode="&#x2081;" horiz-adv-x="569" 
d="M264 -133h-145l147 694h-143l4 101q84 0 136 26t97 88h95z" />
    <glyph glyph-name="uni2082" unicode="&#x2082;" horiz-adv-x="569" 
d="M309 797q209 -1 209 -189q0 -96 -63 -187t-193 -196q-78 -59 -108 -100t-41 -92l-9 -37h273l-27 -129h-416l27 131q19 100 65 169t144 142q201 154 201 293q0 66 -66 66t-84 -84l-18 -90h-137l20 96q47 207 223 207z" />
    <glyph glyph-name="uni2083" unicode="&#x2083;" horiz-adv-x="569" 
d="M100 39q0 -63 70 -64q63 0 84 95l22 100q6 31 7 49q0 57 -70 57h-57l28 130h47q96 0 117 106l10 45q6 25 7 45q1 66 -67 66t-87 -80l-14 -66h-136l15 70q43 205 225 205q207 0 207 -176q0 -41 -8 -72l-6 -29q-16 -80 -50 -122t-94 -58v-4q72 -43 72 -133q0 -25 -8 -60
l-17 -92q-39 -205 -225 -205q-207 0 -207 174q0 45 8 76l13 56h137l-19 -80l-4 -28v-5z" />
    <glyph glyph-name="uni2084" unicode="&#x2084;" horiz-adv-x="569" 
d="M322 528l-226 -368h142zM319 -133h-145l35 164h-270l24 129l391 616h158l-131 -616h68l-27 -129h-68z" />
    <glyph glyph-name="uni2085" unicode="&#x2085;" horiz-adv-x="569" 
d="M307 299q0 63 -71 63q-63 0 -80 -86l-4 -22h-138l138 522h380l-26 -129h-254l-55 -215q43 61 118 62q143 0 144 -148q0 -45 -8 -76l-45 -219q-44 -205 -226 -205q-205 0 -205 179q0 29 9 71l6 31h135l-10 -57l-4 -31q0 -63 67 -63t84 79l41 211l4 28v5z" />
    <glyph glyph-name="uni2086" unicode="&#x2086;" horiz-adv-x="569" 
d="M303 252q1 63 -67 63t-84 -79l-33 -166q-2 -8 -2 -31q-1 -64 65 -64t84 80l33 164l4 28v5zM180 -154q-102 0 -155 48t-54 133q0 39 9 69l104 490q45 211 229 211q211 0 211 -183q0 -29 -6 -59h-139q6 31 6 51q0 61 -72 62q-66 0 -88 -103l-41 -182q53 61 129 61
q143 0 144 -143q0 -25 -11 -76l-36 -174q-46 -205 -230 -205z" />
    <glyph glyph-name="uni2087" unicode="&#x2087;" horiz-adv-x="569" 
d="M131 -133h-158l402 780h-283l27 129h430l-25 -125z" />
    <glyph glyph-name="uni2088" unicode="&#x2088;" horiz-adv-x="567" 
d="M102 47q0 -72 77 -72t95 93l21 98q4 37 4 39q0 74 -77 74t-95 -95l-21 -98q-4 -37 -4 -39zM266 406q74 0 90 86l15 71l4 31q0 74 -70 74t-88 -86l-14 -72l-4 -31q-1 -73 67 -73zM-43 35q0 29 6 63l17 76q29 139 131 176v4q-55 43 -56 121q0 23 8 66l11 51q39 205 239 205
q95 0 151 -48t56 -139q0 -33 -6 -65l-10 -49q-29 -133 -125 -168v-4q61 -47 61 -131q0 -37 -8 -68l-16 -74q-45 -205 -238 -205q-102 0 -162 50t-59 139z" />
    <glyph glyph-name="uni2089" unicode="&#x2089;" horiz-adv-x="569" 
d="M182 391q0 -63 69 -63t83 80l33 165q2 8 2 31q0 64 -68 64t-82 -80l-33 -164l-4 -28v-5zM172 -154q-211 0 -211 183q0 29 6 59h139q-6 -31 -6 -51q0 -61 72 -62q63 0 88 103l41 182q-51 -61 -129 -61q-143 0 -143 143q0 25 10 76l37 174q45 205 229 205q101 0 155 -47
t54 -134q0 -39 -8 -69l-105 -490q-45 -211 -229 -211z" />
    <glyph glyph-name="Euro" unicode="&#x20ac;" 
d="M375 -20q-156 0 -238 72t-82 204q0 45 15 117l43 200h-54l25 113h57l25 113h-57l22 112h53l45 217q68 326 353 326q154 0 236 -72t83 -200q0 -47 -16 -123l-8 -33h-215l14 70q6 31 6 55q0 98 -104 98q-94 0 -121 -131l-43 -207h315l-22 -112h-316l-24 -113h315l-25 -113
h-315l-51 -239q-6 -33 -6 -58q0 -92 99 -92t126 125l33 150h215l-33 -156q-67 -323 -350 -323z" />
    <glyph glyph-name="uni20B9" unicode="&#x20b9;" 
d="M406 641h-72l328 -641h-246l-328 641l33 174h205q178 0 196 135h-372l36 174h355q8 78 -27 107t-125 29h-172l37 174h704l-36 -174h-201q37 -72 39 -136h131l-37 -174h-111q-29 -145 -128 -227t-209 -82z" />
    <glyph glyph-name="uni20BD" unicode="&#x20bd;" 
d="M690 1153q0 76 -82 76h-84l-80 -379h68q118 0 147 133l23 109q8 43 8 61zM637 1434q279 0 278 -252q0 -51 -12 -111l-16 -80q-70 -346 -402 -346h-84l-34 -164h186l-45 -205h-184l-60 -276h-225l59 276h-112l45 205h110l35 164h-110l43 205h110l125 584h293z" />
    <glyph glyph-name="uni20BF" unicode="&#x20bf;" 
d="M549 552q0 73 -113 73h-67l-80 -369h80q126 0 157 150l13 53q10 57 10 93zM647 1102q0 76 -86 76h-76l-73 -349h39q143 0 178 160l10 49q8 43 8 64zM768 528q0 -49 -12 -100l-11 -45q-57 -270 -288 -320l-37 -176h-127l35 164h-119l-35 -164h-127l35 164h-143l43 205h81
l197 922h-82l43 204h144l30 144h127l-30 -144h118l31 144h127l-35 -162q145 -49 146 -209q0 -45 -13 -100l-6 -31q-23 -121 -71 -188.5t-132 -98.5v-4q111 -57 111 -205z" />
    <glyph glyph-name="uni2113" unicode="&#x2113;" horiz-adv-x="481" 
d="M286 172q48 0 91 14l-25 -190q-49 -16 -112 -16q-225 0 -226 188q0 43 9 74l253 1192h218l-252 -1180l-4 -35q0 -47 48 -47z" />
    <glyph glyph-name="uni2116" unicode="&#x2116;" horiz-adv-x="1351" 
d="M1243 348h-434l29 129h434zM1040 780q0 -69 73 -69t93 88l70 321q4 33 4 35q0 72 -84 72q-66 0 -84 -90l-68 -322q-4 -33 -4 -35zM1114 582q-104 0 -160.5 49t-56.5 139q0 43 8 74l62 295q45 215 239 215q104 0 160.5 -50.5t56.5 -140.5q0 -41 -8 -71l-63 -295
q-45 -215 -238 -215zM174 0h-201l306 1434h276l-16 -859l184 859h201l-306 -1434h-225l4 1047z" />
    <glyph glyph-name="uni2117" unicode="&#x2117;" horiz-adv-x="1515" 
d="M764 993v-256h74q84 0 84 105v47q0 104 -84 104h-74zM764 260h-156v877h238q231 0 231 -230v-84q0 -229 -231 -229h-82v-334zM800 123q248 0 406 168t158 427t-160 425q-156 168 -404 168t-408 -168q-159 -168 -159 -426t158 -428q160 -166 409 -166zM86 718
q0 316 203 526t510 210t510 -210t203 -526t-203 -528q-203 -210 -510 -210t-510 208q-203 214 -203 530z" />
    <glyph glyph-name="uni2120" unicode="&#x2120;" horiz-adv-x="1218" 
d="M791 705h-125v729h211l90 -463l88 463h211v-729h-136v555l-116 -555h-107l-116 555v-555zM375 688q-207 0 -207 184v46h137v-44q0 -68 68 -67q68 0 67 70q0 49 -26 79t-103 69q-79 40 -111 93t-32 137q0 83 53 137t149 54t148 -48q51 -48 51 -136v-23h-135v21
q0 68 -61 67q-61 0 -62 -65q0 -43 25 -70q24 -27 104 -73t111 -97t31 -139q0 -87 -54 -141t-153 -54z" />
    <glyph glyph-name="trademark" unicode="&#x2122;" horiz-adv-x="1222" 
d="M795 705h-125v729h211l90 -463l88 463h211v-729h-135v555l-117 -555h-107l-116 555v-555zM434 705h-143v598h-150v131h443v-131h-150v-598z" />
    <glyph glyph-name="uni2126" unicode="&#x2126;" horiz-adv-x="815" 
d="M76 510q0 88 22 190l90 428q33 154 126 240t240 86t237 -75t90 -212q0 -53 -13 -110l-80 -373q-37 -166 -96 -274t-164 -205h154l-43 -205h-309l41 213q121 158 172 391l104 490q6 31 6 53q0 102 -105 102t-132 -131l-113 -530q-31 -152 -31 -227t29 -164l-37 -197h-309
l43 205h180q-102 152 -102 305z" />
    <glyph glyph-name="estimated" unicode="&#x212e;" horiz-adv-x="1681" 
d="M399 739h961q14 0 14 15v401q0 18 -24 45q-86 100 -209 154t-260 55q-258 0 -475 -217q-23 -23 -23 -45v-393q0 -15 16 -15zM877 -20q-322 0 -551 217q-228 219 -228 521t228 519q229 217 552 217t547 -217q229 -217 230 -520v-19h-1256q-16 0 -16 -14v-395q0 -10 23 -43
q74 -106 200 -164t275 -57q299 0 499 245h115q-111 -138 -273 -214t-345 -76z" />
    <glyph glyph-name="uni2153" unicode="&#x2153;" horiz-adv-x="1331" 
d="M891 172q0 -63 70 -63q63 0 83 94l23 100q6 31 6 49q0 57 -69 58h-58l29 129h47q96 0 117 106l10 45q6 25 6 45q1 66 -67 66t-87 -80l-14 -66h-135l14 70q43 205 226 205q207 0 206 -176q0 -41 -8 -72l-6 -29q-16 -80 -49 -122t-94 -58v-4q72 -43 71 -133q0 -25 -8 -60
l-16 -92q-39 -204 -225 -204q-207 0 -207 174q0 45 8 75l12 56h137l-18 -80l-4 -28v-5zM406 524h-146l148 695h-144l4 100q84 0 136 26t98 89h94zM352 0h-147l858 1434h149z" />
    <glyph glyph-name="uni2154" unicode="&#x2154;" horiz-adv-x="1327" 
d="M887 172q0 -63 69 -63q63 0 84 94l23 100q6 31 6 49q0 57 -70 58h-57l29 129h47q96 0 117 106l10 45q6 25 6 45q1 66 -67 66t-87 -80l-14 -66h-135l14 70q43 205 225 205q207 0 207 -176q0 -41 -8 -72l-6 -29q-16 -80 -49 -122t-94 -58v-4q72 -43 71 -133q0 -25 -8 -60
l-16 -92q-40 -204 -226 -204q-207 0 -206 174q0 45 8 75l12 56h137l-18 -80l-4 -28v-5zM348 0h-147l858 1434h149zM449 1454q208 0 208 -188q0 -180 -230 -360q-105 -82 -135 -124t-40 -92l-8 -37h272l-27 -129h-415l26 131q20 100 66 169t143 143q201 154 201 293
q0 66 -66 65q-66 0 -84 -84l-18 -90h-137l20 96q47 207 224 207z" />
    <glyph glyph-name="oneeighth" unicode="&#x215b;" horiz-adv-x="1331" 
d="M893 180q0 -71 77 -71t95 92l20 98q4 37 5 39q0 74 -77 74t-95 -95l-21 -98q-4 -37 -4 -39zM1057 539q74 0 90 86l14 71l4 31q1 74 -69 74t-88 -86l-15 -72l-4 -31q0 -73 68 -73zM748 168q0 29 6 63l16 76q29 139 131 176v4q-55 43 -55 121q0 23 8 66l10 51
q39 205 240 205q96 0 151 -48t56 -139q0 -31 -6 -65l-11 -49q-29 -133 -125 -168v-4q61 -47 62 -131q0 -37 -8 -68l-17 -74q-45 -205 -237 -204q-102 0 -162 49q-59 49 -59 139zM406 524h-146l148 695h-144l4 100q84 0 136 26t98 89h94zM352 0h-147l858 1434h149z" />
    <glyph glyph-name="threeeighths" unicode="&#x215c;" horiz-adv-x="1329" 
d="M891 180q0 -71 77 -71t95 92l20 98q4 37 4 39q-1 74 -77 74t-95 -95l-20 -98q-4 -37 -4 -39zM1055 539q76 0 90 86l14 71l4 31q1 74 -69 74t-88 -86l-15 -72l-4 -31q0 -73 68 -73zM745 168q0 29 7 63l16 76q29 139 131 176v4q-55 43 -55 121q0 23 8 66l10 51
q39 205 240 205q96 0 151 -48t56 -139q0 -31 -6 -65l-11 -49q-29 -133 -125 -168v-4q61 -47 62 -131q0 -37 -8 -68l-17 -74q-45 -205 -237 -204q-102 0 -162 49t-60 139zM350 0h-147l858 1434h149zM240 696q0 -63 69 -63q63 0 84 94l23 100q6 31 6 50q0 57 -70 57h-57
l29 129h47q96 0 116 106l11 45q6 25 6 46q0 66 -68 66t-86 -81l-14 -65h-135l14 69q43 205 225 205q207 0 207 -176q0 -41 -8 -72l-6 -28q-16 -80 -49 -122t-95 -59v-4q72 -43 72 -133q0 -25 -8 -59l-16 -92q-40 -205 -226 -205q-207 0 -207 174q0 45 9 76l12 55h137
l-18 -80l-4 -28v-5z" />
    <glyph glyph-name="fiveeighths" unicode="&#x215d;" horiz-adv-x="1329" 
d="M891 180q0 -71 77 -71t95 92l20 98q4 37 4 39q-1 74 -77 74t-95 -95l-20 -98q-4 -37 -4 -39zM1055 539q76 0 90 86l14 71l4 31q1 74 -69 74t-88 -86l-15 -72l-4 -31q0 -73 68 -73zM745 168q0 29 7 63l16 76q29 139 131 176v4q-55 43 -55 121q0 23 8 66l10 51
q39 205 240 205q96 0 151 -48t56 -139q0 -31 -6 -65l-11 -49q-29 -133 -125 -168v-4q61 -47 62 -131q0 -37 -8 -68l-17 -74q-45 -205 -237 -204q-102 0 -162 49t-60 139zM350 0h-147l858 1434h149zM446 956q0 63 -71 64q-63 0 -80 -86l-4 -23h-137l137 523h381l-27 -129
h-254l-55 -215q43 61 119 61q143 0 143 -147q0 -45 -8 -76l-45 -219q-44 -205 -226 -205q-205 0 -204 178q0 29 8 72l6 30h135l-10 -57l-4 -31q0 -63 68 -63t83 80l41 211l4 27v5z" />
    <glyph glyph-name="seveneighths" unicode="&#x215e;" horiz-adv-x="1329" 
d="M891 180q0 -71 77 -71t95 92l20 98q4 37 4 39q-1 74 -77 74t-95 -95l-20 -98q-4 -37 -4 -39zM1055 539q76 0 90 86l14 71l4 31q1 74 -69 74t-88 -86l-15 -72l-4 -31q0 -73 68 -73zM745 168q0 29 7 63l16 76q29 139 131 176v4q-55 43 -55 121q0 23 8 66l10 51
q39 205 240 205q96 0 151 -48t56 -139q0 -31 -6 -65l-11 -49q-29 -133 -125 -168v-4q61 -47 62 -131q0 -37 -8 -68l-17 -74q-45 -205 -237 -204q-102 0 -162 49t-60 139zM350 0h-147l858 1434h149zM272 524h-157l401 781h-283l27 129h430l-24 -125z" />
    <glyph glyph-name="partialdiff" unicode="&#x2202;" horiz-adv-x="841" 
d="M305 309q0 -127 113 -127t121 137l16 254q10 145 -113 146q-109 0 -120 -137l-17 -254v-19zM477 1454q340 0 340 -334q0 -39 -2 -51l-51 -739q-12 -170 -101 -260t-250 -90t-248 85t-87 244q0 33 2 43l18 256q23 317 260 318q156 0 213 -131l19 274l2 37q0 76 -28 111
t-93 34q-111 0 -121 -139l-2 -35h-213l2 27q13 172 99 261t241 89z" />
    <glyph glyph-name="emptyset" unicode="&#x2205;" horiz-adv-x="1376" 
d="M727 238q184 0 305 133t121 336q0 139 -59 247l-611 -639q109 -77 244 -77zM727 1176q-184 0 -305 -134t-121 -335q0 -139 59 -248l611 639q-109 78 -244 78zM86 707q0 285 182 473t459 188q215 0 385 -123l117 123l139 -127l-125 -131q125 -168 125 -403
q0 -285 -182 -473t-459 -189q-217 0 -385 123l-117 -123l-139 127l125 131q-125 168 -125 404z" />
    <glyph glyph-name="uni2206" unicode="&#x2206;" 
d="M543 1174l-346 -979h276zM-90 0l539 1434h311l-72 -1434h-778z" />
    <glyph glyph-name="product" unicode="&#x220f;" horiz-adv-x="952" 
d="M367 -317h-226v1751h752v-1751h-225v1546h-301v-1546z" />
    <glyph glyph-name="summation" unicode="&#x2211;" horiz-adv-x="841" 
d="M854 -317h-741v200l374 678l-374 672v201h741v-205h-496l367 -670l-367 -672h496v-204z" />
    <glyph glyph-name="minus" unicode="&#x2212;" 
d="M784 535h-708v159h708v-159z" />
    <glyph glyph-name="uni2215" unicode="&#x2215;" 
d="M98 0h-176l881 1434h178z" />
    <glyph glyph-name="uni2219" unicode="&#x2219;" horiz-adv-x="450" 
d="M395 586h-262v262h262v-262z" />
    <glyph glyph-name="radical" unicode="&#x221a;" horiz-adv-x="968" 
d="M76 637v160h309l133 -629l295 1266h172l-375 -1567h-227l-170 770h-137z" />
    <glyph glyph-name="infinity" unicode="&#x221e;" horiz-adv-x="1312" 
d="M960 430q64 0 105 51t41 131t-41 132t-103 52t-98 -34q-35 -35 -104 -158q72 -110 104 -142t96 -32zM388 799q-64 0 -104 -51q-40 -52 -40 -132t40 -131t104 -51q66 0 105 38q38 38 93 153q-62 106 -98 140t-100 34zM379 268q-156 0 -233 102q-76 102 -76 245
q0 145 76 245t229 101q94 1 162 -45t129 -144h8q121 188 286 188q164 0 242 -102t78 -246t-77 -243q-77 -100 -228 -101q-94 0 -162 45t-129 144h-10q-115 -189 -295 -189z" />
    <glyph glyph-name="integral" unicode="&#x222b;" 
d="M266 -348q-86 0 -135 20v205q49 -23 92 -22q92 0 92 102v1288q0 141 72 216t203 75q86 0 135 -20v-203q-35 20 -92 20q-92 0 -92 -102v-1288q0 -141 -72 -216t-203 -75z" />
    <glyph glyph-name="approxequal" unicode="&#x2248;" 
d="M304 582q68 0 158 -58t123 -59q31 1 55 23t77 100l117 -88q-66 -113 -120 -159t-120 -46t-156 58q-92 59 -125 59t-57 -22t-76 -101l-117 88q66 113 120 159q53 46 121 46zM304 934q68 0 158 -58t123 -59q31 0 55 23t77 100l117 -88q-66 -113 -120 -159t-120 -46
q-66 1 -156 59q-92 58 -125 58t-57 -22t-76 -101l-117 88q66 113 120 159q53 46 121 46z" />
    <glyph glyph-name="notequal" unicode="&#x2260;" 
d="M96 369v159h203l102 172h-305v160h400l108 184h160l-109 -184h109v-160h-203l-102 -172h305v-159h-399l-109 -185h-160l109 185h-109z" />
    <glyph glyph-name="lessequal" unicode="&#x2264;" 
d="M735 213h-626v160h626v-160zM735 575v-163l-626 219v151l626 219v-163l-405 -131z" />
    <glyph glyph-name="greaterequal" unicode="&#x2265;" 
d="M752 213h-627v160h627v-160zM752 631l-627 -219v163l405 132l-405 131v163l627 -219v-151z" />
    <glyph glyph-name="lozenge" unicode="&#x25ca;" 
d="M266 717l185 -443l184 443l-184 442zM485 -20h-69l-334 737l334 737h69l334 -737z" />
    <glyph glyph-name="uniE0FF" unicode="&#xe0ff;" horiz-adv-x="1024" 
 />
    <glyph glyph-name="uniEFFD" unicode="&#xeffd;" horiz-adv-x="1024" 
 />
    <glyph glyph-name="uniF000" unicode="&#xf000;" horiz-adv-x="1024" 
 />
    <glyph glyph-name="uniF8FF" unicode="&#xf8ff;" horiz-adv-x="1298" 
d="M702 700h-122q-80 0 -124 -41t-44 -107t41 -106q47 -36 104 -40t104 44t41 125v125zM582 1012h120v237h320v-237h270v-312h-270v-122q0 -224 -129 -356t-337 -132t-339 127q-129 129 -129 334t132 333t362 128z" />
    <glyph glyph-name="_1" horiz-adv-x="0" 
 />
    <glyph glyph-name="CR.001" horiz-adv-x="681" 
 />
    <glyph glyph-name="NULL" horiz-adv-x="0" 
 />
    <glyph glyph-name="uni00A40301" horiz-adv-x="534" 
d="M72 -8q-104 0 -160 24l43 201q55 -18 94 -18q111 0 139 123l236 1112h231l-241 -1129q-68 -313 -342 -313zM596 1522h-180l202 276h256z" />
    <glyph glyph-name="i.loclTRK" horiz-adv-x="389" 
d="M195 0h-222l222 1044h221zM442 1174h-217l49 237h218z" />
    <glyph glyph-name="germandbls.calt" horiz-adv-x="843" 
d="M803 625q0 -55 -12 -117l-33 -162q-37 -176 -132 -261t-259 -85h-74l43 205h51q109 0 139 143l41 191q6 29 6 47q0 80 -92 80h-47l37 190l229 373h-235l-260 -1229h-232l306 1434h690l-43 -211l-240 -385q117 -59 117 -213z" />
    <glyph glyph-name="zero.tf" 
d="M360 184q92 0 121 127l166 785q6 27 6 51q0 102 -112 102q-94 0 -123 -129l-166 -784q-6 -29 -6 -49q-1 -103 114 -103zM348 -20q-156 0 -244 74t-88 214q0 49 13 105l161 757q33 158 126 241t242 83t237 -75t88 -214q0 -51 -13 -106l-161 -758q-70 -321 -361 -321z" />
    <glyph glyph-name="one.tf" 
d="M514 0h-231l239 1094h-235l18 159q141 0 217 39t137 142h166z" />
    <glyph glyph-name="two.tf" 
d="M653 1149q0 100 -103 100t-132 -127l-35 -168h-217l37 176q72 324 358 324q158 0 241 -72t83 -206q0 -49 -15 -115q-60 -267 -360 -495q-150 -114 -200 -176t-66 -138l-11 -47h431l-43 -205h-658l41 197q33 157 108 271q76 114 226 228t232 219q82 103 83 234z" />
    <glyph glyph-name="three.tf" 
d="M342 -20q-158 0 -242 72t-84 204q0 51 13 113l18 84h215l-24 -117q-6 -29 -7 -51q0 -100 111 -101q102 0 133 148l29 139q10 57 10 76q0 98 -113 98h-84l43 205h74q143 0 178 160l19 86q6 27 6 51q0 102 -102 102q-92 0 -121 -121l-25 -106h-215l25 113q72 319 350 319
q151 0 235 -71t84 -201q0 -59 -14 -115l-6 -27q-29 -130 -83 -198t-147 -90v-2q123 -57 123 -207q0 -33 -10 -90l-35 -156q-71 -317 -354 -317z" />
    <glyph glyph-name="four.tf" 
d="M567 1034l-346 -569h223zM578 0h-232l55 260h-430l41 205l615 969h256l-207 -969h106l-43 -205h-106z" />
    <glyph glyph-name="five.tf" 
d="M352 -20q-158 0 -240 72t-83 208q0 51 12 113l18 80h215l-24 -117q-6 -29 -6 -51q0 -100 114 -101q94 0 123 127l68 316q8 31 8 69t-28 65q-28 26 -70 25q-115 0 -148 -153h-215l215 801h596l-45 -205h-385l-98 -340q92 104 195 104q104 0 162 -62t59 -175
q0 -51 -17 -133l-69 -320q-72 -323 -357 -323z" />
    <glyph glyph-name="six.tf" 
d="M354 182q104 0 131 125l56 260q6 31 6 54q1 98 -103 98t-133 -127l-55 -260q-6 -29 -6 -51q0 -99 104 -99zM352 -20q-160 0 -244 74t-85 208q0 53 12 111l160 747q70 334 360 334q162 0 247 -73t85 -207q0 -47 -13 -107h-217q12 49 13 84q0 98 -117 98q-102 0 -135 -162
l-58 -270q82 107 197 107t173 -60t58 -172q0 -66 -14 -121l-59 -270q-74 -321 -363 -321z" />
    <glyph glyph-name="seven.tf" 
d="M285 0h-250l627 1229h-443l45 205h676l-41 -197z" />
    <glyph glyph-name="eight.tf" 
d="M358 184q109 0 140 148l30 139q6 31 7 55q0 113 -116 113t-147 -145l-28 -136q-6 -35 -6 -59q-1 -115 120 -115zM381 946q1 -106 109 -106t135 129l28 131q6 25 6 47q0 102 -108 102t-135 -125l-29 -131q-6 -27 -6 -47zM342 -20q-152 0 -244 74t-92 208q0 49 12 107
l27 125q45 211 207 274l2 4q-92 63 -92 191q0 45 12 100l16 80q72 311 371 311q150 0 238 -72t88 -204q0 -47 -13 -107l-16 -80q-39 -197 -199 -262v-4q98 -70 99 -203q0 -31 -10 -96l-29 -129q-72 -317 -377 -317z" />
    <glyph glyph-name="nine.tf" 
d="M354 811q0 -98 104 -98t132 127l55 260q6 27 6 51q0 98 -104 98t-131 -125l-56 -260q-6 -31 -6 -53zM346 -23q-164 0 -248 73t-84 208q0 49 13 107h217q-12 -49 -13 -84q0 -98 117 -99q102 0 135 162l58 270q-82 -106 -197 -106t-173 60t-58 171q0 66 14 121l59 270
q74 322 363 322q160 0 245 -74t85 -209q0 -51 -13 -110l-159 -748q-70 -334 -361 -334z" />
    <glyph glyph-name="zero.dnom" horiz-adv-x="569" 
d="M206 109q69 0 83 81l110 515l4 28q1 68 -69 68t-84 -82l-109 -514l-4 -31q0 -65 69 -65zM207 -20q-100 0 -157 47q-56 47 -56 133q0 41 8 71l104 494q45 205 230 205q102 0 156 -48t55 -134q0 -39 -8 -70l-107 -494q-45 -204 -225 -204z" />
    <glyph glyph-name="one.dnom" horiz-adv-x="569" 
d="M293 0h-146l148 694h-143l4 101q84 -1 136 25t97 89h94z" />
    <glyph glyph-name="two.dnom" horiz-adv-x="569" 
d="M338 930q209 0 209 -188q1 -96 -63 -188t-193 -196q-78 -59 -109 -100t-41 -92l-8 -37h273l-27 -129h-416l27 131q20 100 65 169t144 142q201 154 200 293q1 66 -65 66t-84 -84l-19 -90h-137l21 96q47 207 223 207z" />
    <glyph glyph-name="three.dnom" horiz-adv-x="569" 
d="M129 172q0 -63 70 -63q63 0 84 94l22 100q6 31 6 49q0 57 -69 58h-58l29 129h47q96 0 117 106l10 45q6 25 6 45q1 66 -67 66t-86 -80l-15 -66h-135l14 70q43 205 226 205q207 0 207 -176q0 -41 -9 -72l-6 -29q-16 -80 -49 -122t-94 -58v-4q72 -43 72 -133q0 -25 -9 -60
l-16 -92q-39 -204 -225 -204q-207 0 -207 174q0 45 8 75l12 56h138l-19 -80l-4 -28v-5z" />
    <glyph glyph-name="four.dnom" horiz-adv-x="569" 
d="M350 662l-225 -369h141zM348 0h-145l35 164h-271l25 129l391 616h158l-131 -616h67l-26 -129h-68z" />
    <glyph glyph-name="five.dnom" horiz-adv-x="569" 
d="M336 432q0 63 -72 64q-63 0 -80 -86l-4 -23h-137l137 522h381l-26 -129h-254l-56 -215q43 61 119 62q143 0 143 -148q0 -45 -8 -76l-45 -219q-43 -204 -225 -204q-205 0 -205 178q0 29 8 71l6 31h136l-11 -57l-4 -31q-1 -63 67 -63t85 79l41 211l4 28v5z" />
    <glyph glyph-name="six.dnom" horiz-adv-x="569" 
d="M332 385q0 63 -68 63t-84 -79l-33 -166q-2 -8 -2 -31q1 -63 67 -63t83 79l33 164l4 28v5zM209 -20q-102 0 -156 47q-53 47 -53 133q0 39 8 69l105 490q45 211 229 211q211 0 211 -182q0 -29 -6 -60h-139q6 31 6 51q0 61 -72 62q-66 0 -88 -103l-41 -182q53 61 129 62
q143 0 143 -144q0 -25 -10 -76l-37 -174q-45 -204 -229 -204z" />
    <glyph glyph-name="seven.dnom" horiz-adv-x="569" 
d="M160 0h-158l401 780h-282l26 129h431l-25 -125z" />
    <glyph glyph-name="eight.dnom" horiz-adv-x="569" 
d="M131 180q0 -71 77 -71t95 92l21 98q4 37 4 39q0 74 -77 74t-95 -95l-21 -98q-4 -37 -4 -39zM295 539q74 0 90 86l14 71l4 31q1 74 -69 74t-88 -86l-15 -72l-4 -31q0 -73 68 -73zM-14 168q0 29 6 63l16 76q29 139 131 176v4q-55 43 -55 121q0 23 8 66l10 51
q39 205 240 205q96 0 152 -48t55 -139q0 -31 -6 -65l-11 -49q-29 -133 -124 -168v-4q61 -47 61 -131q0 -37 -8 -68l-17 -74q-45 -205 -237 -204q-102 0 -162 49q-59 49 -59 139z" />
    <glyph glyph-name="nine.dnom" horiz-adv-x="569" 
d="M211 524q0 -63 69 -63t82 80l33 166q2 8 2 30q1 63 -67 63t-82 -79l-33 -164l-4 -28v-5zM201 -20q-211 0 -211 182q0 29 6 59h139q-6 -31 -6 -51q0 -61 72 -61q63 0 88 102l41 182q-51 -61 -129 -61q-143 0 -144 143q0 25 11 76l36 174q45 205 230 205q102 0 155 -47
t54 -133q0 -39 -8 -70l-105 -490q-45 -210 -229 -210z" />
    <glyph glyph-name="zero.numr" horiz-adv-x="569" 
d="M316 633q69 0 83 82l111 514l4 28q0 68 -70 68t-84 -82l-108 -514l-4 -31q-1 -65 68 -65zM317 504q-100 0 -156 47t-57 133q0 41 9 72l104 493q45 205 229 205q102 0 156 -48t55 -134q0 -39 -8 -70l-106 -493q-46 -205 -226 -205z" />
    <glyph glyph-name="one.numr" horiz-adv-x="571" 
d="M406 524h-146l148 695h-144l4 100q84 0 136 26t98 89h94z" />
    <glyph glyph-name="two.numr" horiz-adv-x="567" 
d="M449 1454q208 0 208 -188q0 -180 -230 -360q-105 -82 -135 -124t-40 -92l-8 -37h272l-27 -129h-415l26 131q20 100 66 169t143 143q201 154 201 293q0 66 -66 65q-66 0 -84 -84l-18 -90h-137l20 96q47 207 224 207z" />
    <glyph glyph-name="three.numr" horiz-adv-x="569" 
d="M240 696q0 -63 69 -63q63 0 84 94l23 100q6 31 6 50q0 57 -70 57h-57l29 129h47q96 0 116 106l11 45q6 25 6 46q0 66 -68 66t-86 -81l-14 -65h-135l14 69q43 205 225 205q207 0 207 -176q0 -41 -8 -72l-6 -28q-16 -80 -49 -122t-95 -59v-4q72 -43 72 -133q0 -25 -8 -59
l-16 -92q-40 -205 -226 -205q-207 0 -207 174q0 45 9 76l12 55h137l-18 -80l-4 -28v-5z" />
    <glyph glyph-name="four.numr" horiz-adv-x="571" 
d="M463 1186l-225 -369h141zM461 524h-146l35 164h-270l24 129l392 617h157l-131 -617h68l-27 -129h-67z" />
    <glyph glyph-name="five.numr" horiz-adv-x="569" 
d="M446 956q0 63 -71 64q-63 0 -80 -86l-4 -23h-137l137 523h381l-27 -129h-254l-55 -215q43 61 119 61q143 0 143 -147q0 -45 -8 -76l-45 -219q-44 -205 -226 -205q-205 0 -204 178q0 29 8 72l6 30h135l-10 -57l-4 -31q0 -63 68 -63t83 80l41 211l4 27v5z" />
    <glyph glyph-name="six.numr" horiz-adv-x="567" 
d="M442 909q0 63 -67 63t-84 -79l-33 -166q-2 -8 -2 -31q0 -63 66 -63t84 80l32 164l4 27v5zM319 504q-102 0 -155 47t-53 133q0 39 8 70l104 489q45 211 230 211q211 0 211 -182q0 -29 -7 -60h-139q6 31 6 52q0 61 -71 61q-66 0 -88 -102l-41 -183q53 61 129 62
q143 0 143 -144q0 -25 -10 -75l-37 -174q-46 -205 -230 -205z" />
    <glyph glyph-name="seven.numr" horiz-adv-x="569" 
d="M272 524h-157l401 781h-283l27 129h430l-24 -125z" />
    <glyph glyph-name="eight.numr" horiz-adv-x="567" 
d="M242 705q0 -72 77 -72t95 92l20 98q4 37 4 39q0 74 -77 74t-95 -94l-20 -99q-4 -37 -4 -38zM406 1063q74 0 90 86l14 72l4 30q0 74 -70 74t-88 -86l-14 -72l-4 -30q0 -74 68 -74zM96 692q0 29 6 64l17 75q29 139 131 177v4q-55 43 -55 121q0 23 8 65l10 51
q39 205 240 205q96 0 151 -48t55 -138q0 -31 -6 -66l-10 -49q-29 -133 -125 -168v-4q61 -47 62 -131q0 -37 -9 -68l-16 -73q-45 -205 -238 -205q-101 0 -161 49t-60 139z" />
    <glyph glyph-name="nine.numr" horiz-adv-x="567" 
d="M390 985q69 0 83 80l33 166q2 8 2 31q0 63 -68 63t-82 -80l-32 -164l-4 -27v-5q-1 -64 68 -64zM311 504q-211 0 -211 182q0 29 6 59h140q-6 -31 -6 -51q0 -61 71 -61q63 0 88 102l41 183q-51 -61 -129 -62q-143 0 -143 143q0 25 10 76l37 174q45 205 229 205
q102 0 156 -47t53 -133q0 -39 -8 -70l-104 -489q-46 -211 -230 -211z" />
    <glyph glyph-name="caroncomb.alt" horiz-adv-x="0" 
d="M117 1012h-97l105 213h-80l45 209h209l-39 -187z" />
    <glyph glyph-name="caron.alt" horiz-adv-x="1024" 
d="M629 1012h-97l105 213h-80l45 209h209l-39 -187z" />
    </font>
</defs>
</svg>
